solid 
facet normal -0.0 -1.0 -0.0
outer loop
vertex 403.225 0.0 12.7
vertex 0.0 0.0 12.7
vertex 0.0 0.0 0.0
endloop
endfacet
facet normal -0.0 -1.0 0.0
outer loop
vertex 403.225 0.0 0.0
vertex 403.225 0.0 12.7
vertex 0.0 0.0 0.0
endloop
endfacet
facet normal -0.0 0.0 -0.9999999999999999
outer loop
vertex 39.00356747676144 76.66878642371333 0.0
vertex 0.0 0.0 0.0
vertex 1.299495277635e-14 76.2 0.0
endloop
endfacet
facet normal -0.0 0.0 -1.0
outer loop
vertex 77.67708092029699 78.0711787538816 0.0
vertex 0.0 0.0 0.0
vertex 39.00356747676144 76.66878642371333 0.0
endloop
endfacet
facet normal -0.0 0.0 -1.0
outer loop
vertex 120.9729988002382 80.79541447720578 0.0
vertex 0.0 0.0 0.0
vertex 77.67708092029699 78.0711787538816 0.0
endloop
endfacet
facet normal -0.0 0.0 -1.0
outer loop
vertex 152.5964616730017 83.6080286348429 0.0
vertex 0.0 0.0 0.0
vertex 120.9729988002382 80.79541447720578 0.0
endloop
endfacet
facet normal -0.0 0.0 -0.9999999999999999
outer loop
vertex 183.27452489947532 87.06117537987477 0.0
vertex 0.0 0.0 0.0
vertex 152.5964616730017 83.6080286348429 0.0
endloop
endfacet
facet normal 0.0 0.0 -1.0
outer loop
vertex 403.225 0.0 0.0
vertex 264.8808844242274 100.42268452403398 0.0
vertex 281.9157656835289 104.16941484301498 0.0
endloop
endfacet
facet normal 0.0 0.0 -1.0
outer loop
vertex 403.225 0.0 0.0
vertex 241.04123276024004 95.79965598409052 0.0
vertex 264.8808844242274 100.42268452403398 0.0
endloop
endfacet
facet normal 0.0 0.0 -1.0
outer loop
vertex 403.225 0.0 0.0
vertex 212.81712489754727 91.1334610071293 0.0
vertex 241.04123276024004 95.79965598409052 0.0
endloop
endfacet
facet normal 0.0 0.0 -1.0
outer loop
vertex 403.225 0.0 0.0
vertex 183.27452489947532 87.06117537987477 0.0
vertex 212.81712489754727 91.1334610071293 0.0
endloop
endfacet
facet normal 0.0 0.0 -1.0
outer loop
vertex 403.225 0.0 0.0
vertex 0.0 0.0 0.0
vertex 183.27452489947532 87.06117537987477 0.0
endloop
endfacet
facet normal -0.0 -0.0 -1.0
outer loop
vertex 298.17416303826127 108.14427555814396 0.0
vertex 403.225 0.0 0.0
vertex 281.9157656835289 104.16941484301498 0.0
endloop
endfacet
facet normal -0.0 -0.0 -1.0
outer loop
vertex 313.6112957936329 112.33631866386787 0.0
vertex 403.225 0.0 0.0
vertex 298.17416303826127 108.14427555814396 0.0
endloop
endfacet
facet normal -0.0 -0.0 -1.0
outer loop
vertex 328.1846452735839 116.73399796662439 0.0
vertex 403.225 0.0 0.0
vertex 313.6112957936329 112.33631866386787 0.0
endloop
endfacet
facet normal -0.0 -0.0 -1.0
outer loop
vertex 340.38107758387554 120.8058992621918 0.0
vertex 403.225 0.0 0.0
vertex 328.1846452735839 116.73399796662439 0.0
endloop
endfacet
facet normal -0.0 -0.0 -1.0
outer loop
vertex 349.04365070911666 123.9548566420747 0.0
vertex 403.225 0.0 0.0
vertex 340.38107758387554 120.8058992621918 0.0
endloop
endfacet
facet normal -0.0 -0.0 -1.0
outer loop
vertex 357.27889154282497 127.18099503068304 0.0
vertex 403.225 0.0 0.0
vertex 349.04365070911666 123.9548566420747 0.0
endloop
endfacet
facet normal -0.0 -0.0 -1.0
outer loop
vertex 365.076717723297 130.4803646838871 0.0
vertex 403.225 0.0 0.0
vertex 357.27889154282497 127.18099503068304 0.0
endloop
endfacet
facet normal -0.0 -0.0 -1.0
outer loop
vertex 371.63317644842186 133.47135222939744 0.0
vertex 403.225 0.0 0.0
vertex 365.076717723297 130.4803646838871 0.0
endloop
endfacet
facet normal -0.0 -0.0 -1.0
outer loop
vertex 376.31492929740335 135.7487322830503 0.0
vertex 403.225 0.0 0.0
vertex 371.63317644842186 133.47135222939744 0.0
endloop
endfacet
facet normal -0.0 -0.0 -1.0
outer loop
vertex 380.79190592819526 138.05399917493935 0.0
vertex 403.225 0.0 0.0
vertex 376.31492929740335 135.7487322830503 0.0
endloop
endfacet
facet normal -0.0 -0.0 -1.0
outer loop
vertex 385.0616701410298 140.3858984668288 0.0
vertex 403.225 0.0 0.0
vertex 380.79190592819526 138.05399917493935 0.0
endloop
endfacet
facet normal -0.0 -0.0 -1.0
outer loop
vertex 389.1218984932265 142.74316122814741 0.0
vertex 403.225 0.0 0.0
vertex 385.0616701410298 140.3858984668288 0.0
endloop
endfacet
facet normal -0.0 -0.0 -1.0
outer loop
vertex 392.97038156352085 145.12450472649218 0.0
vertex 403.225 0.0 0.0
vertex 389.1218984932265 142.74316122814741 0.0
endloop
endfacet
facet normal -0.0 -0.0 -1.0
outer loop
vertex 396.60502515434695 147.52863312564233 0.0
vertex 403.225 0.0 0.0
vertex 392.97038156352085 145.12450472649218 0.0
endloop
endfacet
facet normal -0.0 -0.0 -1.0
outer loop
vertex 400.0238514314202 149.9542381907039 0.0
vertex 403.225 0.0 0.0
vertex 396.60502515434695 147.52863312564233 0.0
endloop
endfacet
facet normal -0.0 -0.0 -1.0
outer loop
vertex 403.225 152.4 0.0
vertex 403.225 0.0 0.0
vertex 400.0238514314202 149.9542381907039 0.0
endloop
endfacet
facet normal 1.0 0.0 0.0
outer loop
vertex 403.225 152.4 0.0
vertex 403.225 0.0 12.7
vertex 403.225 0.0 0.0
endloop
endfacet
facet normal 1.0 0.0 -0.0
outer loop
vertex 403.225 152.4 0.0
vertex 403.225 152.4 12.7
vertex 403.225 0.0 12.7
endloop
endfacet
facet normal 0.0 0.0 1.0
outer loop
vertex 56.43707124850697 77.18380267168331 12.7
vertex 6.497476388175e-15 76.2 12.7
vertex 0.0 0.0 12.7
endloop
endfacet
facet normal 0.0 0.0 1.0
outer loop
vertex 112.80254618885395 80.18441412321285 12.7
vertex 56.43707124850697 77.18380267168331 12.7
vertex 0.0 0.0 12.7
endloop
endfacet
facet normal 0.0 0.0 0.9999999999999999
outer loop
vertex 163.39869612928698 84.73906547538732 12.7
vertex 112.80254618885395 80.18441412321285 12.7
vertex 0.0 0.0 12.7
endloop
endfacet
facet normal 0.0 0.0 1.0
outer loop
vertex 403.225 0.0 12.7
vertex 191.7262083390137 88.14759166431408 12.7
vertex 163.39869612928698 84.73906547538732 12.7
endloop
endfacet
facet normal 0.0 0.0 1.0
outer loop
vertex 403.225 0.0 12.7
vertex 225.64955462410103 93.15447594162238 12.7
vertex 191.7262083390137 88.14759166431408 12.7
endloop
endfacet
facet normal 0.0 0.0 1.0
outer loop
vertex 403.225 0.0 12.7
vertex 251.24005030812455 97.69502174638093 12.7
vertex 225.64955462410103 93.15447594162238 12.7
endloop
endfacet
facet normal 0.0 0.0 1.0
outer loop
vertex 403.225 0.0 12.7
vertex 276.4218449995423 102.91711215027644 12.7
vertex 251.24005030812455 97.69502174638093 12.7
endloop
endfacet
facet normal 0.0 0.0 0.9999999999999999
outer loop
vertex 403.225 0.0 12.7
vertex 163.39869612928698 84.73906547538732 12.7
vertex 0.0 0.0 12.7
endloop
endfacet
facet normal 0.0 0.0 1.0
outer loop
vertex 301.4123176996817 108.98768353935625 12.7
vertex 276.4218449995423 102.91711215027644 12.7
vertex 403.225 0.0 12.7
endloop
endfacet
facet normal 0.0 0.0 0.9999999999999999
outer loop
vertex 323.1645589789345 115.1659624322325 12.7
vertex 301.4123176996817 108.98768353935625 12.7
vertex 403.225 0.0 12.7
endloop
endfacet
facet normal 0.0 0.0 1.0
outer loop
vertex 340.17150798931704 120.73252785508357 12.7
vertex 323.1645589789345 115.1659624322325 12.7
vertex 403.225 0.0 12.7
endloop
endfacet
facet normal 0.0 0.0 1.0
outer loop
vertex 352.7701245474755 125.38447094895912 12.7
vertex 340.17150798931704 120.73252785508357 12.7
vertex 403.225 0.0 12.7
endloop
endfacet
facet normal 0.0 0.0 1.0
outer loop
vertex 363.9391681802015 129.98262650441583 12.7
vertex 352.7701245474755 125.38447094895912 12.7
vertex 403.225 0.0 12.7
endloop
endfacet
facet normal 0.0 0.0 1.0
outer loop
vertex 372.83905121507576 134.045871262054 12.7
vertex 363.9391681802015 129.98262650441583 12.7
vertex 403.225 0.0 12.7
endloop
endfacet
facet normal 0.0 0.0 1.0
outer loop
vertex 380.1260039436124 137.70253568534645 12.7
vertex 372.83905121507576 134.045871262054 12.7
vertex 403.225 0.0 12.7
endloop
endfacet
facet normal 0.0 0.0 1.0
outer loop
vertex 386.5563931928066 141.2367140358227 12.7
vertex 380.1260039436124 137.70253568534645 12.7
vertex 403.225 0.0 12.7
endloop
endfacet
facet normal 0.0 0.0 1.0
outer loop
vertex 391.6540341516036 144.29237689567884 12.7
vertex 386.5563931928066 141.2367140358227 12.7
vertex 403.225 0.0 12.7
endloop
endfacet
facet normal 0.0 0.0 1.0
outer loop
vertex 396.2648442246168 147.29648315440917 12.7
vertex 391.6540341516036 144.29237689567884 12.7
vertex 403.225 0.0 12.7
endloop
endfacet
facet normal 0.0 0.0 1.0
outer loop
vertex 399.9060650967482 149.86767797726634 12.7
vertex 396.2648442246168 147.29648315440917 12.7
vertex 403.225 0.0 12.7
endloop
endfacet
facet normal 0.0 0.0 1.0
outer loop
vertex 401.57755493045755 151.11804764006058 12.7
vertex 399.9060650967482 149.86767797726634 12.7
vertex 403.225 0.0 12.7
endloop
endfacet
facet normal 0.0 0.0 1.0
outer loop
vertex 403.225 152.4 12.7
vertex 401.57755493045755 151.11804764006058 12.7
vertex 403.225 0.0 12.7
endloop
endfacet
facet normal -1.0 1.7053743800984253e-16 -5.116123140295276e-16
outer loop
vertex 0.0 0.0 0.0
vertex 6.497476388175e-15 76.2 12.7
vertex 1.299495277635e-14 76.2 0.0
endloop
endfacet
facet normal -1.0 8.526871900492126e-17 0.0
outer loop
vertex 0.0 0.0 0.0
vertex 0.0 0.0 12.7
vertex 6.497476388175e-15 76.2 12.7
endloop
endfacet
facet normal -0.6141215380879603 0.7892114649803802 0.0
outer loop
vertex 403.225 152.4 0.0
vertex 401.57755493045755 151.11804764006058 12.7
vertex 403.225 152.4 12.7
endloop
endfacet
facet normal -0.5990037860906272 0.8007461861849882 -9.777162462899644e-05
outer loop
vertex 400.0238514314202 149.9542381907039 0.0
vertex 399.9060650967482 149.86767797726634 12.7
vertex 401.57755493045755 151.11804764006058 12.7
endloop
endfacet
facet normal -0.6071086785801775 0.7946174766579767 0.0014553976572791885
outer loop
vertex 400.0238514314202 149.9542381907039 0.0
vertex 401.57755493045755 151.11804764006058 12.7
vertex 403.225 152.4 0.0
endloop
endfacet
facet normal -0.5768210552763734 0.8168703698707854 -0.0005186685043398417
outer loop
vertex 396.60502515434695 147.52863312564233 0.0
vertex 396.2648442246168 147.29648315440917 12.7
vertex 399.9060650967482 149.86767797726634 12.7
endloop
endfacet
facet normal -0.5786424793216232 0.8155812922023928 0.0001921822050315566
outer loop
vertex 396.60502515434695 147.52863312564233 0.0
vertex 399.9060650967482 149.86767797726634 12.7
vertex 400.0238514314202 149.9542381907039 0.0
endloop
endfacet
facet normal -0.545891648441172 0.837854088580125 -0.0016835711294899787
outer loop
vertex 392.97038156352085 145.12450472649218 0.0
vertex 391.6540341516036 144.29237689567884 12.7
vertex 396.2648442246168 147.29648315440917 12.7
endloop
endfacet
facet normal -0.5516832319841698 0.8340535904847305 0.000468771831892755
outer loop
vertex 392.97038156352085 145.12450472649218 0.0
vertex 396.2648442246168 147.29648315440917 12.7
vertex 396.60502515434695 147.52863312564233 0.0
endloop
endfacet
facet normal -0.5141330865240534 0.8577078036223948 -0.0021196571651000196
outer loop
vertex 389.1218984932265 142.74316122814741 0.0
vertex 386.5563931928066 141.2367140358227 12.7
vertex 391.6540341516036 144.29237689567884 12.7
endloop
endfacet
facet normal -0.5261863816342693 0.8503684508121043 0.0011788324973222247
outer loop
vertex 389.1218984932265 142.74316122814741 0.0
vertex 391.6540341516036 144.29237689567884 12.7
vertex 392.97038156352085 145.12450472649218 0.0
endloop
endfacet
facet normal -0.48165242114558515 0.8763600032707919 -0.0020223431492872785
outer loop
vertex 385.0616701410298 140.3858984668288 0.0
vertex 380.1260039436124 137.70253568534645 12.7
vertex 386.5563931928066 141.2367140358227 12.7
endloop
endfacet
facet normal -0.5020891161620616 0.8648151144721015 0.001156378919648776
outer loop
vertex 385.0616701410298 140.3858984668288 0.0
vertex 386.5563931928066 141.2367140358227 12.7
vertex 389.1218984932265 142.74316122814741 0.0
endloop
endfacet
facet normal -0.4793171595510631 0.877641355082015 -0.0008440436631116033
outer loop
vertex 380.79190592819526 138.05399917493935 0.0
vertex 380.1260039436124 137.70253568534645 12.7
vertex 385.0616701410298 140.3858984668288 0.0
endloop
endfacet
facet normal -0.4485052889073008 0.8937754358720851 -0.002911366318924917
outer loop
vertex 376.31492929740335 135.7487322830503 0.0
vertex 372.83905121507576 134.045871262054 12.7
vertex 380.1260039436124 137.70253568534645 12.7
endloop
endfacet
facet normal -0.4577910245656246 0.8890596251469598 0.0006006335848681021
outer loop
vertex 376.31492929740335 135.7487322830503 0.0
vertex 380.1260039436124 137.70253568534645 12.7
vertex 380.79190592819526 138.05399917493935 0.0
endloop
endfacet
facet normal -0.41531327857020045 0.9096768278988575 -0.0017173896307425334
outer loop
vertex 371.63317644842186 133.47135222939744 0.0
vertex 363.9391681802015 129.98262650441583 12.7
vertex 372.83905121507576 134.045871262054 12.7
endloop
endfacet
facet normal -0.4374299228674338 0.8992520964296362 0.0008541938275641267
outer loop
vertex 371.63317644842186 133.47135222939744 0.0
vertex 372.83905121507576 134.045871262054 12.7
vertex 376.31492929740335 135.7487322830503 0.0
endloop
endfacet
facet normal -0.41504170607901864 0.909801118763329 -0.0015187205182356986
outer loop
vertex 365.076717723297 130.4803646838871 0.0
vertex 363.9391681802015 129.98262650441583 12.7
vertex 371.63317644842186 133.47135222939744 0.0
endloop
endfacet
facet normal -0.3806851610126967 0.9246945046555295 -0.004345255412748842
outer loop
vertex 357.27889154282497 127.18099503068304 0.0
vertex 352.7701245474755 125.38447094895912 12.7
vertex 363.9391681802015 129.98262650441583 12.7
endloop
endfacet
facet normal -0.38966869907375745 0.9209543345338793 0.001191077421817729
outer loop
vertex 357.27889154282497 127.18099503068304 0.0
vertex 363.9391681802015 129.98262650441583 12.7
vertex 365.076717723297 130.4803646838871 0.0
endloop
endfacet
facet normal -0.34638094437838385 0.9380855726763602 -0.003962285704559406
outer loop
vertex 349.04365070911666 123.9548566420747 0.0
vertex 340.17150798931704 120.73252785508357 12.7
vertex 352.7701245474755 125.38447094895912 12.7
endloop
endfacet
facet normal -0.3647565871322752 0.9311002749673036 0.00221587441576488
outer loop
vertex 349.04365070911666 123.9548566420747 0.0
vertex 352.7701245474755 125.38447094895912 12.7
vertex 357.27889154282497 127.18099503068304 0.0
endloop
endfacet
facet normal -0.3416405991863904 0.9398306537617708 -0.00020793577529688037
outer loop
vertex 340.38107758387554 120.8058992621918 0.0
vertex 340.17150798931704 120.73252785508357 12.7
vertex 349.04365070911666 123.9548566420747 0.0
endloop
endfacet
facet normal -0.31106720198329313 0.9503713045777253 -0.005619544956458227
outer loop
vertex 328.1846452735839 116.73399796662439 0.0
vertex 323.1645589789345 115.1659624322325 12.7
vertex 340.17150798931704 120.73252785508357 12.7
endloop
endfacet
facet normal -0.3166773533619385 0.9485332831337645 0.0002542737891802195
outer loop
vertex 328.1846452735839 116.73399796662439 0.0
vertex 340.17150798931704 120.73252785508357 12.7
vertex 340.38107758387554 120.8058992621918 0.0
endloop
endfacet
facet normal -0.2888925494477002 0.9573531391014344 0.004007733304247491
outer loop
vertex 313.6112957936329 112.33631866386787 0.0
vertex 323.1645589789345 115.1659624322325 12.7
vertex 328.1846452735839 116.73399796662439 0.0
endloop
endfacet
facet normal -0.27321186808935244 0.961913597310639 -0.008803774419666847
outer loop
vertex 301.4123176996817 108.98768353935625 12.7
vertex 323.1645589789345 115.1659624322325 12.7
vertex 313.6112957936329 112.33631866386787 0.0
endloop
endfacet
facet normal -0.2620640198185893 0.9650466281756657 0.002730377867777104
outer loop
vertex 298.17416303826127 108.14427555814396 0.0
vertex 301.4123176996817 108.98768353935625 12.7
vertex 313.6112957936329 112.33631866386787 0.0
endloop
endfacet
facet normal -0.23748425722516978 0.9713833253991121 -0.003957613772480315
outer loop
vertex 281.9157656835289 104.16941484301498 0.0
vertex 301.4123176996817 108.98768353935625 12.7
vertex 298.17416303826127 108.14427555814396 0.0
endloop
endfacet
facet normal -0.23604613694523807 0.9717214679189359 -0.006293649076522961
outer loop
vertex 281.9157656835289 104.16941484301498 0.0
vertex 276.4218449995423 102.91711215027644 12.7
vertex 301.4123176996817 108.98768353935625 12.7
endloop
endfacet
facet normal -0.21480895644147918 0.9766502403114704 0.003379398181604876
outer loop
vertex 264.8808844242274 100.42268452403398 0.0
vertex 276.4218449995423 102.91711215027644 12.7
vertex 281.9157656835289 104.16941484301498 0.0
endloop
endfacet
facet normal -0.20304924929564624 0.9791374933293437 -0.007795608841115192
outer loop
vertex 251.24005030812455 97.69502174638093 12.7
vertex 276.4218449995423 102.91711215027644 12.7
vertex 264.8808844242274 100.42268452403398 0.0
endloop
endfacet
facet normal -0.19037139380676882 0.9816914769028522 0.006369976166750756
outer loop
vertex 241.04123276024004 95.79965598409052 0.0
vertex 251.24005030812455 97.69502174638093 12.7
vertex 264.8808844242274 100.42268452403398 0.0
endloop
endfacet
facet normal -0.17469842396292878 0.9845995298062565 -0.006650306020561275
outer loop
vertex 225.64955462410103 93.15447594162238 12.7
vertex 251.24005030812455 97.69502174638093 12.7
vertex 241.04123276024004 95.79965598409052 0.0
endloop
endfacet
facet normal -0.1631074592546578 0.9865774032038448 0.00780923959478377
outer loop
vertex 212.81712489754727 91.1334610071293 0.0
vertex 225.64955462410103 93.15447594162238 12.7
vertex 241.04123276024004 95.79965598409052 0.0
endloop
endfacet
facet normal -0.14600511111835307 0.9892343560461245 -0.009894258199915415
outer loop
vertex 191.7262083390137 88.14759166431408 12.7
vertex 225.64955462410103 93.15447594162238 12.7
vertex 212.81712489754727 91.1334610071293 0.0
endloop
endfacet
facet normal -0.13655072977252916 0.9906141067600763 0.006131042857946334
outer loop
vertex 183.27452489947532 87.06117537987477 0.0
vertex 191.7262083390137 88.14759166431408 12.7
vertex 212.81712489754727 91.1334610071293 0.0
endloop
endfacet
facet normal -0.11946217681783255 0.9928239024248855 -0.005430201079724232
outer loop
vertex 163.39869612928698 84.73906547538732 12.7
vertex 191.7262083390137 88.14759166431408 12.7
vertex 183.27452489947532 87.06117537987477 0.0
endloop
endfacet
facet normal -0.11185195086085768 0.9937026931886559 0.00664068055490558
outer loop
vertex 152.5964616730017 83.6080286348429 0.0
vertex 163.39869612928698 84.73906547538732 12.7
vertex 183.27452489947532 87.06117537987477 0.0
endloop
endfacet
facet normal -0.08965024801210252 0.9958956328132114 -0.01243871275261346
outer loop
vertex 112.80254618885395 80.18441412321285 12.7
vertex 163.39869612928698 84.73906547538732 12.7
vertex 152.5964616730017 83.6080286348429 0.0
endloop
endfacet
facet normal -0.08858738514646003 0.9960270866046473 -0.00907292360658308
outer loop
vertex 120.9729988002382 80.79541447720578 0.0
vertex 112.80254618885395 80.18441412321285 12.7
vertex 152.5964616730017 83.6080286348429 0.0
endloop
endfacet
facet normal -0.06279529886036543 0.9979973757143233 0.007615018605444474
outer loop
vertex 77.67708092029699 78.0711787538816 0.0
vertex 112.80254618885395 80.18441412321285 12.7
vertex 120.9729988002382 80.79541447720578 0.0
endloop
endfacet
facet normal -0.053149917972830495 0.9984032981184489 -0.019129572020438475
outer loop
vertex 56.43707124850697 77.18380267168331 12.7
vertex 112.80254618885395 80.18441412321285 12.7
vertex 77.67708092029699 78.0711787538816 0.0
endloop
endfacet
facet normal -0.03623698788571401 0.9993007006700075 0.009219021065311117
outer loop
vertex 39.00356747676144 76.66878642371333 0.0
vertex 56.43707124850697 77.18380267168331 12.7
vertex 77.67708092029699 78.0711787538816 0.0
endloop
endfacet
facet normal -0.01742679711177744 0.9997100216731875 -0.016618643404921096
outer loop
vertex 6.497476388175e-15 76.2 12.7
vertex 56.43707124850697 77.18380267168331 12.7
vertex 39.00356747676144 76.66878642371333 0.0
endloop
endfacet
facet normal -0.012018197250864992 0.9999277788594731 -6.148657705978346e-18
outer loop
vertex 1.299495277635e-14 76.2 0.0
vertex 6.497476388175e-15 76.2 12.7
vertex 39.00356747676144 76.66878642371333 0.0
endloop
endfacet

endsolid
