solid 
facet normal 2.2494397470889715e-16 -1.0 -3.256543809652282e-15
outer loop
vertex 252.70033987072023 5.6843418860809e-14 12.7
vertex 0.0 0.0 12.7
vertex 9.947598300641403e-14 4.1358106382584e-14 0.0
endloop
endfacet
facet normal 2.862233243375806e-16 -1.0 -4.475859752819606e-15
outer loop
vertex 252.70033987072023 1.13686837721618e-13 0.0
vertex 252.70033987072023 5.6843418860809e-14 12.7
vertex 9.947598300641403e-14 4.1358106382584e-14 0.0
endloop
endfacet
facet normal -0.0 0.0 -1.0
outer loop
vertex 19.05000000000021 47.902485177345056 0.0
vertex 1.9895196601282805e-13 41.552485177345055 0.0
vertex 1.9895196601282805e-13 57.150000000000055 0.0
endloop
endfacet
facet normal -0.0 0.0 -1.0
outer loop
vertex 19.05000000000021 9.247514822655058 0.0
vertex 9.947598300641403e-14 4.1358106382584e-14 0.0
vertex 1.9895196601282805e-13 15.597514822655057 0.0
endloop
endfacet
facet normal 0.0 0.0 -1.0
outer loop
vertex 73.54966012928023 43.124226783579054 0.0
vertex 19.05000000000021 47.902485177345056 0.0
vertex 1.9895196601282805e-13 57.150000000000055 0.0
endloop
endfacet
facet normal -0.0 0.0 -0.9999999999999999
outer loop
vertex 73.54966012928023 43.124226783579054 0.0
vertex 60.949660129280204 35.849613391789056 0.0
vertex 19.05000000000021 47.902485177345056 0.0
endloop
endfacet
facet normal -0.0 0.0 -1.0
outer loop
vertex 60.949660129280204 21.300386608211056 0.0
vertex 19.05000000000021 9.247514822655058 0.0
vertex 19.05000000000021 47.902485177345056 0.0
endloop
endfacet
facet normal 0.0 0.0 -1.0
outer loop
vertex 60.949660129280204 21.300386608211056 0.0
vertex 19.05000000000021 47.902485177345056 0.0
vertex 60.949660129280204 35.849613391789056 0.0
endloop
endfacet
facet normal -0.0 0.0 -1.0
outer loop
vertex 73.54966012928023 14.025773216421056 0.0
vertex 9.947598300641403e-14 4.1358106382584e-14 0.0
vertex 19.05000000000021 9.247514822655058 0.0
endloop
endfacet
facet normal -0.0 0.0 -1.0
outer loop
vertex 73.54966012928023 14.025773216421056 0.0
vertex 19.05000000000021 9.247514822655058 0.0
vertex 60.949660129280204 21.300386608211056 0.0
endloop
endfacet
facet normal 0.0 0.0 -1.0
outer loop
vertex 86.14966012928019 21.300386608211056 0.0
vertex 86.14966012928019 35.849613391789056 0.0
vertex 96.14966012928019 35.849613391789056 0.0
endloop
endfacet
facet normal -0.0 0.0 -1.0
outer loop
vertex 108.74966012928022 43.124226783579054 0.0
vertex 86.14966012928019 35.849613391789056 0.0
vertex 73.54966012928023 43.124226783579054 0.0
endloop
endfacet
facet normal -0.0 0.0 -1.0
outer loop
vertex 108.74966012928022 43.124226783579054 0.0
vertex 96.14966012928019 35.849613391789056 0.0
vertex 86.14966012928019 35.849613391789056 0.0
endloop
endfacet
facet normal 0.0 0.0 -1.0
outer loop
vertex 96.14966012928019 21.300386608211056 0.0
vertex 86.14966012928019 21.300386608211056 0.0
vertex 96.14966012928019 35.849613391789056 0.0
endloop
endfacet
facet normal 0.0 0.0 -1.0
outer loop
vertex 108.74966012928022 14.025773216421056 0.0
vertex 73.54966012928023 14.025773216421056 0.0
vertex 86.14966012928019 21.300386608211056 0.0
endloop
endfacet
facet normal 0.0 0.0 -1.0
outer loop
vertex 108.74966012928022 14.025773216421056 0.0
vertex 86.14966012928019 21.300386608211056 0.0
vertex 96.14966012928019 21.300386608211056 0.0
endloop
endfacet
facet normal 0.0 0.0 -1.0
outer loop
vertex 121.34966012928018 21.300386608211056 0.0
vertex 121.34966012928018 35.849613391789056 0.0
vertex 131.34966012928018 35.849613391789056 0.0
endloop
endfacet
facet normal -0.0 0.0 -1.0
outer loop
vertex 143.9496601292802 43.124226783579054 0.0
vertex 121.34966012928018 35.849613391789056 0.0
vertex 108.74966012928022 43.124226783579054 0.0
endloop
endfacet
facet normal -0.0 0.0 -1.0
outer loop
vertex 143.9496601292802 43.124226783579054 0.0
vertex 131.34966012928018 35.849613391789056 0.0
vertex 121.34966012928018 35.849613391789056 0.0
endloop
endfacet
facet normal 0.0 0.0 -1.0
outer loop
vertex 131.34966012928018 21.300386608211056 0.0
vertex 121.34966012928018 21.300386608211056 0.0
vertex 131.34966012928018 35.849613391789056 0.0
endloop
endfacet
facet normal 0.0 0.0 -1.0
outer loop
vertex 143.9496601292802 14.025773216421056 0.0
vertex 108.74966012928022 14.025773216421056 0.0
vertex 121.34966012928018 21.300386608211056 0.0
endloop
endfacet
facet normal 0.0 0.0 -1.0
outer loop
vertex 143.9496601292802 14.025773216421056 0.0
vertex 121.34966012928018 21.300386608211056 0.0
vertex 131.34966012928018 21.300386608211056 0.0
endloop
endfacet
facet normal 0.0 0.0 -1.0
outer loop
vertex 156.54966012928023 21.300386608211056 0.0
vertex 156.54966012928023 35.849613391789056 0.0
vertex 166.54966012928023 35.849613391789056 0.0
endloop
endfacet
facet normal -0.0 0.0 -1.0
outer loop
vertex 179.1496601292802 43.124226783579054 0.0
vertex 156.54966012928023 35.849613391789056 0.0
vertex 143.9496601292802 43.124226783579054 0.0
endloop
endfacet
facet normal -0.0 0.0 -1.0
outer loop
vertex 179.1496601292802 43.124226783579054 0.0
vertex 166.54966012928023 35.849613391789056 0.0
vertex 156.54966012928023 35.849613391789056 0.0
endloop
endfacet
facet normal 0.0 0.0 -1.0
outer loop
vertex 166.54966012928023 21.300386608211056 0.0
vertex 156.54966012928023 21.300386608211056 0.0
vertex 166.54966012928023 35.849613391789056 0.0
endloop
endfacet
facet normal 0.0 0.0 -1.0
outer loop
vertex 179.1496601292802 14.025773216421056 0.0
vertex 143.9496601292802 14.025773216421056 0.0
vertex 156.54966012928023 21.300386608211056 0.0
endloop
endfacet
facet normal 0.0 0.0 -1.0
outer loop
vertex 179.1496601292802 14.025773216421056 0.0
vertex 156.54966012928023 21.300386608211056 0.0
vertex 166.54966012928023 21.300386608211056 0.0
endloop
endfacet
facet normal -0.0 0.0 -1.0
outer loop
vertex 223.1496601292802 57.150000000000055 0.0
vertex 191.74966012928022 35.849613391789056 0.0
vertex 179.1496601292802 43.124226783579054 0.0
endloop
endfacet
facet normal -0.0 0.0 -1.0
outer loop
vertex 223.1496601292802 57.150000000000055 0.0
vertex 179.1496601292802 43.124226783579054 0.0
vertex 143.9496601292802 43.124226783579054 0.0
endloop
endfacet
facet normal -0.0 0.0 -1.0
outer loop
vertex 225.56623104603912 53.98850298371576 0.0
vertex 191.74966012928022 35.849613391789056 0.0
vertex 223.1496601292802 57.150000000000055 0.0
endloop
endfacet
facet normal -0.0 0.0 -1.0
outer loop
vertex 227.96314088572353 50.61449257428063 0.0
vertex 191.74966012928022 35.849613391789056 0.0
vertex 225.56623104603912 53.98850298371576 0.0
endloop
endfacet
facet normal -0.0 0.0 -1.0
outer loop
vertex 230.33911641186018 47.02976104315894 0.0
vertex 191.74966012928022 35.849613391789056 0.0
vertex 227.96314088572353 50.61449257428063 0.0
endloop
endfacet
facet normal -0.0 0.0 -1.0
outer loop
vertex 232.69289550826662 43.23621259669653 0.0
vertex 191.74966012928022 35.849613391789056 0.0
vertex 230.33911641186018 47.02976104315894 0.0
endloop
endfacet
facet normal -0.0 0.0 -1.0
outer loop
vertex 235.02322784948512 39.23586236460778 0.0
vertex 191.74966012928022 35.849613391789056 0.0
vertex 232.69289550826662 43.23621259669653 0.0
endloop
endfacet
facet normal -0.0 0.0 -1.0
outer loop
vertex 235.02322784948512 39.23586236460778 0.0
vertex 191.74966012928022 21.300386608211056 0.0
vertex 191.74966012928022 35.849613391789056 0.0
endloop
endfacet
facet normal -0.0 0.0 -1.0
outer loop
vertex 237.3288755649543 35.030835329539855 0.0
vertex 191.74966012928022 21.300386608211056 0.0
vertex 235.02322784948512 39.23586236460778 0.0
endloop
endfacet
facet normal -0.0 0.0 -1.0
outer loop
vertex 239.60861389656515 30.623365198283864 0.0
vertex 191.74966012928022 21.300386608211056 0.0
vertex 237.3288755649543 35.030835329539855 0.0
endloop
endfacet
facet normal -0.0 0.0 -1.0
outer loop
vertex 242.60587050422112 24.435888803390696 0.0
vertex 191.74966012928022 21.300386608211056 0.0
vertex 239.60861389656515 30.623365198283864 0.0
endloop
endfacet
facet normal 0.0 0.0 -0.9999999999999999
outer loop
vertex 245.9166330771465 17.057064138428245 0.0
vertex 191.74966012928022 21.300386608211056 0.0
vertex 242.60587050422112 24.435888803390696 0.0
endloop
endfacet
facet normal 0.0 0.0 -1.0
outer loop
vertex 249.1588392587908 9.24424874022668 0.0
vertex 191.74966012928022 21.300386608211056 0.0
vertex 245.9166330771465 17.057064138428245 0.0
endloop
endfacet
facet normal 0.0 0.0 -1.0
outer loop
vertex 250.9412575570787 4.687725437463996 0.0
vertex 191.74966012928022 21.300386608211056 0.0
vertex 249.1588392587908 9.24424874022668 0.0
endloop
endfacet
facet normal 0.0 0.0 -1.0
outer loop
vertex 252.70033987072023 1.13686837721618e-13 0.0
vertex 179.1496601292802 14.025773216421056 0.0
vertex 191.74966012928022 21.300386608211056 0.0
endloop
endfacet
facet normal 0.0 0.0 -1.0
outer loop
vertex 252.70033987072023 1.13686837721618e-13 0.0
vertex 191.74966012928022 21.300386608211056 0.0
vertex 250.9412575570787 4.687725437463996 0.0
endloop
endfacet
facet normal 0.0 0.0 -1.0
outer loop
vertex 9.947598300641403e-14 4.1358106382584e-14 0.0
vertex 73.54966012928023 14.025773216421056 0.0
vertex 252.70033987072023 1.13686837721618e-13 0.0
endloop
endfacet
facet normal 0.0 0.0 -1.0
outer loop
vertex 73.54966012928023 14.025773216421056 0.0
vertex 108.74966012928022 14.025773216421056 0.0
vertex 252.70033987072023 1.13686837721618e-13 0.0
endloop
endfacet
facet normal 0.0 0.0 -1.0
outer loop
vertex 108.74966012928022 14.025773216421056 0.0
vertex 143.9496601292802 14.025773216421056 0.0
vertex 252.70033987072023 1.13686837721618e-13 0.0
endloop
endfacet
facet normal 0.0 0.0 -1.0
outer loop
vertex 143.9496601292802 14.025773216421056 0.0
vertex 179.1496601292802 14.025773216421056 0.0
vertex 252.70033987072023 1.13686837721618e-13 0.0
endloop
endfacet
facet normal -0.0 0.0 -1.0
outer loop
vertex 223.1496601292802 57.150000000000055 0.0
vertex 143.9496601292802 43.124226783579054 0.0
vertex 1.9895196601282805e-13 57.150000000000055 0.0
endloop
endfacet
facet normal 0.0 0.0 -1.0
outer loop
vertex 143.9496601292802 43.124226783579054 0.0
vertex 108.74966012928022 43.124226783579054 0.0
vertex 1.9895196601282805e-13 57.150000000000055 0.0
endloop
endfacet
facet normal 0.0 0.0 -1.0
outer loop
vertex 108.74966012928022 43.124226783579054 0.0
vertex 73.54966012928023 43.124226783579054 0.0
vertex 1.9895196601282805e-13 57.150000000000055 0.0
endloop
endfacet
facet normal 0.7938933513133276 0.6080570258951813 -0.0
outer loop
vertex 223.1496601292802 57.150000000000055 0.0
vertex 223.1496601292802 57.150000000000055 12.7
vertex 225.43755217515024 54.16287509824456 12.7
endloop
endfacet
facet normal 0.8133245458258423 0.5818102091081722 0.0002524573075938571
outer loop
vertex 225.56623104603912 53.98850298371576 0.0
vertex 225.43755217515024 54.16287509824456 12.7
vertex 227.62671001771005 51.10260599301475 12.7
endloop
endfacet
facet normal 0.7944844331031385 0.6072844494129049 -0.00028819793496738814
outer loop
vertex 225.56623104603912 53.98850298371576 0.0
vertex 223.1496601292802 57.150000000000055 0.0
vertex 225.43755217515024 54.16287509824456 12.7
endloop
endfacet
facet normal 0.8325434274501379 0.553959256847922 0.0007636504926392066
outer loop
vertex 227.96314088572353 50.61449257428063 0.0
vertex 227.62671001771005 51.10260599301475 12.7
vertex 230.40109675577975 46.93298987877612 12.7
endloop
endfacet
facet normal 0.8152273821057806 0.5791406358099082 -0.0006628866049464187
outer loop
vertex 227.96314088572353 50.61449257428063 0.0
vertex 225.56623104603912 53.98850298371576 0.0
vertex 227.62671001771005 51.10260599301475 12.7
endloop
endfacet
facet normal 0.8335331770118299 0.5524693862313672 0.00014176636314219628
outer loop
vertex 230.33911641186018 47.02976104315894 0.0
vertex 227.96314088572353 50.61449257428063 0.0
vertex 230.40109675577975 46.93298987877612 12.7
endloop
endfacet
facet normal 0.8529298425006753 0.5220218633355216 0.0019641719586030275
outer loop
vertex 232.69289550826662 43.23621259669653 0.0
vertex 230.40109675577975 46.93298987877612 12.7
vertex 233.62880927061235 41.65924078841633 12.7
endloop
endfacet
facet normal 0.8497241708821354 0.5272274809087465 -0.0001295889075501035
outer loop
vertex 232.69289550826662 43.23621259669653 0.0
vertex 230.33911641186018 47.02976104315894 0.0
vertex 230.40109675577975 46.93298987877612 12.7
endloop
endfacet
facet normal 0.8719911042939642 0.48951615701815726 0.0023336774343159653
outer loop
vertex 235.02322784948512 39.23586236460778 0.0
vertex 233.62880927061235 41.65924078841633 12.7
vertex 236.89770940884407 35.836242302060676 12.7
endloop
endfacet
facet normal 0.8640794818587278 0.503354017807422 -0.0011754947374234387
outer loop
vertex 235.02322784948512 39.23586236460778 0.0
vertex 232.69289550826662 43.23621259669653 0.0
vertex 233.62880927061235 41.65924078841633 12.7
endloop
endfacet
facet normal 0.8768416169009635 0.48077880450615174 -0.0007211158986461302
outer loop
vertex 237.3288755649543 35.030835329539855 0.0
vertex 235.02322784948512 39.23586236460778 0.0
vertex 236.89770940884407 35.836242302060676 12.7
endloop
endfacet
facet normal 0.8896957512110789 0.4565469729809257 0.0025162946782372945
outer loop
vertex 239.60861389656515 30.623365198283864 0.0
vertex 236.89770940884407 35.836242302060676 12.7
vertex 240.66155401806282 28.50145145857708 12.7
endloop
endfacet
facet normal 0.8882161618889286 0.4594246519459498 0.0010192858497179507
outer loop
vertex 239.60861389656515 30.623365198283864 0.0
vertex 237.3288755649543 35.030835329539855 0.0
vertex 236.89770940884407 35.836242302060676 12.7
endloop
endfacet
facet normal 0.9062647774648563 0.42269656424857127 0.0034304079972377857
outer loop
vertex 242.60587050422112 24.435888803390696 0.0
vertex 240.66155401806282 28.50145145857708 12.7
vertex 244.64378864959815 19.96350890733617 12.7
endloop
endfacet
facet normal 0.8999686200403128 0.4359510600032643 -0.001776576698320816
outer loop
vertex 242.60587050422112 24.435888803390696 0.0
vertex 239.60861389656515 30.623365198283864 0.0
vertex 240.66155401806282 28.50145145857708 12.7
endloop
endfacet
facet normal 0.9210386581309263 0.3894581757942702 0.0031811217175506
outer loop
vertex 245.9166330771465 17.057064138428245 0.0
vertex 244.64378864959815 19.96350890733617 12.7
vertex 248.83646008438726 10.048163146763654 12.7
endloop
endfacet
facet normal 0.9123678880247882 0.4093651216235845 -0.0022436798558899467
outer loop
vertex 245.9166330771465 17.057064138428245 0.0
vertex 242.60587050422112 24.435888803390696 0.0
vertex 244.64378864959815 19.96350890733617 12.7
endloop
endfacet
facet normal 0.9236269013162374 0.3832918988038285 -0.0008169922404780464
outer loop
vertex 249.1588392587908 9.24424874022668 0.0
vertex 245.9166330771465 17.057064138428245 0.0
vertex 248.83646008438726 10.048163146763654 12.7
endloop
endfacet
facet normal 0.933365677352643 0.3589126411767554 0.003198178163823971
outer loop
vertex 250.9412575570787 4.687725437463996 0.0
vertex 248.83646008438726 10.048163146763654 12.7
vertex 252.70033987072023 5.6843418860809e-14 12.7
endloop
endfacet
facet normal 0.9312820873725988 0.3642984185758961 0.0005796223222200318
outer loop
vertex 250.9412575570787 4.687725437463996 0.0
vertex 249.1588392587908 9.24424874022668 0.0
vertex 248.83646008438726 10.048163146763654 12.7
endloop
endfacet
facet normal 0.9362513262512817 0.3513309751398475 1.5643891584078155e-15
outer loop
vertex 252.70033987072023 1.13686837721618e-13 0.0
vertex 250.9412575570787 4.687725437463996 0.0
vertex 252.70033987072023 5.6843418860809e-14 12.7
endloop
endfacet
facet normal 0.0 0.0 1.0
outer loop
vertex 19.05000000000021 9.247514822655058 12.7
vertex 9.947598300641403e-14 15.597514822655057 12.7
vertex 0.0 0.0 12.7
endloop
endfacet
facet normal 0.0 0.0 1.0
outer loop
vertex 19.05000000000021 47.902485177345056 12.7
vertex 9.947598300641403e-14 57.150000000000055 12.7
vertex 9.947598300641403e-14 41.552485177345055 12.7
endloop
endfacet
facet normal 0.0 0.0 1.0
outer loop
vertex 60.949660129280204 21.300386608211056 12.7
vertex 19.05000000000021 47.902485177345056 12.7
vertex 19.05000000000021 9.247514822655058 12.7
endloop
endfacet
facet normal 0.0 0.0 1.0
outer loop
vertex 73.54966012928023 14.025773216421056 12.7
vertex 19.05000000000021 9.247514822655058 12.7
vertex 0.0 0.0 12.7
endloop
endfacet
facet normal 0.0 0.0 1.0
outer loop
vertex 73.54966012928023 14.025773216421056 12.7
vertex 60.949660129280204 21.300386608211056 12.7
vertex 19.05000000000021 9.247514822655058 12.7
endloop
endfacet
facet normal 0.0 0.0 1.0
outer loop
vertex 60.949660129280204 35.849613391789056 12.7
vertex 19.05000000000021 47.902485177345056 12.7
vertex 60.949660129280204 21.300386608211056 12.7
endloop
endfacet
facet normal 0.0 0.0 1.0
outer loop
vertex 73.54966012928023 43.124226783579054 12.7
vertex 9.947598300641403e-14 57.150000000000055 12.7
vertex 19.05000000000021 47.902485177345056 12.7
endloop
endfacet
facet normal 0.0 0.0 0.9999999999999999
outer loop
vertex 73.54966012928023 43.124226783579054 12.7
vertex 19.05000000000021 47.902485177345056 12.7
vertex 60.949660129280204 35.849613391789056 12.7
endloop
endfacet
facet normal 0.0 0.0 1.0
outer loop
vertex 108.74966012928022 14.025773216421056 12.7
vertex 86.14966012928019 21.300386608211056 12.7
vertex 73.54966012928023 14.025773216421056 12.7
endloop
endfacet
facet normal 0.0 0.0 0.9999999999999999
outer loop
vertex 108.74966012928022 14.025773216421056 12.7
vertex 73.54966012928023 14.025773216421056 12.7
vertex 0.0 0.0 12.7
endloop
endfacet
facet normal 0.0 0.0 1.0
outer loop
vertex 108.74966012928022 14.025773216421056 12.7
vertex 96.14966012928019 21.300386608211056 12.7
vertex 86.14966012928019 21.300386608211056 12.7
endloop
endfacet
facet normal 0.0 0.0 1.0
outer loop
vertex 96.14966012928019 35.849613391789056 12.7
vertex 86.14966012928019 35.849613391789056 12.7
vertex 86.14966012928019 21.300386608211056 12.7
endloop
endfacet
facet normal -0.0 0.0 1.0
outer loop
vertex 96.14966012928019 35.849613391789056 12.7
vertex 86.14966012928019 21.300386608211056 12.7
vertex 96.14966012928019 21.300386608211056 12.7
endloop
endfacet
facet normal 0.0 0.0 1.0
outer loop
vertex 108.74966012928022 43.124226783579054 12.7
vertex 73.54966012928023 43.124226783579054 12.7
vertex 86.14966012928019 35.849613391789056 12.7
endloop
endfacet
facet normal -0.0 0.0 1.0
outer loop
vertex 108.74966012928022 43.124226783579054 12.7
vertex 86.14966012928019 35.849613391789056 12.7
vertex 96.14966012928019 35.849613391789056 12.7
endloop
endfacet
facet normal 0.0 0.0 1.0
outer loop
vertex 143.9496601292802 14.025773216421056 12.7
vertex 121.34966012928018 21.300386608211056 12.7
vertex 108.74966012928022 14.025773216421056 12.7
endloop
endfacet
facet normal 0.0 0.0 0.9999999999999999
outer loop
vertex 143.9496601292802 14.025773216421056 12.7
vertex 108.74966012928022 14.025773216421056 12.7
vertex 0.0 0.0 12.7
endloop
endfacet
facet normal 0.0 0.0 1.0
outer loop
vertex 143.9496601292802 14.025773216421056 12.7
vertex 131.34966012928018 21.300386608211056 12.7
vertex 121.34966012928018 21.300386608211056 12.7
endloop
endfacet
facet normal 0.0 0.0 1.0
outer loop
vertex 131.34966012928018 35.849613391789056 12.7
vertex 121.34966012928018 35.849613391789056 12.7
vertex 121.34966012928018 21.300386608211056 12.7
endloop
endfacet
facet normal -0.0 0.0 1.0
outer loop
vertex 131.34966012928018 35.849613391789056 12.7
vertex 121.34966012928018 21.300386608211056 12.7
vertex 131.34966012928018 21.300386608211056 12.7
endloop
endfacet
facet normal 0.0 0.0 1.0
outer loop
vertex 143.9496601292802 43.124226783579054 12.7
vertex 108.74966012928022 43.124226783579054 12.7
vertex 121.34966012928018 35.849613391789056 12.7
endloop
endfacet
facet normal -0.0 0.0 1.0
outer loop
vertex 143.9496601292802 43.124226783579054 12.7
vertex 121.34966012928018 35.849613391789056 12.7
vertex 131.34966012928018 35.849613391789056 12.7
endloop
endfacet
facet normal 0.0 0.0 1.0
outer loop
vertex 179.1496601292802 14.025773216421056 12.7
vertex 156.54966012928023 21.300386608211056 12.7
vertex 143.9496601292802 14.025773216421056 12.7
endloop
endfacet
facet normal 0.0 0.0 1.0
outer loop
vertex 179.1496601292802 14.025773216421056 12.7
vertex 166.54966012928023 21.300386608211056 12.7
vertex 156.54966012928023 21.300386608211056 12.7
endloop
endfacet
facet normal 0.0 0.0 1.0
outer loop
vertex 166.54966012928023 35.849613391789056 12.7
vertex 156.54966012928023 35.849613391789056 12.7
vertex 156.54966012928023 21.300386608211056 12.7
endloop
endfacet
facet normal -0.0 0.0 1.0
outer loop
vertex 166.54966012928023 35.849613391789056 12.7
vertex 156.54966012928023 21.300386608211056 12.7
vertex 166.54966012928023 21.300386608211056 12.7
endloop
endfacet
facet normal 0.0 0.0 1.0
outer loop
vertex 179.1496601292802 43.124226783579054 12.7
vertex 143.9496601292802 43.124226783579054 12.7
vertex 156.54966012928023 35.849613391789056 12.7
endloop
endfacet
facet normal -0.0 0.0 1.0
outer loop
vertex 179.1496601292802 43.124226783579054 12.7
vertex 156.54966012928023 35.849613391789056 12.7
vertex 166.54966012928023 35.849613391789056 12.7
endloop
endfacet
facet normal 0.0 0.0 1.0
outer loop
vertex 252.70033987072023 5.6843418860809e-14 12.7
vertex 191.74966012928022 21.300386608211056 12.7
vertex 179.1496601292802 14.025773216421056 12.7
endloop
endfacet
facet normal 0.0 0.0 1.0
outer loop
vertex 252.70033987072023 5.6843418860809e-14 12.7
vertex 143.9496601292802 14.025773216421056 12.7
vertex 0.0 0.0 12.7
endloop
endfacet
facet normal 0.0 0.0 1.0
outer loop
vertex 252.70033987072023 5.6843418860809e-14 12.7
vertex 179.1496601292802 14.025773216421056 12.7
vertex 143.9496601292802 14.025773216421056 12.7
endloop
endfacet
facet normal 0.0 0.0 1.0
outer loop
vertex 248.83646008438726 10.048163146763654 12.7
vertex 191.74966012928022 21.300386608211056 12.7
vertex 252.70033987072023 5.6843418860809e-14 12.7
endloop
endfacet
facet normal 0.0 0.0 1.0
outer loop
vertex 244.64378864959815 19.96350890733617 12.7
vertex 191.74966012928022 21.300386608211056 12.7
vertex 248.83646008438726 10.048163146763654 12.7
endloop
endfacet
facet normal 0.0 0.0 0.9999999999999999
outer loop
vertex 240.66155401806282 28.50145145857708 12.7
vertex 191.74966012928022 21.300386608211056 12.7
vertex 244.64378864959815 19.96350890733617 12.7
endloop
endfacet
facet normal -0.0 0.0 1.0
outer loop
vertex 236.89770940884407 35.836242302060676 12.7
vertex 191.74966012928022 21.300386608211056 12.7
vertex 240.66155401806282 28.50145145857708 12.7
endloop
endfacet
facet normal -0.0 0.0 0.9999999999999999
outer loop
vertex 233.62880927061235 41.65924078841633 12.7
vertex 191.74966012928022 21.300386608211056 12.7
vertex 236.89770940884407 35.836242302060676 12.7
endloop
endfacet
facet normal 0.0 0.0 1.0
outer loop
vertex 233.62880927061235 41.65924078841633 12.7
vertex 191.74966012928022 35.849613391789056 12.7
vertex 191.74966012928022 21.300386608211056 12.7
endloop
endfacet
facet normal -0.0 0.0 1.0
outer loop
vertex 230.40109675577975 46.93298987877612 12.7
vertex 191.74966012928022 35.849613391789056 12.7
vertex 233.62880927061235 41.65924078841633 12.7
endloop
endfacet
facet normal -0.0 0.0 1.0
outer loop
vertex 227.62671001771005 51.10260599301475 12.7
vertex 191.74966012928022 35.849613391789056 12.7
vertex 230.40109675577975 46.93298987877612 12.7
endloop
endfacet
facet normal -0.0 0.0 1.0
outer loop
vertex 225.43755217515024 54.16287509824456 12.7
vertex 191.74966012928022 35.849613391789056 12.7
vertex 227.62671001771005 51.10260599301475 12.7
endloop
endfacet
facet normal -0.0 0.0 1.0
outer loop
vertex 223.1496601292802 57.150000000000055 12.7
vertex 143.9496601292802 43.124226783579054 12.7
vertex 179.1496601292802 43.124226783579054 12.7
endloop
endfacet
facet normal -0.0 0.0 1.0
outer loop
vertex 223.1496601292802 57.150000000000055 12.7
vertex 191.74966012928022 35.849613391789056 12.7
vertex 225.43755217515024 54.16287509824456 12.7
endloop
endfacet
facet normal 0.0 0.0 1.0
outer loop
vertex 223.1496601292802 57.150000000000055 12.7
vertex 179.1496601292802 43.124226783579054 12.7
vertex 191.74966012928022 35.849613391789056 12.7
endloop
endfacet
facet normal 0.0 0.0 1.0
outer loop
vertex 223.1496601292802 57.150000000000055 12.7
vertex 9.947598300641403e-14 57.150000000000055 12.7
vertex 143.9496601292802 43.124226783579054 12.7
endloop
endfacet
facet normal 0.0 0.0 0.9999999999999999
outer loop
vertex 143.9496601292802 43.124226783579054 12.7
vertex 9.947598300641403e-14 57.150000000000055 12.7
vertex 108.74966012928022 43.124226783579054 12.7
endloop
endfacet
facet normal 0.0 0.0 1.0
outer loop
vertex 108.74966012928022 43.124226783579054 12.7
vertex 9.947598300641403e-14 57.150000000000055 12.7
vertex 73.54966012928023 43.124226783579054 12.7
endloop
endfacet
facet normal -1.0 6.377681581807333e-15 -7.832754567434155e-15
outer loop
vertex 9.947598300641403e-14 15.597514822655057 12.7
vertex 9.947598300641403e-14 4.1358106382584e-14 0.0
vertex 0.0 0.0 12.7
endloop
endfacet
facet normal -1.0 6.3776815818073494e-15 -7.832754567434176e-15
outer loop
vertex 1.9895196601282805e-13 15.597514822655057 0.0
vertex 9.947598300641403e-14 4.1358106382584e-14 0.0
vertex 9.947598300641403e-14 15.597514822655057 12.7
endloop
endfacet
facet normal -0.0 1.0 0.0
outer loop
vertex 1.9895196601282805e-13 57.150000000000055 0.0
vertex 223.1496601292802 57.150000000000055 12.7
vertex 223.1496601292802 57.150000000000055 0.0
endloop
endfacet
facet normal 0.0 1.0 -0.0
outer loop
vertex 1.9895196601282805e-13 57.150000000000055 0.0
vertex 9.947598300641403e-14 57.150000000000055 12.7
vertex 223.1496601292802 57.150000000000055 12.7
endloop
endfacet
facet normal -1.0 -0.0 -7.832754567434176e-15
outer loop
vertex 1.9895196601282805e-13 57.150000000000055 0.0
vertex 1.9895196601282805e-13 41.552485177345055 0.0
vertex 9.947598300641403e-14 41.552485177345055 12.7
endloop
endfacet
facet normal -1.0 0.0 -7.832754567434176e-15
outer loop
vertex 1.9895196601282805e-13 57.150000000000055 0.0
vertex 9.947598300641403e-14 41.552485177345055 12.7
vertex 9.947598300641403e-14 57.150000000000055 12.7
endloop
endfacet
facet normal 0.3162277660168378 -0.9486832980505138 0.0
outer loop
vertex 1.9895196601282805e-13 41.552485177345055 0.0
vertex 19.05000000000021 47.902485177345056 0.0
vertex 19.05000000000021 47.902485177345056 12.7
endloop
endfacet
facet normal 0.31622776601683633 -0.9486832980505143 2.4518586515002638e-15
outer loop
vertex 1.9895196601282805e-13 41.552485177345055 0.0
vertex 19.05000000000021 47.902485177345056 12.7
vertex 9.947598300641403e-14 41.552485177345055 12.7
endloop
endfacet
facet normal -1.0 0.0 0.0
outer loop
vertex 19.05000000000021 47.902485177345056 0.0
vertex 19.05000000000021 9.247514822655058 0.0
vertex 19.05000000000021 9.247514822655058 12.7
endloop
endfacet
facet normal -1.0 0.0 0.0
outer loop
vertex 19.05000000000021 47.902485177345056 0.0
vertex 19.05000000000021 9.247514822655058 12.7
vertex 19.05000000000021 47.902485177345056 12.7
endloop
endfacet
facet normal 0.3162277660168377 0.9486832980505138 2.4769344786178914e-15
outer loop
vertex 19.05000000000021 9.247514822655058 0.0
vertex 1.9895196601282805e-13 15.597514822655057 0.0
vertex 9.947598300641403e-14 15.597514822655057 12.7
endloop
endfacet
facet normal 0.31622776601683633 0.9486832980505144 0.0
outer loop
vertex 19.05000000000021 9.247514822655058 0.0
vertex 9.947598300641403e-14 15.597514822655057 12.7
vertex 19.05000000000021 9.247514822655058 12.7
endloop
endfacet
facet normal -0.5000000000000362 0.8660254037844176 0.0
outer loop
vertex 156.54966012928023 21.300386608211056 0.0
vertex 143.9496601292802 14.025773216421056 0.0
vertex 143.9496601292802 14.025773216421056 12.7
endloop
endfacet
facet normal -0.5000000000000362 0.8660254037844176 0.0
outer loop
vertex 156.54966012928023 21.300386608211056 0.0
vertex 143.9496601292802 14.025773216421056 12.7
vertex 156.54966012928023 21.300386608211056 12.7
endloop
endfacet
facet normal 0.5000000000000362 0.8660254037844176 -0.0
outer loop
vertex 143.9496601292802 14.025773216421056 0.0
vertex 131.34966012928018 21.300386608211056 0.0
vertex 131.34966012928018 21.300386608211056 12.7
endloop
endfacet
facet normal 0.5000000000000362 0.8660254037844176 0.0
outer loop
vertex 143.9496601292802 14.025773216421056 0.0
vertex 131.34966012928018 21.300386608211056 12.7
vertex 143.9496601292802 14.025773216421056 12.7
endloop
endfacet
facet normal 1.0 -0.0 0.0
outer loop
vertex 131.34966012928018 21.300386608211056 12.7
vertex 131.34966012928018 35.849613391789056 0.0
vertex 131.34966012928018 35.849613391789056 12.7
endloop
endfacet
facet normal 1.0 0.0 -0.0
outer loop
vertex 131.34966012928018 21.300386608211056 0.0
vertex 131.34966012928018 35.849613391789056 0.0
vertex 131.34966012928018 21.300386608211056 12.7
endloop
endfacet
facet normal 0.5000000000000361 -0.8660254037844177 0.0
outer loop
vertex 131.34966012928018 35.849613391789056 0.0
vertex 143.9496601292802 43.124226783579054 0.0
vertex 143.9496601292802 43.124226783579054 12.7
endloop
endfacet
facet normal 0.5000000000000361 -0.8660254037844177 0.0
outer loop
vertex 131.34966012928018 35.849613391789056 0.0
vertex 143.9496601292802 43.124226783579054 12.7
vertex 131.34966012928018 35.849613391789056 12.7
endloop
endfacet
facet normal -0.5000000000000361 -0.8660254037844177 0.0
outer loop
vertex 143.9496601292802 43.124226783579054 0.0
vertex 156.54966012928023 35.849613391789056 0.0
vertex 156.54966012928023 35.849613391789056 12.7
endloop
endfacet
facet normal -0.5000000000000361 -0.8660254037844177 0.0
outer loop
vertex 143.9496601292802 43.124226783579054 0.0
vertex 156.54966012928023 35.849613391789056 12.7
vertex 143.9496601292802 43.124226783579054 12.7
endloop
endfacet
facet normal -1.0 -0.0 0.0
outer loop
vertex 156.54966012928023 35.849613391789056 12.7
vertex 156.54966012928023 21.300386608211056 0.0
vertex 156.54966012928023 21.300386608211056 12.7
endloop
endfacet
facet normal -1.0 0.0 0.0
outer loop
vertex 156.54966012928023 35.849613391789056 0.0
vertex 156.54966012928023 21.300386608211056 0.0
vertex 156.54966012928023 35.849613391789056 12.7
endloop
endfacet
facet normal -0.5000000000000362 0.8660254037844176 0.0
outer loop
vertex 191.74966012928022 21.300386608211056 0.0
vertex 179.1496601292802 14.025773216421056 0.0
vertex 179.1496601292802 14.025773216421056 12.7
endloop
endfacet
facet normal -0.5000000000000362 0.8660254037844176 0.0
outer loop
vertex 191.74966012928022 21.300386608211056 0.0
vertex 179.1496601292802 14.025773216421056 12.7
vertex 191.74966012928022 21.300386608211056 12.7
endloop
endfacet
facet normal 0.5000000000000379 0.8660254037844166 -0.0
outer loop
vertex 179.1496601292802 14.025773216421056 12.7
vertex 166.54966012928023 21.300386608211056 0.0
vertex 166.54966012928023 21.300386608211056 12.7
endloop
endfacet
facet normal 0.5000000000000379 0.8660254037844166 0.0
outer loop
vertex 179.1496601292802 14.025773216421056 0.0
vertex 166.54966012928023 21.300386608211056 0.0
vertex 179.1496601292802 14.025773216421056 12.7
endloop
endfacet
facet normal 1.0 -0.0 0.0
outer loop
vertex 166.54966012928023 21.300386608211056 12.7
vertex 166.54966012928023 35.849613391789056 0.0
vertex 166.54966012928023 35.849613391789056 12.7
endloop
endfacet
facet normal 1.0 0.0 -0.0
outer loop
vertex 166.54966012928023 21.300386608211056 0.0
vertex 166.54966012928023 35.849613391789056 0.0
vertex 166.54966012928023 21.300386608211056 12.7
endloop
endfacet
facet normal 0.5000000000000379 -0.8660254037844168 0.0
outer loop
vertex 166.54966012928023 35.849613391789056 12.7
vertex 179.1496601292802 43.124226783579054 0.0
vertex 179.1496601292802 43.124226783579054 12.7
endloop
endfacet
facet normal 0.5000000000000379 -0.8660254037844168 0.0
outer loop
vertex 166.54966012928023 35.849613391789056 0.0
vertex 179.1496601292802 43.124226783579054 0.0
vertex 166.54966012928023 35.849613391789056 12.7
endloop
endfacet
facet normal -0.5000000000000361 -0.8660254037844177 0.0
outer loop
vertex 179.1496601292802 43.124226783579054 0.0
vertex 191.74966012928022 35.849613391789056 0.0
vertex 191.74966012928022 35.849613391789056 12.7
endloop
endfacet
facet normal -0.5000000000000361 -0.8660254037844177 0.0
outer loop
vertex 179.1496601292802 43.124226783579054 0.0
vertex 191.74966012928022 35.849613391789056 12.7
vertex 179.1496601292802 43.124226783579054 12.7
endloop
endfacet
facet normal -1.0 -0.0 0.0
outer loop
vertex 191.74966012928022 35.849613391789056 12.7
vertex 191.74966012928022 21.300386608211056 0.0
vertex 191.74966012928022 21.300386608211056 12.7
endloop
endfacet
facet normal -1.0 0.0 0.0
outer loop
vertex 191.74966012928022 35.849613391789056 0.0
vertex 191.74966012928022 21.300386608211056 0.0
vertex 191.74966012928022 35.849613391789056 12.7
endloop
endfacet
facet normal -0.5000000000000379 0.8660254037844166 0.0
outer loop
vertex 86.14966012928019 21.300386608211056 12.7
vertex 73.54966012928023 14.025773216421056 0.0
vertex 73.54966012928023 14.025773216421056 12.7
endloop
endfacet
facet normal -0.5000000000000379 0.8660254037844166 0.0
outer loop
vertex 86.14966012928019 21.300386608211056 0.0
vertex 73.54966012928023 14.025773216421056 0.0
vertex 86.14966012928019 21.300386608211056 12.7
endloop
endfacet
facet normal 0.5000000000000362 0.8660254037844176 -0.0
outer loop
vertex 73.54966012928023 14.025773216421056 12.7
vertex 60.949660129280204 21.300386608211056 0.0
vertex 60.949660129280204 21.300386608211056 12.7
endloop
endfacet
facet normal 0.5000000000000362 0.8660254037844176 0.0
outer loop
vertex 73.54966012928023 14.025773216421056 0.0
vertex 60.949660129280204 21.300386608211056 0.0
vertex 73.54966012928023 14.025773216421056 12.7
endloop
endfacet
facet normal 1.0 -0.0 0.0
outer loop
vertex 60.949660129280204 21.300386608211056 12.7
vertex 60.949660129280204 35.849613391789056 0.0
vertex 60.949660129280204 35.849613391789056 12.7
endloop
endfacet
facet normal 1.0 0.0 -0.0
outer loop
vertex 60.949660129280204 21.300386608211056 0.0
vertex 60.949660129280204 35.849613391789056 0.0
vertex 60.949660129280204 21.300386608211056 12.7
endloop
endfacet
facet normal 0.5000000000000361 -0.8660254037844177 0.0
outer loop
vertex 60.949660129280204 35.849613391789056 12.7
vertex 73.54966012928023 43.124226783579054 0.0
vertex 73.54966012928023 43.124226783579054 12.7
endloop
endfacet
facet normal 0.5000000000000361 -0.8660254037844177 0.0
outer loop
vertex 60.949660129280204 35.849613391789056 0.0
vertex 73.54966012928023 43.124226783579054 0.0
vertex 60.949660129280204 35.849613391789056 12.7
endloop
endfacet
facet normal -0.5000000000000379 -0.8660254037844168 0.0
outer loop
vertex 73.54966012928023 43.124226783579054 12.7
vertex 86.14966012928019 35.849613391789056 0.0
vertex 86.14966012928019 35.849613391789056 12.7
endloop
endfacet
facet normal -0.5000000000000379 -0.8660254037844168 0.0
outer loop
vertex 73.54966012928023 43.124226783579054 0.0
vertex 86.14966012928019 35.849613391789056 0.0
vertex 73.54966012928023 43.124226783579054 12.7
endloop
endfacet
facet normal -1.0 -0.0 0.0
outer loop
vertex 86.14966012928019 35.849613391789056 12.7
vertex 86.14966012928019 21.300386608211056 0.0
vertex 86.14966012928019 21.300386608211056 12.7
endloop
endfacet
facet normal -1.0 0.0 0.0
outer loop
vertex 86.14966012928019 35.849613391789056 0.0
vertex 86.14966012928019 21.300386608211056 0.0
vertex 86.14966012928019 35.849613391789056 12.7
endloop
endfacet
facet normal -0.5000000000000379 0.8660254037844166 0.0
outer loop
vertex 121.34966012928018 21.300386608211056 12.7
vertex 108.74966012928022 14.025773216421056 0.0
vertex 108.74966012928022 14.025773216421056 12.7
endloop
endfacet
facet normal -0.5000000000000379 0.8660254037844166 0.0
outer loop
vertex 121.34966012928018 21.300386608211056 0.0
vertex 108.74966012928022 14.025773216421056 0.0
vertex 121.34966012928018 21.300386608211056 12.7
endloop
endfacet
facet normal 0.5000000000000362 0.8660254037844176 -0.0
outer loop
vertex 108.74966012928022 14.025773216421056 12.7
vertex 96.14966012928019 21.300386608211056 0.0
vertex 96.14966012928019 21.300386608211056 12.7
endloop
endfacet
facet normal 0.5000000000000362 0.8660254037844176 0.0
outer loop
vertex 108.74966012928022 14.025773216421056 0.0
vertex 96.14966012928019 21.300386608211056 0.0
vertex 108.74966012928022 14.025773216421056 12.7
endloop
endfacet
facet normal 1.0 -0.0 0.0
outer loop
vertex 96.14966012928019 21.300386608211056 12.7
vertex 96.14966012928019 35.849613391789056 0.0
vertex 96.14966012928019 35.849613391789056 12.7
endloop
endfacet
facet normal 1.0 0.0 -0.0
outer loop
vertex 96.14966012928019 21.300386608211056 0.0
vertex 96.14966012928019 35.849613391789056 0.0
vertex 96.14966012928019 21.300386608211056 12.7
endloop
endfacet
facet normal 0.5000000000000361 -0.8660254037844177 0.0
outer loop
vertex 96.14966012928019 35.849613391789056 12.7
vertex 108.74966012928022 43.124226783579054 0.0
vertex 108.74966012928022 43.124226783579054 12.7
endloop
endfacet
facet normal 0.5000000000000361 -0.8660254037844177 0.0
outer loop
vertex 96.14966012928019 35.849613391789056 0.0
vertex 108.74966012928022 43.124226783579054 0.0
vertex 96.14966012928019 35.849613391789056 12.7
endloop
endfacet
facet normal -0.5000000000000379 -0.8660254037844168 0.0
outer loop
vertex 108.74966012928022 43.124226783579054 12.7
vertex 121.34966012928018 35.849613391789056 0.0
vertex 121.34966012928018 35.849613391789056 12.7
endloop
endfacet
facet normal -0.5000000000000379 -0.8660254037844168 0.0
outer loop
vertex 108.74966012928022 43.124226783579054 0.0
vertex 121.34966012928018 35.849613391789056 0.0
vertex 108.74966012928022 43.124226783579054 12.7
endloop
endfacet
facet normal -1.0 -0.0 0.0
outer loop
vertex 121.34966012928018 35.849613391789056 12.7
vertex 121.34966012928018 21.300386608211056 0.0
vertex 121.34966012928018 21.300386608211056 12.7
endloop
endfacet
facet normal -1.0 0.0 0.0
outer loop
vertex 121.34966012928018 35.849613391789056 0.0
vertex 121.34966012928018 21.300386608211056 0.0
vertex 121.34966012928018 35.849613391789056 12.7
endloop
endfacet

endsolid
