solid 
facet normal -0.999520092258396 -0.03097717178451785 0.0
outer loop
vertex 0.567900687103716 14.23040037064856 0.0
vertex 1.00892989728 0.0 0.0
vertex 1.00892989728 0.0 12.7
endloop
endfacet
facet normal -0.9996358299366145 -0.026517947263550078 0.005000597950613961
outer loop
vertex 0.2522918730818233 28.52266322742837 12.7
vertex 0.567900687103716 14.23040037064856 0.0
vertex 1.00892989728 0.0 12.7
endloop
endfacet
facet normal -0.9997561822139024 -0.022081125529830683 4.518682386341439e-06
outer loop
vertex 0.25252023939242463 28.509724670616418 0.0
vertex 0.567900687103716 14.23040037064856 0.0
vertex 0.2522918730818233 28.52266322742837 12.7
endloop
endfacet
facet normal -0.9999124721024797 -0.013230574955369662 -4.500927280583982e-06
outer loop
vertex 0.06314805542021418 42.82169593882257 0.0
vertex 0.25252023939242463 28.509724670616418 0.0
vertex 0.2522918730818233 28.52266322742837 12.7
endloop
endfacet
facet normal -0.9999488161778273 -0.008812519369987705 0.004970364867467062
outer loop
vertex 7.1054273576e-15 57.15 12.7
vertex 0.06314805542021418 42.82169593882257 0.0
vertex 0.2522918730818233 28.52266322742837 12.7
endloop
endfacet
facet normal -0.9999902883267439 -0.004407181888191297 -5.594700437928765e-16
outer loop
vertex 1.42108547152e-14 57.15 0.0
vertex 0.06314805542021418 42.82169593882257 0.0
vertex 7.1054273576e-15 57.15 12.7
endloop
endfacet
facet normal -0.0 0.0 -1.0
outer loop
vertex 48.6 35.849613391789 0.0
vertex 0.25252023939242463 28.509724670616418 0.0
vertex 0.06314805542021418 42.82169593882257 0.0
endloop
endfacet
facet normal 0.0 0.0 -1.0
outer loop
vertex 48.6 35.849613391789 0.0
vertex 0.06314805542021418 42.82169593882257 0.0
vertex 1.42108547152e-14 57.15 0.0
endloop
endfacet
facet normal -0.0 0.0 -1.0
outer loop
vertex 61.2 43.124226783579 0.0
vertex 48.6 35.849613391789 0.0
vertex 1.42108547152e-14 57.15 0.0
endloop
endfacet
facet normal -0.0 0.0 -1.0
outer loop
vertex 48.6 21.300386608211 0.0
vertex 1.00892989728 0.0 0.0
vertex 0.567900687103716 14.23040037064856 0.0
endloop
endfacet
facet normal -0.0 0.0 -1.0
outer loop
vertex 48.6 21.300386608211 0.0
vertex 0.567900687103716 14.23040037064856 0.0
vertex 0.25252023939242463 28.509724670616418 0.0
endloop
endfacet
facet normal 0.0 0.0 -1.0
outer loop
vertex 48.6 21.300386608211 0.0
vertex 0.25252023939242463 28.509724670616418 0.0
vertex 48.6 35.849613391789 0.0
endloop
endfacet
facet normal -0.0 0.0 -0.9999999999999999
outer loop
vertex 61.2 14.025773216421 0.0
vertex 1.00892989728 0.0 0.0
vertex 48.6 21.300386608211 0.0
endloop
endfacet
facet normal 0.0 0.0 -1.0
outer loop
vertex 73.8 21.300386608211 0.0
vertex 73.8 35.849613391789 0.0
vertex 83.8 35.849613391789 0.0
endloop
endfacet
facet normal -0.0 0.0 -1.0
outer loop
vertex 96.4 43.124226783579 0.0
vertex 73.8 35.849613391789 0.0
vertex 61.2 43.124226783579 0.0
endloop
endfacet
facet normal -0.0 0.0 -1.0
outer loop
vertex 96.4 43.124226783579 0.0
vertex 83.8 35.849613391789 0.0
vertex 73.8 35.849613391789 0.0
endloop
endfacet
facet normal 0.0 0.0 -1.0
outer loop
vertex 83.8 21.300386608211 0.0
vertex 73.8 21.300386608211 0.0
vertex 83.8 35.849613391789 0.0
endloop
endfacet
facet normal 0.0 0.0 -1.0
outer loop
vertex 96.4 14.025773216421 0.0
vertex 61.2 14.025773216421 0.0
vertex 73.8 21.300386608211 0.0
endloop
endfacet
facet normal 0.0 0.0 -1.0
outer loop
vertex 96.4 14.025773216421 0.0
vertex 73.8 21.300386608211 0.0
vertex 83.8 21.300386608211 0.0
endloop
endfacet
facet normal 0.0 0.0 -1.0
outer loop
vertex 109.0 21.300386608211 0.0
vertex 109.0 35.849613391789 0.0
vertex 119.0 35.849613391789 0.0
endloop
endfacet
facet normal -0.0 0.0 -1.0
outer loop
vertex 131.6 43.124226783579 0.0
vertex 109.0 35.849613391789 0.0
vertex 96.4 43.124226783579 0.0
endloop
endfacet
facet normal -0.0 0.0 -1.0
outer loop
vertex 131.6 43.124226783579 0.0
vertex 119.0 35.849613391789 0.0
vertex 109.0 35.849613391789 0.0
endloop
endfacet
facet normal 0.0 0.0 -1.0
outer loop
vertex 119.0 21.300386608211 0.0
vertex 109.0 21.300386608211 0.0
vertex 119.0 35.849613391789 0.0
endloop
endfacet
facet normal 0.0 0.0 -1.0
outer loop
vertex 131.6 14.025773216421 0.0
vertex 96.4 14.025773216421 0.0
vertex 109.0 21.300386608211 0.0
endloop
endfacet
facet normal 0.0 0.0 -1.0
outer loop
vertex 131.6 14.025773216421 0.0
vertex 109.0 21.300386608211 0.0
vertex 119.0 21.300386608211 0.0
endloop
endfacet
facet normal 0.0 0.0 -1.0
outer loop
vertex 144.2 21.300386608211 0.0
vertex 144.2 35.849613391789 0.0
vertex 154.2 35.849613391789 0.0
endloop
endfacet
facet normal -0.0 0.0 -1.0
outer loop
vertex 166.8 43.124226783579 0.0
vertex 144.2 35.849613391789 0.0
vertex 131.6 43.124226783579 0.0
endloop
endfacet
facet normal -0.0 0.0 -1.0
outer loop
vertex 166.8 43.124226783579 0.0
vertex 154.2 35.849613391789 0.0
vertex 144.2 35.849613391789 0.0
endloop
endfacet
facet normal 0.0 0.0 -1.0
outer loop
vertex 154.2 21.300386608211 0.0
vertex 144.2 21.300386608211 0.0
vertex 154.2 35.849613391789 0.0
endloop
endfacet
facet normal 0.0 0.0 -1.0
outer loop
vertex 166.8 14.025773216421 0.0
vertex 131.6 14.025773216421 0.0
vertex 144.2 21.300386608211 0.0
endloop
endfacet
facet normal 0.0 0.0 -1.0
outer loop
vertex 166.8 14.025773216421 0.0
vertex 144.2 21.300386608211 0.0
vertex 154.2 21.300386608211 0.0
endloop
endfacet
facet normal -0.0 0.0 -0.9999999999999999
outer loop
vertex 233.85033987072 57.15 0.0
vertex 179.4 35.849613391789 0.0
vertex 166.8 43.124226783579 0.0
endloop
endfacet
facet normal -0.0 0.0 -1.0
outer loop
vertex 233.85033987072 41.275 0.0
vertex 179.4 21.300386608211 0.0
vertex 179.4 35.849613391789 0.0
endloop
endfacet
facet normal -0.0 0.0 -1.0
outer loop
vertex 233.85033987072 41.275 0.0
vertex 179.4 35.849613391789 0.0
vertex 233.85033987072 57.15 0.0
endloop
endfacet
facet normal 0.0 0.0 -1.0
outer loop
vertex 233.85033987072 15.875 0.0
vertex 179.4 21.300386608211 0.0
vertex 233.85033987072 41.275 0.0
endloop
endfacet
facet normal 0.0 0.0 -1.0
outer loop
vertex 233.85033987072 2.585058944387e-14 0.0
vertex 179.4 21.300386608211 0.0
vertex 233.85033987072 15.875 0.0
endloop
endfacet
facet normal 0.0 0.0 -1.0
outer loop
vertex 233.85033987072 2.585058944387e-14 0.0
vertex 166.8 14.025773216421 0.0
vertex 179.4 21.300386608211 0.0
endloop
endfacet
facet normal 0.0 0.0 -1.0
outer loop
vertex 252.90033987072 9.525 0.0
vertex 233.85033987072 41.275 0.0
vertex 252.90033987072 47.625 0.0
endloop
endfacet
facet normal 0.0 0.0 -0.9999999999999999
outer loop
vertex 252.90033987072 9.525 0.0
vertex 233.85033987072 15.875 0.0
vertex 233.85033987072 41.275 0.0
endloop
endfacet
facet normal 0.0 0.0 -0.9999999999999999
outer loop
vertex 1.00892989728 0.0 0.0
vertex 166.8 14.025773216421 0.0
vertex 233.85033987072 2.585058944387e-14 0.0
endloop
endfacet
facet normal 0.0 0.0 -0.9999999999999999
outer loop
vertex 1.00892989728 0.0 0.0
vertex 131.6 14.025773216421 0.0
vertex 166.8 14.025773216421 0.0
endloop
endfacet
facet normal 0.0 0.0 -1.0
outer loop
vertex 1.00892989728 0.0 0.0
vertex 96.4 14.025773216421 0.0
vertex 131.6 14.025773216421 0.0
endloop
endfacet
facet normal 0.0 0.0 -1.0
outer loop
vertex 1.00892989728 0.0 0.0
vertex 61.2 14.025773216421 0.0
vertex 96.4 14.025773216421 0.0
endloop
endfacet
facet normal -0.0 0.0 -1.0
outer loop
vertex 233.85033987072 57.15 0.0
vertex 61.2 43.124226783579 0.0
vertex 1.42108547152e-14 57.15 0.0
endloop
endfacet
facet normal -0.0 0.0 -1.0
outer loop
vertex 233.85033987072 57.15 0.0
vertex 96.4 43.124226783579 0.0
vertex 61.2 43.124226783579 0.0
endloop
endfacet
facet normal -0.0 0.0 -1.0
outer loop
vertex 233.85033987072 57.15 0.0
vertex 131.6 43.124226783579 0.0
vertex 96.4 43.124226783579 0.0
endloop
endfacet
facet normal -0.0 0.0 -1.0
outer loop
vertex 233.85033987072 57.15 0.0
vertex 166.8 43.124226783579 0.0
vertex 131.6 43.124226783579 0.0
endloop
endfacet
facet normal -0.0 0.9999999999999999 0.0
outer loop
vertex 1.42108547152e-14 57.15 0.0
vertex 233.85033987072 57.15 12.7
vertex 233.85033987072 57.15 0.0
endloop
endfacet
facet normal 0.0 0.9999999999999999 -0.0
outer loop
vertex 1.42108547152e-14 57.15 0.0
vertex 7.1054273576e-15 57.15 12.7
vertex 233.85033987072 57.15 12.7
endloop
endfacet
facet normal 0.0 0.0 1.0
outer loop
vertex 48.6 21.300386608211 12.7
vertex 0.2522918730818233 28.52266322742837 12.7
vertex 1.00892989728 0.0 12.7
endloop
endfacet
facet normal 0.0 0.0 0.9999999999999999
outer loop
vertex 61.2 14.025773216421 12.7
vertex 48.6 21.300386608211 12.7
vertex 1.00892989728 0.0 12.7
endloop
endfacet
facet normal 0.0 0.0 1.0
outer loop
vertex 48.6 35.849613391789 12.7
vertex 7.1054273576e-15 57.15 12.7
vertex 0.2522918730818233 28.52266322742837 12.7
endloop
endfacet
facet normal 0.0 0.0 1.0
outer loop
vertex 48.6 35.849613391789 12.7
vertex 0.2522918730818233 28.52266322742837 12.7
vertex 48.6 21.300386608211 12.7
endloop
endfacet
facet normal 0.0 0.0 1.0
outer loop
vertex 61.2 43.124226783579 12.7
vertex 7.1054273576e-15 57.15 12.7
vertex 48.6 35.849613391789 12.7
endloop
endfacet
facet normal 0.0 0.0 1.0
outer loop
vertex 96.4 14.025773216421 12.7
vertex 73.8 21.300386608211 12.7
vertex 61.2 14.025773216421 12.7
endloop
endfacet
facet normal 0.0 0.0 1.0
outer loop
vertex 96.4 14.025773216421 12.7
vertex 61.2 14.025773216421 12.7
vertex 1.00892989728 0.0 12.7
endloop
endfacet
facet normal 0.0 0.0 1.0
outer loop
vertex 96.4 14.025773216421 12.7
vertex 83.8 21.300386608211 12.7
vertex 73.8 21.300386608211 12.7
endloop
endfacet
facet normal 0.0 0.0 1.0
outer loop
vertex 83.8 35.849613391789 12.7
vertex 73.8 35.849613391789 12.7
vertex 73.8 21.300386608211 12.7
endloop
endfacet
facet normal -0.0 0.0 1.0
outer loop
vertex 83.8 35.849613391789 12.7
vertex 73.8 21.300386608211 12.7
vertex 83.8 21.300386608211 12.7
endloop
endfacet
facet normal 0.0 0.0 1.0
outer loop
vertex 96.4 43.124226783579 12.7
vertex 61.2 43.124226783579 12.7
vertex 73.8 35.849613391789 12.7
endloop
endfacet
facet normal -0.0 0.0 1.0
outer loop
vertex 96.4 43.124226783579 12.7
vertex 73.8 35.849613391789 12.7
vertex 83.8 35.849613391789 12.7
endloop
endfacet
facet normal 0.0 0.0 1.0
outer loop
vertex 131.6 14.025773216421 12.7
vertex 109.0 21.300386608211 12.7
vertex 96.4 14.025773216421 12.7
endloop
endfacet
facet normal 0.0 0.0 1.0
outer loop
vertex 131.6 14.025773216421 12.7
vertex 96.4 14.025773216421 12.7
vertex 1.00892989728 0.0 12.7
endloop
endfacet
facet normal 0.0 0.0 1.0
outer loop
vertex 131.6 14.025773216421 12.7
vertex 119.0 21.300386608211 12.7
vertex 109.0 21.300386608211 12.7
endloop
endfacet
facet normal 0.0 0.0 1.0
outer loop
vertex 119.0 35.849613391789 12.7
vertex 109.0 35.849613391789 12.7
vertex 109.0 21.300386608211 12.7
endloop
endfacet
facet normal -0.0 0.0 1.0
outer loop
vertex 119.0 35.849613391789 12.7
vertex 109.0 21.300386608211 12.7
vertex 119.0 21.300386608211 12.7
endloop
endfacet
facet normal 0.0 0.0 1.0
outer loop
vertex 131.6 43.124226783579 12.7
vertex 96.4 43.124226783579 12.7
vertex 109.0 35.849613391789 12.7
endloop
endfacet
facet normal -0.0 0.0 1.0
outer loop
vertex 131.6 43.124226783579 12.7
vertex 109.0 35.849613391789 12.7
vertex 119.0 35.849613391789 12.7
endloop
endfacet
facet normal 0.0 0.0 1.0
outer loop
vertex 166.8 14.025773216421 12.7
vertex 144.2 21.300386608211 12.7
vertex 131.6 14.025773216421 12.7
endloop
endfacet
facet normal 0.0 0.0 1.0
outer loop
vertex 166.8 14.025773216421 12.7
vertex 154.2 21.300386608211 12.7
vertex 144.2 21.300386608211 12.7
endloop
endfacet
facet normal 0.0 0.0 1.0
outer loop
vertex 154.2 35.849613391789 12.7
vertex 144.2 35.849613391789 12.7
vertex 144.2 21.300386608211 12.7
endloop
endfacet
facet normal -0.0 0.0 1.0
outer loop
vertex 154.2 35.849613391789 12.7
vertex 144.2 21.300386608211 12.7
vertex 154.2 21.300386608211 12.7
endloop
endfacet
facet normal 0.0 0.0 1.0
outer loop
vertex 166.8 43.124226783579 12.7
vertex 131.6 43.124226783579 12.7
vertex 144.2 35.849613391789 12.7
endloop
endfacet
facet normal -0.0 0.0 1.0
outer loop
vertex 166.8 43.124226783579 12.7
vertex 144.2 35.849613391789 12.7
vertex 154.2 35.849613391789 12.7
endloop
endfacet
facet normal 0.0 0.0 1.0
outer loop
vertex 233.85033987072 1.312398550872e-14 12.7
vertex 179.4 21.300386608211 12.7
vertex 166.8 14.025773216421 12.7
endloop
endfacet
facet normal 0.0 0.0 0.9999999999999999
outer loop
vertex 233.85033987072 1.312398550872e-14 12.7
vertex 131.6 14.025773216421 12.7
vertex 1.00892989728 0.0 12.7
endloop
endfacet
facet normal 0.0 0.0 1.0
outer loop
vertex 233.85033987072 1.312398550872e-14 12.7
vertex 166.8 14.025773216421 12.7
vertex 131.6 14.025773216421 12.7
endloop
endfacet
facet normal 0.0 0.0 1.0
outer loop
vertex 233.85033987072 15.875 12.7
vertex 179.4 21.300386608211 12.7
vertex 233.85033987072 1.312398550872e-14 12.7
endloop
endfacet
facet normal 0.0 0.0 0.9999999999999999
outer loop
vertex 233.85033987072 41.275 12.7
vertex 233.85033987072 15.875 12.7
vertex 252.90033987072 9.525 12.7
endloop
endfacet
facet normal 0.0 0.0 1.0
outer loop
vertex 233.85033987072 41.275 12.7
vertex 179.4 35.849613391789 12.7
vertex 179.4 21.300386608211 12.7
endloop
endfacet
facet normal 0.0 0.0 1.0
outer loop
vertex 233.85033987072 41.275 12.7
vertex 179.4 21.300386608211 12.7
vertex 233.85033987072 15.875 12.7
endloop
endfacet
facet normal 0.0 0.0 0.9999999999999999
outer loop
vertex 233.85033987072 57.15 12.7
vertex 166.8 43.124226783579 12.7
vertex 179.4 35.849613391789 12.7
endloop
endfacet
facet normal -0.0 0.0 1.0
outer loop
vertex 233.85033987072 57.15 12.7
vertex 179.4 35.849613391789 12.7
vertex 233.85033987072 41.275 12.7
endloop
endfacet
facet normal 0.0 0.0 1.0
outer loop
vertex 252.90033987072 47.625 12.7
vertex 233.85033987072 41.275 12.7
vertex 252.90033987072 9.525 12.7
endloop
endfacet
facet normal 0.0 0.0 1.0
outer loop
vertex 233.85033987072 57.15 12.7
vertex 7.1054273576e-15 57.15 12.7
vertex 166.8 43.124226783579 12.7
endloop
endfacet
facet normal 0.0 0.0 0.9999999999999999
outer loop
vertex 166.8 43.124226783579 12.7
vertex 7.1054273576e-15 57.15 12.7
vertex 131.6 43.124226783579 12.7
endloop
endfacet
facet normal 0.0 0.0 1.0
outer loop
vertex 131.6 43.124226783579 12.7
vertex 7.1054273576e-15 57.15 12.7
vertex 96.4 43.124226783579 12.7
endloop
endfacet
facet normal 0.0 0.0 0.9999999999999999
outer loop
vertex 96.4 43.124226783579 12.7
vertex 7.1054273576e-15 57.15 12.7
vertex 61.2 43.124226783579 12.7
endloop
endfacet
facet normal 5.636448220364686e-17 -1.0 0.0
outer loop
vertex 233.85033987072 1.312398550872e-14 12.7
vertex 1.00892989728 0.0 12.7
vertex 1.00892989728 0.0 0.0
endloop
endfacet
facet normal 1.1102230246251625e-16 -1.0 -1.0020947980433072e-15
outer loop
vertex 233.85033987072 2.585058944387e-14 0.0
vertex 233.85033987072 1.312398550872e-14 12.7
vertex 1.00892989728 0.0 0.0
endloop
endfacet
facet normal 1.0 0.0 0.0
outer loop
vertex 233.85033987072 15.875 0.0
vertex 233.85033987072 1.312398550872e-14 12.7
vertex 233.85033987072 2.585058944387e-14 0.0
endloop
endfacet
facet normal 1.0 0.0 -0.0
outer loop
vertex 233.85033987072 15.875 0.0
vertex 233.85033987072 15.875 12.7
vertex 233.85033987072 1.312398550872e-14 12.7
endloop
endfacet
facet normal -0.3162277660168382 -0.9486832980505138 -0.0
outer loop
vertex 252.90033987072 9.525 0.0
vertex 233.85033987072 15.875 12.7
vertex 233.85033987072 15.875 0.0
endloop
endfacet
facet normal -0.3162277660168382 -0.9486832980505138 0.0
outer loop
vertex 252.90033987072 9.525 0.0
vertex 252.90033987072 9.525 12.7
vertex 233.85033987072 15.875 12.7
endloop
endfacet
facet normal 1.0 0.0 0.0
outer loop
vertex 252.90033987072 47.625 0.0
vertex 252.90033987072 9.525 12.7
vertex 252.90033987072 9.525 0.0
endloop
endfacet
facet normal 1.0 0.0 -0.0
outer loop
vertex 252.90033987072 47.625 0.0
vertex 252.90033987072 47.625 12.7
vertex 252.90033987072 9.525 12.7
endloop
endfacet
facet normal -0.3162277660168383 0.9486832980505138 0.0
outer loop
vertex 233.85033987072 41.275 0.0
vertex 252.90033987072 47.625 12.7
vertex 252.90033987072 47.625 0.0
endloop
endfacet
facet normal -0.3162277660168383 0.9486832980505138 0.0
outer loop
vertex 233.85033987072 41.275 0.0
vertex 233.85033987072 41.275 12.7
vertex 252.90033987072 47.625 12.7
endloop
endfacet
facet normal 1.0 0.0 0.0
outer loop
vertex 233.85033987072 57.15 0.0
vertex 233.85033987072 41.275 12.7
vertex 233.85033987072 41.275 0.0
endloop
endfacet
facet normal 1.0 0.0 -0.0
outer loop
vertex 233.85033987072 57.15 0.0
vertex 233.85033987072 57.15 12.7
vertex 233.85033987072 41.275 12.7
endloop
endfacet
facet normal -0.5000000000000371 0.8660254037844173 0.0
outer loop
vertex 179.4 21.300386608211 12.7
vertex 166.8 14.025773216421 0.0
vertex 166.8 14.025773216421 12.7
endloop
endfacet
facet normal -0.5000000000000371 0.8660254037844173 0.0
outer loop
vertex 179.4 21.300386608211 0.0
vertex 166.8 14.025773216421 0.0
vertex 179.4 21.300386608211 12.7
endloop
endfacet
facet normal 0.5000000000000362 0.8660254037844176 -0.0
outer loop
vertex 166.8 14.025773216421 0.0
vertex 154.2 21.300386608211 0.0
vertex 154.2 21.300386608211 12.7
endloop
endfacet
facet normal 0.5000000000000362 0.8660254037844176 0.0
outer loop
vertex 166.8 14.025773216421 0.0
vertex 154.2 21.300386608211 12.7
vertex 166.8 14.025773216421 12.7
endloop
endfacet
facet normal 1.0 -0.0 0.0
outer loop
vertex 154.2 21.300386608211 12.7
vertex 154.2 35.849613391789 0.0
vertex 154.2 35.849613391789 12.7
endloop
endfacet
facet normal 1.0 0.0 -0.0
outer loop
vertex 154.2 21.300386608211 0.0
vertex 154.2 35.849613391789 0.0
vertex 154.2 21.300386608211 12.7
endloop
endfacet
facet normal 0.5000000000000361 -0.8660254037844177 0.0
outer loop
vertex 154.2 35.849613391789 0.0
vertex 166.8 43.124226783579 0.0
vertex 166.8 43.124226783579 12.7
endloop
endfacet
facet normal 0.5000000000000361 -0.8660254037844177 0.0
outer loop
vertex 154.2 35.849613391789 0.0
vertex 166.8 43.124226783579 12.7
vertex 154.2 35.849613391789 12.7
endloop
endfacet
facet normal -0.500000000000037 -0.8660254037844173 0.0
outer loop
vertex 166.8 43.124226783579 12.7
vertex 179.4 35.849613391789 0.0
vertex 179.4 35.849613391789 12.7
endloop
endfacet
facet normal -0.500000000000037 -0.8660254037844173 0.0
outer loop
vertex 166.8 43.124226783579 0.0
vertex 179.4 35.849613391789 0.0
vertex 166.8 43.124226783579 12.7
endloop
endfacet
facet normal -1.0 -0.0 0.0
outer loop
vertex 179.4 35.849613391789 12.7
vertex 179.4 21.300386608211 0.0
vertex 179.4 21.300386608211 12.7
endloop
endfacet
facet normal -1.0 0.0 0.0
outer loop
vertex 179.4 35.849613391789 0.0
vertex 179.4 21.300386608211 0.0
vertex 179.4 35.849613391789 12.7
endloop
endfacet
facet normal -0.5000000000000371 0.8660254037844173 0.0
outer loop
vertex 73.8 21.300386608211 12.7
vertex 61.2 14.025773216421 0.0
vertex 61.2 14.025773216421 12.7
endloop
endfacet
facet normal -0.5000000000000371 0.8660254037844173 0.0
outer loop
vertex 73.8 21.300386608211 0.0
vertex 61.2 14.025773216421 0.0
vertex 73.8 21.300386608211 12.7
endloop
endfacet
facet normal 0.5000000000000369 0.8660254037844173 -0.0
outer loop
vertex 61.2 14.025773216421 12.7
vertex 48.6 21.300386608211 0.0
vertex 48.6 21.300386608211 12.7
endloop
endfacet
facet normal 0.5000000000000369 0.8660254037844173 0.0
outer loop
vertex 61.2 14.025773216421 0.0
vertex 48.6 21.300386608211 0.0
vertex 61.2 14.025773216421 12.7
endloop
endfacet
facet normal 1.0 -0.0 0.0
outer loop
vertex 48.6 21.300386608211 12.7
vertex 48.6 35.849613391789 0.0
vertex 48.6 35.849613391789 12.7
endloop
endfacet
facet normal 1.0 0.0 -0.0
outer loop
vertex 48.6 21.300386608211 0.0
vertex 48.6 35.849613391789 0.0
vertex 48.6 21.300386608211 12.7
endloop
endfacet
facet normal 0.5000000000000367 -0.8660254037844175 0.0
outer loop
vertex 48.6 35.849613391789 12.7
vertex 61.2 43.124226783579 0.0
vertex 61.2 43.124226783579 12.7
endloop
endfacet
facet normal 0.5000000000000367 -0.8660254037844175 0.0
outer loop
vertex 48.6 35.849613391789 0.0
vertex 61.2 43.124226783579 0.0
vertex 48.6 35.849613391789 12.7
endloop
endfacet
facet normal -0.500000000000037 -0.8660254037844173 0.0
outer loop
vertex 61.2 43.124226783579 12.7
vertex 73.8 35.849613391789 0.0
vertex 73.8 35.849613391789 12.7
endloop
endfacet
facet normal -0.500000000000037 -0.8660254037844173 0.0
outer loop
vertex 61.2 43.124226783579 0.0
vertex 73.8 35.849613391789 0.0
vertex 61.2 43.124226783579 12.7
endloop
endfacet
facet normal -1.0 -0.0 0.0
outer loop
vertex 73.8 35.849613391789 12.7
vertex 73.8 21.300386608211 0.0
vertex 73.8 21.300386608211 12.7
endloop
endfacet
facet normal -1.0 0.0 0.0
outer loop
vertex 73.8 35.849613391789 0.0
vertex 73.8 21.300386608211 0.0
vertex 73.8 35.849613391789 12.7
endloop
endfacet
facet normal -0.5000000000000371 0.8660254037844173 0.0
outer loop
vertex 109.0 21.300386608211 12.7
vertex 96.4 14.025773216421 0.0
vertex 96.4 14.025773216421 12.7
endloop
endfacet
facet normal -0.5000000000000371 0.8660254037844173 0.0
outer loop
vertex 109.0 21.300386608211 0.0
vertex 96.4 14.025773216421 0.0
vertex 109.0 21.300386608211 12.7
endloop
endfacet
facet normal 0.5000000000000366 0.8660254037844175 -0.0
outer loop
vertex 96.4 14.025773216421 12.7
vertex 83.8 21.300386608211 0.0
vertex 83.8 21.300386608211 12.7
endloop
endfacet
facet normal 0.5000000000000366 0.8660254037844175 0.0
outer loop
vertex 96.4 14.025773216421 0.0
vertex 83.8 21.300386608211 0.0
vertex 96.4 14.025773216421 12.7
endloop
endfacet
facet normal 1.0 -0.0 0.0
outer loop
vertex 83.8 21.300386608211 12.7
vertex 83.8 35.849613391789 0.0
vertex 83.8 35.849613391789 12.7
endloop
endfacet
facet normal 1.0 0.0 -0.0
outer loop
vertex 83.8 21.300386608211 0.0
vertex 83.8 35.849613391789 0.0
vertex 83.8 21.300386608211 12.7
endloop
endfacet
facet normal 0.5000000000000365 -0.8660254037844175 0.0
outer loop
vertex 83.8 35.849613391789 12.7
vertex 96.4 43.124226783579 0.0
vertex 96.4 43.124226783579 12.7
endloop
endfacet
facet normal 0.5000000000000365 -0.8660254037844175 0.0
outer loop
vertex 83.8 35.849613391789 0.0
vertex 96.4 43.124226783579 0.0
vertex 83.8 35.849613391789 12.7
endloop
endfacet
facet normal -0.500000000000037 -0.8660254037844173 0.0
outer loop
vertex 96.4 43.124226783579 12.7
vertex 109.0 35.849613391789 0.0
vertex 109.0 35.849613391789 12.7
endloop
endfacet
facet normal -0.500000000000037 -0.8660254037844173 0.0
outer loop
vertex 96.4 43.124226783579 0.0
vertex 109.0 35.849613391789 0.0
vertex 96.4 43.124226783579 12.7
endloop
endfacet
facet normal -1.0 -0.0 0.0
outer loop
vertex 109.0 35.849613391789 12.7
vertex 109.0 21.300386608211 0.0
vertex 109.0 21.300386608211 12.7
endloop
endfacet
facet normal -1.0 0.0 0.0
outer loop
vertex 109.0 35.849613391789 0.0
vertex 109.0 21.300386608211 0.0
vertex 109.0 35.849613391789 12.7
endloop
endfacet
facet normal -0.5000000000000371 0.8660254037844173 0.0
outer loop
vertex 144.2 21.300386608211 12.7
vertex 131.6 14.025773216421 0.0
vertex 131.6 14.025773216421 12.7
endloop
endfacet
facet normal -0.5000000000000371 0.8660254037844173 0.0
outer loop
vertex 144.2 21.300386608211 0.0
vertex 131.6 14.025773216421 0.0
vertex 144.2 21.300386608211 12.7
endloop
endfacet
facet normal 0.5000000000000371 0.8660254037844173 -0.0
outer loop
vertex 131.6 14.025773216421 12.7
vertex 119.0 21.300386608211 0.0
vertex 119.0 21.300386608211 12.7
endloop
endfacet
facet normal 0.5000000000000371 0.8660254037844173 0.0
outer loop
vertex 131.6 14.025773216421 0.0
vertex 119.0 21.300386608211 0.0
vertex 131.6 14.025773216421 12.7
endloop
endfacet
facet normal 1.0 -0.0 0.0
outer loop
vertex 119.0 21.300386608211 12.7
vertex 119.0 35.849613391789 0.0
vertex 119.0 35.849613391789 12.7
endloop
endfacet
facet normal 1.0 0.0 -0.0
outer loop
vertex 119.0 21.300386608211 0.0
vertex 119.0 35.849613391789 0.0
vertex 119.0 21.300386608211 12.7
endloop
endfacet
facet normal 0.500000000000037 -0.8660254037844173 0.0
outer loop
vertex 119.0 35.849613391789 12.7
vertex 131.6 43.124226783579 0.0
vertex 131.6 43.124226783579 12.7
endloop
endfacet
facet normal 0.500000000000037 -0.8660254037844173 0.0
outer loop
vertex 119.0 35.849613391789 0.0
vertex 131.6 43.124226783579 0.0
vertex 119.0 35.849613391789 12.7
endloop
endfacet
facet normal -0.500000000000037 -0.8660254037844173 0.0
outer loop
vertex 131.6 43.124226783579 12.7
vertex 144.2 35.849613391789 0.0
vertex 144.2 35.849613391789 12.7
endloop
endfacet
facet normal -0.500000000000037 -0.8660254037844173 0.0
outer loop
vertex 131.6 43.124226783579 0.0
vertex 144.2 35.849613391789 0.0
vertex 131.6 43.124226783579 12.7
endloop
endfacet
facet normal -1.0 -0.0 0.0
outer loop
vertex 144.2 35.849613391789 12.7
vertex 144.2 21.300386608211 0.0
vertex 144.2 21.300386608211 12.7
endloop
endfacet
facet normal -1.0 0.0 0.0
outer loop
vertex 144.2 35.849613391789 0.0
vertex 144.2 21.300386608211 0.0
vertex 144.2 35.849613391789 12.7
endloop
endfacet

endsolid
