solid 
facet normal -0.0 -1.0 -0.0
outer loop
vertex 403.225 0.0 12.7
vertex 0.0 0.0 12.7
vertex 0.0 0.0 0.0
endloop
endfacet
facet normal -0.0 -1.0 0.0
outer loop
vertex 403.225 0.0 0.0
vertex 403.225 0.0 12.7
vertex 0.0 0.0 0.0
endloop
endfacet
facet normal 0.0 -0.0 -1.0
outer loop
vertex 13.925981830489457 26.000000000000004 0.0
vertex 21.200595222278736 13.400000000000004 0.0
vertex 0.0 0.0 0.0
endloop
endfacet
facet normal -0.0 0.0 -1.0
outer loop
vertex 35.74982200585731 13.4 0.0
vertex 0.0 0.0 0.0
vertex 21.200595222278736 13.400000000000004 0.0
endloop
endfacet
facet normal 0.0 -0.0 -1.0
outer loop
vertex 1.299495277635e-14 76.2 0.0
vertex 13.925981830489457 26.000000000000004 0.0
vertex 0.0 0.0 0.0
endloop
endfacet
facet normal 0.0 -0.0 -1.0
outer loop
vertex 1.299495277635e-14 76.2 0.0
vertex 21.200595222278743 38.6 0.0
vertex 13.925981830489457 26.000000000000004 0.0
endloop
endfacet
facet normal -0.0 0.0 -1.0
outer loop
vertex 49.200595222278736 35.400000000000006 0.0
vertex 43.0244353976466 26.0 0.0
vertex 35.74982200585731 38.6 0.0
endloop
endfacet
facet normal -0.0 -0.0 -1.0
outer loop
vertex 41.925981830489455 48.0 0.0
vertex 49.200595222278736 35.400000000000006 0.0
vertex 35.74982200585731 38.6 0.0
endloop
endfacet
facet normal -0.0 0.0 -1.0
outer loop
vertex 41.925981830489455 48.0 0.0
vertex 35.74982200585731 38.6 0.0
vertex 21.200595222278743 38.6 0.0
endloop
endfacet
facet normal -0.0 0.0 -1.0
outer loop
vertex 77.20059522227874 13.400000000000004 0.0
vertex 0.0 0.0 0.0
vertex 35.74982200585731 13.4 0.0
endloop
endfacet
facet normal -0.0 0.0 -1.0
outer loop
vertex 69.92598183048945 26.000000000000004 0.0
vertex 35.74982200585731 13.4 0.0
vertex 43.0244353976466 26.0 0.0
endloop
endfacet
facet normal 0.0 -0.0 -0.9999999999999999
outer loop
vertex 69.92598183048945 26.000000000000004 0.0
vertex 77.20059522227874 13.400000000000004 0.0
vertex 35.74982200585731 13.4 0.0
endloop
endfacet
facet normal -0.0 0.0 -1.0
outer loop
vertex 63.74982200585731 35.4 0.0
vertex 43.0244353976466 26.0 0.0
vertex 49.200595222278736 35.400000000000006 0.0
endloop
endfacet
facet normal 0.0 -0.0 -1.0
outer loop
vertex 63.74982200585731 35.4 0.0
vertex 69.92598183048945 26.000000000000004 0.0
vertex 43.0244353976466 26.0 0.0
endloop
endfacet
facet normal -0.0 0.0 -1.0
outer loop
vertex 91.74982200585731 13.4 0.0
vertex 0.0 0.0 0.0
vertex 77.20059522227874 13.400000000000004 0.0
endloop
endfacet
facet normal -0.0 0.0 -1.0
outer loop
vertex 39.0035701985859 76.6687864892799 0.0
vertex 21.200595222278743 38.6 0.0
vertex 1.299495277635e-14 76.2 0.0
endloop
endfacet
facet normal 0.0 -0.0 -1.0
outer loop
vertex 39.0035701985859 76.6687864892799 0.0
vertex 41.925981830489455 48.0 0.0
vertex 21.200595222278743 38.6 0.0
endloop
endfacet
facet normal 0.0 -0.0 -1.0
outer loop
vertex 39.0035701985859 76.6687864892799 0.0
vertex 49.20059522227874 60.6 0.0
vertex 41.925981830489455 48.0 0.0
endloop
endfacet
facet normal -0.0 0.0 -1.0
outer loop
vertex 77.20059522227874 38.6 0.0
vertex 69.92598183048945 26.000000000000004 0.0
vertex 63.74982200585731 35.4 0.0
endloop
endfacet
facet normal 0.0 -0.0 -1.0
outer loop
vertex 71.0244353976466 48.0 0.0
vertex 77.20059522227874 38.6 0.0
vertex 63.74982200585731 35.4 0.0
endloop
endfacet
facet normal 0.0 0.0 -1.0
outer loop
vertex 63.74982200585731 60.6 0.0
vertex 49.20059522227874 60.6 0.0
vertex 39.0035701985859 76.6687864892799 0.0
endloop
endfacet
facet normal -0.0 0.0 -1.0
outer loop
vertex 105.20059522227874 35.400000000000006 0.0
vertex 99.0244353976466 26.0 0.0
vertex 91.74982200585731 38.6 0.0
endloop
endfacet
facet normal -0.0 0.0 -1.0
outer loop
vertex 97.92598183048945 48.0 0.0
vertex 77.20059522227874 38.6 0.0
vertex 71.0244353976466 48.0 0.0
endloop
endfacet
facet normal -0.0 0.0 -1.0
outer loop
vertex 97.92598183048945 48.0 0.0
vertex 91.74982200585731 38.6 0.0
vertex 77.20059522227874 38.6 0.0
endloop
endfacet
facet normal -0.0 -0.0 -1.0
outer loop
vertex 97.92598183048945 48.0 0.0
vertex 105.20059522227874 35.400000000000006 0.0
vertex 91.74982200585731 38.6 0.0
endloop
endfacet
facet normal -0.0 0.0 -1.0
outer loop
vertex 133.20059522227874 13.400000000000004 0.0
vertex 0.0 0.0 0.0
vertex 91.74982200585731 13.4 0.0
endloop
endfacet
facet normal 0.0 -0.0 -0.9999999999999999
outer loop
vertex 125.92598183048946 26.000000000000004 0.0
vertex 133.20059522227874 13.400000000000004 0.0
vertex 91.74982200585731 13.4 0.0
endloop
endfacet
facet normal -0.0 0.0 -1.0
outer loop
vertex 125.92598183048946 26.000000000000004 0.0
vertex 91.74982200585731 13.4 0.0
vertex 99.0244353976466 26.0 0.0
endloop
endfacet
facet normal -0.0 0.0 -1.0
outer loop
vertex 119.74982200585731 35.4 0.0
vertex 99.0244353976466 26.0 0.0
vertex 105.20059522227874 35.400000000000006 0.0
endloop
endfacet
facet normal 0.0 -0.0 -1.0
outer loop
vertex 119.74982200585731 35.4 0.0
vertex 125.92598183048946 26.000000000000004 0.0
vertex 99.0244353976466 26.0 0.0
endloop
endfacet
facet normal -0.0 -0.0 -1.0
outer loop
vertex 77.67708629475075 78.07117901503824 0.0
vertex 97.92598183048945 48.0 0.0
vertex 71.0244353976466 48.0 0.0
endloop
endfacet
facet normal -0.0 0.0 -1.0
outer loop
vertex 77.67708629475075 78.07117901503824 0.0
vertex 71.0244353976466 48.0 0.0
vertex 63.74982200585731 60.6 0.0
endloop
endfacet
facet normal -0.0 0.0 -1.0
outer loop
vertex 77.67708629475075 78.07117901503824 0.0
vertex 63.74982200585731 60.6 0.0
vertex 39.0035701985859 76.6687864892799 0.0
endloop
endfacet
facet normal -0.0 0.0 -1.0
outer loop
vertex 147.7498220058573 13.4 0.0
vertex 0.0 0.0 0.0
vertex 133.20059522227874 13.400000000000004 0.0
endloop
endfacet
facet normal -0.0 0.0 -1.0
outer loop
vertex 105.20059522227874 60.6 0.0
vertex 97.92598183048945 48.0 0.0
vertex 77.67708629475075 78.07117901503824 0.0
endloop
endfacet
facet normal -0.0 0.0 -1.0
outer loop
vertex 133.20059522227876 38.6 0.0
vertex 125.92598183048946 26.000000000000004 0.0
vertex 119.74982200585731 35.4 0.0
endloop
endfacet
facet normal 0.0 -0.0 -0.9999999999999999
outer loop
vertex 127.0244353976466 48.0 0.0
vertex 133.20059522227876 38.6 0.0
vertex 119.74982200585731 35.4 0.0
endloop
endfacet
facet normal 0.0 0.0 -1.0
outer loop
vertex 147.7498220058573 38.6 0.0
vertex 133.20059522227876 38.6 0.0
vertex 127.0244353976466 48.0 0.0
endloop
endfacet
facet normal -0.0 0.0 -0.9999999999999999
outer loop
vertex 120.97300352579938 80.79541484399421 0.0
vertex 119.74982200585731 60.6 0.0
vertex 105.20059522227874 60.6 0.0
endloop
endfacet
facet normal -0.0 0.0 -1.0
outer loop
vertex 120.97300352579938 80.79541484399421 0.0
vertex 105.20059522227874 60.6 0.0
vertex 77.67708629475075 78.07117901503824 0.0
endloop
endfacet
facet normal -0.0 0.0 -1.0
outer loop
vertex 152.59646589777302 83.60802905973469 0.0
vertex 127.0244353976466 48.0 0.0
vertex 119.74982200585731 60.6 0.0
endloop
endfacet
facet normal -0.0 0.0 -1.0
outer loop
vertex 152.59646589777302 83.60802905973469 0.0
vertex 119.74982200585731 60.6 0.0
vertex 120.97300352579938 80.79541484399421 0.0
endloop
endfacet
facet normal -0.0 0.0 -1.0
outer loop
vertex 152.59646589777302 83.60802905973469 0.0
vertex 147.7498220058573 38.6 0.0
vertex 127.0244353976466 48.0 0.0
endloop
endfacet
facet normal -0.0 0.0 -1.0
outer loop
vertex 183.2745286200479 87.06117584481348 0.0
vertex 155.0244353976466 26.0 0.0
vertex 147.7498220058573 38.6 0.0
endloop
endfacet
facet normal -0.0 0.0 -1.0
outer loop
vertex 183.2745286200479 87.06117584481348 0.0
vertex 147.7498220058573 38.6 0.0
vertex 152.59646589777302 83.60802905973469 0.0
endloop
endfacet
facet normal -0.0 0.0 -1.0
outer loop
vertex 257.7987355361874 26.000000000000004 0.0
vertex 147.7498220058573 13.4 0.0
vertex 155.0244353976466 26.0 0.0
endloop
endfacet
facet normal 0.0 -0.0 -1.0
outer loop
vertex 257.7987355361874 26.000000000000004 0.0
vertex 265.07334892797667 13.400000000000004 0.0
vertex 147.7498220058573 13.4 0.0
endloop
endfacet
facet normal 0.0 -0.0 -1.0
outer loop
vertex 212.8171281182126 91.1334614943255 0.0
vertex 257.7987355361874 26.000000000000004 0.0
vertex 155.0244353976466 26.0 0.0
endloop
endfacet
facet normal -0.0 0.0 -1.0
outer loop
vertex 212.8171281182126 91.1334614943255 0.0
vertex 155.0244353976466 26.0 0.0
vertex 183.2745286200479 87.06117584481348 0.0
endloop
endfacet
facet normal 0.0 -0.0 -1.0
outer loop
vertex 265.07334892797667 48.60000000000001 0.0
vertex 265.07334892797667 38.6 0.0
vertex 257.7987355361874 26.000000000000004 0.0
endloop
endfacet
facet normal 0.0 0.0 -1.0
outer loop
vertex 279.6225757115552 38.6 0.0
vertex 265.07334892797667 38.6 0.0
vertex 265.07334892797667 48.60000000000001 0.0
endloop
endfacet
facet normal -0.0 -0.0 -1.0
outer loop
vertex 257.7987355361874 61.2 0.0
vertex 257.7987355361874 26.000000000000004 0.0
vertex 212.8171281182126 91.1334614943255 0.0
endloop
endfacet
facet normal 0.0 -0.0 -1.0
outer loop
vertex 257.7987355361874 61.2 0.0
vertex 265.07334892797667 48.60000000000001 0.0
vertex 257.7987355361874 26.000000000000004 0.0
endloop
endfacet
facet normal -0.0 -0.0 -1.0
outer loop
vertex 279.6225757115552 48.6 0.0
vertex 279.6225757115552 38.6 0.0
vertex 265.07334892797667 48.60000000000001 0.0
endloop
endfacet
facet normal 0.0 -0.0 -1.0
outer loop
vertex 288.28282974939964 43.6 0.0
vertex 295.5574431411889 31.000000000000007 0.0
vertex 286.8971891033445 26.0 0.0
endloop
endfacet
facet normal -0.0 0.0 -1.0
outer loop
vertex 288.28282974939964 43.6 0.0
vertex 279.6225757115552 38.6 0.0
vertex 279.6225757115552 48.6 0.0
endloop
endfacet
facet normal -0.0 0.0 -1.0
outer loop
vertex 288.28282974939964 43.6 0.0
vertex 286.8971891033445 26.0 0.0
vertex 279.6225757115552 38.6 0.0
endloop
endfacet
facet normal -0.0 -0.0 -1.0
outer loop
vertex 241.04123549279404 95.79965647622446 0.0
vertex 257.7987355361874 61.2 0.0
vertex 212.8171281182126 91.1334614943255 0.0
endloop
endfacet
facet normal -0.0 0.0 -1.0
outer loop
vertex 265.07334892797667 73.80000000000001 0.0
vertex 257.7987355361874 61.2 0.0
vertex 241.04123549279404 95.79965647622446 0.0
endloop
endfacet
facet normal -0.0 0.0 -1.0
outer loop
vertex 310.10666992476746 31.0 0.0
vertex 286.8971891033445 26.0 0.0
vertex 295.5574431411889 31.000000000000007 0.0
endloop
endfacet
facet normal -0.0 0.0 -1.0
outer loop
vertex 318.7669239626119 26.000000000000004 0.0
vertex 286.8971891033445 26.0 0.0
vertex 310.10666992476746 31.0 0.0
endloop
endfacet
facet normal 0.0 -0.0 -1.0
outer loop
vertex 318.7669239626119 26.000000000000004 0.0
vertex 326.04153735440116 13.400000000000004 0.0
vertex 279.6225757115552 13.4 0.0
endloop
endfacet
facet normal -0.0 0.0 -1.0
outer loop
vertex 318.7669239626119 26.000000000000004 0.0
vertex 279.6225757115552 13.4 0.0
vertex 286.8971891033445 26.0 0.0
endloop
endfacet
facet normal -0.0 0.0 -1.0
outer loop
vertex 295.5574431411889 56.2 0.0
vertex 279.6225757115552 48.6 0.0
vertex 286.8971891033445 61.2 0.0
endloop
endfacet
facet normal -0.0 0.0 -1.0
outer loop
vertex 295.5574431411889 56.2 0.0
vertex 288.28282974939964 43.6 0.0
vertex 279.6225757115552 48.6 0.0
endloop
endfacet
facet normal -0.0 -0.0 -0.9999999999999999
outer loop
vertex 295.5574431411889 66.20000000000002 0.0
vertex 295.5574431411889 56.2 0.0
vertex 286.8971891033445 61.2 0.0
endloop
endfacet
facet normal -0.0 0.0 -1.0
outer loop
vertex 326.04153735440116 38.6 0.0
vertex 318.7669239626119 26.000000000000004 0.0
vertex 310.10666992476746 31.0 0.0
endloop
endfacet
facet normal -0.0 0.0 -1.0
outer loop
vertex 326.04153735440116 38.6 0.0
vertex 310.10666992476746 31.0 0.0
vertex 317.38128331655673 43.6 0.0
endloop
endfacet
facet normal -0.0 -0.0 -1.0
outer loop
vertex 264.88088673866343 100.42268500655072 0.0
vertex 265.07334892797667 73.80000000000001 0.0
vertex 241.04123549279404 95.79965647622446 0.0
endloop
endfacet
facet normal -0.0 -0.0 -1.0
outer loop
vertex 264.88088673866343 100.42268500655072 0.0
vertex 279.6225757115552 73.8 0.0
vertex 265.07334892797667 73.80000000000001 0.0
endloop
endfacet
facet normal 0.0 -0.0 -1.0
outer loop
vertex 288.28282974939964 78.80000000000001 0.0
vertex 295.5574431411889 66.20000000000002 0.0
vertex 286.8971891033445 61.2 0.0
endloop
endfacet
facet normal -0.0 0.0 -1.0
outer loop
vertex 288.28282974939964 78.80000000000001 0.0
vertex 286.8971891033445 61.2 0.0
vertex 279.6225757115552 73.8 0.0
endloop
endfacet
facet normal -0.0 -0.0 -1.0
outer loop
vertex 326.04153735440116 48.60000000000001 0.0
vertex 326.04153735440116 38.6 0.0
vertex 317.38128331655673 43.6 0.0
endloop
endfacet
facet normal -0.0 0.0 -1.0
outer loop
vertex 310.10666992476746 66.20000000000002 0.0
vertex 295.5574431411889 56.2 0.0
vertex 295.5574431411889 66.20000000000002 0.0
endloop
endfacet
facet normal -0.0 -0.0 -1.0
outer loop
vertex 310.10666992476746 66.20000000000002 0.0
vertex 310.10666992476746 56.2 0.0
vertex 295.5574431411889 56.2 0.0
endloop
endfacet
facet normal 0.0 0.0 -1.0
outer loop
vertex 340.5907641379797 38.6 0.0
vertex 326.04153735440116 38.6 0.0
vertex 326.04153735440116 48.60000000000001 0.0
endloop
endfacet
facet normal 0.0 -0.0 -1.0
outer loop
vertex 318.7669239626119 61.2 0.0
vertex 326.04153735440116 48.60000000000001 0.0
vertex 317.38128331655673 43.6 0.0
endloop
endfacet
facet normal -0.0 0.0 -0.9999999999999999
outer loop
vertex 318.7669239626119 61.2 0.0
vertex 310.10666992476746 56.2 0.0
vertex 310.10666992476746 66.20000000000002 0.0
endloop
endfacet
facet normal -0.0 0.0 -1.0
outer loop
vertex 318.7669239626119 61.2 0.0
vertex 317.38128331655673 43.6 0.0
vertex 310.10666992476746 56.2 0.0
endloop
endfacet
facet normal -0.0 0.0 -1.0
outer loop
vertex 281.9157676971786 104.16941531003354 0.0
vertex 279.6225757115552 73.8 0.0
vertex 264.88088673866343 100.42268500655072 0.0
endloop
endfacet
facet normal 0.0 -0.0 -1.0
outer loop
vertex 281.9157676971786 104.16941531003354 0.0
vertex 288.28282974939964 78.80000000000001 0.0
vertex 279.6225757115552 73.8 0.0
endloop
endfacet
facet normal -0.0 0.0 -1.0
outer loop
vertex 295.5574431411889 91.4 0.0
vertex 288.28282974939964 78.80000000000001 0.0
vertex 281.9157676971786 104.16941531003354 0.0
endloop
endfacet
facet normal -0.0 0.0 -1.0
outer loop
vertex 356.5256315676134 31.000000000000007 0.0
vertex 347.865377529769 26.0 0.0
vertex 340.5907641379797 38.6 0.0
endloop
endfacet
facet normal -0.0 -0.0 -1.0
outer loop
vertex 340.5907641379797 48.6 0.0
vertex 340.5907641379797 38.6 0.0
vertex 326.04153735440116 48.60000000000001 0.0
endloop
endfacet
facet normal -0.0 -0.0 -1.0
outer loop
vertex 349.25101817582413 43.6 0.0
vertex 356.5256315676134 31.000000000000007 0.0
vertex 340.5907641379797 38.6 0.0
endloop
endfacet
facet normal -0.0 0.0 -1.0
outer loop
vertex 349.25101817582413 43.6 0.0
vertex 340.5907641379797 38.6 0.0
vertex 340.5907641379797 48.6 0.0
endloop
endfacet
facet normal -0.0 0.0 -1.0
outer loop
vertex 326.04153735440116 73.80000000000001 0.0
vertex 318.7669239626119 61.2 0.0
vertex 310.10666992476746 66.20000000000002 0.0
endloop
endfacet
facet normal -0.0 0.0 -1.0
outer loop
vertex 326.04153735440116 73.80000000000001 0.0
vertex 310.10666992476746 66.20000000000002 0.0
vertex 317.38128331655673 78.80000000000001 0.0
endloop
endfacet
facet normal -0.0 0.0 -1.0
outer loop
vertex 371.07485835119195 31.0 0.0
vertex 347.865377529769 26.0 0.0
vertex 356.5256315676134 31.000000000000007 0.0
endloop
endfacet
facet normal -0.0 0.0 -1.0
outer loop
vertex 371.07485835119195 31.0 0.0
vertex 340.5907641379797 13.4 0.0
vertex 347.865377529769 26.0 0.0
endloop
endfacet
facet normal 0.0 0.0 -1.0
outer loop
vertex 403.225 0.0 0.0
vertex 0.0 0.0 0.0
vertex 147.7498220058573 13.4 0.0
endloop
endfacet
facet normal 0.0 0.0 -0.9999999999999999
outer loop
vertex 403.225 0.0 0.0
vertex 279.6225757115552 13.4 0.0
vertex 326.04153735440116 13.400000000000004 0.0
endloop
endfacet
facet normal 0.0 0.0 -1.0
outer loop
vertex 403.225 0.0 0.0
vertex 265.07334892797667 13.400000000000004 0.0
vertex 279.6225757115552 13.4 0.0
endloop
endfacet
facet normal 0.0 0.0 -1.0
outer loop
vertex 403.225 0.0 0.0
vertex 340.5907641379797 13.4 0.0
vertex 371.07485835119195 31.0 0.0
endloop
endfacet
facet normal 0.0 0.0 -1.0
outer loop
vertex 403.225 0.0 0.0
vertex 326.04153735440116 13.400000000000004 0.0
vertex 340.5907641379797 13.4 0.0
endloop
endfacet
facet normal 0.0 0.0 -1.0
outer loop
vertex 403.225 0.0 0.0
vertex 147.7498220058573 13.4 0.0
vertex 265.07334892797667 13.400000000000004 0.0
endloop
endfacet
facet normal -0.0 0.0 -1.0
outer loop
vertex 298.1741647642816 108.14427600288307 0.0
vertex 295.5574431411889 91.4 0.0
vertex 281.9157676971786 104.16941531003354 0.0
endloop
endfacet
facet normal -0.0 -0.0 -1.0
outer loop
vertex 298.1741647642816 108.14427600288307 0.0
vertex 310.10666992476746 91.4 0.0
vertex 295.5574431411889 91.4 0.0
endloop
endfacet
facet normal -0.0 -0.0 -1.0
outer loop
vertex 347.865377529769 61.2 0.0
vertex 349.25101817582413 43.6 0.0
vertex 340.5907641379797 48.6 0.0
endloop
endfacet
facet normal -0.0 0.0 -1.0
outer loop
vertex 356.5256315676134 56.2 0.0
vertex 349.25101817582413 43.6 0.0
vertex 347.865377529769 61.2 0.0
endloop
endfacet
facet normal -0.0 -0.0 -1.0
outer loop
vertex 378.3494717429812 43.6 0.0
vertex 403.225 0.0 0.0
vertex 371.07485835119195 31.0 0.0
endloop
endfacet
facet normal -0.0 -0.0 -0.9999999999999999
outer loop
vertex 356.5256315676134 66.20000000000002 0.0
vertex 356.5256315676134 56.2 0.0
vertex 347.865377529769 61.2 0.0
endloop
endfacet
facet normal -0.0 0.0 -1.0
outer loop
vertex 356.5256315676134 66.20000000000002 0.0
vertex 347.865377529769 61.2 0.0
vertex 340.5907641379797 73.8 0.0
endloop
endfacet
facet normal -0.0 0.0 -1.0
outer loop
vertex 313.61129724705165 112.3363190798713 0.0
vertex 310.10666992476746 91.4 0.0
vertex 298.1741647642816 108.14427600288307 0.0
endloop
endfacet
facet normal -0.0 -0.0 -1.0
outer loop
vertex 349.25101817582413 78.80000000000001 0.0
vertex 356.5256315676134 66.20000000000002 0.0
vertex 340.5907641379797 73.8 0.0
endloop
endfacet
facet normal -0.0 -0.0 -1.0
outer loop
vertex 371.07485835119195 66.20000000000002 0.0
vertex 378.3494717429812 43.6 0.0
vertex 371.07485835119195 56.2 0.0
endloop
endfacet
facet normal -0.0 0.0 -1.0
outer loop
vertex 371.07485835119195 66.20000000000002 0.0
vertex 356.5256315676134 56.2 0.0
vertex 356.5256315676134 66.20000000000002 0.0
endloop
endfacet
facet normal -0.0 -0.0 -1.0
outer loop
vertex 371.07485835119195 66.20000000000002 0.0
vertex 371.07485835119195 56.2 0.0
vertex 356.5256315676134 56.2 0.0
endloop
endfacet
facet normal -0.0 0.0 -1.0
outer loop
vertex 328.1846464712039 116.73399834779318 0.0
vertex 326.04153735440116 73.80000000000001 0.0
vertex 317.38128331655673 78.80000000000001 0.0
endloop
endfacet
facet normal 0.0 -0.0 -1.0
outer loop
vertex 328.1846464712039 116.73399834779318 0.0
vertex 349.25101817582413 78.80000000000001 0.0
vertex 340.5907641379797 73.8 0.0
endloop
endfacet
facet normal -0.0 0.0 -1.0
outer loop
vertex 328.1846464712039 116.73399834779318 0.0
vertex 310.10666992476746 91.4 0.0
vertex 313.61129724705165 112.3363190798713 0.0
endloop
endfacet
facet normal -0.0 -0.0 -0.9999999999999999
outer loop
vertex 328.1846464712039 116.73399834779318 0.0
vertex 340.5907641379797 73.8 0.0
vertex 326.04153735440116 73.80000000000001 0.0
endloop
endfacet
facet normal -0.0 0.0 -1.0
outer loop
vertex 328.1846464712039 116.73399834779318 0.0
vertex 317.38128331655673 78.80000000000001 0.0
vertex 310.10666992476746 91.4 0.0
endloop
endfacet
facet normal -0.0 0.0 -1.0
outer loop
vertex 356.5256315676134 91.4 0.0
vertex 349.25101817582413 78.80000000000001 0.0
vertex 328.1846464712039 116.73399834779318 0.0
endloop
endfacet
facet normal -0.0 -0.0 -1.0
outer loop
vertex 378.3494717429812 78.80000000000001 0.0
vertex 378.3494717429812 43.6 0.0
vertex 371.07485835119195 66.20000000000002 0.0
endloop
endfacet
facet normal -0.0 -0.0 -1.0
outer loop
vertex 378.3494717429812 78.80000000000001 0.0
vertex 403.225 0.0 0.0
vertex 378.3494717429812 43.6 0.0
endloop
endfacet
facet normal -0.0 -0.0 -1.0
outer loop
vertex 340.3810785695785 120.80589960758913 0.0
vertex 356.5256315676134 91.4 0.0
vertex 328.1846464712039 116.73399834779318 0.0
endloop
endfacet
facet normal -0.0 -0.0 -1.0
outer loop
vertex 349.04365154612685 123.95485695785636 0.0
vertex 356.5256315676134 91.4 0.0
vertex 340.3810785695785 120.80589960758913 0.0
endloop
endfacet
facet normal -0.0 -0.0 -1.0
outer loop
vertex 357.27889224041206 127.18099531460315 0.0
vertex 371.07485835119195 91.4 0.0
vertex 356.5256315676134 91.4 0.0
endloop
endfacet
facet normal -0.0 0.0 -1.0
outer loop
vertex 357.27889224041206 127.18099531460315 0.0
vertex 356.5256315676134 91.4 0.0
vertex 349.04365154612685 123.95485695785636 0.0
endloop
endfacet
facet normal -0.0 -0.0 -1.0
outer loop
vertex 365.0767182911443 130.4803649338339 0.0
vertex 371.07485835119195 91.4 0.0
vertex 357.27889224041206 127.18099531460315 0.0
endloop
endfacet
facet normal -0.0 0.0 -1.0
outer loop
vertex 371.63317690938914 133.47135244748512 0.0
vertex 371.07485835119195 91.4 0.0
vertex 365.0767182911443 130.4803649338339 0.0
endloop
endfacet
facet normal -0.0 0.0 -1.0
outer loop
vertex 376.314929683588 135.748732476281 0.0
vertex 371.07485835119195 91.4 0.0
vertex 371.63317690938914 133.47135244748512 0.0
endloop
endfacet
facet normal -0.0 0.0 -1.0
outer loop
vertex 380.79190624432056 138.05399934253612 0.0
vertex 371.07485835119195 91.4 0.0
vertex 376.314929683588 135.748732476281 0.0
endloop
endfacet
facet normal -0.0 0.0 -1.0
outer loop
vertex 385.0616703919158 140.38589860805882 0.0
vertex 371.07485835119195 91.4 0.0
vertex 380.79190624432056 138.05399934253612 0.0
endloop
endfacet
facet normal -0.0 0.0 -1.0
outer loop
vertex 389.1218986837847 142.74316134232276 0.0
vertex 378.3494717429812 78.80000000000001 0.0
vertex 371.07485835119195 91.4 0.0
endloop
endfacet
facet normal -0.0 0.0 -1.0
outer loop
vertex 389.1218986837847 142.74316134232276 0.0
vertex 371.07485835119195 91.4 0.0
vertex 385.0616703919158 140.38589860805882 0.0
endloop
endfacet
facet normal -0.0 0.0 -0.9999999999999999
outer loop
vertex 392.97038169874867 145.1245048129706 0.0
vertex 378.3494717429812 78.80000000000001 0.0
vertex 389.1218986837847 142.74316134232276 0.0
endloop
endfacet
facet normal -0.0 0.0 -1.0
outer loop
vertex 396.60502523932263 147.52863318382782 0.0
vertex 378.3494717429812 78.80000000000001 0.0
vertex 392.97038169874867 145.1245048129706 0.0
endloop
endfacet
facet normal -0.0 0.0 -1.0
outer loop
vertex 400.0238514712968 149.95423822004744 0.0
vertex 378.3494717429812 78.80000000000001 0.0
vertex 396.60502523932263 147.52863318382782 0.0
endloop
endfacet
facet normal -0.0 -0.0 -1.0
outer loop
vertex 403.225 152.4 0.0
vertex 403.225 0.0 0.0
vertex 378.3494717429812 78.80000000000001 0.0
endloop
endfacet
facet normal -0.0 0.0 -1.0
outer loop
vertex 403.225 152.4 0.0
vertex 378.3494717429812 78.80000000000001 0.0
vertex 400.0238514712968 149.95423822004744 0.0
endloop
endfacet
facet normal -1.0 1.7053743800984253e-16 -5.116123140295276e-16
outer loop
vertex 0.0 0.0 0.0
vertex 6.497476388175e-15 76.2 12.7
vertex 1.299495277635e-14 76.2 0.0
endloop
endfacet
facet normal -1.0 8.526871900492126e-17 0.0
outer loop
vertex 0.0 0.0 0.0
vertex 0.0 0.0 12.7
vertex 6.497476388175e-15 76.2 12.7
endloop
endfacet
facet normal -0.0 0.0 1.0
outer loop
vertex 13.925981830489457 26.000000000000004 12.7
vertex 0.0 0.0 12.7
vertex 21.200595222278736 13.400000000000004 12.7
endloop
endfacet
facet normal 0.0 0.0 1.0
outer loop
vertex 35.74982200585731 13.4 12.7
vertex 21.200595222278736 13.400000000000004 12.7
vertex 0.0 0.0 12.7
endloop
endfacet
facet normal -0.0 0.0 1.0
outer loop
vertex 6.497476388175e-15 76.2 12.7
vertex 0.0 0.0 12.7
vertex 13.925981830489457 26.000000000000004 12.7
endloop
endfacet
facet normal -0.0 0.0 1.0
outer loop
vertex 6.497476388175e-15 76.2 12.7
vertex 13.925981830489457 26.000000000000004 12.7
vertex 21.200595222278743 38.6 12.7
endloop
endfacet
facet normal 0.0 0.0 1.0
outer loop
vertex 49.200595222278736 35.400000000000006 12.7
vertex 35.74982200585731 38.6 12.7
vertex 43.0244353976466 26.0 12.7
endloop
endfacet
facet normal 0.0 0.0 1.0
outer loop
vertex 41.925981830489455 48.0 12.7
vertex 6.497476388175e-15 76.2 12.7
vertex 21.200595222278743 38.6 12.7
endloop
endfacet
facet normal 0.0 0.0 1.0
outer loop
vertex 41.925981830489455 48.0 12.7
vertex 35.74982200585731 38.6 12.7
vertex 49.200595222278736 35.400000000000006 12.7
endloop
endfacet
facet normal -0.0 0.0 1.0
outer loop
vertex 41.925981830489455 48.0 12.7
vertex 21.200595222278743 38.6 12.7
vertex 35.74982200585731 38.6 12.7
endloop
endfacet
facet normal 0.0 0.0 1.0
outer loop
vertex 77.20059522227874 13.400000000000004 12.7
vertex 35.74982200585731 13.4 12.7
vertex 0.0 0.0 12.7
endloop
endfacet
facet normal 0.0 0.0 0.9999999999999999
outer loop
vertex 77.20059522227874 13.400000000000004 12.7
vertex 43.0244353976466 26.0 12.7
vertex 35.74982200585731 13.4 12.7
endloop
endfacet
facet normal 0.0 0.0 1.0
outer loop
vertex 69.92598183048945 26.000000000000004 12.7
vertex 43.0244353976466 26.0 12.7
vertex 77.20059522227874 13.400000000000004 12.7
endloop
endfacet
facet normal 0.0 0.0 0.9999999999999999
outer loop
vertex 63.74982200585731 35.4 12.7
vertex 49.200595222278736 35.400000000000006 12.7
vertex 43.0244353976466 26.0 12.7
endloop
endfacet
facet normal -0.0 0.0 1.0
outer loop
vertex 63.74982200585731 35.4 12.7
vertex 43.0244353976466 26.0 12.7
vertex 69.92598183048945 26.000000000000004 12.7
endloop
endfacet
facet normal 0.0 0.0 1.0
outer loop
vertex 91.74982200585731 13.4 12.7
vertex 77.20059522227874 13.400000000000004 12.7
vertex 0.0 0.0 12.7
endloop
endfacet
facet normal 0.0 0.0 0.9999999999999999
outer loop
vertex 49.20059522227874 60.6 12.7
vertex 6.497476388175e-15 76.2 12.7
vertex 41.925981830489455 48.0 12.7
endloop
endfacet
facet normal 0.0 0.0 1.0
outer loop
vertex 77.20059522227874 38.6 12.7
vertex 63.74982200585731 35.4 12.7
vertex 69.92598183048945 26.000000000000004 12.7
endloop
endfacet
facet normal -0.0 0.0 1.0
outer loop
vertex 71.0244353976466 48.0 12.7
vertex 63.74982200585731 35.4 12.7
vertex 77.20059522227874 38.6 12.7
endloop
endfacet
facet normal 0.0 0.0 1.0
outer loop
vertex 91.74982200585731 38.6 12.7
vertex 71.0244353976466 48.0 12.7
vertex 77.20059522227874 38.6 12.7
endloop
endfacet
facet normal 0.0 0.0 0.9999999999999999
outer loop
vertex 56.43707056912051 77.18380264789123 12.7
vertex 6.497476388175e-15 76.2 12.7
vertex 49.20059522227874 60.6 12.7
endloop
endfacet
facet normal -0.0 0.0 1.0
outer loop
vertex 56.43707056912051 77.18380264789123 12.7
vertex 49.20059522227874 60.6 12.7
vertex 63.74982200585731 60.6 12.7
endloop
endfacet
facet normal 0.0 0.0 1.0
outer loop
vertex 105.20059522227874 35.400000000000006 12.7
vertex 91.74982200585731 38.6 12.7
vertex 99.0244353976466 26.0 12.7
endloop
endfacet
facet normal 0.0 0.0 1.0
outer loop
vertex 97.92598183048945 48.0 12.7
vertex 63.74982200585731 60.6 12.7
vertex 71.0244353976466 48.0 12.7
endloop
endfacet
facet normal 0.0 0.0 1.0
outer loop
vertex 97.92598183048945 48.0 12.7
vertex 71.0244353976466 48.0 12.7
vertex 91.74982200585731 38.6 12.7
endloop
endfacet
facet normal 0.0 0.0 1.0
outer loop
vertex 97.92598183048945 48.0 12.7
vertex 91.74982200585731 38.6 12.7
vertex 105.20059522227874 35.400000000000006 12.7
endloop
endfacet
facet normal 0.0 0.0 1.0
outer loop
vertex 133.20059522227874 13.400000000000004 12.7
vertex 91.74982200585731 13.4 12.7
vertex 0.0 0.0 12.7
endloop
endfacet
facet normal -0.0 0.0 1.0
outer loop
vertex 125.92598183048946 26.000000000000004 12.7
vertex 91.74982200585731 13.4 12.7
vertex 133.20059522227874 13.400000000000004 12.7
endloop
endfacet
facet normal 0.0 0.0 1.0
outer loop
vertex 125.92598183048946 26.000000000000004 12.7
vertex 99.0244353976466 26.0 12.7
vertex 91.74982200585731 13.4 12.7
endloop
endfacet
facet normal 0.0 0.0 0.9999999999999999
outer loop
vertex 119.74982200585731 35.4 12.7
vertex 105.20059522227874 35.400000000000006 12.7
vertex 99.0244353976466 26.0 12.7
endloop
endfacet
facet normal -0.0 0.0 1.0
outer loop
vertex 119.74982200585731 35.4 12.7
vertex 99.0244353976466 26.0 12.7
vertex 125.92598183048946 26.000000000000004 12.7
endloop
endfacet
facet normal 0.0 0.0 1.0
outer loop
vertex 147.7498220058573 13.4 12.7
vertex 133.20059522227874 13.400000000000004 12.7
vertex 0.0 0.0 12.7
endloop
endfacet
facet normal 0.0 0.0 1.0
outer loop
vertex 105.20059522227874 60.6 12.7
vertex 56.43707056912051 77.18380264789123 12.7
vertex 63.74982200585731 60.6 12.7
endloop
endfacet
facet normal 0.0 0.0 1.0
outer loop
vertex 105.20059522227874 60.6 12.7
vertex 63.74982200585731 60.6 12.7
vertex 97.92598183048945 48.0 12.7
endloop
endfacet
facet normal 0.0 0.0 1.0
outer loop
vertex 133.20059522227876 38.6 12.7
vertex 119.74982200585731 35.4 12.7
vertex 125.92598183048946 26.000000000000004 12.7
endloop
endfacet
facet normal -0.0 0.0 0.9999999999999999
outer loop
vertex 127.0244353976466 48.0 12.7
vertex 119.74982200585731 35.4 12.7
vertex 133.20059522227876 38.6 12.7
endloop
endfacet
facet normal 0.0 0.0 1.0
outer loop
vertex 147.7498220058573 38.6 12.7
vertex 127.0244353976466 48.0 12.7
vertex 133.20059522227876 38.6 12.7
endloop
endfacet
facet normal -0.0 0.0 1.0
outer loop
vertex 112.80254483289035 80.18441402563546 12.7
vertex 105.20059522227874 60.6 12.7
vertex 119.74982200585731 60.6 12.7
endloop
endfacet
facet normal 0.0 0.0 1.0
outer loop
vertex 112.80254483289035 80.18441402563546 12.7
vertex 56.43707056912051 77.18380264789123 12.7
vertex 105.20059522227874 60.6 12.7
endloop
endfacet
facet normal 0.0 0.0 1.0
outer loop
vertex 163.39869416983674 84.7390652620385 12.7
vertex 119.74982200585731 60.6 12.7
vertex 127.0244353976466 48.0 12.7
endloop
endfacet
facet normal 0.0 0.0 1.0
outer loop
vertex 163.39869416983674 84.7390652620385 12.7
vertex 127.0244353976466 48.0 12.7
vertex 147.7498220058573 38.6 12.7
endloop
endfacet
facet normal 0.0 0.0 1.0
outer loop
vertex 163.39869416983674 84.7390652620385 12.7
vertex 112.80254483289035 80.18441402563546 12.7
vertex 119.74982200585731 60.6 12.7
endloop
endfacet
facet normal 0.0 0.0 1.0
outer loop
vertex 191.72620638488192 88.1475914060493 12.7
vertex 147.7498220058573 38.6 12.7
vertex 155.0244353976466 26.0 12.7
endloop
endfacet
facet normal 0.0 0.0 1.0
outer loop
vertex 191.72620638488192 88.1475914060493 12.7
vertex 163.39869416983674 84.7390652620385 12.7
vertex 147.7498220058573 38.6 12.7
endloop
endfacet
facet normal 0.0 0.0 1.0
outer loop
vertex 257.7987355361874 26.000000000000004 12.7
vertex 155.0244353976466 26.0 12.7
vertex 147.7498220058573 13.4 12.7
endloop
endfacet
facet normal 0.0 0.0 1.0
outer loop
vertex 257.7987355361874 26.000000000000004 12.7
vertex 191.72620638488192 88.1475914060493 12.7
vertex 155.0244353976466 26.0 12.7
endloop
endfacet
facet normal -0.0 0.0 1.0
outer loop
vertex 257.7987355361874 26.000000000000004 12.7
vertex 147.7498220058573 13.4 12.7
vertex 265.07334892797667 13.400000000000004 12.7
endloop
endfacet
facet normal -0.0 0.0 1.0
outer loop
vertex 265.07334892797667 48.60000000000001 12.7
vertex 257.7987355361874 26.000000000000004 12.7
vertex 265.07334892797667 38.6 12.7
endloop
endfacet
facet normal 0.0 0.0 1.0
outer loop
vertex 257.7987355361874 61.2 12.7
vertex 225.6495522713397 93.15447555612909 12.7
vertex 191.72620638488192 88.1475914060493 12.7
endloop
endfacet
facet normal -0.0 0.0 1.0
outer loop
vertex 257.7987355361874 61.2 12.7
vertex 257.7987355361874 26.000000000000004 12.7
vertex 265.07334892797667 48.60000000000001 12.7
endloop
endfacet
facet normal 0.0 0.0 1.0
outer loop
vertex 257.7987355361874 61.2 12.7
vertex 191.72620638488192 88.1475914060493 12.7
vertex 257.7987355361874 26.000000000000004 12.7
endloop
endfacet
facet normal 0.0 0.0 1.0
outer loop
vertex 295.5574431411889 31.000000000000007 12.7
vertex 286.8971891033445 26.0 12.7
vertex 279.6225757115552 13.4 12.7
endloop
endfacet
facet normal -0.0 0.0 1.0
outer loop
vertex 279.6225757115552 48.6 12.7
vertex 265.07334892797667 38.6 12.7
vertex 279.6225757115552 38.6 12.7
endloop
endfacet
facet normal 0.0 0.0 1.0
outer loop
vertex 279.6225757115552 48.6 12.7
vertex 265.07334892797667 48.60000000000001 12.7
vertex 265.07334892797667 38.6 12.7
endloop
endfacet
facet normal 0.0 0.0 1.0
outer loop
vertex 288.28282974939964 43.6 12.7
vertex 279.6225757115552 38.6 12.7
vertex 286.8971891033445 26.0 12.7
endloop
endfacet
facet normal 0.0 0.0 1.0
outer loop
vertex 288.28282974939964 43.6 12.7
vertex 279.6225757115552 48.6 12.7
vertex 279.6225757115552 38.6 12.7
endloop
endfacet
facet normal -0.0 0.0 1.0
outer loop
vertex 288.28282974939964 43.6 12.7
vertex 286.8971891033445 26.0 12.7
vertex 295.5574431411889 31.000000000000007 12.7
endloop
endfacet
facet normal 0.0 0.0 1.0
outer loop
vertex 326.04153735440116 13.400000000000004 12.7
vertex 295.5574431411889 31.000000000000007 12.7
vertex 279.6225757115552 13.4 12.7
endloop
endfacet
facet normal 0.0 0.0 1.0
outer loop
vertex 318.7669239626119 26.000000000000004 12.7
vertex 295.5574431411889 31.000000000000007 12.7
vertex 326.04153735440116 13.400000000000004 12.7
endloop
endfacet
facet normal 0.0 0.0 1.0
outer loop
vertex 318.7669239626119 26.000000000000004 12.7
vertex 310.10666992476746 31.0 12.7
vertex 295.5574431411889 31.000000000000007 12.7
endloop
endfacet
facet normal -0.0 0.0 1.0
outer loop
vertex 251.24004796664815 97.6950212975096 12.7
vertex 257.7987355361874 61.2 12.7
vertex 265.07334892797667 73.80000000000001 12.7
endloop
endfacet
facet normal 0.0 0.0 1.0
outer loop
vertex 251.24004796664815 97.6950212975096 12.7
vertex 225.6495522713397 93.15447555612909 12.7
vertex 257.7987355361874 61.2 12.7
endloop
endfacet
facet normal 0.0 0.0 1.0
outer loop
vertex 295.5574431411889 56.2 12.7
vertex 279.6225757115552 48.6 12.7
vertex 288.28282974939964 43.6 12.7
endloop
endfacet
facet normal 0.0 0.0 1.0
outer loop
vertex 295.5574431411889 56.2 12.7
vertex 286.8971891033445 61.2 12.7
vertex 279.6225757115552 48.6 12.7
endloop
endfacet
facet normal 0.0 0.0 1.0
outer loop
vertex 317.38128331655673 43.6 12.7
vertex 310.10666992476746 31.0 12.7
vertex 318.7669239626119 26.000000000000004 12.7
endloop
endfacet
facet normal 0.0 0.0 1.0
outer loop
vertex 295.5574431411889 66.20000000000002 12.7
vertex 286.8971891033445 61.2 12.7
vertex 295.5574431411889 56.2 12.7
endloop
endfacet
facet normal 0.0 0.0 1.0
outer loop
vertex 326.04153735440116 38.6 12.7
vertex 317.38128331655673 43.6 12.7
vertex 318.7669239626119 26.000000000000004 12.7
endloop
endfacet
facet normal -0.0 0.0 1.0
outer loop
vertex 288.28282974939964 78.80000000000001 12.7
vertex 286.8971891033445 61.2 12.7
vertex 295.5574431411889 66.20000000000002 12.7
endloop
endfacet
facet normal 0.0 0.0 1.0
outer loop
vertex 288.28282974939964 78.80000000000001 12.7
vertex 279.6225757115552 73.8 12.7
vertex 286.8971891033445 61.2 12.7
endloop
endfacet
facet normal 0.0 0.0 1.0
outer loop
vertex 326.04153735440116 48.60000000000001 12.7
vertex 317.38128331655673 43.6 12.7
vertex 326.04153735440116 38.6 12.7
endloop
endfacet
facet normal 0.0 0.0 1.0
outer loop
vertex 310.10666992476746 66.20000000000002 12.7
vertex 295.5574431411889 66.20000000000002 12.7
vertex 295.5574431411889 56.2 12.7
endloop
endfacet
facet normal -0.0 0.0 1.0
outer loop
vertex 310.10666992476746 66.20000000000002 12.7
vertex 295.5574431411889 56.2 12.7
vertex 310.10666992476746 56.2 12.7
endloop
endfacet
facet normal 0.0 0.0 0.9999999999999999
outer loop
vertex 276.4218423710014 102.91711156142846 12.7
vertex 251.24004796664815 97.6950212975096 12.7
vertex 265.07334892797667 73.80000000000001 12.7
endloop
endfacet
facet normal 0.0 0.0 1.0
outer loop
vertex 276.4218423710014 102.91711156142846 12.7
vertex 265.07334892797667 73.80000000000001 12.7
vertex 279.6225757115552 73.8 12.7
endloop
endfacet
facet normal -0.0 0.0 1.0
outer loop
vertex 276.4218423710014 102.91711156142846 12.7
vertex 279.6225757115552 73.8 12.7
vertex 288.28282974939964 78.80000000000001 12.7
endloop
endfacet
facet normal -0.0 0.0 1.0
outer loop
vertex 318.7669239626119 61.2 12.7
vertex 317.38128331655673 43.6 12.7
vertex 326.04153735440116 48.60000000000001 12.7
endloop
endfacet
facet normal 0.0 0.0 0.9999999999999999
outer loop
vertex 318.7669239626119 61.2 12.7
vertex 310.10666992476746 66.20000000000002 12.7
vertex 310.10666992476746 56.2 12.7
endloop
endfacet
facet normal 0.0 0.0 1.0
outer loop
vertex 318.7669239626119 61.2 12.7
vertex 310.10666992476746 56.2 12.7
vertex 317.38128331655673 43.6 12.7
endloop
endfacet
facet normal 0.0 0.0 1.0
outer loop
vertex 295.5574431411889 91.4 12.7
vertex 276.4218423710014 102.91711156142846 12.7
vertex 288.28282974939964 78.80000000000001 12.7
endloop
endfacet
facet normal 0.0 0.0 1.0
outer loop
vertex 356.5256315676134 31.000000000000007 12.7
vertex 340.5907641379797 38.6 12.7
vertex 347.865377529769 26.0 12.7
endloop
endfacet
facet normal 0.0 0.0 1.0
outer loop
vertex 356.5256315676134 31.000000000000007 12.7
vertex 347.865377529769 26.0 12.7
vertex 340.5907641379797 13.4 12.7
endloop
endfacet
facet normal 0.0 0.0 1.0
outer loop
vertex 340.5907641379797 48.6 12.7
vertex 326.04153735440116 48.60000000000001 12.7
vertex 326.04153735440116 38.6 12.7
endloop
endfacet
facet normal -0.0 0.0 1.0
outer loop
vertex 340.5907641379797 48.6 12.7
vertex 326.04153735440116 38.6 12.7
vertex 340.5907641379797 38.6 12.7
endloop
endfacet
facet normal 0.0 0.0 1.0
outer loop
vertex 349.25101817582413 43.6 12.7
vertex 340.5907641379797 38.6 12.7
vertex 356.5256315676134 31.000000000000007 12.7
endloop
endfacet
facet normal 0.0 0.0 1.0
outer loop
vertex 349.25101817582413 43.6 12.7
vertex 340.5907641379797 48.6 12.7
vertex 340.5907641379797 38.6 12.7
endloop
endfacet
facet normal 0.0 0.0 1.0
outer loop
vertex 317.38128331655673 78.80000000000001 12.7
vertex 310.10666992476746 66.20000000000002 12.7
vertex 318.7669239626119 61.2 12.7
endloop
endfacet
facet normal 0.0 0.0 1.0
outer loop
vertex 326.04153735440116 73.80000000000001 12.7
vertex 317.38128331655673 78.80000000000001 12.7
vertex 318.7669239626119 61.2 12.7
endloop
endfacet
facet normal 0.0 0.0 1.0
outer loop
vertex 371.07485835119195 31.0 12.7
vertex 356.5256315676134 31.000000000000007 12.7
vertex 340.5907641379797 13.4 12.7
endloop
endfacet
facet normal 0.0 0.0 0.9999999999999999
outer loop
vertex 403.225 0.0 12.7
vertex 326.04153735440116 13.400000000000004 12.7
vertex 279.6225757115552 13.4 12.7
endloop
endfacet
facet normal 0.0 0.0 1.0
outer loop
vertex 403.225 0.0 12.7
vertex 147.7498220058573 13.4 12.7
vertex 0.0 0.0 12.7
endloop
endfacet
facet normal 0.0 0.0 1.0
outer loop
vertex 403.225 0.0 12.7
vertex 279.6225757115552 13.4 12.7
vertex 265.07334892797667 13.400000000000004 12.7
endloop
endfacet
facet normal 0.0 0.0 1.0
outer loop
vertex 403.225 0.0 12.7
vertex 371.07485835119195 31.0 12.7
vertex 340.5907641379797 13.4 12.7
endloop
endfacet
facet normal 0.0 0.0 1.0
outer loop
vertex 403.225 0.0 12.7
vertex 340.5907641379797 13.4 12.7
vertex 326.04153735440116 13.400000000000004 12.7
endloop
endfacet
facet normal 0.0 0.0 1.0
outer loop
vertex 403.225 0.0 12.7
vertex 265.07334892797667 13.400000000000004 12.7
vertex 147.7498220058573 13.4 12.7
endloop
endfacet
facet normal 0.0 0.0 1.0
outer loop
vertex 347.865377529769 61.2 12.7
vertex 340.5907641379797 48.6 12.7
vertex 349.25101817582413 43.6 12.7
endloop
endfacet
facet normal 0.0 0.0 1.0
outer loop
vertex 301.41231479535844 108.98768277469809 12.7
vertex 276.4218423710014 102.91711156142846 12.7
vertex 295.5574431411889 91.4 12.7
endloop
endfacet
facet normal -0.0 0.0 0.9999999999999999
outer loop
vertex 301.41231479535844 108.98768277469809 12.7
vertex 295.5574431411889 91.4 12.7
vertex 310.10666992476746 91.4 12.7
endloop
endfacet
facet normal 0.0 0.0 1.0
outer loop
vertex 356.5256315676134 56.2 12.7
vertex 347.865377529769 61.2 12.7
vertex 349.25101817582413 43.6 12.7
endloop
endfacet
facet normal 0.0 0.0 1.0
outer loop
vertex 378.3494717429812 43.6 12.7
vertex 371.07485835119195 31.0 12.7
vertex 403.225 0.0 12.7
endloop
endfacet
facet normal 0.0 0.0 1.0
outer loop
vertex 356.5256315676134 66.20000000000002 12.7
vertex 347.865377529769 61.2 12.7
vertex 356.5256315676134 56.2 12.7
endloop
endfacet
facet normal 0.0 0.0 1.0
outer loop
vertex 356.5256315676134 66.20000000000002 12.7
vertex 340.5907641379797 73.8 12.7
vertex 347.865377529769 61.2 12.7
endloop
endfacet
facet normal 0.0 0.0 1.0
outer loop
vertex 349.25101817582413 78.80000000000001 12.7
vertex 340.5907641379797 73.8 12.7
vertex 356.5256315676134 66.20000000000002 12.7
endloop
endfacet
facet normal 0.0 0.0 1.0
outer loop
vertex 371.07485835119195 66.20000000000002 12.7
vertex 356.5256315676134 66.20000000000002 12.7
vertex 356.5256315676134 56.2 12.7
endloop
endfacet
facet normal 0.0 0.0 1.0
outer loop
vertex 371.07485835119195 66.20000000000002 12.7
vertex 371.07485835119195 56.2 12.7
vertex 378.3494717429812 43.6 12.7
endloop
endfacet
facet normal -0.0 0.0 1.0
outer loop
vertex 371.07485835119195 66.20000000000002 12.7
vertex 356.5256315676134 56.2 12.7
vertex 371.07485835119195 56.2 12.7
endloop
endfacet
facet normal -0.0 0.0 1.0
outer loop
vertex 323.1645561075324 115.1659615519696 12.7
vertex 340.5907641379797 73.8 12.7
vertex 349.25101817582413 78.80000000000001 12.7
endloop
endfacet
facet normal 0.0 0.0 0.9999999999999999
outer loop
vertex 323.1645561075324 115.1659615519696 12.7
vertex 317.38128331655673 78.80000000000001 12.7
vertex 326.04153735440116 73.80000000000001 12.7
endloop
endfacet
facet normal 0.0 0.0 0.9999999999999999
outer loop
vertex 323.1645561075324 115.1659615519696 12.7
vertex 301.41231479535844 108.98768277469809 12.7
vertex 310.10666992476746 91.4 12.7
endloop
endfacet
facet normal 0.0 0.0 1.0
outer loop
vertex 323.1645561075324 115.1659615519696 12.7
vertex 326.04153735440116 73.80000000000001 12.7
vertex 340.5907641379797 73.8 12.7
endloop
endfacet
facet normal 0.0 0.0 1.0
outer loop
vertex 323.1645561075324 115.1659615519696 12.7
vertex 310.10666992476746 91.4 12.7
vertex 317.38128331655673 78.80000000000001 12.7
endloop
endfacet
facet normal 0.0 0.0 1.0
outer loop
vertex 356.5256315676134 91.4 12.7
vertex 323.1645561075324 115.1659615519696 12.7
vertex 349.25101817582413 78.80000000000001 12.7
endloop
endfacet
facet normal 0.0 0.0 1.0
outer loop
vertex 378.3494717429812 78.80000000000001 12.7
vertex 378.3494717429812 43.6 12.7
vertex 403.225 0.0 12.7
endloop
endfacet
facet normal 0.0 0.0 1.0
outer loop
vertex 378.3494717429812 78.80000000000001 12.7
vertex 371.07485835119195 66.20000000000002 12.7
vertex 378.3494717429812 43.6 12.7
endloop
endfacet
facet normal 0.0 0.0 0.9999999999999999
outer loop
vertex 340.1715053577139 120.73252693453385 12.7
vertex 323.1645561075324 115.1659615519696 12.7
vertex 356.5256315676134 91.4 12.7
endloop
endfacet
facet normal -0.0 0.0 0.9999999999999999
outer loop
vertex 352.7701219502046 125.38446993563618 12.7
vertex 356.5256315676134 91.4 12.7
vertex 371.07485835119195 91.4 12.7
endloop
endfacet
facet normal 0.0 0.0 0.9999999999999999
outer loop
vertex 352.7701219502046 125.38446993563618 12.7
vertex 340.1715053577139 120.73252693453385 12.7
vertex 356.5256315676134 91.4 12.7
endloop
endfacet
facet normal 0.0 0.0 1.0
outer loop
vertex 363.93916575711575 129.98262545046038 12.7
vertex 352.7701219502046 125.38446993563618 12.7
vertex 371.07485835119195 91.4 12.7
endloop
endfacet
facet normal 0.0 0.0 1.0
outer loop
vertex 372.8390489388323 134.04587016992144 12.7
vertex 363.93916575711575 129.98262545046038 12.7
vertex 371.07485835119195 91.4 12.7
endloop
endfacet
facet normal 0.0 0.0 1.0
outer loop
vertex 380.12600179562327 137.70253455666273 12.7
vertex 372.8390489388323 134.04587016992144 12.7
vertex 371.07485835119195 91.4 12.7
endloop
endfacet
facet normal 0.0 0.0 1.0
outer loop
vertex 386.5563911663656 141.23671286936786 12.7
vertex 380.12600179562327 137.70253455666273 12.7
vertex 371.07485835119195 91.4 12.7
endloop
endfacet
facet normal 0.0 0.0 1.0
outer loop
vertex 391.6540322295213 144.29237569449091 12.7
vertex 386.5563911663656 141.23671286936786 12.7
vertex 371.07485835119195 91.4 12.7
endloop
endfacet
facet normal 0.0 0.0 1.0
outer loop
vertex 391.6540322295213 144.29237569449091 12.7
vertex 371.07485835119195 91.4 12.7
vertex 378.3494717429812 78.80000000000001 12.7
endloop
endfacet
facet normal 0.0 0.0 1.0
outer loop
vertex 396.26484240522456 147.29648191695912 12.7
vertex 391.6540322295213 144.29237569449091 12.7
vertex 378.3494717429812 78.80000000000001 12.7
endloop
endfacet
facet normal 0.0 0.0 1.0
outer loop
vertex 399.9060633662003 149.86767670717038 12.7
vertex 396.26484240522456 147.29648191695912 12.7
vertex 378.3494717429812 78.80000000000001 12.7
endloop
endfacet
facet normal 0.0 0.0 1.0
outer loop
vertex 401.5775540770282 151.11804698916987 12.7
vertex 399.9060633662003 149.86767670717038 12.7
vertex 378.3494717429812 78.80000000000001 12.7
endloop
endfacet
facet normal 0.0 0.0 1.0
outer loop
vertex 403.225 152.4 12.7
vertex 378.3494717429812 78.80000000000001 12.7
vertex 403.225 0.0 12.7
endloop
endfacet
facet normal 0.0 0.0 1.0
outer loop
vertex 403.225 152.4 12.7
vertex 401.5775540770282 151.11804698916987 12.7
vertex 378.3494717429812 78.80000000000001 12.7
endloop
endfacet
facet normal 1.0 0.0 0.0
outer loop
vertex 403.225 152.4 0.0
vertex 403.225 0.0 12.7
vertex 403.225 0.0 0.0
endloop
endfacet
facet normal 1.0 0.0 -0.0
outer loop
vertex 403.225 152.4 0.0
vertex 403.225 152.4 12.7
vertex 403.225 0.0 12.7
endloop
endfacet
facet normal -0.6141215341488423 0.7892114680455881 0.0
outer loop
vertex 403.225 152.4 0.0
vertex 401.5775540770282 151.11804698916987 12.7
vertex 403.225 152.4 12.7
endloop
endfacet
facet normal -0.5990037747468965 0.800746194670573 -9.777303400143763e-05
outer loop
vertex 400.0238514712968 149.95423822004744 0.0
vertex 399.9060633662003 149.86767670717038 12.7
vertex 401.5775540770282 151.11804698916987 12.7
endloop
endfacet
facet normal -0.6071086787563208 0.7946174765235972 0.0014553975487998079
outer loop
vertex 400.0238514712968 149.95423822004744 0.0
vertex 401.5775540770282 151.11804698916987 12.7
vertex 403.225 152.4 0.0
endloop
endfacet
facet normal -0.5768210409972058 0.8168703799521646 -0.0005186710960961078
outer loop
vertex 396.60502523932263 147.52863318382782 0.0
vertex 396.26484240522456 147.29648191695912 12.7
vertex 399.9060633662003 149.86767670717038 12.7
endloop
endfacet
facet normal -0.5786424798219812 0.8155812918467421 0.0001921849818854371
outer loop
vertex 396.60502523932263 147.52863318382782 0.0
vertex 399.9060633662003 149.86767670717038 12.7
vertex 400.0238514712968 149.95423822004744 0.0
endloop
endfacet
facet normal -0.5458916352791496 0.8378540971525271 -0.0016835726832472842
outer loop
vertex 392.97038169874867 145.1245048129706 0.0
vertex 391.6540322295213 144.29237569449091 12.7
vertex 396.26484240522456 147.29648191695912 12.7
endloop
endfacet
facet normal -0.5516832327731476 0.8340535899615512 0.00046877416510262985
outer loop
vertex 392.97038169874867 145.1245048129706 0.0
vertex 396.26484240522456 147.29648191695912 12.7
vertex 396.60502523932263 147.52863318382782 0.0
endloop
endfacet
facet normal -0.5141330744817024 0.8577078108409698 -0.00211965713808998
outer loop
vertex 389.1218986837847 142.74316134232276 0.0
vertex 386.5563911663656 141.23671286936786 12.7
vertex 391.6540322295213 144.29237569449091 12.7
endloop
endfacet
facet normal -0.5261863826787544 0.8503684501646522 0.0011788333279215814
outer loop
vertex 389.1218986837847 142.74316134232276 0.0
vertex 391.6540322295213 144.29237569449091 12.7
vertex 392.97038169874867 145.1245048129706 0.0
endloop
endfacet
facet normal -0.48165241020213084 0.8763600092903991 -0.002022340972619272
outer loop
vertex 385.0616703919158 140.38589860805882 0.0
vertex 380.12600179562327 137.70253455666273 12.7
vertex 386.5563911663656 141.23671286936786 12.7
endloop
endfacet
facet normal -0.5020891174321628 0.8648151137357657 0.0011563781329934973
outer loop
vertex 385.0616703919158 140.38589860805882 0.0
vertex 386.5563911663656 141.23671286936786 12.7
vertex 389.1218986837847 142.74316134232276 0.0
endloop
endfacet
facet normal -0.47931716101623223 0.8776413542784405 -0.0008440471813040013
outer loop
vertex 380.79190624432056 138.05399934253612 0.0
vertex 380.12600179562327 137.70253455666273 12.7
vertex 385.0616703919158 140.38589860805882 0.0
endloop
endfacet
facet normal -0.44850527901971465 0.8937754408331391 -0.0029113665134845616
outer loop
vertex 376.314929683588 135.748732476281 0.0
vertex 372.8390489388323 134.04587016992144 12.7
vertex 380.12600179562327 137.70253455666273 12.7
endloop
endfacet
facet normal -0.457791026203976 0.889059624302121 0.0006006353985114724
outer loop
vertex 376.314929683588 135.748732476281 0.0
vertex 380.12600179562327 137.70253455666273 12.7
vertex 380.79190624432056 138.05399934253612 0.0
endloop
endfacet
facet normal -0.4153132696730028 0.9096768319671211 -0.0017173863228011374
outer loop
vertex 371.63317690938914 133.47135244748512 0.0
vertex 363.93916575711575 129.98262545046038 12.7
vertex 372.8390489388323 134.04587016992144 12.7
endloop
endfacet
facet normal -0.4374299246572569 0.8992520955602306 0.0008541925313597499
outer loop
vertex 371.63317690938914 133.47135244748512 0.0
vertex 372.8390489388323 134.04587016992144 12.7
vertex 376.314929683588 135.748732476281 0.0
endloop
endfacet
facet normal -0.4150417080171166 0.9098011178716027 -0.0015187250630190321
outer loop
vertex 365.0767182911443 130.4803649338339 0.0
vertex 363.93916575711575 129.98262545046038 12.7
vertex 371.63317690938914 133.47135244748512 0.0
endloop
endfacet
facet normal -0.38068515305800876 0.9246945079255615 -0.004345256437116178
outer loop
vertex 357.27889224041206 127.18099531460315 0.0
vertex 352.7701219502046 125.38446993563618 12.7
vertex 363.93916575711575 129.98262545046038 12.7
endloop
endfacet
facet normal -0.3896687011682842 0.9209543336443423 0.0011910799837124304
outer loop
vertex 357.27889224041206 127.18099531460315 0.0
vertex 363.93916575711575 129.98262545046038 12.7
vertex 365.0767182911443 130.4803649338339 0.0
endloop
endfacet
facet normal -0.34638093747170473 0.9380855752358602 -0.003962283511827485
outer loop
vertex 349.04365154612685 123.95485695785636 0.0
vertex 340.1715053577139 120.73252693453385 12.7
vertex 352.7701219502046 125.38446993563618 12.7
endloop
endfacet
facet normal -0.3647565893632901 0.9311002740943549 0.002215873975985433
outer loop
vertex 349.04365154612685 123.95485695785636 0.0
vertex 352.7701219502046 125.38446993563618 12.7
vertex 357.27889224041206 127.18099531460315 0.0
endloop
endfacet
facet normal -0.3416406015278421 0.9398306529098109 -0.0002079394442732164
outer loop
vertex 340.3810785695785 120.80589960758913 0.0
vertex 340.1715053577139 120.73252693453385 12.7
vertex 349.04365154612685 123.95485695785636 0.0
endloop
endfacet
facet normal -0.3110671959835705 0.9503713065257942 -0.0056195476129186255
outer loop
vertex 328.1846464712039 116.73399834779318 0.0
vertex 323.1645561075324 115.1659615519696 12.7
vertex 340.1715053577139 120.73252693453385 12.7
endloop
endfacet
facet normal -0.31667735580915746 0.9485332823155811 0.0002542780963520569
outer loop
vertex 328.1846464712039 116.73399834779318 0.0
vertex 340.1715053577139 120.73252693453385 12.7
vertex 340.3810785695785 120.80589960758913 0.0
endloop
endfacet
facet normal -0.28889255199625447 0.9573531383264066 0.004007734730717799
outer loop
vertex 313.61129724705165 112.3363190798713 0.0
vertex 323.1645561075324 115.1659615519696 12.7
vertex 328.1846464712039 116.73399834779318 0.0
endloop
endfacet
facet normal -0.2732118629784932 0.9619135987711709 -0.008803773447565704
outer loop
vertex 301.41231479535844 108.98768277469809 12.7
vertex 323.1645561075324 115.1659615519696 12.7
vertex 313.61129724705165 112.3363190798713 0.0
endloop
endfacet
facet normal -0.2620640224575745 0.9650466274673163 0.0027303749403102167
outer loop
vertex 298.1741647642816 108.14427600288307 0.0
vertex 301.41231479535844 108.98768277469809 12.7
vertex 313.61129724705165 112.3363190798713 0.0
endloop
endfacet
facet normal -0.23748425993978453 0.9713833247625439 -0.00395760712036532
outer loop
vertex 281.9157676971786 104.16941531003354 0.0
vertex 301.41231479535844 108.98768277469809 12.7
vertex 298.1741647642816 108.14427600288307 0.0
endloop
endfacet
facet normal -0.23604613294429336 0.9717214688670643 -0.0062936527453996615
outer loop
vertex 281.9157676971786 104.16941531003354 0.0
vertex 276.4218423710014 102.91711156142846 12.7
vertex 301.41231479535844 108.98768277469809 12.7
endloop
endfacet
facet normal -0.21480895921078366 0.9766502396974605 0.003379399602464457
outer loop
vertex 264.88088673866343 100.42268500655072 0.0
vertex 276.4218423710014 102.91711156142846 12.7
vertex 281.9157676971786 104.16941531003354 0.0
endloop
endfacet
facet normal -0.2030492462977821 0.9791374939567842 -0.0077956081181003245
outer loop
vertex 251.24004796664815 97.6950212975096 12.7
vertex 276.4218423710014 102.91711156142846 12.7
vertex 264.88088673866343 100.42268500655072 0.0
endloop
endfacet
facet normal -0.19037139664413 0.9816914763588616 0.006369975205757468
outer loop
vertex 241.04123549279404 95.79965647622446 0.0
vertex 251.24004796664815 97.6950212975096 12.7
vertex 264.88088673866343 100.42268500655072 0.0
endloop
endfacet
facet normal -0.1746984215255 0.9845995302463877 -0.006650304887085623
outer loop
vertex 225.6495522713397 93.15447555612909 12.7
vertex 251.24004796664815 97.6950212975096 12.7
vertex 241.04123549279404 95.79965647622446 0.0
endloop
endfacet
facet normal -0.1631074621693923 0.9865774027280242 0.0078092388288804266
outer loop
vertex 212.8171281182126 91.1334614943255 0.0
vertex 225.6495522713397 93.15447555612909 12.7
vertex 241.04123549279404 95.79965647622446 0.0
endloop
endfacet
facet normal -0.14600510916918893 0.9892343563526428 -0.009894256316948704
outer loop
vertex 191.72620638488192 88.1475914060493 12.7
vertex 225.6495522713397 93.15447555612909 12.7
vertex 212.8171281182126 91.1334614943255 0.0
endloop
endfacet
facet normal -0.1365507327746647 0.9906141063621666 0.006131040285972218
outer loop
vertex 183.2745286200479 87.06117584481348 0.0
vertex 191.72620638488192 88.1475914060493 12.7
vertex 212.8171281182126 91.1334614943255 0.0
endloop
endfacet
facet normal -0.11946217524533263 0.9928239026255502 -0.005430198985794981
outer loop
vertex 163.39869416983674 84.7390652620385 12.7
vertex 191.72620638488192 88.1475914060493 12.7
vertex 183.2745286200479 87.06117584481348 0.0
endloop
endfacet
facet normal -0.11185195395848824 0.9937026928524312 0.006640678692368137
outer loop
vertex 152.59646589777302 83.60802905973469 0.0
vertex 163.39869416983674 84.7390652620385 12.7
vertex 183.2745286200479 87.06117584481348 0.0
endloop
endfacet
facet normal -0.0896502468183554 0.9958956329876573 -0.012438707389493906
outer loop
vertex 112.80254483289035 80.18441402563546 12.7
vertex 163.39869416983674 84.7390652620385 12.7
vertex 152.59646589777302 83.60802905973469 0.0
endloop
endfacet
facet normal -0.08858738834751533 0.9960270862463542 -0.009072931685201957
outer loop
vertex 120.97300352579938 80.79541484399421 0.0
vertex 112.80254483289035 80.18441402563546 12.7
vertex 152.59646589777302 83.60802905973469 0.0
endloop
endfacet
facet normal -0.06279530222103573 0.9979973754704591 0.007615022852489797
outer loop
vertex 77.67708629475075 78.07117901503824 0.0
vertex 112.80254483289035 80.18441402563546 12.7
vertex 120.97300352579938 80.79541484399421 0.0
endloop
endfacet
facet normal -0.05314991730389266 0.9984032981192721 -0.019129573836059167
outer loop
vertex 56.43707056912051 77.18380264789123 12.7
vertex 112.80254483289035 80.18441402563546 12.7
vertex 77.67708629475075 78.07117901503824 0.0
endloop
endfacet
facet normal -0.036236990450481094 0.9993007005691495 0.009219021916597292
outer loop
vertex 39.0035701985859 76.6687864892799 0.0
vertex 56.43707056912051 77.18380264789123 12.7
vertex 77.67708629475075 78.07117901503824 0.0
endloop
endfacet
facet normal -0.01742679690077982 0.9997100217113721 -0.016618641329138994
outer loop
vertex 6.497476388175e-15 76.2 12.7
vertex 56.43707056912051 77.18380264789123 12.7
vertex 39.0035701985859 76.6687864892799 0.0
endloop
endfacet
facet normal -0.012018198092984411 0.9999277788493515 -6.14865813681701e-18
outer loop
vertex 1.299495277635e-14 76.2 0.0
vertex 6.497476388175e-15 76.2 12.7
vertex 39.0035701985859 76.6687864892799 0.0
endloop
endfacet
facet normal -0.8660254037844387 -0.5000000000000002 0.0
outer loop
vertex 35.74982200585731 38.6 0.0
vertex 43.0244353976466 26.0 0.0
vertex 43.0244353976466 26.0 12.7
endloop
endfacet
facet normal -0.8660254037844387 -0.5000000000000002 0.0
outer loop
vertex 35.74982200585731 38.6 0.0
vertex 43.0244353976466 26.0 12.7
vertex 35.74982200585731 38.6 12.7
endloop
endfacet
facet normal -0.8660254037844386 0.5000000000000002 0.0
outer loop
vertex 43.0244353976466 26.0 0.0
vertex 35.74982200585731 13.4 0.0
vertex 35.74982200585731 13.4 12.7
endloop
endfacet
facet normal -0.8660254037844386 0.5000000000000002 0.0
outer loop
vertex 43.0244353976466 26.0 0.0
vertex 35.74982200585731 13.4 12.7
vertex 43.0244353976466 26.0 12.7
endloop
endfacet
facet normal 0.0 -1.0 0.0
outer loop
vertex 21.200595222278743 38.6 0.0
vertex 35.74982200585731 38.6 0.0
vertex 35.74982200585731 38.6 12.7
endloop
endfacet
facet normal 0.0 -1.0 0.0
outer loop
vertex 21.200595222278743 38.6 0.0
vertex 35.74982200585731 38.6 12.7
vertex 21.200595222278743 38.6 12.7
endloop
endfacet
facet normal 2.4418573795346837e-16 1.0 -0.0
outer loop
vertex 35.74982200585731 13.4 0.0
vertex 21.200595222278736 13.400000000000004 0.0
vertex 21.200595222278736 13.400000000000004 12.7
endloop
endfacet
facet normal 2.4418573795346837e-16 1.0 0.0
outer loop
vertex 35.74982200585731 13.4 0.0
vertex 21.200595222278736 13.400000000000004 12.7
vertex 35.74982200585731 13.4 12.7
endloop
endfacet
facet normal 0.8660254037844387 -0.5000000000000002 0.0
outer loop
vertex 13.925981830489457 26.000000000000004 0.0
vertex 21.200595222278743 38.6 0.0
vertex 21.200595222278743 38.6 12.7
endloop
endfacet
facet normal 0.8660254037844387 -0.5000000000000002 0.0
outer loop
vertex 13.925981830489457 26.000000000000004 0.0
vertex 21.200595222278743 38.6 12.7
vertex 13.925981830489457 26.000000000000004 12.7
endloop
endfacet
facet normal 0.8660254037844388 0.4999999999999997 -0.0
outer loop
vertex 21.200595222278736 13.400000000000004 0.0
vertex 13.925981830489457 26.000000000000004 0.0
vertex 13.925981830489457 26.000000000000004 12.7
endloop
endfacet
facet normal 0.8660254037844388 0.4999999999999997 0.0
outer loop
vertex 21.200595222278736 13.400000000000004 0.0
vertex 13.925981830489457 26.000000000000004 12.7
vertex 21.200595222278736 13.400000000000004 12.7
endloop
endfacet
facet normal -0.8660254037844387 -0.5000000000000002 0.0
outer loop
vertex 91.74982200585731 38.6 0.0
vertex 99.0244353976466 26.0 0.0
vertex 99.0244353976466 26.0 12.7
endloop
endfacet
facet normal -0.8660254037844387 -0.5000000000000002 0.0
outer loop
vertex 91.74982200585731 38.6 0.0
vertex 99.0244353976466 26.0 12.7
vertex 91.74982200585731 38.6 12.7
endloop
endfacet
facet normal -0.8660254037844386 0.5000000000000002 0.0
outer loop
vertex 99.0244353976466 26.0 0.0
vertex 91.74982200585731 13.4 0.0
vertex 91.74982200585731 13.4 12.7
endloop
endfacet
facet normal -0.8660254037844386 0.5000000000000002 0.0
outer loop
vertex 99.0244353976466 26.0 0.0
vertex 91.74982200585731 13.4 12.7
vertex 99.0244353976466 26.0 12.7
endloop
endfacet
facet normal 0.0 -1.0 0.0
outer loop
vertex 77.20059522227874 38.6 0.0
vertex 91.74982200585731 38.6 0.0
vertex 91.74982200585731 38.6 12.7
endloop
endfacet
facet normal 0.0 -1.0 0.0
outer loop
vertex 77.20059522227874 38.6 0.0
vertex 91.74982200585731 38.6 12.7
vertex 77.20059522227874 38.6 12.7
endloop
endfacet
facet normal 2.4418573795346837e-16 1.0 -0.0
outer loop
vertex 91.74982200585731 13.4 0.0
vertex 77.20059522227874 13.400000000000004 0.0
vertex 77.20059522227874 13.400000000000004 12.7
endloop
endfacet
facet normal 2.4418573795346837e-16 1.0 0.0
outer loop
vertex 91.74982200585731 13.4 0.0
vertex 77.20059522227874 13.400000000000004 12.7
vertex 91.74982200585731 13.4 12.7
endloop
endfacet
facet normal 0.8660254037844385 -0.5000000000000002 0.0
outer loop
vertex 69.92598183048945 26.000000000000004 0.0
vertex 77.20059522227874 38.6 0.0
vertex 77.20059522227874 38.6 12.7
endloop
endfacet
facet normal 0.8660254037844385 -0.5000000000000002 0.0
outer loop
vertex 69.92598183048945 26.000000000000004 0.0
vertex 77.20059522227874 38.6 12.7
vertex 69.92598183048945 26.000000000000004 12.7
endloop
endfacet
facet normal 0.8660254037844386 0.5000000000000002 -0.0
outer loop
vertex 77.20059522227874 13.400000000000004 0.0
vertex 69.92598183048945 26.000000000000004 0.0
vertex 69.92598183048945 26.000000000000004 12.7
endloop
endfacet
facet normal 0.8660254037844386 0.5000000000000002 0.0
outer loop
vertex 77.20059522227874 13.400000000000004 0.0
vertex 69.92598183048945 26.000000000000004 12.7
vertex 77.20059522227874 13.400000000000004 12.7
endloop
endfacet
facet normal -0.8660254037844382 -0.5000000000000009 0.0
outer loop
vertex 147.7498220058573 38.6 0.0
vertex 155.0244353976466 26.0 0.0
vertex 155.0244353976466 26.0 12.7
endloop
endfacet
facet normal -0.8660254037844382 -0.5000000000000009 0.0
outer loop
vertex 147.7498220058573 38.6 0.0
vertex 155.0244353976466 26.0 12.7
vertex 147.7498220058573 38.6 12.7
endloop
endfacet
facet normal -0.8660254037844382 0.500000000000001 0.0
outer loop
vertex 155.0244353976466 26.0 0.0
vertex 147.7498220058573 13.4 0.0
vertex 147.7498220058573 13.4 12.7
endloop
endfacet
facet normal -0.8660254037844382 0.500000000000001 0.0
outer loop
vertex 155.0244353976466 26.0 0.0
vertex 147.7498220058573 13.4 12.7
vertex 155.0244353976466 26.0 12.7
endloop
endfacet
facet normal 0.0 -1.0 0.0
outer loop
vertex 133.20059522227876 38.6 0.0
vertex 147.7498220058573 38.6 0.0
vertex 147.7498220058573 38.6 12.7
endloop
endfacet
facet normal 0.0 -1.0 0.0
outer loop
vertex 133.20059522227876 38.6 0.0
vertex 147.7498220058573 38.6 12.7
vertex 133.20059522227876 38.6 12.7
endloop
endfacet
facet normal 2.4418573795346837e-16 1.0 -0.0
outer loop
vertex 147.7498220058573 13.4 0.0
vertex 133.20059522227874 13.400000000000004 0.0
vertex 133.20059522227874 13.400000000000004 12.7
endloop
endfacet
facet normal 2.4418573795346837e-16 1.0 0.0
outer loop
vertex 147.7498220058573 13.4 0.0
vertex 133.20059522227874 13.400000000000004 12.7
vertex 147.7498220058573 13.4 12.7
endloop
endfacet
facet normal 0.8660254037844382 -0.500000000000001 0.0
outer loop
vertex 125.92598183048946 26.000000000000004 0.0
vertex 133.20059522227876 38.6 0.0
vertex 133.20059522227876 38.6 12.7
endloop
endfacet
facet normal 0.8660254037844382 -0.500000000000001 0.0
outer loop
vertex 125.92598183048946 26.000000000000004 0.0
vertex 133.20059522227876 38.6 12.7
vertex 125.92598183048946 26.000000000000004 12.7
endloop
endfacet
facet normal 0.8660254037844389 0.49999999999999944 -0.0
outer loop
vertex 133.20059522227874 13.400000000000004 0.0
vertex 125.92598183048946 26.000000000000004 0.0
vertex 125.92598183048946 26.000000000000004 12.7
endloop
endfacet
facet normal 0.8660254037844389 0.49999999999999944 0.0
outer loop
vertex 133.20059522227874 13.400000000000004 0.0
vertex 125.92598183048946 26.000000000000004 12.7
vertex 133.20059522227874 13.400000000000004 12.7
endloop
endfacet
facet normal -0.8660254037844387 -0.5000000000000002 0.0
outer loop
vertex 63.74982200585731 60.6 0.0
vertex 71.0244353976466 48.0 0.0
vertex 71.0244353976466 48.0 12.7
endloop
endfacet
facet normal -0.8660254037844387 -0.5000000000000002 0.0
outer loop
vertex 63.74982200585731 60.6 0.0
vertex 71.0244353976466 48.0 12.7
vertex 63.74982200585731 60.6 12.7
endloop
endfacet
facet normal -0.8660254037844387 0.5000000000000002 0.0
outer loop
vertex 71.0244353976466 48.0 0.0
vertex 63.74982200585731 35.4 0.0
vertex 63.74982200585731 35.4 12.7
endloop
endfacet
facet normal -0.8660254037844387 0.5000000000000002 0.0
outer loop
vertex 71.0244353976466 48.0 0.0
vertex 63.74982200585731 35.4 12.7
vertex 71.0244353976466 48.0 12.7
endloop
endfacet
facet normal 0.0 -1.0 0.0
outer loop
vertex 49.20059522227874 60.6 0.0
vertex 63.74982200585731 60.6 0.0
vertex 63.74982200585731 60.6 12.7
endloop
endfacet
facet normal 0.0 -1.0 0.0
outer loop
vertex 49.20059522227874 60.6 0.0
vertex 63.74982200585731 60.6 12.7
vertex 49.20059522227874 60.6 12.7
endloop
endfacet
facet normal 4.883714759069367e-16 1.0 -0.0
outer loop
vertex 63.74982200585731 35.4 0.0
vertex 49.200595222278736 35.400000000000006 0.0
vertex 49.200595222278736 35.400000000000006 12.7
endloop
endfacet
facet normal 4.883714759069367e-16 1.0 0.0
outer loop
vertex 63.74982200585731 35.4 0.0
vertex 49.200595222278736 35.400000000000006 12.7
vertex 63.74982200585731 35.4 12.7
endloop
endfacet
facet normal 0.8660254037844387 -0.5000000000000002 0.0
outer loop
vertex 41.925981830489455 48.0 0.0
vertex 49.20059522227874 60.6 0.0
vertex 49.20059522227874 60.6 12.7
endloop
endfacet
facet normal 0.8660254037844387 -0.5000000000000002 0.0
outer loop
vertex 41.925981830489455 48.0 0.0
vertex 49.20059522227874 60.6 12.7
vertex 41.925981830489455 48.0 12.7
endloop
endfacet
facet normal 0.8660254037844387 0.49999999999999994 -0.0
outer loop
vertex 49.200595222278736 35.400000000000006 0.0
vertex 41.925981830489455 48.0 0.0
vertex 41.925981830489455 48.0 12.7
endloop
endfacet
facet normal 0.8660254037844387 0.49999999999999994 0.0
outer loop
vertex 49.200595222278736 35.400000000000006 0.0
vertex 41.925981830489455 48.0 12.7
vertex 49.200595222278736 35.400000000000006 12.7
endloop
endfacet
facet normal -0.8660254037844387 -0.5000000000000002 0.0
outer loop
vertex 119.74982200585731 60.6 0.0
vertex 127.0244353976466 48.0 0.0
vertex 127.0244353976466 48.0 12.7
endloop
endfacet
facet normal -0.8660254037844387 -0.5000000000000002 0.0
outer loop
vertex 119.74982200585731 60.6 0.0
vertex 127.0244353976466 48.0 12.7
vertex 119.74982200585731 60.6 12.7
endloop
endfacet
facet normal -0.8660254037844387 0.5000000000000002 0.0
outer loop
vertex 127.0244353976466 48.0 0.0
vertex 119.74982200585731 35.4 0.0
vertex 119.74982200585731 35.4 12.7
endloop
endfacet
facet normal -0.8660254037844387 0.5000000000000002 0.0
outer loop
vertex 127.0244353976466 48.0 0.0
vertex 119.74982200585731 35.4 12.7
vertex 127.0244353976466 48.0 12.7
endloop
endfacet
facet normal 0.0 -1.0 0.0
outer loop
vertex 105.20059522227874 60.6 0.0
vertex 119.74982200585731 60.6 0.0
vertex 119.74982200585731 60.6 12.7
endloop
endfacet
facet normal 0.0 -1.0 0.0
outer loop
vertex 105.20059522227874 60.6 0.0
vertex 119.74982200585731 60.6 12.7
vertex 105.20059522227874 60.6 12.7
endloop
endfacet
facet normal 4.883714759069367e-16 1.0 -0.0
outer loop
vertex 119.74982200585731 35.4 0.0
vertex 105.20059522227874 35.400000000000006 0.0
vertex 105.20059522227874 35.400000000000006 12.7
endloop
endfacet
facet normal 4.883714759069367e-16 1.0 0.0
outer loop
vertex 119.74982200585731 35.4 0.0
vertex 105.20059522227874 35.400000000000006 12.7
vertex 119.74982200585731 35.4 12.7
endloop
endfacet
facet normal 0.8660254037844387 -0.5000000000000002 0.0
outer loop
vertex 97.92598183048945 48.0 0.0
vertex 105.20059522227874 60.6 0.0
vertex 105.20059522227874 60.6 12.7
endloop
endfacet
facet normal 0.8660254037844387 -0.5000000000000002 0.0
outer loop
vertex 97.92598183048945 48.0 0.0
vertex 105.20059522227874 60.6 12.7
vertex 97.92598183048945 48.0 12.7
endloop
endfacet
facet normal 0.8660254037844385 0.5000000000000003 -0.0
outer loop
vertex 105.20059522227874 35.400000000000006 0.0
vertex 97.92598183048945 48.0 0.0
vertex 97.92598183048945 48.0 12.7
endloop
endfacet
facet normal 0.8660254037844385 0.5000000000000003 0.0
outer loop
vertex 105.20059522227874 35.400000000000006 0.0
vertex 97.92598183048945 48.0 12.7
vertex 105.20059522227874 35.400000000000006 12.7
endloop
endfacet
facet normal -0.8660254037844389 -0.49999999999999933 0.0
outer loop
vertex 279.6225757115552 38.6 0.0
vertex 286.8971891033445 26.0 0.0
vertex 286.8971891033445 26.0 12.7
endloop
endfacet
facet normal -0.8660254037844389 -0.49999999999999933 0.0
outer loop
vertex 279.6225757115552 38.6 0.0
vertex 286.8971891033445 26.0 12.7
vertex 279.6225757115552 38.6 12.7
endloop
endfacet
facet normal -0.8660254037844389 0.49999999999999944 0.0
outer loop
vertex 286.8971891033445 26.0 0.0
vertex 279.6225757115552 13.4 0.0
vertex 279.6225757115552 13.4 12.7
endloop
endfacet
facet normal -0.8660254037844389 0.49999999999999944 0.0
outer loop
vertex 286.8971891033445 26.0 0.0
vertex 279.6225757115552 13.4 12.7
vertex 286.8971891033445 26.0 12.7
endloop
endfacet
facet normal 0.0 -1.0 0.0
outer loop
vertex 265.07334892797667 38.6 0.0
vertex 279.6225757115552 38.6 0.0
vertex 279.6225757115552 38.6 12.7
endloop
endfacet
facet normal 0.0 -1.0 0.0
outer loop
vertex 265.07334892797667 38.6 0.0
vertex 279.6225757115552 38.6 12.7
vertex 265.07334892797667 38.6 12.7
endloop
endfacet
facet normal 2.441857379534688e-16 1.0 -0.0
outer loop
vertex 279.6225757115552 13.4 0.0
vertex 265.07334892797667 13.400000000000004 0.0
vertex 265.07334892797667 13.400000000000004 12.7
endloop
endfacet
facet normal 2.441857379534688e-16 1.0 0.0
outer loop
vertex 279.6225757115552 13.4 0.0
vertex 265.07334892797667 13.400000000000004 12.7
vertex 279.6225757115552 13.4 12.7
endloop
endfacet
facet normal 0.8660254037844389 -0.4999999999999995 0.0
outer loop
vertex 257.7987355361874 26.000000000000004 0.0
vertex 265.07334892797667 38.6 0.0
vertex 265.07334892797667 38.6 12.7
endloop
endfacet
facet normal 0.8660254037844389 -0.4999999999999995 0.0
outer loop
vertex 257.7987355361874 26.000000000000004 0.0
vertex 265.07334892797667 38.6 12.7
vertex 257.7987355361874 26.000000000000004 12.7
endloop
endfacet
facet normal 0.8660254037844389 0.49999999999999944 -0.0
outer loop
vertex 265.07334892797667 13.400000000000004 0.0
vertex 257.7987355361874 26.000000000000004 0.0
vertex 257.7987355361874 26.000000000000004 12.7
endloop
endfacet
facet normal 0.8660254037844389 0.49999999999999944 0.0
outer loop
vertex 265.07334892797667 13.400000000000004 0.0
vertex 257.7987355361874 26.000000000000004 12.7
vertex 265.07334892797667 13.400000000000004 12.7
endloop
endfacet
facet normal -0.8660254037844389 -0.49999999999999933 0.0
outer loop
vertex 340.5907641379797 38.6 0.0
vertex 347.865377529769 26.0 0.0
vertex 347.865377529769 26.0 12.7
endloop
endfacet
facet normal -0.8660254037844389 -0.49999999999999933 0.0
outer loop
vertex 340.5907641379797 38.6 0.0
vertex 347.865377529769 26.0 12.7
vertex 340.5907641379797 38.6 12.7
endloop
endfacet
facet normal -0.8660254037844389 0.49999999999999944 0.0
outer loop
vertex 347.865377529769 26.0 0.0
vertex 340.5907641379797 13.4 0.0
vertex 340.5907641379797 13.4 12.7
endloop
endfacet
facet normal -0.8660254037844389 0.49999999999999944 0.0
outer loop
vertex 347.865377529769 26.0 0.0
vertex 340.5907641379797 13.4 12.7
vertex 347.865377529769 26.0 12.7
endloop
endfacet
facet normal 0.0 -1.0 0.0
outer loop
vertex 326.04153735440116 38.6 0.0
vertex 340.5907641379797 38.6 0.0
vertex 340.5907641379797 38.6 12.7
endloop
endfacet
facet normal 0.0 -1.0 0.0
outer loop
vertex 326.04153735440116 38.6 0.0
vertex 340.5907641379797 38.6 12.7
vertex 326.04153735440116 38.6 12.7
endloop
endfacet
facet normal 2.441857379534688e-16 1.0 -0.0
outer loop
vertex 340.5907641379797 13.4 0.0
vertex 326.04153735440116 13.400000000000004 0.0
vertex 326.04153735440116 13.400000000000004 12.7
endloop
endfacet
facet normal 2.441857379534688e-16 1.0 0.0
outer loop
vertex 340.5907641379797 13.4 0.0
vertex 326.04153735440116 13.400000000000004 12.7
vertex 340.5907641379797 13.4 12.7
endloop
endfacet
facet normal 0.8660254037844389 -0.4999999999999995 0.0
outer loop
vertex 318.7669239626119 26.000000000000004 0.0
vertex 326.04153735440116 38.6 0.0
vertex 326.04153735440116 38.6 12.7
endloop
endfacet
facet normal 0.8660254037844389 -0.4999999999999995 0.0
outer loop
vertex 318.7669239626119 26.000000000000004 0.0
vertex 326.04153735440116 38.6 12.7
vertex 318.7669239626119 26.000000000000004 12.7
endloop
endfacet
facet normal 0.8660254037844389 0.49999999999999944 -0.0
outer loop
vertex 326.04153735440116 13.400000000000004 0.0
vertex 318.7669239626119 26.000000000000004 0.0
vertex 318.7669239626119 26.000000000000004 12.7
endloop
endfacet
facet normal 0.8660254037844389 0.49999999999999944 0.0
outer loop
vertex 326.04153735440116 13.400000000000004 0.0
vertex 318.7669239626119 26.000000000000004 12.7
vertex 326.04153735440116 13.400000000000004 12.7
endloop
endfacet
facet normal -0.8660254037844389 -0.49999999999999933 0.0
outer loop
vertex 310.10666992476746 56.2 12.7
vertex 317.38128331655673 43.6 0.0
vertex 317.38128331655673 43.6 12.7
endloop
endfacet
facet normal -0.8660254037844389 -0.49999999999999933 0.0
outer loop
vertex 310.10666992476746 56.2 0.0
vertex 317.38128331655673 43.6 0.0
vertex 310.10666992476746 56.2 12.7
endloop
endfacet
facet normal -0.8660254037844389 0.49999999999999933 0.0
outer loop
vertex 317.38128331655673 43.6 0.0
vertex 310.10666992476746 31.0 0.0
vertex 310.10666992476746 31.0 12.7
endloop
endfacet
facet normal -0.8660254037844389 0.49999999999999933 0.0
outer loop
vertex 317.38128331655673 43.6 0.0
vertex 310.10666992476746 31.0 12.7
vertex 317.38128331655673 43.6 12.7
endloop
endfacet
facet normal 0.0 -1.0 0.0
outer loop
vertex 295.5574431411889 56.2 0.0
vertex 310.10666992476746 56.2 0.0
vertex 310.10666992476746 56.2 12.7
endloop
endfacet
facet normal 0.0 -1.0 0.0
outer loop
vertex 295.5574431411889 56.2 0.0
vertex 310.10666992476746 56.2 12.7
vertex 295.5574431411889 56.2 12.7
endloop
endfacet
facet normal 4.883714759069376e-16 1.0 -0.0
outer loop
vertex 310.10666992476746 31.0 0.0
vertex 295.5574431411889 31.000000000000007 0.0
vertex 295.5574431411889 31.000000000000007 12.7
endloop
endfacet
facet normal 4.883714759069376e-16 1.0 0.0
outer loop
vertex 310.10666992476746 31.0 0.0
vertex 295.5574431411889 31.000000000000007 12.7
vertex 310.10666992476746 31.0 12.7
endloop
endfacet
facet normal 0.8660254037844389 -0.49999999999999933 0.0
outer loop
vertex 288.28282974939964 43.6 0.0
vertex 295.5574431411889 56.2 0.0
vertex 295.5574431411889 56.2 12.7
endloop
endfacet
facet normal 0.8660254037844389 -0.49999999999999933 0.0
outer loop
vertex 288.28282974939964 43.6 0.0
vertex 295.5574431411889 56.2 12.7
vertex 288.28282974939964 43.6 12.7
endloop
endfacet
facet normal 0.8660254037844388 0.4999999999999995 -0.0
outer loop
vertex 295.5574431411889 31.000000000000007 0.0
vertex 288.28282974939964 43.6 0.0
vertex 288.28282974939964 43.6 12.7
endloop
endfacet
facet normal 0.8660254037844388 0.4999999999999995 0.0
outer loop
vertex 295.5574431411889 31.000000000000007 0.0
vertex 288.28282974939964 43.6 12.7
vertex 295.5574431411889 31.000000000000007 12.7
endloop
endfacet
facet normal -0.8660254037844389 -0.49999999999999933 0.0
outer loop
vertex 371.07485835119195 56.2 12.7
vertex 378.3494717429812 43.6 0.0
vertex 378.3494717429812 43.6 12.7
endloop
endfacet
facet normal -0.8660254037844389 -0.49999999999999933 0.0
outer loop
vertex 371.07485835119195 56.2 0.0
vertex 378.3494717429812 43.6 0.0
vertex 371.07485835119195 56.2 12.7
endloop
endfacet
facet normal -0.8660254037844389 0.49999999999999933 0.0
outer loop
vertex 378.3494717429812 43.6 0.0
vertex 371.07485835119195 31.0 0.0
vertex 371.07485835119195 31.0 12.7
endloop
endfacet
facet normal -0.8660254037844389 0.49999999999999933 0.0
outer loop
vertex 378.3494717429812 43.6 0.0
vertex 371.07485835119195 31.0 12.7
vertex 378.3494717429812 43.6 12.7
endloop
endfacet
facet normal 0.0 -1.0 0.0
outer loop
vertex 356.5256315676134 56.2 0.0
vertex 371.07485835119195 56.2 0.0
vertex 371.07485835119195 56.2 12.7
endloop
endfacet
facet normal 0.0 -1.0 0.0
outer loop
vertex 356.5256315676134 56.2 0.0
vertex 371.07485835119195 56.2 12.7
vertex 356.5256315676134 56.2 12.7
endloop
endfacet
facet normal 4.883714759069376e-16 1.0 -0.0
outer loop
vertex 371.07485835119195 31.0 0.0
vertex 356.5256315676134 31.000000000000007 0.0
vertex 356.5256315676134 31.000000000000007 12.7
endloop
endfacet
facet normal 4.883714759069376e-16 1.0 0.0
outer loop
vertex 371.07485835119195 31.0 0.0
vertex 356.5256315676134 31.000000000000007 12.7
vertex 371.07485835119195 31.0 12.7
endloop
endfacet
facet normal 0.8660254037844389 -0.49999999999999933 0.0
outer loop
vertex 349.25101817582413 43.6 0.0
vertex 356.5256315676134 56.2 0.0
vertex 356.5256315676134 56.2 12.7
endloop
endfacet
facet normal 0.8660254037844389 -0.49999999999999933 0.0
outer loop
vertex 349.25101817582413 43.6 0.0
vertex 356.5256315676134 56.2 12.7
vertex 349.25101817582413 43.6 12.7
endloop
endfacet
facet normal 0.8660254037844388 0.4999999999999995 -0.0
outer loop
vertex 356.5256315676134 31.000000000000007 0.0
vertex 349.25101817582413 43.6 0.0
vertex 349.25101817582413 43.6 12.7
endloop
endfacet
facet normal 0.8660254037844388 0.4999999999999995 0.0
outer loop
vertex 356.5256315676134 31.000000000000007 0.0
vertex 349.25101817582413 43.6 12.7
vertex 356.5256315676134 31.000000000000007 12.7
endloop
endfacet
facet normal -0.8660254037844388 -0.4999999999999995 0.0
outer loop
vertex 279.6225757115552 73.8 12.7
vertex 286.8971891033445 61.2 0.0
vertex 286.8971891033445 61.2 12.7
endloop
endfacet
facet normal -0.8660254037844388 -0.4999999999999995 0.0
outer loop
vertex 279.6225757115552 73.8 0.0
vertex 286.8971891033445 61.2 0.0
vertex 279.6225757115552 73.8 12.7
endloop
endfacet
facet normal -0.8660254037844389 0.49999999999999933 0.0
outer loop
vertex 286.8971891033445 61.2 12.7
vertex 279.6225757115552 48.6 0.0
vertex 279.6225757115552 48.6 12.7
endloop
endfacet
facet normal -0.8660254037844389 0.49999999999999933 0.0
outer loop
vertex 286.8971891033445 61.2 0.0
vertex 279.6225757115552 48.6 0.0
vertex 286.8971891033445 61.2 12.7
endloop
endfacet
facet normal -9.767429518138752e-16 -1.0 0.0
outer loop
vertex 265.07334892797667 73.80000000000001 0.0
vertex 279.6225757115552 73.8 0.0
vertex 279.6225757115552 73.8 12.7
endloop
endfacet
facet normal -9.767429518138752e-16 -1.0 0.0
outer loop
vertex 265.07334892797667 73.80000000000001 0.0
vertex 279.6225757115552 73.8 12.7
vertex 265.07334892797667 73.80000000000001 12.7
endloop
endfacet
facet normal 4.883714759069376e-16 1.0 -0.0
outer loop
vertex 279.6225757115552 48.6 0.0
vertex 265.07334892797667 48.60000000000001 0.0
vertex 265.07334892797667 48.60000000000001 12.7
endloop
endfacet
facet normal 4.883714759069376e-16 1.0 0.0
outer loop
vertex 279.6225757115552 48.6 0.0
vertex 265.07334892797667 48.60000000000001 12.7
vertex 279.6225757115552 48.6 12.7
endloop
endfacet
facet normal 0.8660254037844392 -0.49999999999999917 0.0
outer loop
vertex 257.7987355361874 61.2 0.0
vertex 265.07334892797667 73.80000000000001 0.0
vertex 265.07334892797667 73.80000000000001 12.7
endloop
endfacet
facet normal 0.8660254037844392 -0.49999999999999917 0.0
outer loop
vertex 257.7987355361874 61.2 0.0
vertex 265.07334892797667 73.80000000000001 12.7
vertex 257.7987355361874 61.2 12.7
endloop
endfacet
facet normal 0.8660254037844388 0.4999999999999995 -0.0
outer loop
vertex 265.07334892797667 48.60000000000001 0.0
vertex 257.7987355361874 61.2 0.0
vertex 257.7987355361874 61.2 12.7
endloop
endfacet
facet normal 0.8660254037844388 0.4999999999999995 0.0
outer loop
vertex 265.07334892797667 48.60000000000001 0.0
vertex 257.7987355361874 61.2 12.7
vertex 265.07334892797667 48.60000000000001 12.7
endloop
endfacet
facet normal -0.8660254037844388 -0.4999999999999995 0.0
outer loop
vertex 340.5907641379797 73.8 12.7
vertex 347.865377529769 61.2 0.0
vertex 347.865377529769 61.2 12.7
endloop
endfacet
facet normal -0.8660254037844388 -0.4999999999999995 0.0
outer loop
vertex 340.5907641379797 73.8 0.0
vertex 347.865377529769 61.2 0.0
vertex 340.5907641379797 73.8 12.7
endloop
endfacet
facet normal -0.8660254037844389 0.49999999999999933 0.0
outer loop
vertex 347.865377529769 61.2 12.7
vertex 340.5907641379797 48.6 0.0
vertex 340.5907641379797 48.6 12.7
endloop
endfacet
facet normal -0.8660254037844389 0.49999999999999933 0.0
outer loop
vertex 347.865377529769 61.2 0.0
vertex 340.5907641379797 48.6 0.0
vertex 347.865377529769 61.2 12.7
endloop
endfacet
facet normal -9.767429518138752e-16 -1.0 0.0
outer loop
vertex 326.04153735440116 73.80000000000001 0.0
vertex 340.5907641379797 73.8 0.0
vertex 340.5907641379797 73.8 12.7
endloop
endfacet
facet normal -9.767429518138752e-16 -1.0 0.0
outer loop
vertex 326.04153735440116 73.80000000000001 0.0
vertex 340.5907641379797 73.8 12.7
vertex 326.04153735440116 73.80000000000001 12.7
endloop
endfacet
facet normal 4.883714759069376e-16 1.0 -0.0
outer loop
vertex 340.5907641379797 48.6 0.0
vertex 326.04153735440116 48.60000000000001 0.0
vertex 326.04153735440116 48.60000000000001 12.7
endloop
endfacet
facet normal 4.883714759069376e-16 1.0 0.0
outer loop
vertex 340.5907641379797 48.6 0.0
vertex 326.04153735440116 48.60000000000001 12.7
vertex 340.5907641379797 48.6 12.7
endloop
endfacet
facet normal 0.8660254037844392 -0.49999999999999917 0.0
outer loop
vertex 318.7669239626119 61.2 0.0
vertex 326.04153735440116 73.80000000000001 0.0
vertex 326.04153735440116 73.80000000000001 12.7
endloop
endfacet
facet normal 0.8660254037844392 -0.49999999999999917 0.0
outer loop
vertex 318.7669239626119 61.2 0.0
vertex 326.04153735440116 73.80000000000001 12.7
vertex 318.7669239626119 61.2 12.7
endloop
endfacet
facet normal 0.8660254037844388 0.4999999999999995 -0.0
outer loop
vertex 326.04153735440116 48.60000000000001 0.0
vertex 318.7669239626119 61.2 0.0
vertex 318.7669239626119 61.2 12.7
endloop
endfacet
facet normal 0.8660254037844388 0.4999999999999995 0.0
outer loop
vertex 326.04153735440116 48.60000000000001 0.0
vertex 318.7669239626119 61.2 12.7
vertex 326.04153735440116 48.60000000000001 12.7
endloop
endfacet
facet normal -0.8660254037844388 -0.4999999999999995 0.0
outer loop
vertex 310.10666992476746 91.4 12.7
vertex 317.38128331655673 78.80000000000001 0.0
vertex 317.38128331655673 78.80000000000001 12.7
endloop
endfacet
facet normal -0.8660254037844388 -0.4999999999999995 0.0
outer loop
vertex 310.10666992476746 91.4 0.0
vertex 317.38128331655673 78.80000000000001 0.0
vertex 310.10666992476746 91.4 12.7
endloop
endfacet
facet normal -0.8660254037844388 0.4999999999999995 0.0
outer loop
vertex 317.38128331655673 78.80000000000001 12.7
vertex 310.10666992476746 66.20000000000002 0.0
vertex 310.10666992476746 66.20000000000002 12.7
endloop
endfacet
facet normal -0.8660254037844388 0.4999999999999995 0.0
outer loop
vertex 317.38128331655673 78.80000000000001 0.0
vertex 310.10666992476746 66.20000000000002 0.0
vertex 317.38128331655673 78.80000000000001 12.7
endloop
endfacet
facet normal 0.0 -1.0 0.0
outer loop
vertex 295.5574431411889 91.4 0.0
vertex 310.10666992476746 91.4 0.0
vertex 310.10666992476746 91.4 12.7
endloop
endfacet
facet normal 0.0 -1.0 0.0
outer loop
vertex 295.5574431411889 91.4 0.0
vertex 310.10666992476746 91.4 12.7
vertex 295.5574431411889 91.4 12.7
endloop
endfacet
facet normal 0.0 1.0 -0.0
outer loop
vertex 310.10666992476746 66.20000000000002 0.0
vertex 295.5574431411889 66.20000000000002 0.0
vertex 295.5574431411889 66.20000000000002 12.7
endloop
endfacet
facet normal 0.0 1.0 -0.0
outer loop
vertex 310.10666992476746 66.20000000000002 0.0
vertex 295.5574431411889 66.20000000000002 12.7
vertex 310.10666992476746 66.20000000000002 12.7
endloop
endfacet
facet normal 0.8660254037844388 -0.4999999999999995 0.0
outer loop
vertex 288.28282974939964 78.80000000000001 12.7
vertex 295.5574431411889 91.4 0.0
vertex 295.5574431411889 91.4 12.7
endloop
endfacet
facet normal 0.8660254037844388 -0.4999999999999995 0.0
outer loop
vertex 288.28282974939964 78.80000000000001 0.0
vertex 295.5574431411889 91.4 0.0
vertex 288.28282974939964 78.80000000000001 12.7
endloop
endfacet
facet normal 0.8660254037844388 0.4999999999999995 -0.0
outer loop
vertex 295.5574431411889 66.20000000000002 12.7
vertex 288.28282974939964 78.80000000000001 0.0
vertex 288.28282974939964 78.80000000000001 12.7
endloop
endfacet
facet normal 0.8660254037844388 0.4999999999999995 0.0
outer loop
vertex 295.5574431411889 66.20000000000002 0.0
vertex 288.28282974939964 78.80000000000001 0.0
vertex 295.5574431411889 66.20000000000002 12.7
endloop
endfacet
facet normal -0.8660254037844388 -0.4999999999999995 0.0
outer loop
vertex 371.07485835119195 91.4 12.7
vertex 378.3494717429812 78.80000000000001 0.0
vertex 378.3494717429812 78.80000000000001 12.7
endloop
endfacet
facet normal -0.8660254037844388 -0.4999999999999995 0.0
outer loop
vertex 371.07485835119195 91.4 0.0
vertex 378.3494717429812 78.80000000000001 0.0
vertex 371.07485835119195 91.4 12.7
endloop
endfacet
facet normal 0.0 -1.0 0.0
outer loop
vertex 356.5256315676134 91.4 0.0
vertex 371.07485835119195 91.4 0.0
vertex 371.07485835119195 91.4 12.7
endloop
endfacet
facet normal 0.0 -1.0 0.0
outer loop
vertex 356.5256315676134 91.4 0.0
vertex 371.07485835119195 91.4 12.7
vertex 356.5256315676134 91.4 12.7
endloop
endfacet
facet normal 0.8660254037844388 -0.4999999999999995 0.0
outer loop
vertex 349.25101817582413 78.80000000000001 12.7
vertex 356.5256315676134 91.4 0.0
vertex 356.5256315676134 91.4 12.7
endloop
endfacet
facet normal 0.8660254037844388 -0.4999999999999995 0.0
outer loop
vertex 349.25101817582413 78.80000000000001 0.0
vertex 356.5256315676134 91.4 0.0
vertex 349.25101817582413 78.80000000000001 12.7
endloop
endfacet
facet normal 0.8660254037844388 0.4999999999999995 -0.0
outer loop
vertex 356.5256315676134 66.20000000000002 12.7
vertex 349.25101817582413 78.80000000000001 0.0
vertex 349.25101817582413 78.80000000000001 12.7
endloop
endfacet
facet normal 0.8660254037844388 0.4999999999999995 0.0
outer loop
vertex 356.5256315676134 66.20000000000002 0.0
vertex 349.25101817582413 78.80000000000001 0.0
vertex 356.5256315676134 66.20000000000002 12.7
endloop
endfacet
facet normal 0.0 1.0 -0.0
outer loop
vertex 371.07485835119195 66.20000000000002 0.0
vertex 356.5256315676134 66.20000000000002 0.0
vertex 356.5256315676134 66.20000000000002 12.7
endloop
endfacet
facet normal 0.0 1.0 -0.0
outer loop
vertex 371.07485835119195 66.20000000000002 0.0
vertex 356.5256315676134 66.20000000000002 12.7
vertex 371.07485835119195 66.20000000000002 12.7
endloop
endfacet
facet normal -0.8660254037844388 0.4999999999999995 0.0
outer loop
vertex 378.3494717429812 78.80000000000001 12.7
vertex 371.07485835119195 66.20000000000002 0.0
vertex 371.07485835119195 66.20000000000002 12.7
endloop
endfacet
facet normal -0.8660254037844388 0.4999999999999995 0.0
outer loop
vertex 378.3494717429812 78.80000000000001 0.0
vertex 371.07485835119195 66.20000000000002 0.0
vertex 378.3494717429812 78.80000000000001 12.7
endloop
endfacet

endsolid
