ISO-10303-21;
HEADER;
FILE_DESCRIPTION(('Open CASCADE Model'),'2;1');
FILE_NAME('Open CASCADE Shape Model','2026-09-23T07:23:57',('Author'),(
    'Open CASCADE'),'Open CASCADE STEP processor 7.9','Open CASCADE 7.9'
  ,'Unknown');
FILE_SCHEMA(('AUTOMOTIVE_DESIGN { 1 0 10303 214 1 1 1 1 }'));
ENDSEC;
DATA;
#1 = APPLICATION_PROTOCOL_DEFINITION('international standard',
  'automotive_design',2000,#2);
#2 = APPLICATION_CONTEXT(
  'core data for automotive mechanical design processes');
#3 = SHAPE_DEFINITION_REPRESENTATION(#4,#10);
#4 = PRODUCT_DEFINITION_SHAPE('','',#5);
#5 = PRODUCT_DEFINITION('design','',#6,#9);
#6 = PRODUCT_DEFINITION_FORMATION('','',#7);
#7 = PRODUCT('Open CASCADE STEP translator 7.9 4',
  'Open CASCADE STEP translator 7.9 4','',(#8));
#8 = PRODUCT_CONTEXT('',#2,'mechanical');
#9 = PRODUCT_DEFINITION_CONTEXT('part definition',#2,'design');
#10 = ADVANCED_BREP_SHAPE_REPRESENTATION('',(#11,#15),#495);
#11 = AXIS2_PLACEMENT_3D('',#12,#13,#14);
#12 = CARTESIAN_POINT('',(0.,0.,0.));
#13 = DIRECTION('',(0.,0.,1.));
#14 = DIRECTION('',(1.,0.,-0.));
#15 = MANIFOLD_SOLID_BREP('',#16);
#16 = CLOSED_SHELL('',(#17,#137,#221,#268,#461,#488));
#17 = ADVANCED_FACE('',(#18),#32,.F.);
#18 = FACE_BOUND('',#19,.F.);
#19 = EDGE_LOOP('',(#20,#55,#83,#111));
#20 = ORIENTED_EDGE('',*,*,#21,.F.);
#21 = EDGE_CURVE('',#22,#24,#26,.T.);
#22 = VERTEX_POINT('',#23);
#23 = CARTESIAN_POINT('',(0.,0.,0.));
#24 = VERTEX_POINT('',#25);
#25 = CARTESIAN_POINT('',(403.225,0.,0.));
#26 = SURFACE_CURVE('',#27,(#31,#43),.PCURVE_S1.);
#27 = LINE('',#28,#29);
#28 = CARTESIAN_POINT('',(0.,0.,0.));
#29 = VECTOR('',#30,1.);
#30 = DIRECTION('',(1.,0.,0.));
#31 = PCURVE('',#32,#37);
#32 = PLANE('',#33);
#33 = AXIS2_PLACEMENT_3D('',#34,#35,#36);
#34 = CARTESIAN_POINT('',(0.,0.,0.));
#35 = DIRECTION('',(0.,1.,0.));
#36 = DIRECTION('',(1.,0.,0.));
#37 = DEFINITIONAL_REPRESENTATION('',(#38),#42);
#38 = LINE('',#39,#40);
#39 = CARTESIAN_POINT('',(0.,0.));
#40 = VECTOR('',#41,1.);
#41 = DIRECTION('',(1.,0.));
#42 = ( GEOMETRIC_REPRESENTATION_CONTEXT(2) 
PARAMETRIC_REPRESENTATION_CONTEXT() REPRESENTATION_CONTEXT('2D SPACE',''
  ) );
#43 = PCURVE('',#44,#49);
#44 = PLANE('',#45);
#45 = AXIS2_PLACEMENT_3D('',#46,#47,#48);
#46 = CARTESIAN_POINT('',(217.64725266008,53.255729267513,0.));
#47 = DIRECTION('',(0.,0.,1.));
#48 = DIRECTION('',(1.,0.,-0.));
#49 = DEFINITIONAL_REPRESENTATION('',(#50),#54);
#50 = LINE('',#51,#52);
#51 = CARTESIAN_POINT('',(-217.64725266,-53.25572926751));
#52 = VECTOR('',#53,1.);
#53 = DIRECTION('',(1.,0.));
#54 = ( GEOMETRIC_REPRESENTATION_CONTEXT(2) 
PARAMETRIC_REPRESENTATION_CONTEXT() REPRESENTATION_CONTEXT('2D SPACE',''
  ) );
#55 = ORIENTED_EDGE('',*,*,#56,.T.);
#56 = EDGE_CURVE('',#22,#57,#59,.T.);
#57 = VERTEX_POINT('',#58);
#58 = CARTESIAN_POINT('',(0.,0.,12.7));
#59 = SURFACE_CURVE('',#60,(#64,#71),.PCURVE_S1.);
#60 = LINE('',#61,#62);
#61 = CARTESIAN_POINT('',(0.,0.,0.));
#62 = VECTOR('',#63,1.);
#63 = DIRECTION('',(0.,0.,1.));
#64 = PCURVE('',#32,#65);
#65 = DEFINITIONAL_REPRESENTATION('',(#66),#70);
#66 = LINE('',#67,#68);
#67 = CARTESIAN_POINT('',(0.,0.));
#68 = VECTOR('',#69,1.);
#69 = DIRECTION('',(0.,-1.));
#70 = ( GEOMETRIC_REPRESENTATION_CONTEXT(2) 
PARAMETRIC_REPRESENTATION_CONTEXT() REPRESENTATION_CONTEXT('2D SPACE',''
  ) );
#71 = PCURVE('',#72,#77);
#72 = PLANE('',#73);
#73 = AXIS2_PLACEMENT_3D('',#74,#75,#76);
#74 = CARTESIAN_POINT('',(0.,76.2,0.));
#75 = DIRECTION('',(1.,0.,-0.));
#76 = DIRECTION('',(0.,-1.,0.));
#77 = DEFINITIONAL_REPRESENTATION('',(#78),#82);
#78 = LINE('',#79,#80);
#79 = CARTESIAN_POINT('',(76.2,0.));
#80 = VECTOR('',#81,1.);
#81 = DIRECTION('',(0.,-1.));
#82 = ( GEOMETRIC_REPRESENTATION_CONTEXT(2) 
PARAMETRIC_REPRESENTATION_CONTEXT() REPRESENTATION_CONTEXT('2D SPACE',''
  ) );
#83 = ORIENTED_EDGE('',*,*,#84,.T.);
#84 = EDGE_CURVE('',#57,#85,#87,.T.);
#85 = VERTEX_POINT('',#86);
#86 = CARTESIAN_POINT('',(403.225,0.,12.7));
#87 = SURFACE_CURVE('',#88,(#92,#99),.PCURVE_S1.);
#88 = LINE('',#89,#90);
#89 = CARTESIAN_POINT('',(0.,0.,12.7));
#90 = VECTOR('',#91,1.);
#91 = DIRECTION('',(1.,0.,0.));
#92 = PCURVE('',#32,#93);
#93 = DEFINITIONAL_REPRESENTATION('',(#94),#98);
#94 = LINE('',#95,#96);
#95 = CARTESIAN_POINT('',(0.,-12.7));
#96 = VECTOR('',#97,1.);
#97 = DIRECTION('',(1.,0.));
#98 = ( GEOMETRIC_REPRESENTATION_CONTEXT(2) 
PARAMETRIC_REPRESENTATION_CONTEXT() REPRESENTATION_CONTEXT('2D SPACE',''
  ) );
#99 = PCURVE('',#100,#105);
#100 = PLANE('',#101);
#101 = AXIS2_PLACEMENT_3D('',#102,#103,#104);
#102 = CARTESIAN_POINT('',(0.,0.,12.7));
#103 = DIRECTION('',(0.,0.,1.));
#104 = DIRECTION('',(1.,0.,0.));
#105 = DEFINITIONAL_REPRESENTATION('',(#106),#110);
#106 = LINE('',#107,#108);
#107 = CARTESIAN_POINT('',(0.,0.));
#108 = VECTOR('',#109,1.);
#109 = DIRECTION('',(1.,0.));
#110 = ( GEOMETRIC_REPRESENTATION_CONTEXT(2) 
PARAMETRIC_REPRESENTATION_CONTEXT() REPRESENTATION_CONTEXT('2D SPACE',''
  ) );
#111 = ORIENTED_EDGE('',*,*,#112,.F.);
#112 = EDGE_CURVE('',#24,#85,#113,.T.);
#113 = SURFACE_CURVE('',#114,(#118,#125),.PCURVE_S1.);
#114 = LINE('',#115,#116);
#115 = CARTESIAN_POINT('',(403.225,0.,0.));
#116 = VECTOR('',#117,1.);
#117 = DIRECTION('',(0.,0.,1.));
#118 = PCURVE('',#32,#119);
#119 = DEFINITIONAL_REPRESENTATION('',(#120),#124);
#120 = LINE('',#121,#122);
#121 = CARTESIAN_POINT('',(403.225,0.));
#122 = VECTOR('',#123,1.);
#123 = DIRECTION('',(0.,-1.));
#124 = ( GEOMETRIC_REPRESENTATION_CONTEXT(2) 
PARAMETRIC_REPRESENTATION_CONTEXT() REPRESENTATION_CONTEXT('2D SPACE',''
  ) );
#125 = PCURVE('',#126,#131);
#126 = PLANE('',#127);
#127 = AXIS2_PLACEMENT_3D('',#128,#129,#130);
#128 = CARTESIAN_POINT('',(403.225,0.,0.));
#129 = DIRECTION('',(-1.,0.,0.));
#130 = DIRECTION('',(0.,1.,0.));
#131 = DEFINITIONAL_REPRESENTATION('',(#132),#136);
#132 = LINE('',#133,#134);
#133 = CARTESIAN_POINT('',(0.,0.));
#134 = VECTOR('',#135,1.);
#135 = DIRECTION('',(0.,-1.));
#136 = ( GEOMETRIC_REPRESENTATION_CONTEXT(2) 
PARAMETRIC_REPRESENTATION_CONTEXT() REPRESENTATION_CONTEXT('2D SPACE',''
  ) );
#137 = ADVANCED_FACE('',(#138),#44,.F.);
#138 = FACE_BOUND('',#139,.F.);
#139 = EDGE_LOOP('',(#140,#141,#164,#200));
#140 = ORIENTED_EDGE('',*,*,#21,.T.);
#141 = ORIENTED_EDGE('',*,*,#142,.T.);
#142 = EDGE_CURVE('',#24,#143,#145,.T.);
#143 = VERTEX_POINT('',#144);
#144 = CARTESIAN_POINT('',(403.225,152.4,0.));
#145 = SURFACE_CURVE('',#146,(#150,#157),.PCURVE_S1.);
#146 = LINE('',#147,#148);
#147 = CARTESIAN_POINT('',(403.225,0.,0.));
#148 = VECTOR('',#149,1.);
#149 = DIRECTION('',(0.,1.,0.));
#150 = PCURVE('',#44,#151);
#151 = DEFINITIONAL_REPRESENTATION('',(#152),#156);
#152 = LINE('',#153,#154);
#153 = CARTESIAN_POINT('',(185.57774733992,-53.25572926751));
#154 = VECTOR('',#155,1.);
#155 = DIRECTION('',(0.,1.));
#156 = ( GEOMETRIC_REPRESENTATION_CONTEXT(2) 
PARAMETRIC_REPRESENTATION_CONTEXT() REPRESENTATION_CONTEXT('2D SPACE',''
  ) );
#157 = PCURVE('',#126,#158);
#158 = DEFINITIONAL_REPRESENTATION('',(#159),#163);
#159 = LINE('',#160,#161);
#160 = CARTESIAN_POINT('',(0.,0.));
#161 = VECTOR('',#162,1.);
#162 = DIRECTION('',(1.,0.));
#163 = ( GEOMETRIC_REPRESENTATION_CONTEXT(2) 
PARAMETRIC_REPRESENTATION_CONTEXT() REPRESENTATION_CONTEXT('2D SPACE',''
  ) );
#164 = ORIENTED_EDGE('',*,*,#165,.T.);
#165 = EDGE_CURVE('',#143,#166,#168,.T.);
#166 = VERTEX_POINT('',#167);
#167 = CARTESIAN_POINT('',(1.299495277635E-14,76.2,0.));
#168 = SURFACE_CURVE('',#169,(#174,#185),.PCURVE_S1.);
#169 = ELLIPSE('',#170,424.44736842105,110.79605803202);
#170 = AXIS2_PLACEMENT_3D('',#171,#172,#173);
#171 = CARTESIAN_POINT('',(0.,186.99605803202,0.));
#172 = DIRECTION('',(0.,0.,-1.));
#173 = DIRECTION('',(1.,0.,0.));
#174 = PCURVE('',#44,#175);
#175 = DEFINITIONAL_REPRESENTATION('',(#176),#184);
#176 = ( BOUNDED_CURVE() B_SPLINE_CURVE(2,(#177,#178,#179,#180,#181,#182
,#183),.UNSPECIFIED.,.T.,.F.) B_SPLINE_CURVE_WITH_KNOTS((1,2,2,2,2,1),(
    -2.094395102393,0.,2.094395102393,4.188790204786,6.28318530718,
8.377580409573),.UNSPECIFIED.) CURVE() GEOMETRIC_REPRESENTATION_ITEM() 
RATIONAL_B_SPLINE_CURVE((1.,0.5,1.,0.5,1.,0.5,1.)) REPRESENTATION_ITEM(
  '') );
#177 = CARTESIAN_POINT('',(206.80011576097,133.7403287645));
#178 = CARTESIAN_POINT('',(206.80011576097,-58.1640730253));
#179 = CARTESIAN_POINT('',(-429.8709368706,37.788127869603));
#180 = CARTESIAN_POINT('',(-1.066541989502E+03,133.7403287645));
#181 = CARTESIAN_POINT('',(-429.8709368706,229.69252965941));
#182 = CARTESIAN_POINT('',(206.80011576096,325.64473055431));
#183 = CARTESIAN_POINT('',(206.80011576097,133.7403287645));
#184 = ( GEOMETRIC_REPRESENTATION_CONTEXT(2) 
PARAMETRIC_REPRESENTATION_CONTEXT() REPRESENTATION_CONTEXT('2D SPACE',''
  ) );
#185 = PCURVE('',#186,#194);
#186 = SURFACE_OF_LINEAR_EXTRUSION('',#187,#192);
#187 = ELLIPSE('',#188,424.44736842105,110.79605803202);
#188 = AXIS2_PLACEMENT_3D('',#189,#190,#191);
#189 = CARTESIAN_POINT('',(0.,186.99605803202,0.));
#190 = DIRECTION('',(0.,0.,-1.));
#191 = DIRECTION('',(1.,0.,0.));
#192 = VECTOR('',#193,1.);
#193 = DIRECTION('',(-0.,-0.,-1.));
#194 = DEFINITIONAL_REPRESENTATION('',(#195),#199);
#195 = LINE('',#196,#197);
#196 = CARTESIAN_POINT('',(0.,0.));
#197 = VECTOR('',#198,1.);
#198 = DIRECTION('',(1.,0.));
#199 = ( GEOMETRIC_REPRESENTATION_CONTEXT(2) 
PARAMETRIC_REPRESENTATION_CONTEXT() REPRESENTATION_CONTEXT('2D SPACE',''
  ) );
#200 = ORIENTED_EDGE('',*,*,#201,.T.);
#201 = EDGE_CURVE('',#166,#22,#202,.T.);
#202 = SURFACE_CURVE('',#203,(#207,#214),.PCURVE_S1.);
#203 = LINE('',#204,#205);
#204 = CARTESIAN_POINT('',(0.,76.2,0.));
#205 = VECTOR('',#206,1.);
#206 = DIRECTION('',(0.,-1.,0.));
#207 = PCURVE('',#44,#208);
#208 = DEFINITIONAL_REPRESENTATION('',(#209),#213);
#209 = LINE('',#210,#211);
#210 = CARTESIAN_POINT('',(-217.64725266,22.944270732487));
#211 = VECTOR('',#212,1.);
#212 = DIRECTION('',(0.,-1.));
#213 = ( GEOMETRIC_REPRESENTATION_CONTEXT(2) 
PARAMETRIC_REPRESENTATION_CONTEXT() REPRESENTATION_CONTEXT('2D SPACE',''
  ) );
#214 = PCURVE('',#72,#215);
#215 = DEFINITIONAL_REPRESENTATION('',(#216),#220);
#216 = LINE('',#217,#218);
#217 = CARTESIAN_POINT('',(0.,0.));
#218 = VECTOR('',#219,1.);
#219 = DIRECTION('',(1.,0.));
#220 = ( GEOMETRIC_REPRESENTATION_CONTEXT(2) 
PARAMETRIC_REPRESENTATION_CONTEXT() REPRESENTATION_CONTEXT('2D SPACE',''
  ) );
#221 = ADVANCED_FACE('',(#222),#126,.F.);
#222 = FACE_BOUND('',#223,.F.);
#223 = EDGE_LOOP('',(#224,#225,#226,#247));
#224 = ORIENTED_EDGE('',*,*,#142,.F.);
#225 = ORIENTED_EDGE('',*,*,#112,.T.);
#226 = ORIENTED_EDGE('',*,*,#227,.T.);
#227 = EDGE_CURVE('',#85,#228,#230,.T.);
#228 = VERTEX_POINT('',#229);
#229 = CARTESIAN_POINT('',(403.225,152.4,12.7));
#230 = SURFACE_CURVE('',#231,(#235,#241),.PCURVE_S1.);
#231 = LINE('',#232,#233);
#232 = CARTESIAN_POINT('',(403.225,0.,12.7));
#233 = VECTOR('',#234,1.);
#234 = DIRECTION('',(0.,1.,-0.));
#235 = PCURVE('',#126,#236);
#236 = DEFINITIONAL_REPRESENTATION('',(#237),#240);
#237 = B_SPLINE_CURVE_WITH_KNOTS('',1,(#238,#239),.UNSPECIFIED.,.F.,.F.,
  (2,2),(0.,152.4),.PIECEWISE_BEZIER_KNOTS.);
#238 = CARTESIAN_POINT('',(0.,-12.7));
#239 = CARTESIAN_POINT('',(152.4,-12.7));
#240 = ( GEOMETRIC_REPRESENTATION_CONTEXT(2) 
PARAMETRIC_REPRESENTATION_CONTEXT() REPRESENTATION_CONTEXT('2D SPACE',''
  ) );
#241 = PCURVE('',#100,#242);
#242 = DEFINITIONAL_REPRESENTATION('',(#243),#246);
#243 = B_SPLINE_CURVE_WITH_KNOTS('',1,(#244,#245),.UNSPECIFIED.,.F.,.F.,
  (2,2),(0.,152.4),.PIECEWISE_BEZIER_KNOTS.);
#244 = CARTESIAN_POINT('',(403.225,0.));
#245 = CARTESIAN_POINT('',(403.225,152.4));
#246 = ( GEOMETRIC_REPRESENTATION_CONTEXT(2) 
PARAMETRIC_REPRESENTATION_CONTEXT() REPRESENTATION_CONTEXT('2D SPACE',''
  ) );
#247 = ORIENTED_EDGE('',*,*,#248,.F.);
#248 = EDGE_CURVE('',#143,#228,#249,.T.);
#249 = SURFACE_CURVE('',#250,(#254,#261),.PCURVE_S1.);
#250 = LINE('',#251,#252);
#251 = CARTESIAN_POINT('',(403.225,152.4,0.));
#252 = VECTOR('',#253,1.);
#253 = DIRECTION('',(0.,0.,1.));
#254 = PCURVE('',#126,#255);
#255 = DEFINITIONAL_REPRESENTATION('',(#256),#260);
#256 = LINE('',#257,#258);
#257 = CARTESIAN_POINT('',(152.4,0.));
#258 = VECTOR('',#259,1.);
#259 = DIRECTION('',(0.,-1.));
#260 = ( GEOMETRIC_REPRESENTATION_CONTEXT(2) 
PARAMETRIC_REPRESENTATION_CONTEXT() REPRESENTATION_CONTEXT('2D SPACE',''
  ) );
#261 = PCURVE('',#186,#262);
#262 = DEFINITIONAL_REPRESENTATION('',(#263),#267);
#263 = LINE('',#264,#265);
#264 = CARTESIAN_POINT('',(0.317560429292,0.));
#265 = VECTOR('',#266,1.);
#266 = DIRECTION('',(0.,-1.));
#267 = ( GEOMETRIC_REPRESENTATION_CONTEXT(2) 
PARAMETRIC_REPRESENTATION_CONTEXT() REPRESENTATION_CONTEXT('2D SPACE',''
  ) );
#268 = ADVANCED_FACE('',(#269),#100,.T.);
#269 = FACE_BOUND('',#270,.T.);
#270 = EDGE_LOOP('',(#271,#294,#295,#296));
#271 = ORIENTED_EDGE('',*,*,#272,.F.);
#272 = EDGE_CURVE('',#57,#273,#275,.T.);
#273 = VERTEX_POINT('',#274);
#274 = CARTESIAN_POINT('',(6.497476388175E-15,76.2,12.7));
#275 = SURFACE_CURVE('',#276,(#280,#287),.PCURVE_S1.);
#276 = LINE('',#277,#278);
#277 = CARTESIAN_POINT('',(0.,0.,12.7));
#278 = VECTOR('',#279,1.);
#279 = DIRECTION('',(0.,1.,0.));
#280 = PCURVE('',#100,#281);
#281 = DEFINITIONAL_REPRESENTATION('',(#282),#286);
#282 = LINE('',#283,#284);
#283 = CARTESIAN_POINT('',(0.,0.));
#284 = VECTOR('',#285,1.);
#285 = DIRECTION('',(0.,1.));
#286 = ( GEOMETRIC_REPRESENTATION_CONTEXT(2) 
PARAMETRIC_REPRESENTATION_CONTEXT() REPRESENTATION_CONTEXT('2D SPACE',''
  ) );
#287 = PCURVE('',#72,#288);
#288 = DEFINITIONAL_REPRESENTATION('',(#289),#293);
#289 = LINE('',#290,#291);
#290 = CARTESIAN_POINT('',(76.2,-12.7));
#291 = VECTOR('',#292,1.);
#292 = DIRECTION('',(-1.,0.));
#293 = ( GEOMETRIC_REPRESENTATION_CONTEXT(2) 
PARAMETRIC_REPRESENTATION_CONTEXT() REPRESENTATION_CONTEXT('2D SPACE',''
  ) );
#294 = ORIENTED_EDGE('',*,*,#84,.T.);
#295 = ORIENTED_EDGE('',*,*,#227,.T.);
#296 = ORIENTED_EDGE('',*,*,#297,.F.);
#297 = EDGE_CURVE('',#273,#228,#298,.T.);
#298 = SURFACE_CURVE('',#299,(#351,#406),.PCURVE_S1.);
#299 = B_SPLINE_CURVE_WITH_KNOTS('',8,(#300,#301,#302,#303,#304,#305,
    #306,#307,#308,#309,#310,#311,#312,#313,#314,#315,#316,#317,#318,
    #319,#320,#321,#322,#323,#324,#325,#326,#327,#328,#329,#330,#331,
    #332,#333,#334,#335,#336,#337,#338,#339,#340,#341,#342,#343,#344,
    #345,#346,#347,#348,#349,#350),.UNSPECIFIED.,.F.,.F.,(9,7,7,7,7,7,7,
    9),(0.,0.213683802857,0.419775631631,0.60751072154,0.770858336379,
    0.867872563734,0.94940045527,1.),.UNSPECIFIED.);
#300 = CARTESIAN_POINT('',(-4.38927617708E-11,76.2,12.7));
#301 = CARTESIAN_POINT('',(11.093899923116,76.2,12.7));
#302 = CARTESIAN_POINT('',(22.187766370482,76.286504351476,12.7));
#303 = CARTESIAN_POINT('',(33.280858547151,76.459511354054,12.7));
#304 = CARTESIAN_POINT('',(44.372395004459,76.719367138886,12.7));
#305 = CARTESIAN_POINT('',(55.461553709316,77.066759510801,12.7));
#306 = CARTESIAN_POINT('',(66.547471420915,77.502734292548,12.7));
#307 = CARTESIAN_POINT('',(77.629242374833,78.028734171142,12.7));
#308 = CARTESIAN_POINT('',(99.389046910581,79.242631626526,12.7));
#309 = CARTESIAN_POINT('',(110.06734283196,79.924108076178,12.7));
#310 = CARTESIAN_POINT('',(120.73999038733,80.692795895866,12.7));
#311 = CARTESIAN_POINT('',(131.40602988724,81.550794456941,12.7));
#312 = CARTESIAN_POINT('',(142.06435047046,82.500650921073,12.7));
#313 = CARTESIAN_POINT('',(152.71368384884,83.545429728161,12.7));
#314 = CARTESIAN_POINT('',(163.35259343489,84.688834397755,12.7));
#315 = CARTESIAN_POINT('',(183.65977548379,87.07097021057,12.7));
#316 = CARTESIAN_POINT('',(193.32990098246,88.292115783537,12.7));
#317 = CARTESIAN_POINT('',(202.9887205826,89.602309041927,12.7));
#318 = CARTESIAN_POINT('',(212.6347833364,91.005562729818,12.7));
#319 = CARTESIAN_POINT('',(222.26627524077,92.506593359853,12.7));
#320 = CARTESIAN_POINT('',(231.88099528891,94.110973940616,12.7));
#321 = CARTESIAN_POINT('',(241.47630884073,95.825431902012,12.7));
#322 = CARTESIAN_POINT('',(259.37826865579,99.253312409417,12.7));
#323 = CARTESIAN_POINT('',(267.68987026017,100.93783782429,12.7));
#324 = CARTESIAN_POINT('',(275.98214817103,102.71762856028,12.7));
#325 = CARTESIAN_POINT('',(284.2525628622,104.59923790039,12.7));
#326 = CARTESIAN_POINT('',(292.49769380766,106.59037232105,12.7));
#327 = CARTESIAN_POINT('',(300.71311833848,108.70037540301,12.7));
#328 = CARTESIAN_POINT('',(308.89328310997,110.9407553632,12.7));
#329 = CARTESIAN_POINT('',(321.86416991386,114.74429140918,12.7));
#330 = CARTESIAN_POINT('',(326.68201474165,116.21291081111,12.7));
#331 = CARTESIAN_POINT('',(331.4831888781,117.73617682961,12.7));
#332 = CARTESIAN_POINT('',(336.26582220495,119.31777805222,12.7));
#333 = CARTESIAN_POINT('',(341.0275181814,120.9619568204,12.7));
#334 = CARTESIAN_POINT('',(345.76530671892,122.67364521411,12.7));
#335 = CARTESIAN_POINT('',(350.47554526889,124.45875037222,12.7));
#336 = CARTESIAN_POINT('',(359.08510827199,127.89286653839,12.7));
#337 = CARTESIAN_POINT('',(362.9932202662,129.51786273318,12.7));
#338 = CARTESIAN_POINT('',(366.87582224248,131.20430872558,12.7));
#339 = CARTESIAN_POINT('',(370.72960870368,132.95735855368,12.7));
#340 = CARTESIAN_POINT('',(374.55012138585,134.78289813892,12.7));
#341 = CARTESIAN_POINT('',(378.331571066,136.6879058076,12.7));
#342 = CARTESIAN_POINT('',(382.06665826451,138.68082471402,12.7));
#343 = CARTESIAN_POINT('',(388.02934571533,142.07149548404,12.7));
#344 = CARTESIAN_POINT('',(390.29084956094,143.40796755409,12.7));
#345 = CARTESIAN_POINT('',(392.52828307925,144.78519922835,12.7));
#346 = CARTESIAN_POINT('',(394.73880422656,146.20617167035,12.7));
#347 = CARTESIAN_POINT('',(396.91876726624,147.67415917973,12.7));
#348 = CARTESIAN_POINT('',(399.06366502215,149.19281451176,12.7));
#349 = CARTESIAN_POINT('',(401.16799913293,150.76636046146,12.7));
#350 = CARTESIAN_POINT('',(403.22499999999,152.4,12.7));
#351 = PCURVE('',#100,#352);
#352 = DEFINITIONAL_REPRESENTATION('',(#353),#405);
#353 = B_SPLINE_CURVE_WITH_KNOTS('',8,(#354,#355,#356,#357,#358,#359,
    #360,#361,#362,#363,#364,#365,#366,#367,#368,#369,#370,#371,#372,
    #373,#374,#375,#376,#377,#378,#379,#380,#381,#382,#383,#384,#385,
    #386,#387,#388,#389,#390,#391,#392,#393,#394,#395,#396,#397,#398,
    #399,#400,#401,#402,#403,#404),.UNSPECIFIED.,.F.,.F.,(9,7,7,7,7,7,7,
    9),(0.,0.213683802857,0.419775631631,0.60751072154,0.770858336379,
    0.867872563734,0.94940045527,1.),.UNSPECIFIED.);
#354 = CARTESIAN_POINT('',(-4.38927617708E-11,76.2));
#355 = CARTESIAN_POINT('',(11.093899923116,76.2));
#356 = CARTESIAN_POINT('',(22.187766370482,76.286504351476));
#357 = CARTESIAN_POINT('',(33.280858547151,76.459511354054));
#358 = CARTESIAN_POINT('',(44.372395004459,76.719367138886));
#359 = CARTESIAN_POINT('',(55.461553709316,77.066759510801));
#360 = CARTESIAN_POINT('',(66.547471420915,77.502734292548));
#361 = CARTESIAN_POINT('',(77.629242374833,78.028734171142));
#362 = CARTESIAN_POINT('',(99.389046910581,79.242631626526));
#363 = CARTESIAN_POINT('',(110.06734283196,79.924108076178));
#364 = CARTESIAN_POINT('',(120.73999038733,80.692795895866));
#365 = CARTESIAN_POINT('',(131.40602988724,81.550794456941));
#366 = CARTESIAN_POINT('',(142.06435047046,82.500650921073));
#367 = CARTESIAN_POINT('',(152.71368384884,83.545429728161));
#368 = CARTESIAN_POINT('',(163.35259343489,84.688834397755));
#369 = CARTESIAN_POINT('',(183.65977548379,87.07097021057));
#370 = CARTESIAN_POINT('',(193.32990098246,88.292115783537));
#371 = CARTESIAN_POINT('',(202.9887205826,89.602309041927));
#372 = CARTESIAN_POINT('',(212.6347833364,91.005562729818));
#373 = CARTESIAN_POINT('',(222.26627524077,92.506593359853));
#374 = CARTESIAN_POINT('',(231.88099528891,94.110973940616));
#375 = CARTESIAN_POINT('',(241.47630884073,95.825431902012));
#376 = CARTESIAN_POINT('',(259.37826865579,99.253312409417));
#377 = CARTESIAN_POINT('',(267.68987026017,100.93783782429));
#378 = CARTESIAN_POINT('',(275.98214817103,102.71762856028));
#379 = CARTESIAN_POINT('',(284.2525628622,104.59923790039));
#380 = CARTESIAN_POINT('',(292.49769380766,106.59037232105));
#381 = CARTESIAN_POINT('',(300.71311833848,108.70037540301));
#382 = CARTESIAN_POINT('',(308.89328310997,110.9407553632));
#383 = CARTESIAN_POINT('',(321.86416991386,114.74429140918));
#384 = CARTESIAN_POINT('',(326.68201474165,116.21291081111));
#385 = CARTESIAN_POINT('',(331.4831888781,117.73617682961));
#386 = CARTESIAN_POINT('',(336.26582220495,119.31777805222));
#387 = CARTESIAN_POINT('',(341.0275181814,120.9619568204));
#388 = CARTESIAN_POINT('',(345.76530671892,122.67364521411));
#389 = CARTESIAN_POINT('',(350.47554526889,124.45875037222));
#390 = CARTESIAN_POINT('',(359.08510827199,127.89286653839));
#391 = CARTESIAN_POINT('',(362.9932202662,129.51786273318));
#392 = CARTESIAN_POINT('',(366.87582224248,131.20430872558));
#393 = CARTESIAN_POINT('',(370.72960870368,132.95735855368));
#394 = CARTESIAN_POINT('',(374.55012138585,134.78289813892));
#395 = CARTESIAN_POINT('',(378.331571066,136.6879058076));
#396 = CARTESIAN_POINT('',(382.06665826451,138.68082471402));
#397 = CARTESIAN_POINT('',(388.02934571533,142.07149548404));
#398 = CARTESIAN_POINT('',(390.29084956094,143.40796755409));
#399 = CARTESIAN_POINT('',(392.52828307925,144.78519922835));
#400 = CARTESIAN_POINT('',(394.73880422656,146.20617167035));
#401 = CARTESIAN_POINT('',(396.91876726624,147.67415917973));
#402 = CARTESIAN_POINT('',(399.06366502215,149.19281451176));
#403 = CARTESIAN_POINT('',(401.16799913293,150.76636046146));
#404 = CARTESIAN_POINT('',(403.22499999999,152.4));
#405 = ( GEOMETRIC_REPRESENTATION_CONTEXT(2) 
PARAMETRIC_REPRESENTATION_CONTEXT() REPRESENTATION_CONTEXT('2D SPACE',''
  ) );
#406 = PCURVE('',#186,#407);
#407 = DEFINITIONAL_REPRESENTATION('',(#408),#460);
#408 = B_SPLINE_CURVE_WITH_KNOTS('',8,(#409,#410,#411,#412,#413,#414,
    #415,#416,#417,#418,#419,#420,#421,#422,#423,#424,#425,#426,#427,
    #428,#429,#430,#431,#432,#433,#434,#435,#436,#437,#438,#439,#440,
    #441,#442,#443,#444,#445,#446,#447,#448,#449,#450,#451,#452,#453,
    #454,#455,#456,#457,#458,#459),.UNSPECIFIED.,.F.,.F.,(9,7,7,7,7,7,7,
    9),(0.,0.213683802857,0.419775631631,0.60751072154,0.770858336379,
    0.867872563734,0.94940045527,1.),.UNSPECIFIED.);
#409 = CARTESIAN_POINT('',(1.570796326795,-12.7));
#410 = CARTESIAN_POINT('',(1.544659046301,-12.7));
#411 = CARTESIAN_POINT('',(1.518521841687,-12.7));
#412 = CARTESIAN_POINT('',(1.492359262883,-12.7));
#413 = CARTESIAN_POINT('',(1.466145920387,-12.7));
#414 = CARTESIAN_POINT('',(1.439856056602,-12.7));
#415 = CARTESIAN_POINT('',(1.413463026379,-12.7));
#416 = CARTESIAN_POINT('',(1.386938686774,-12.7));
#417 = CARTESIAN_POINT('',(1.334514832101,-12.7));
#418 = CARTESIAN_POINT('',(1.308626822389,-12.7));
#419 = CARTESIAN_POINT('',(1.282561338381,-12.7));
#420 = CARTESIAN_POINT('',(1.256289387134,-12.7));
#421 = CARTESIAN_POINT('',(1.229779626342,-12.7));
#422 = CARTESIAN_POINT('',(1.202997611253,-12.7));
#423 = CARTESIAN_POINT('',(1.175904635672,-12.7));
#424 = CARTESIAN_POINT('',(1.123451906784,-12.7));
#425 = CARTESIAN_POINT('',(1.098153231685,-12.7));
#426 = CARTESIAN_POINT('',(1.072525584775,-12.7));
#427 = CARTESIAN_POINT('',(1.04653109117,-12.7));
#428 = CARTESIAN_POINT('',(1.020126859112,-12.7));
#429 = CARTESIAN_POINT('',(0.993263572991,-12.7));
#430 = CARTESIAN_POINT('',(0.965882853592,-12.7));
#431 = CARTESIAN_POINT('',(0.913575033949,-12.7));
#432 = CARTESIAN_POINT('',(0.888792781493,-12.7));
#433 = CARTESIAN_POINT('',(0.863516716119,-12.7));
#434 = CARTESIAN_POINT('',(0.837691308987,-12.7));
#435 = CARTESIAN_POINT('',(0.811252124102,-12.7));
#436 = CARTESIAN_POINT('',(0.784121455363,-12.7));
#437 = CARTESIAN_POINT('',(0.756203619722,-12.7));
#438 = CARTESIAN_POINT('',(0.710243063444,-12.7));
#439 = CARTESIAN_POINT('',(0.692795169592,-12.7));
#440 = CARTESIAN_POINT('',(0.674997333274,-12.7));
#441 = CARTESIAN_POINT('',(0.656818773254,-12.7));
#442 = CARTESIAN_POINT('',(0.638224192537,-12.7));
#443 = CARTESIAN_POINT('',(0.619172527471,-12.7));
#444 = CARTESIAN_POINT('',(0.599614374024,-12.7));
#445 = CARTESIAN_POINT('',(0.562572055836,-12.7));
#446 = CARTESIAN_POINT('',(0.545257914966,-12.7));
#447 = CARTESIAN_POINT('',(0.527505238696,-12.7));
#448 = CARTESIAN_POINT('',(0.509270517369,-12.7));
#449 = CARTESIAN_POINT('',(0.490504281668,-12.7));
#450 = CARTESIAN_POINT('',(0.471147745129,-12.7));
#451 = CARTESIAN_POINT('',(0.451129340945,-12.7));
#452 = CARTESIAN_POINT('',(0.417456181315,-12.7));
#453 = CARTESIAN_POINT('',(0.404270757625,-12.7));
#454 = CARTESIAN_POINT('',(0.390771386308,-12.7));
#455 = CARTESIAN_POINT('',(0.376932531051,-12.7));
#456 = CARTESIAN_POINT('',(0.362726217078,-12.7));
#457 = CARTESIAN_POINT('',(0.348121176615,-12.7));
#458 = CARTESIAN_POINT('',(0.33308102269,-12.7));
#459 = CARTESIAN_POINT('',(0.317560429292,-12.7));
#460 = ( GEOMETRIC_REPRESENTATION_CONTEXT(2) 
PARAMETRIC_REPRESENTATION_CONTEXT() REPRESENTATION_CONTEXT('2D SPACE',''
  ) );
#461 = ADVANCED_FACE('',(#462),#72,.F.);
#462 = FACE_BOUND('',#463,.F.);
#463 = EDGE_LOOP('',(#464,#465,#486,#487));
#464 = ORIENTED_EDGE('',*,*,#201,.F.);
#465 = ORIENTED_EDGE('',*,*,#466,.T.);
#466 = EDGE_CURVE('',#166,#273,#467,.T.);
#467 = SURFACE_CURVE('',#468,(#472,#479),.PCURVE_S1.);
#468 = LINE('',#469,#470);
#469 = CARTESIAN_POINT('',(1.299495277635E-14,76.2,0.));
#470 = VECTOR('',#471,1.);
#471 = DIRECTION('',(0.,0.,1.));
#472 = PCURVE('',#72,#473);
#473 = DEFINITIONAL_REPRESENTATION('',(#474),#478);
#474 = LINE('',#475,#476);
#475 = CARTESIAN_POINT('',(0.,0.));
#476 = VECTOR('',#477,1.);
#477 = DIRECTION('',(0.,-1.));
#478 = ( GEOMETRIC_REPRESENTATION_CONTEXT(2) 
PARAMETRIC_REPRESENTATION_CONTEXT() REPRESENTATION_CONTEXT('2D SPACE',''
  ) );
#479 = PCURVE('',#186,#480);
#480 = DEFINITIONAL_REPRESENTATION('',(#481),#485);
#481 = LINE('',#482,#483);
#482 = CARTESIAN_POINT('',(1.570796326795,0.));
#483 = VECTOR('',#484,1.);
#484 = DIRECTION('',(0.,-1.));
#485 = ( GEOMETRIC_REPRESENTATION_CONTEXT(2) 
PARAMETRIC_REPRESENTATION_CONTEXT() REPRESENTATION_CONTEXT('2D SPACE',''
  ) );
#486 = ORIENTED_EDGE('',*,*,#272,.F.);
#487 = ORIENTED_EDGE('',*,*,#56,.F.);
#488 = ADVANCED_FACE('',(#489),#186,.F.);
#489 = FACE_BOUND('',#490,.F.);
#490 = EDGE_LOOP('',(#491,#492,#493,#494));
#491 = ORIENTED_EDGE('',*,*,#165,.F.);
#492 = ORIENTED_EDGE('',*,*,#248,.T.);
#493 = ORIENTED_EDGE('',*,*,#297,.F.);
#494 = ORIENTED_EDGE('',*,*,#466,.F.);
#495 = ( GEOMETRIC_REPRESENTATION_CONTEXT(3) 
GLOBAL_UNCERTAINTY_ASSIGNED_CONTEXT((#499)) GLOBAL_UNIT_ASSIGNED_CONTEXT
((#496,#497,#498)) REPRESENTATION_CONTEXT('Context #1',
  '3D Context with UNIT and UNCERTAINTY') );
#496 = ( LENGTH_UNIT() NAMED_UNIT(*) SI_UNIT(.MILLI.,.METRE.) );
#497 = ( NAMED_UNIT(*) PLANE_ANGLE_UNIT() SI_UNIT($,.RADIAN.) );
#498 = ( NAMED_UNIT(*) SI_UNIT($,.STERADIAN.) SOLID_ANGLE_UNIT() );
#499 = UNCERTAINTY_MEASURE_WITH_UNIT(LENGTH_MEASURE(1.E-06),#496,
  'distance_accuracy_value','confusion accuracy');
#500 = PRODUCT_RELATED_PRODUCT_CATEGORY('part',$,(#7));
ENDSEC;
END-ISO-10303-21;
