solid 
facet normal -0.0 -1.0 -0.0
outer loop
vertex 403.22500000001463 0.0 12.7
vertex 0.0 0.0 12.7
vertex 7.311484750971431e-12 0.0 0.0
endloop
endfacet
facet normal -0.0 -1.0 0.0
outer loop
vertex 403.22500000001463 0.0 0.0
vertex 403.22500000001463 0.0 12.7
vertex 7.311484750971431e-12 0.0 0.0
endloop
endfacet
facet normal -0.0 0.0 -0.9999999999999999
outer loop
vertex 50.45474684557611 75.29033512461433 0.0
vertex 7.311484750971431e-12 0.0 0.0
vertex 1.4615864074585196e-11 76.2 0.0
endloop
endfacet
facet normal -0.0 0.0 -0.9999999999999999
outer loop
vertex 100.91195085013601 76.05160608697747 0.0
vertex 7.311484750971431e-12 0.0 0.0
vertex 50.45474684557611 75.29033512461433 0.0
endloop
endfacet
facet normal -0.0 0.0 -1.0
outer loop
vertex 151.31628993915115 78.48297821717301 0.0
vertex 7.311484750971431e-12 0.0 0.0
vertex 100.91195085013601 76.05160608697747 0.0
endloop
endfacet
facet normal -0.0 0.0 -1.0
outer loop
vertex 201.61250000001462 82.581785720861 0.0
vertex 7.311484750971431e-12 0.0 0.0
vertex 151.31628993915115 78.48297821717301 0.0
endloop
endfacet
facet normal 0.0 0.0 -1.0
outer loop
vertex 403.22500000001463 0.0 0.0
vertex 272.2078263184168 95.1635321508013 0.0
vertex 289.4802290449909 100.02755869620393 0.0
endloop
endfacet
facet normal 0.0 0.0 -1.0
outer loop
vertex 403.22500000001463 0.0 0.0
vertex 254.7578600746461 90.98102951785432 0.0
vertex 272.2078263184168 95.1635321508013 0.0
endloop
endfacet
facet normal 0.0 0.0 -1.0
outer loop
vertex 403.22500000001463 0.0 0.0
vertex 237.1572104089617 87.4864935645137 0.0
vertex 254.7578600746461 90.98102951785432 0.0
endloop
endfacet
facet normal 0.0 0.0 -0.9999999999999999
outer loop
vertex 403.22500000001463 0.0 0.0
vertex 219.43298953083428 84.68530730746158 0.0
vertex 237.1572104089617 87.4864935645137 0.0
endloop
endfacet
facet normal 0.0 0.0 -0.9999999999999999
outer loop
vertex 403.22500000001463 0.0 0.0
vertex 201.61250000001462 82.581785720861 0.0
vertex 219.43298953083428 84.68530730746158 0.0
endloop
endfacet
facet normal 0.0 0.0 -1.0
outer loop
vertex 403.22500000001463 0.0 0.0
vertex 7.311484750971431e-12 0.0 0.0
vertex 201.61250000001462 82.581785720861 0.0
endloop
endfacet
facet normal -0.0 -0.0 -1.0
outer loop
vertex 306.54846167962955 105.56561656094351 0.0
vertex 403.22500000001463 0.0 0.0
vertex 289.4802290449909 100.02755869620393 0.0
endloop
endfacet
facet normal -0.0 -0.0 -1.0
outer loop
vertex 323.38623215316056 111.76917486759555 0.0
vertex 403.22500000001463 0.0 0.0
vertex 306.54846167962955 105.56561656094351 0.0
endloop
endfacet
facet normal -0.0 -0.0 -1.0
outer loop
vertex 339.9676034025342 118.62867759547532 0.0
vertex 403.22500000001463 0.0 0.0
vertex 323.38623215316056 111.76917486759555 0.0
endloop
endfacet
facet normal -0.0 -0.0 -1.0
outer loop
vertex 356.2670333245237 126.13355830082315 0.0
vertex 403.22500000001463 0.0 0.0
vertex 339.9676034025342 118.62867759547532 0.0
endloop
endfacet
facet normal -0.0 -0.0 -1.0
outer loop
vertex 372.2594141210253 134.27225639345647 0.0
vertex 403.22500000001463 0.0 0.0
vertex 356.2670333245237 126.13355830082315 0.0
endloop
endfacet
facet normal -0.0 -0.0 -1.0
outer loop
vertex 387.92011097535203 143.032234944813 0.0
vertex 403.22500000001463 0.0 0.0
vertex 372.2594141210253 134.27225639345647 0.0
endloop
endfacet
facet normal -0.0 -0.0 -1.0
outer loop
vertex 403.22500000001463 152.4 0.0
vertex 403.22500000001463 0.0 0.0
vertex 387.92011097535203 143.032234944813 0.0
endloop
endfacet
facet normal 1.0 0.0 0.0
outer loop
vertex 403.22500000001463 152.4 0.0
vertex 403.22500000001463 0.0 12.7
vertex 403.22500000001463 0.0 0.0
endloop
endfacet
facet normal 1.0 0.0 -0.0
outer loop
vertex 403.22500000001463 152.4 0.0
vertex 403.22500000001463 152.4 12.7
vertex 403.22500000001463 0.0 12.7
endloop
endfacet
facet normal 0.0 0.0 1.0
outer loop
vertex 50.45474684520828 75.29033512461501 12.7
vertex 7.307932037292598e-12 76.2 12.7
vertex 0.0 0.0 12.7
endloop
endfacet
facet normal 0.0 0.0 1.0
outer loop
vertex 100.91195084989093 76.05160608696974 12.7
vertex 50.45474684520828 75.29033512461501 12.7
vertex 0.0 0.0 12.7
endloop
endfacet
facet normal 0.0 0.0 1.0
outer loop
vertex 151.31628993902882 78.48297821716528 12.7
vertex 100.91195084989093 76.05160608696974 12.7
vertex 0.0 0.0 12.7
endloop
endfacet
facet normal 0.0 0.0 1.0
outer loop
vertex 201.61250000001462 82.581785720861 12.7
vertex 151.31628993902882 78.48297821716528 12.7
vertex 0.0 0.0 12.7
endloop
endfacet
facet normal 0.0 0.0 1.0
outer loop
vertex 403.22500000001463 0.0 12.7
vertex 289.4802290449328 100.0275586961863 12.7
vertex 272.2078263183496 95.16353215078374 12.7
endloop
endfacet
facet normal 0.0 0.0 1.0
outer loop
vertex 403.22500000001463 0.0 12.7
vertex 272.2078263183496 95.16353215078374 12.7
vertex 254.7578600745698 90.98102951783761 12.7
endloop
endfacet
facet normal 0.0 0.0 1.0
outer loop
vertex 403.22500000001463 0.0 12.7
vertex 254.7578600745698 90.98102951783761 12.7
vertex 237.1572104088762 87.48649356449846 12.7
endloop
endfacet
facet normal 0.0 0.0 1.0
outer loop
vertex 403.22500000001463 0.0 12.7
vertex 237.1572104088762 87.48649356449846 12.7
vertex 219.43298953073966 84.68530730744851 12.7
endloop
endfacet
facet normal 0.0 0.0 1.0
outer loop
vertex 403.22500000001463 0.0 12.7
vertex 219.43298953073966 84.68530730744851 12.7
vertex 201.61250000001462 82.581785720861 12.7
endloop
endfacet
facet normal 0.0 0.0 1.0
outer loop
vertex 403.22500000001463 0.0 12.7
vertex 201.61250000001462 82.581785720861 12.7
vertex 0.0 0.0 12.7
endloop
endfacet
facet normal 0.0 0.0 1.0
outer loop
vertex 306.5484616795803 105.5656165609264 12.7
vertex 289.4802290449328 100.0275586961863 12.7
vertex 403.22500000001463 0.0 12.7
endloop
endfacet
facet normal 0.0 0.0 1.0
outer loop
vertex 323.38623215312015 111.76917486757975 12.7
vertex 306.5484616795803 105.5656165609264 12.7
vertex 403.22500000001463 0.0 12.7
endloop
endfacet
facet normal 0.0 0.0 0.9999999999999999
outer loop
vertex 339.9676034025025 118.6286775954614 12.7
vertex 323.38623215312015 111.76917486757975 12.7
vertex 403.22500000001463 0.0 12.7
endloop
endfacet
facet normal 0.0 0.0 1.0
outer loop
vertex 356.26703332450023 126.13355830081184 12.7
vertex 339.9676034025025 118.6286775954614 12.7
vertex 403.22500000001463 0.0 12.7
endloop
endfacet
facet normal 0.0 0.0 1.0
outer loop
vertex 372.25941412100997 134.2722563934483 12.7
vertex 356.26703332450023 126.13355830081184 12.7
vertex 403.22500000001463 0.0 12.7
endloop
endfacet
facet normal 0.0 0.0 1.0
outer loop
vertex 387.9201109753445 143.03223494480864 12.7
vertex 372.25941412100997 134.2722563934483 12.7
vertex 403.22500000001463 0.0 12.7
endloop
endfacet
facet normal 0.0 0.0 1.0
outer loop
vertex 403.22500000001463 152.4 12.7
vertex 387.9201109753445 143.03223494480864 12.7
vertex 403.22500000001463 0.0 12.7
endloop
endfacet
facet normal -1.0 9.585799637288404e-14 -5.754277194718582e-13
outer loop
vertex 7.311484750971431e-12 0.0 0.0
vertex 7.307932037292598e-12 76.2 12.7
vertex 1.4615864074585196e-11 76.2 0.0
endloop
endfacet
facet normal -1.0 9.590461991197634e-14 -5.757074607064119e-13
outer loop
vertex 7.311484750971431e-12 0.0 0.0
vertex 0.0 0.0 12.7
vertex 7.307932037292598e-12 76.2 12.7
endloop
endfacet
facet normal -0.5220494733466209 0.8529152052686808 0.0
outer loop
vertex 387.92011097535203 143.032234944813 0.0
vertex 403.22500000001463 152.4 12.7
vertex 403.22500000001463 152.4 0.0
endloop
endfacet
facet normal -0.5220494733466122 0.8529152052686861 -1.4484149261816986e-14
outer loop
vertex 387.92011097535203 143.032234944813 0.0
vertex 387.9201109753445 143.03223494480864 12.7
vertex 403.22500000001463 152.4 12.7
endloop
endfacet
facet normal -0.4881785743284417 0.8727437651261967 -2.745095314611859e-14
outer loop
vertex 372.2594141210253 134.27225639345647 0.0
vertex 372.25941412100997 134.2722563934483 12.7
vertex 387.9201109753445 143.03223494480864 12.7
endloop
endfacet
facet normal -0.48817857432846623 0.8727437651261829 1.2360973390260536e-14
outer loop
vertex 372.2594141210253 134.27225639345647 0.0
vertex 387.9201109753445 143.03223494480864 12.7
vertex 387.92011097535203 143.032234944813 0.0
endloop
endfacet
facet normal -0.4535556803544771 0.8912279421215357 -4.4598073074949e-14
outer loop
vertex 356.2670333245237 126.13355830082315 0.0
vertex 356.26703332450023 126.13355830081184 12.7
vertex 372.25941412100997 134.2722563934483 12.7
endloop
endfacet
facet normal -0.4535556803545218 0.8912279421215128 2.6303687701498272e-14
outer loop
vertex 356.2670333245237 126.13355830082315 0.0
vertex 372.25941412100997 134.2722563934483 12.7
vertex 372.2594141210253 134.27225639345647 0.0
endloop
endfacet
facet normal -0.418234124862563 0.9083392630512268 -4.8480374392047665e-14
outer loop
vertex 339.9676034025342 118.62867759547532 0.0
vertex 339.9676034025025 118.6286775954614 12.7
vertex 356.26703332450023 126.13355830081184 12.7
endloop
endfacet
facet normal -0.41823412486261735 0.9083392630512018 3.593587131114625e-14
outer loop
vertex 339.9676034025342 118.62867759547532 0.0
vertex 356.26703332450023 126.13355830081184 12.7
vertex 356.2670333245237 126.13355830082315 0.0
endloop
endfacet
facet normal -0.382268317515377 0.9240513694724786 -6.671937225379649e-14
outer loop
vertex 323.38623215316056 111.76917486759555 0.0
vertex 323.38623215312015 111.76917486757975 12.7
vertex 339.9676034025025 118.6286775954614 12.7
endloop
endfacet
facet normal -0.382268317515459 0.9240513694724446 5.857496942189594e-14
outer loop
vertex 323.38623215316056 111.76917486759555 0.0
vertex 339.9676034025025 118.6286775954614 12.7
vertex 339.9676034025342 118.62867759547532 0.0
endloop
endfacet
facet normal -0.3457136603873426 0.9383400583059348 -7.585540455453496e-14
outer loop
vertex 306.54846167962955 105.56561656094351 0.0
vertex 306.5484616795803 105.5656165609264 12.7
vertex 323.38623215312015 111.76917486757975 12.7
endloop
endfacet
facet normal -0.3457136603874377 0.9383400583058998 6.73890979840138e-14
outer loop
vertex 306.54846167962955 105.56561656094351 0.0
vertex 323.38623215312015 111.76917486757975 12.7
vertex 323.38623215316056 111.76917486759555 0.0
endloop
endfacet
facet normal -0.3086264626227196 0.9511833191183429 -9.197630345319288e-14
outer loop
vertex 289.4802290449909 100.02755869620393 0.0
vertex 289.4802290449328 100.0275586961863 12.7
vertex 306.5484616795803 105.5656165609264 12.7
endloop
endfacet
facet normal -0.3086264626228388 0.9511833191183041 8.520095530839926e-14
outer loop
vertex 289.4802290449909 100.02755869620393 0.0
vertex 306.5484616795803 105.5656165609264 12.7
vertex 306.54846167962955 105.56561656094351 0.0
endloop
endfacet
facet normal -0.2710638536964877 0.9625613680276228 -1.0279265035436104e-13
outer loop
vertex 272.2078263184168 95.1635321508013 0.0
vertex 272.2078263183496 95.16353215078374 12.7
vertex 289.4802290449328 100.0275586961863 12.7
endloop
endfacet
facet normal -0.27106385369662295 0.962561368027585 9.5634646244425e-14
outer loop
vertex 272.2078263184168 95.1635321508013 0.0
vertex 289.4802290449328 100.0275586961863 12.7
vertex 289.4802290449909 100.02755869620393 0.0
endloop
endfacet
facet normal -0.233083695411506 0.9724566781781676 -1.2038297392378066e-13
outer loop
vertex 254.7578600746461 90.98102951785432 0.0
vertex 254.7578600745698 90.98102951783761 12.7
vertex 272.2078263183496 95.16353215078374 12.7
endloop
endfacet
facet normal -0.2330836954116658 0.9724566781781292 1.1182571069652318e-13
outer loop
vertex 254.7578600746461 90.98102951785432 0.0
vertex 272.2078263183496 95.16353215078374 12.7
vertex 272.2078263184168 95.1635321508013 0.0
endloop
endfacet
facet normal -0.19474449276769779 0.9808540067393579 -1.3439593950440452e-13
outer loop
vertex 237.1572104089617 87.4864935645137 0.0
vertex 237.1572104088762 87.48649356449846 12.7
vertex 254.7578600745698 90.98102951783761 12.7
endloop
endfacet
facet normal -0.1947444927678751 0.9808540067393227 1.2095549380702782e-13
outer loop
vertex 237.1572104089617 87.4864935645137 0.0
vertex 254.7578600745698 90.98102951783761 12.7
vertex 254.7578600746461 90.98102951785432 0.0
endloop
endfacet
facet normal -0.1561053038403515 0.987740418385778 -1.461680714429377e-13
outer loop
vertex 219.43298953083428 84.68530730746158 0.0
vertex 219.43298953073966 84.68530730744851 12.7
vertex 237.1572104088762 87.48649356449846 12.7
endloop
endfacet
facet normal -0.15610530384054733 0.987740418385747 1.3397168097041704e-13
outer loop
vertex 219.43298953083428 84.68530730746158 0.0
vertex 237.1572104088762 87.48649356449846 12.7
vertex 237.1572104089617 87.4864935645137 0.0
endloop
endfacet
facet normal -0.11722564880662653 0.993105305222898 0.0
outer loop
vertex 201.61250000001462 82.581785720861 0.0
vertex 201.61250000001462 82.581785720861 12.7
vertex 219.43298953073966 84.68530730744851 12.7
endloop
endfacet
facet normal -0.11722564880673128 0.9931053052228858 1.4901089473771825e-13
outer loop
vertex 201.61250000001462 82.581785720861 0.0
vertex 219.43298953073966 84.68530730744851 12.7
vertex 219.43298953083428 84.68530730746158 0.0
endloop
endfacet
facet normal -0.08122410180124062 0.9966958639858908 0.0
outer loop
vertex 151.31628993915115 78.48297821717301 0.0
vertex 201.61250000001462 82.581785720861 12.7
vertex 201.61250000001462 82.581785720861 0.0
endloop
endfacet
facet normal -0.08122410180119656 0.9966958639858945 -1.7564898216524254e-13
outer loop
vertex 151.31628993915115 78.48297821717301 0.0
vertex 151.31628993902882 78.48297821716528 12.7
vertex 201.61250000001462 82.581785720861 12.7
endloop
endfacet
facet normal -0.048181334996005874 0.9988386050598977 -3.217775047301488e-13
outer loop
vertex 100.91195085013601 76.05160608697747 0.0
vertex 100.91195084989093 76.05160608696974 12.7
vertex 151.31628993902882 78.48297821716528 12.7
endloop
endfacet
facet normal -0.04818133499612294 0.9988386050598921 1.4392492881444088e-13
outer loop
vertex 100.91195085013601 76.05160608697747 0.0
vertex 151.31628993902882 78.48297821716528 12.7
vertex 151.31628993915115 78.48297821717301 0.0
endloop
endfacet
facet normal -0.015085741423298738 0.9998862037280589 -4.906368854834335e-13
outer loop
vertex 50.45474684557611 75.29033512461433 0.0
vertex 50.45474684520828 75.29033512461501 12.7
vertex 100.91195084989093 76.05160608696974 12.7
endloop
endfacet
facet normal -0.015085741423502103 0.9998862037280559 3.1752800716420646e-13
outer loop
vertex 50.45474684557611 75.29033512461433 0.0
vertex 100.91195084989093 76.05160608696974 12.7
vertex 100.91195085013601 76.05160608697747 0.0
endloop
endfacet
facet normal 0.018026392402517542 0.9998375113872006 1.03728858704855e-14
outer loop
vertex 1.4615864074585196e-11 76.2 0.0
vertex 7.307932037292598e-12 76.2 12.7
vertex 50.45474684520828 75.29033512461501 12.7
endloop
endfacet
facet normal 0.01802639240240229 0.9998375113872028 4.684020133339295e-13
outer loop
vertex 1.4615864074585196e-11 76.2 0.0
vertex 50.45474684520828 75.29033512461501 12.7
vertex 50.45474684557611 75.29033512461433 0.0
endloop
endfacet

endsolid
