solid 
facet normal -0.030977171784517775 0.999520092258396 -4.0208348169484945e-15
outer loop
vertex 14.230400370651829 486.18277905434627 0.0
vertex 3.296918293926865e-12 485.74174984417 0.0
vertex 1.6484591469634324e-12 485.74174984417 12.7
endloop
endfacet
facet normal -0.0265179472635497 0.9996358299366145 0.005000597950610844
outer loop
vertex 28.5226632274333 486.49838786836824 12.7
vertex 14.230400370651829 486.18277905434627 0.0
vertex 1.6484591469634324e-12 485.74174984417 12.7
endloop
endfacet
facet normal -0.02208112552982955 0.9997561822139024 4.518682381797488e-06
outer loop
vertex 28.509724670619775 486.49815950205755 0.0
vertex 14.230400370651829 486.18277905434627 0.0
vertex 28.5226632274333 486.49838786836824 12.7
endloop
endfacet
facet normal -0.013230574955371647 0.9999124721024797 -4.500927286218697e-06
outer loop
vertex 42.82169593882593 486.6875316860298 0.0
vertex 28.509724670619775 486.49815950205755 0.0
vertex 28.5226632274333 486.49838786836824 12.7
endloop
endfacet
facet normal -0.008812519369987202 0.9999488161778272 0.004970364867463678
outer loop
vertex 57.15000000000333 486.75067974145 12.7
vertex 42.82169593882593 486.6875316860298 0.0
vertex 28.5226632274333 486.49838786836824 12.7
endloop
endfacet
facet normal -0.004407181888194282 0.9999902883267439 0.0
outer loop
vertex 57.15000000000333 486.75067974145 0.0
vertex 42.82169593882593 486.6875316860298 0.0
vertex 57.15000000000333 486.75067974145 12.7
endloop
endfacet
facet normal 0.0 0.0 -1.0
outer loop
vertex 35.84961339178329 438.15067974145 0.0
vertex 28.509724670619775 486.49815950205755 0.0
vertex 42.82169593882593 486.6875316860298 0.0
endloop
endfacet
facet normal 0.0 0.0 -1.0
outer loop
vertex 35.84961339178329 438.15067974145 0.0
vertex 42.82169593882593 486.6875316860298 0.0
vertex 57.15000000000333 486.75067974145 0.0
endloop
endfacet
facet normal 0.0 0.0 -1.0
outer loop
vertex 43.124226783573306 425.55067974145 0.0
vertex 35.84961339178329 438.15067974145 0.0
vertex 57.15000000000333 486.75067974145 0.0
endloop
endfacet
facet normal 0.0 0.0 -1.0
outer loop
vertex 21.30038660821333 438.15067974145 0.0
vertex 3.296918293926865e-12 485.74174984417 0.0
vertex 14.230400370651829 486.18277905434627 0.0
endloop
endfacet
facet normal 0.0 0.0 -1.0
outer loop
vertex 21.30038660821333 438.15067974145 0.0
vertex 14.230400370651829 486.18277905434627 0.0
vertex 28.509724670619775 486.49815950205755 0.0
endloop
endfacet
facet normal 0.0 0.0 -1.0
outer loop
vertex 21.30038660821333 438.15067974145 0.0
vertex 28.509724670619775 486.49815950205755 0.0
vertex 35.84961339178329 438.15067974145 0.0
endloop
endfacet
facet normal 0.0 0.0 -1.0
outer loop
vertex 14.025773216423318 425.55067974145 0.0
vertex 3.296918293926865e-12 485.74174984417 0.0
vertex 21.30038660821333 438.15067974145 0.0
endloop
endfacet
facet normal 0.0 0.0 -1.0
outer loop
vertex 21.30038660821333 412.95067974144996 0.0
vertex 35.84961339178329 412.95067974144996 0.0
vertex 35.84961339178329 402.95067974144996 0.0
endloop
endfacet
facet normal 0.0 0.0 -1.0
outer loop
vertex 43.124226783573306 390.35067974145005 0.0
vertex 35.84961339178329 412.95067974144996 0.0
vertex 43.124226783573306 425.55067974145 0.0
endloop
endfacet
facet normal 0.0 0.0 -0.9999999999999999
outer loop
vertex 43.124226783573306 390.35067974145005 0.0
vertex 43.124226783573306 425.55067974145 0.0
vertex 57.15000000000333 486.75067974145 0.0
endloop
endfacet
facet normal 0.0 0.0 -1.0
outer loop
vertex 43.124226783573306 390.35067974145005 0.0
vertex 35.84961339178329 402.95067974144996 0.0
vertex 35.84961339178329 412.95067974144996 0.0
endloop
endfacet
facet normal 0.0 0.0 -1.0
outer loop
vertex 21.30038660821333 402.95067974144996 0.0
vertex 14.025773216423318 425.55067974145 0.0
vertex 21.30038660821333 412.95067974144996 0.0
endloop
endfacet
facet normal 0.0 0.0 -1.0
outer loop
vertex 21.30038660821333 402.95067974144996 0.0
vertex 21.30038660821333 412.95067974144996 0.0
vertex 35.84961339178329 402.95067974144996 0.0
endloop
endfacet
facet normal 0.0 0.0 -1.0
outer loop
vertex 14.025773216423318 390.35067974145005 0.0
vertex 14.025773216423318 425.55067974145 0.0
vertex 21.30038660821333 402.95067974144996 0.0
endloop
endfacet
facet normal 0.0 0.0 -1.0
outer loop
vertex 14.025773216423318 390.35067974145005 0.0
vertex 3.296918293926865e-12 485.74174984417 0.0
vertex 14.025773216423318 425.55067974145 0.0
endloop
endfacet
facet normal 0.0 0.0 -1.0
outer loop
vertex 21.30038660821333 377.75067974145 0.0
vertex 35.84961339178329 377.75067974145 0.0
vertex 35.84961339178329 367.75067974145 0.0
endloop
endfacet
facet normal 0.0 0.0 -1.0
outer loop
vertex 43.124226783573306 355.15067974145 0.0
vertex 35.84961339178329 377.75067974145 0.0
vertex 43.124226783573306 390.35067974145005 0.0
endloop
endfacet
facet normal 0.0 0.0 -1.0
outer loop
vertex 43.124226783573306 355.15067974145 0.0
vertex 35.84961339178329 367.75067974145 0.0
vertex 35.84961339178329 377.75067974145 0.0
endloop
endfacet
facet normal 0.0 0.0 -1.0
outer loop
vertex 21.30038660821333 367.75067974145 0.0
vertex 21.30038660821333 377.75067974145 0.0
vertex 35.84961339178329 367.75067974145 0.0
endloop
endfacet
facet normal 0.0 0.0 -1.0
outer loop
vertex 21.30038660821333 367.75067974145 0.0
vertex 14.025773216423318 390.35067974145005 0.0
vertex 21.30038660821333 377.75067974145 0.0
endloop
endfacet
facet normal 0.0 0.0 -1.0
outer loop
vertex 14.025773216423318 355.15067974145 0.0
vertex 14.025773216423318 390.35067974145005 0.0
vertex 21.30038660821333 367.75067974145 0.0
endloop
endfacet
facet normal 0.0 0.0 -1.0
outer loop
vertex 21.30038660821333 342.55067974145 0.0
vertex 35.84961339178329 342.55067974145 0.0
vertex 35.84961339178329 332.55067974145 0.0
endloop
endfacet
facet normal 0.0 0.0 -1.0
outer loop
vertex 43.124226783573306 319.95067974145 0.0
vertex 35.84961339178329 332.55067974145 0.0
vertex 35.84961339178329 342.55067974145 0.0
endloop
endfacet
facet normal 0.0 0.0 -1.0
outer loop
vertex 43.124226783573306 319.95067974145 0.0
vertex 35.84961339178329 342.55067974145 0.0
vertex 43.124226783573306 355.15067974145 0.0
endloop
endfacet
facet normal 0.0 0.0 -1.0
outer loop
vertex 21.30038660821333 332.55067974145 0.0
vertex 21.30038660821333 342.55067974145 0.0
vertex 35.84961339178329 332.55067974145 0.0
endloop
endfacet
facet normal 0.0 0.0 -1.0
outer loop
vertex 21.30038660821333 332.55067974145 0.0
vertex 14.025773216423318 355.15067974145 0.0
vertex 21.30038660821333 342.55067974145 0.0
endloop
endfacet
facet normal 0.0 0.0 -1.0
outer loop
vertex 14.025773216423318 319.95067974145 0.0
vertex 14.025773216423318 355.15067974145 0.0
vertex 21.30038660821333 332.55067974145 0.0
endloop
endfacet
facet normal 0.0 0.0 -1.0
outer loop
vertex 43.124226783573306 179.15067974145 0.0
vertex 35.84961339178329 191.75067974145003 0.0
vertex 35.84961339178329 307.35067974145 0.0
endloop
endfacet
facet normal 0.0 0.0 -1.0
outer loop
vertex 43.124226783573306 179.15067974145 0.0
vertex 35.84961339178329 307.35067974145 0.0
vertex 43.124226783573306 319.95067974145 0.0
endloop
endfacet
facet normal 0.0 0.0 -1.0
outer loop
vertex 21.30038660821333 191.75067974145003 0.0
vertex 35.84961339178329 307.35067974145 0.0
vertex 35.84961339178329 191.75067974145003 0.0
endloop
endfacet
facet normal 0.0 0.0 -1.0
outer loop
vertex 21.30038660821333 191.75067974145003 0.0
vertex 21.30038660821333 307.35067974145 0.0
vertex 35.84961339178329 307.35067974145 0.0
endloop
endfacet
facet normal 0.0 0.0 -1.0
outer loop
vertex 21.30038660821333 191.75067974145003 0.0
vertex 14.025773216423318 319.95067974145 0.0
vertex 21.30038660821333 307.35067974145 0.0
endloop
endfacet
facet normal 0.0 0.0 -1.0
outer loop
vertex 14.025773216423318 179.15067974145 0.0
vertex 14.025773216423318 319.95067974145 0.0
vertex 21.30038660821333 191.75067974145003 0.0
endloop
endfacet
facet normal 0.0 0.0 -1.0
outer loop
vertex 21.30038660821333 166.55067974144998 0.0
vertex 35.84961339178329 166.55067974144998 0.0
vertex 35.84961339178329 156.55067974144998 0.0
endloop
endfacet
facet normal 0.0 0.0 -1.0
outer loop
vertex 43.124226783573306 143.95067974145002 0.0
vertex 35.84961339178329 156.55067974144998 0.0
vertex 35.84961339178329 166.55067974144998 0.0
endloop
endfacet
facet normal 0.0 0.0 -1.0
outer loop
vertex 43.124226783573306 143.95067974145002 0.0
vertex 35.84961339178329 166.55067974144998 0.0
vertex 43.124226783573306 179.15067974145 0.0
endloop
endfacet
facet normal 0.0 0.0 -1.0
outer loop
vertex 21.30038660821333 156.55067974144998 0.0
vertex 21.30038660821333 166.55067974144998 0.0
vertex 35.84961339178329 156.55067974144998 0.0
endloop
endfacet
facet normal 0.0 0.0 -1.0
outer loop
vertex 21.30038660821333 156.55067974144998 0.0
vertex 14.025773216423318 179.15067974145 0.0
vertex 21.30038660821333 166.55067974144998 0.0
endloop
endfacet
facet normal 0.0 0.0 -1.0
outer loop
vertex 14.025773216423318 143.95067974145002 0.0
vertex 14.025773216423318 179.15067974145 0.0
vertex 21.30038660821333 156.55067974144998 0.0
endloop
endfacet
facet normal 0.0 0.0 -1.0
outer loop
vertex 21.30038660821333 131.35067974145 0.0
vertex 35.84961339178329 131.35067974145 0.0
vertex 35.84961339178329 121.35067974145 0.0
endloop
endfacet
facet normal 0.0 0.0 -1.0
outer loop
vertex 43.124226783573306 108.75067974145 0.0
vertex 35.84961339178329 131.35067974145 0.0
vertex 43.124226783573306 143.95067974145002 0.0
endloop
endfacet
facet normal 0.0 0.0 -1.0
outer loop
vertex 43.124226783573306 108.75067974145 0.0
vertex 35.84961339178329 121.35067974145 0.0
vertex 35.84961339178329 131.35067974145 0.0
endloop
endfacet
facet normal 0.0 0.0 -1.0
outer loop
vertex 21.30038660821333 121.35067974145 0.0
vertex 21.30038660821333 131.35067974145 0.0
vertex 35.84961339178329 121.35067974145 0.0
endloop
endfacet
facet normal 0.0 0.0 -1.0
outer loop
vertex 21.30038660821333 121.35067974145 0.0
vertex 14.025773216423318 143.95067974145002 0.0
vertex 21.30038660821333 131.35067974145 0.0
endloop
endfacet
facet normal 0.0 0.0 -1.0
outer loop
vertex 14.025773216423318 108.75067974145 0.0
vertex 14.025773216423318 143.95067974145002 0.0
vertex 21.30038660821333 121.35067974145 0.0
endloop
endfacet
facet normal 0.0 0.0 -1.0
outer loop
vertex 21.30038660821333 96.15067974145 0.0
vertex 35.84961339178329 96.15067974145 0.0
vertex 35.84961339178329 86.15067974145 0.0
endloop
endfacet
facet normal 0.0 0.0 -1.0
outer loop
vertex 43.124226783573306 73.55067974145001 0.0
vertex 35.84961339178329 96.15067974145 0.0
vertex 43.124226783573306 108.75067974145 0.0
endloop
endfacet
facet normal 0.0 0.0 -1.0
outer loop
vertex 43.124226783573306 73.55067974145001 0.0
vertex 35.84961339178329 86.15067974145 0.0
vertex 35.84961339178329 96.15067974145 0.0
endloop
endfacet
facet normal 0.0 0.0 -1.0
outer loop
vertex 21.30038660821333 86.15067974145 0.0
vertex 14.025773216423318 108.75067974145 0.0
vertex 21.30038660821333 96.15067974145 0.0
endloop
endfacet
facet normal 0.0 0.0 -1.0
outer loop
vertex 21.30038660821333 86.15067974145 0.0
vertex 21.30038660821333 96.15067974145 0.0
vertex 35.84961339178329 86.15067974145 0.0
endloop
endfacet
facet normal 0.0 0.0 -1.0
outer loop
vertex 14.025773216423318 73.55067974145001 0.0
vertex 14.025773216423318 108.75067974145 0.0
vertex 21.30038660821333 86.15067974145 0.0
endloop
endfacet
facet normal 0.0 0.0 -1.0
outer loop
vertex 57.15000000000333 29.55067974145001 0.0
vertex 43.124226783573306 108.75067974145 0.0
vertex 43.124226783573306 143.95067974145002 0.0
endloop
endfacet
facet normal 0.0 0.0 -1.0
outer loop
vertex 57.15000000000333 29.55067974145001 0.0
vertex 43.124226783573306 73.55067974145001 0.0
vertex 43.124226783573306 108.75067974145 0.0
endloop
endfacet
facet normal 0.0 0.0 -1.0
outer loop
vertex 57.15000000000333 29.55067974145001 0.0
vertex 35.84961339178329 60.95067974145002 0.0
vertex 43.124226783573306 73.55067974145001 0.0
endloop
endfacet
facet normal 0.0 0.0 -1.0
outer loop
vertex 53.988502983719 27.134108824691005 0.0
vertex 35.84961339178329 60.95067974145002 0.0
vertex 57.15000000000333 29.55067974145001 0.0
endloop
endfacet
facet normal 0.0 0.0 -1.0
outer loop
vertex 50.61449257428387 24.737198985006522 0.0
vertex 35.84961339178329 60.95067974145002 0.0
vertex 53.988502983719 27.134108824691005 0.0
endloop
endfacet
facet normal 0.0 0.0 -0.9999999999999999
outer loop
vertex 47.029761043161955 22.361223458869823 0.0
vertex 35.84961339178329 60.95067974145002 0.0
vertex 50.61449257428387 24.737198985006522 0.0
endloop
endfacet
facet normal 0.0 0.0 -1.0
outer loop
vertex 43.23621259669949 20.007444362463303 0.0
vertex 35.84961339178329 60.95067974145002 0.0
vertex 47.029761043161955 22.361223458869823 0.0
endloop
endfacet
facet normal 0.0 0.0 -0.9999999999999999
outer loop
vertex 39.23586236461057 17.677112021244753 0.0
vertex 21.30038660821333 60.95067974145002 0.0
vertex 35.84961339178329 60.95067974145002 0.0
endloop
endfacet
facet normal 0.0 0.0 -0.9999999999999999
outer loop
vertex 39.23586236461057 17.677112021244753 0.0
vertex 35.84961339178329 60.95067974145002 0.0
vertex 43.23621259669949 20.007444362463303 0.0
endloop
endfacet
facet normal 0.0 0.0 -1.0
outer loop
vertex 35.03083532954247 15.37146430577549 0.0
vertex 21.30038660821333 60.95067974145002 0.0
vertex 39.23586236461057 17.677112021244753 0.0
endloop
endfacet
facet normal 0.0 0.0 -1.0
outer loop
vertex 30.623365198286365 13.091725974164596 0.0
vertex 21.30038660821333 60.95067974145002 0.0
vertex 35.03083532954247 15.37146430577549 0.0
endloop
endfacet
facet normal 0.0 0.0 -1.0
outer loop
vertex 24.43588880339297 10.094469366508555 0.0
vertex 21.30038660821333 60.95067974145002 0.0
vertex 30.623365198286365 13.091725974164596 0.0
endloop
endfacet
facet normal 0.0 0.0 -1.0
outer loop
vertex 17.057064138430178 6.783706793583079 0.0
vertex 21.30038660821333 60.95067974145002 0.0
vertex 24.43588880339297 10.094469366508555 0.0
endloop
endfacet
facet normal 0.0 -0.0 -1.0
outer loop
vertex 9.244248740228329 3.5415006119386803 0.0
vertex 21.30038660821333 60.95067974145002 0.0
vertex 17.057064138430178 6.783706793583079 0.0
endloop
endfacet
facet normal 0.0 -0.0 -1.0
outer loop
vertex 4.687725437464849 1.7590823136505307 0.0
vertex 21.30038660821333 60.95067974145002 0.0
vertex 9.244248740228329 3.5415006119386803 0.0
endloop
endfacet
facet normal 0.0 0.0 -1.0
outer loop
vertex 1.6484591469634324e-12 0.0 0.0
vertex 14.025773216423318 73.55067974145001 0.0
vertex 21.30038660821333 60.95067974145002 0.0
endloop
endfacet
facet normal 0.0 0.0 -1.0
outer loop
vertex 1.6484591469634324e-12 0.0 0.0
vertex 14.025773216423318 108.75067974145 0.0
vertex 14.025773216423318 73.55067974145001 0.0
endloop
endfacet
facet normal 0.0 -0.0 -1.0
outer loop
vertex 1.6484591469634324e-12 0.0 0.0
vertex 21.30038660821333 60.95067974145002 0.0
vertex 4.687725437464849 1.7590823136505307 0.0
endloop
endfacet
facet normal 0.0 -0.0 -1.0
outer loop
vertex 3.296918293926865e-12 485.74174984417 0.0
vertex 14.025773216423318 390.35067974145005 0.0
vertex 1.6484591469634324e-12 0.0 0.0
endloop
endfacet
facet normal 0.0 -0.0 -1.0
outer loop
vertex 14.025773216423318 390.35067974145005 0.0
vertex 14.025773216423318 355.15067974145 0.0
vertex 1.6484591469634324e-12 0.0 0.0
endloop
endfacet
facet normal 0.0 -0.0 -1.0
outer loop
vertex 14.025773216423318 355.15067974145 0.0
vertex 14.025773216423318 319.95067974145 0.0
vertex 1.6484591469634324e-12 0.0 0.0
endloop
endfacet
facet normal 0.0 -0.0 -0.9999999999999999
outer loop
vertex 14.025773216423318 319.95067974145 0.0
vertex 14.025773216423318 179.15067974145 0.0
vertex 1.6484591469634324e-12 0.0 0.0
endloop
endfacet
facet normal 0.0 -0.0 -1.0
outer loop
vertex 14.025773216423318 179.15067974145 0.0
vertex 14.025773216423318 143.95067974145002 0.0
vertex 1.6484591469634324e-12 0.0 0.0
endloop
endfacet
facet normal 0.0 -0.0 -0.9999999999999999
outer loop
vertex 14.025773216423318 143.95067974145002 0.0
vertex 14.025773216423318 108.75067974145 0.0
vertex 1.6484591469634324e-12 0.0 0.0
endloop
endfacet
facet normal 0.0 0.0 -1.0
outer loop
vertex 57.15000000000333 29.55067974145001 0.0
vertex 43.124226783573306 143.95067974145002 0.0
vertex 57.15000000000333 486.75067974145 0.0
endloop
endfacet
facet normal 0.0 0.0 -1.0
outer loop
vertex 43.124226783573306 143.95067974145002 0.0
vertex 43.124226783573306 179.15067974145 0.0
vertex 57.15000000000333 486.75067974145 0.0
endloop
endfacet
facet normal 0.0 0.0 -1.0
outer loop
vertex 43.124226783573306 179.15067974145 0.0
vertex 43.124226783573306 319.95067974145 0.0
vertex 57.15000000000333 486.75067974145 0.0
endloop
endfacet
facet normal 0.0 0.0 -1.0
outer loop
vertex 43.124226783573306 319.95067974145 0.0
vertex 43.124226783573306 355.15067974145 0.0
vertex 57.15000000000333 486.75067974145 0.0
endloop
endfacet
facet normal 0.0 0.0 -0.9999999999999999
outer loop
vertex 43.124226783573306 355.15067974145 0.0
vertex 43.124226783573306 390.35067974145005 0.0
vertex 57.15000000000333 486.75067974145 0.0
endloop
endfacet
facet normal 1.0 0.0 0.0
outer loop
vertex 57.15000000000333 486.75067974145 0.0
vertex 57.15000000000333 29.55067974145001 12.7
vertex 57.15000000000333 29.55067974145001 0.0
endloop
endfacet
facet normal 1.0 0.0 -0.0
outer loop
vertex 57.15000000000333 486.75067974145 0.0
vertex 57.15000000000333 486.75067974145 12.7
vertex 57.15000000000333 29.55067974145001 12.7
endloop
endfacet
facet normal -0.0 0.0 1.0
outer loop
vertex 21.30038660821333 60.95067974145002 12.7
vertex 0.0 0.0 12.7
vertex 10.048163146706713 3.86387978631868 12.7
endloop
endfacet
facet normal -0.0 0.0 1.0
outer loop
vertex 21.30038660821333 60.95067974145002 12.7
vertex 10.048163146706713 3.86387978631868 12.7
vertex 19.96350890722494 8.05655122108096 12.7
endloop
endfacet
facet normal -0.0 0.0 1.0
outer loop
vertex 21.30038660821333 60.95067974145002 12.7
vertex 19.96350890722494 8.05655122108096 12.7
vertex 28.501451458468082 12.038785852612342 12.7
endloop
endfacet
facet normal -0.0 0.0 0.9999999999999999
outer loop
vertex 21.30038660821333 60.95067974145002 12.7
vertex 28.501451458468082 12.038785852612342 12.7
vertex 35.83624230205849 15.80263046188272 12.7
endloop
endfacet
facet normal -0.0 0.0 1.0
outer loop
vertex 21.30038660821333 60.95067974145002 12.7
vertex 35.83624230205849 15.80263046188272 12.7
vertex 41.65924078850289 19.071530600166696 12.7
endloop
endfacet
facet normal -0.0 0.0 1.0
outer loop
vertex 14.025773216423318 73.55067974145001 12.7
vertex 0.0 0.0 12.7
vertex 21.30038660821333 60.95067974145002 12.7
endloop
endfacet
facet normal -0.0 0.0 1.0
outer loop
vertex 35.84961339178329 60.95067974145002 12.7
vertex 41.65924078850289 19.071530600166696 12.7
vertex 46.932989878939345 22.29924311505284 12.7
endloop
endfacet
facet normal -0.0 0.0 1.0
outer loop
vertex 35.84961339178329 60.95067974145002 12.7
vertex 46.932989878939345 22.29924311505284 12.7
vertex 51.10260599323375 25.073629853169532 12.7
endloop
endfacet
facet normal -0.0 0.0 1.0
outer loop
vertex 35.84961339178329 60.95067974145002 12.7
vertex 51.10260599323375 25.073629853169532 12.7
vertex 54.16287509835299 27.262787695657654 12.7
endloop
endfacet
facet normal -0.0 0.0 1.0
outer loop
vertex 35.84961339178329 60.95067974145002 12.7
vertex 54.16287509835299 27.262787695657654 12.7
vertex 57.15000000000333 29.55067974145001 12.7
endloop
endfacet
facet normal 0.0 0.0 1.0
outer loop
vertex 35.84961339178329 60.95067974145002 12.7
vertex 21.30038660821333 60.95067974145002 12.7
vertex 41.65924078850289 19.071530600166696 12.7
endloop
endfacet
facet normal 0.0 0.0 1.0
outer loop
vertex 43.124226783573306 73.55067974145001 12.7
vertex 35.84961339178329 60.95067974145002 12.7
vertex 57.15000000000333 29.55067974145001 12.7
endloop
endfacet
facet normal -0.0 0.0 1.0
outer loop
vertex 21.30038660821333 96.15067974145 12.7
vertex 14.025773216423318 73.55067974145001 12.7
vertex 21.30038660821333 86.15067974145 12.7
endloop
endfacet
facet normal 0.0 0.0 1.0
outer loop
vertex 35.84961339178329 86.15067974145 12.7
vertex 21.30038660821333 96.15067974145 12.7
vertex 21.30038660821333 86.15067974145 12.7
endloop
endfacet
facet normal -0.0 0.0 1.0
outer loop
vertex 14.025773216423318 108.75067974145 12.7
vertex 14.025773216423318 73.55067974145001 12.7
vertex 21.30038660821333 96.15067974145 12.7
endloop
endfacet
facet normal -0.0 0.0 1.0
outer loop
vertex 14.025773216423318 108.75067974145 12.7
vertex 0.0 0.0 12.7
vertex 14.025773216423318 73.55067974145001 12.7
endloop
endfacet
facet normal 0.0 0.0 1.0
outer loop
vertex 35.84961339178329 96.15067974145 12.7
vertex 35.84961339178329 86.15067974145 12.7
vertex 43.124226783573306 73.55067974145001 12.7
endloop
endfacet
facet normal 0.0 0.0 1.0
outer loop
vertex 35.84961339178329 96.15067974145 12.7
vertex 21.30038660821333 96.15067974145 12.7
vertex 35.84961339178329 86.15067974145 12.7
endloop
endfacet
facet normal 0.0 0.0 1.0
outer loop
vertex 43.124226783573306 108.75067974145 12.7
vertex 43.124226783573306 73.55067974145001 12.7
vertex 57.15000000000333 29.55067974145001 12.7
endloop
endfacet
facet normal 0.0 0.0 1.0
outer loop
vertex 43.124226783573306 108.75067974145 12.7
vertex 35.84961339178329 96.15067974145 12.7
vertex 43.124226783573306 73.55067974145001 12.7
endloop
endfacet
facet normal -0.0 0.0 1.0
outer loop
vertex 21.30038660821333 131.35067974145 12.7
vertex 14.025773216423318 108.75067974145 12.7
vertex 21.30038660821333 121.35067974145 12.7
endloop
endfacet
facet normal 0.0 0.0 1.0
outer loop
vertex 35.84961339178329 121.35067974145 12.7
vertex 21.30038660821333 131.35067974145 12.7
vertex 21.30038660821333 121.35067974145 12.7
endloop
endfacet
facet normal -0.0 0.0 1.0
outer loop
vertex 14.025773216423318 143.95067974145002 12.7
vertex 14.025773216423318 108.75067974145 12.7
vertex 21.30038660821333 131.35067974145 12.7
endloop
endfacet
facet normal 0.0 0.0 1.0
outer loop
vertex 35.84961339178329 131.35067974145 12.7
vertex 21.30038660821333 131.35067974145 12.7
vertex 35.84961339178329 121.35067974145 12.7
endloop
endfacet
facet normal 0.0 0.0 1.0
outer loop
vertex 35.84961339178329 131.35067974145 12.7
vertex 35.84961339178329 121.35067974145 12.7
vertex 43.124226783573306 108.75067974145 12.7
endloop
endfacet
facet normal 0.0 0.0 1.0
outer loop
vertex 43.124226783573306 143.95067974145002 12.7
vertex 35.84961339178329 131.35067974145 12.7
vertex 43.124226783573306 108.75067974145 12.7
endloop
endfacet
facet normal -0.0 0.0 1.0
outer loop
vertex 21.30038660821333 166.55067974144998 12.7
vertex 14.025773216423318 143.95067974145002 12.7
vertex 21.30038660821333 156.55067974144998 12.7
endloop
endfacet
facet normal 0.0 0.0 1.0
outer loop
vertex 35.84961339178329 156.55067974144998 12.7
vertex 21.30038660821333 166.55067974144998 12.7
vertex 21.30038660821333 156.55067974144998 12.7
endloop
endfacet
facet normal -0.0 0.0 1.0
outer loop
vertex 14.025773216423318 179.15067974145 12.7
vertex 14.025773216423318 143.95067974145002 12.7
vertex 21.30038660821333 166.55067974144998 12.7
endloop
endfacet
facet normal 0.0 0.0 1.0
outer loop
vertex 35.84961339178329 166.55067974144998 12.7
vertex 21.30038660821333 166.55067974144998 12.7
vertex 35.84961339178329 156.55067974144998 12.7
endloop
endfacet
facet normal 0.0 0.0 1.0
outer loop
vertex 35.84961339178329 166.55067974144998 12.7
vertex 35.84961339178329 156.55067974144998 12.7
vertex 43.124226783573306 143.95067974145002 12.7
endloop
endfacet
facet normal 0.0 0.0 1.0
outer loop
vertex 43.124226783573306 179.15067974145 12.7
vertex 35.84961339178329 166.55067974144998 12.7
vertex 43.124226783573306 143.95067974145002 12.7
endloop
endfacet
facet normal -0.0 0.0 1.0
outer loop
vertex 21.30038660821333 307.35067974145 12.7
vertex 14.025773216423318 179.15067974145 12.7
vertex 21.30038660821333 191.75067974145003 12.7
endloop
endfacet
facet normal -0.0 0.0 1.0
outer loop
vertex 14.025773216423318 319.95067974145 12.7
vertex 14.025773216423318 179.15067974145 12.7
vertex 21.30038660821333 307.35067974145 12.7
endloop
endfacet
facet normal 0.0 0.0 1.0
outer loop
vertex 35.84961339178329 307.35067974145 12.7
vertex 21.30038660821333 307.35067974145 12.7
vertex 21.30038660821333 191.75067974145003 12.7
endloop
endfacet
facet normal -0.0 0.0 1.0
outer loop
vertex 35.84961339178329 307.35067974145 12.7
vertex 21.30038660821333 191.75067974145003 12.7
vertex 35.84961339178329 191.75067974145003 12.7
endloop
endfacet
facet normal 0.0 0.0 1.0
outer loop
vertex 35.84961339178329 307.35067974145 12.7
vertex 35.84961339178329 191.75067974145003 12.7
vertex 43.124226783573306 179.15067974145 12.7
endloop
endfacet
facet normal 0.0 0.0 1.0
outer loop
vertex 43.124226783573306 319.95067974145 12.7
vertex 35.84961339178329 307.35067974145 12.7
vertex 43.124226783573306 179.15067974145 12.7
endloop
endfacet
facet normal -0.0 0.0 1.0
outer loop
vertex 21.30038660821333 342.55067974145 12.7
vertex 14.025773216423318 319.95067974145 12.7
vertex 21.30038660821333 332.55067974145 12.7
endloop
endfacet
facet normal 0.0 0.0 1.0
outer loop
vertex 35.84961339178329 332.55067974145 12.7
vertex 21.30038660821333 342.55067974145 12.7
vertex 21.30038660821333 332.55067974145 12.7
endloop
endfacet
facet normal -0.0 0.0 1.0
outer loop
vertex 14.025773216423318 355.15067974145 12.7
vertex 14.025773216423318 319.95067974145 12.7
vertex 21.30038660821333 342.55067974145 12.7
endloop
endfacet
facet normal 0.0 0.0 1.0
outer loop
vertex 35.84961339178329 342.55067974145 12.7
vertex 21.30038660821333 342.55067974145 12.7
vertex 35.84961339178329 332.55067974145 12.7
endloop
endfacet
facet normal 0.0 0.0 1.0
outer loop
vertex 35.84961339178329 342.55067974145 12.7
vertex 35.84961339178329 332.55067974145 12.7
vertex 43.124226783573306 319.95067974145 12.7
endloop
endfacet
facet normal 0.0 0.0 1.0
outer loop
vertex 43.124226783573306 355.15067974145 12.7
vertex 35.84961339178329 342.55067974145 12.7
vertex 43.124226783573306 319.95067974145 12.7
endloop
endfacet
facet normal -0.0 0.0 1.0
outer loop
vertex 21.30038660821333 377.75067974145 12.7
vertex 14.025773216423318 355.15067974145 12.7
vertex 21.30038660821333 367.75067974145 12.7
endloop
endfacet
facet normal 0.0 0.0 1.0
outer loop
vertex 35.84961339178329 367.75067974145 12.7
vertex 21.30038660821333 377.75067974145 12.7
vertex 21.30038660821333 367.75067974145 12.7
endloop
endfacet
facet normal -0.0 0.0 1.0
outer loop
vertex 14.025773216423318 390.35067974145005 12.7
vertex 14.025773216423318 355.15067974145 12.7
vertex 21.30038660821333 377.75067974145 12.7
endloop
endfacet
facet normal 0.0 0.0 1.0
outer loop
vertex 35.84961339178329 377.75067974145 12.7
vertex 35.84961339178329 367.75067974145 12.7
vertex 43.124226783573306 355.15067974145 12.7
endloop
endfacet
facet normal 0.0 0.0 1.0
outer loop
vertex 35.84961339178329 377.75067974145 12.7
vertex 21.30038660821333 377.75067974145 12.7
vertex 35.84961339178329 367.75067974145 12.7
endloop
endfacet
facet normal 0.0 0.0 1.0
outer loop
vertex 43.124226783573306 390.35067974145005 12.7
vertex 35.84961339178329 377.75067974145 12.7
vertex 43.124226783573306 355.15067974145 12.7
endloop
endfacet
facet normal -0.0 0.0 1.0
outer loop
vertex 21.30038660821333 412.95067974144996 12.7
vertex 14.025773216423318 390.35067974145005 12.7
vertex 21.30038660821333 402.95067974144996 12.7
endloop
endfacet
facet normal 0.0 0.0 1.0
outer loop
vertex 35.84961339178329 402.95067974144996 12.7
vertex 21.30038660821333 412.95067974144996 12.7
vertex 21.30038660821333 402.95067974144996 12.7
endloop
endfacet
facet normal -0.0 0.0 1.0
outer loop
vertex 14.025773216423318 425.55067974145 12.7
vertex 14.025773216423318 390.35067974145005 12.7
vertex 21.30038660821333 412.95067974144996 12.7
endloop
endfacet
facet normal 0.0 0.0 1.0
outer loop
vertex 35.84961339178329 412.95067974144996 12.7
vertex 35.84961339178329 402.95067974144996 12.7
vertex 43.124226783573306 390.35067974145005 12.7
endloop
endfacet
facet normal 0.0 0.0 1.0
outer loop
vertex 35.84961339178329 412.95067974144996 12.7
vertex 21.30038660821333 412.95067974144996 12.7
vertex 35.84961339178329 402.95067974144996 12.7
endloop
endfacet
facet normal 0.0 0.0 1.0
outer loop
vertex 43.124226783573306 425.55067974145 12.7
vertex 35.84961339178329 412.95067974144996 12.7
vertex 43.124226783573306 390.35067974145005 12.7
endloop
endfacet
facet normal -0.0 0.0 1.0
outer loop
vertex 1.6484591469634324e-12 485.74174984417 12.7
vertex 14.025773216423318 425.55067974145 12.7
vertex 21.30038660821333 438.15067974145 12.7
endloop
endfacet
facet normal -0.0 0.0 1.0
outer loop
vertex 1.6484591469634324e-12 485.74174984417 12.7
vertex 14.025773216423318 390.35067974145005 12.7
vertex 14.025773216423318 425.55067974145 12.7
endloop
endfacet
facet normal -0.0 0.0 1.0
outer loop
vertex 28.5226632274333 486.49838786836824 12.7
vertex 21.30038660821333 438.15067974145 12.7
vertex 35.84961339178329 438.15067974145 12.7
endloop
endfacet
facet normal 0.0 0.0 1.0
outer loop
vertex 28.5226632274333 486.49838786836824 12.7
vertex 1.6484591469634324e-12 485.74174984417 12.7
vertex 21.30038660821333 438.15067974145 12.7
endloop
endfacet
facet normal 0.0 0.0 1.0
outer loop
vertex 57.15000000000333 486.75067974145 12.7
vertex 35.84961339178329 438.15067974145 12.7
vertex 43.124226783573306 425.55067974145 12.7
endloop
endfacet
facet normal 0.0 0.0 0.9999999999999999
outer loop
vertex 57.15000000000333 486.75067974145 12.7
vertex 43.124226783573306 425.55067974145 12.7
vertex 43.124226783573306 390.35067974145005 12.7
endloop
endfacet
facet normal 0.0 0.0 1.0
outer loop
vertex 57.15000000000333 486.75067974145 12.7
vertex 28.5226632274333 486.49838786836824 12.7
vertex 35.84961339178329 438.15067974145 12.7
endloop
endfacet
facet normal -0.0 0.0 0.9999999999999999
outer loop
vertex 1.6484591469634324e-12 485.74174984417 12.7
vertex 0.0 0.0 12.7
vertex 14.025773216423318 108.75067974145 12.7
endloop
endfacet
facet normal -0.0 0.0 0.9999999999999999
outer loop
vertex 1.6484591469634324e-12 485.74174984417 12.7
vertex 14.025773216423318 108.75067974145 12.7
vertex 14.025773216423318 143.95067974145002 12.7
endloop
endfacet
facet normal -0.0 0.0 1.0
outer loop
vertex 1.6484591469634324e-12 485.74174984417 12.7
vertex 14.025773216423318 143.95067974145002 12.7
vertex 14.025773216423318 179.15067974145 12.7
endloop
endfacet
facet normal -0.0 0.0 0.9999999999999999
outer loop
vertex 1.6484591469634324e-12 485.74174984417 12.7
vertex 14.025773216423318 179.15067974145 12.7
vertex 14.025773216423318 319.95067974145 12.7
endloop
endfacet
facet normal -0.0 0.0 1.0
outer loop
vertex 1.6484591469634324e-12 485.74174984417 12.7
vertex 14.025773216423318 319.95067974145 12.7
vertex 14.025773216423318 355.15067974145 12.7
endloop
endfacet
facet normal -0.0 0.0 1.0
outer loop
vertex 1.6484591469634324e-12 485.74174984417 12.7
vertex 14.025773216423318 355.15067974145 12.7
vertex 14.025773216423318 390.35067974145005 12.7
endloop
endfacet
facet normal 0.0 -0.0 0.9999999999999999
outer loop
vertex 57.15000000000333 29.55067974145001 12.7
vertex 57.15000000000333 486.75067974145 12.7
vertex 43.124226783573306 108.75067974145 12.7
endloop
endfacet
facet normal 0.0 -0.0 1.0
outer loop
vertex 43.124226783573306 108.75067974145 12.7
vertex 57.15000000000333 486.75067974145 12.7
vertex 43.124226783573306 143.95067974145002 12.7
endloop
endfacet
facet normal 0.0 -0.0 1.0
outer loop
vertex 43.124226783573306 143.95067974145002 12.7
vertex 57.15000000000333 486.75067974145 12.7
vertex 43.124226783573306 179.15067974145 12.7
endloop
endfacet
facet normal 0.0 -0.0 1.0
outer loop
vertex 43.124226783573306 179.15067974145 12.7
vertex 57.15000000000333 486.75067974145 12.7
vertex 43.124226783573306 319.95067974145 12.7
endloop
endfacet
facet normal 0.0 -0.0 1.0
outer loop
vertex 43.124226783573306 319.95067974145 12.7
vertex 57.15000000000333 486.75067974145 12.7
vertex 43.124226783573306 355.15067974145 12.7
endloop
endfacet
facet normal 0.0 -0.0 0.9999999999999999
outer loop
vertex 43.124226783573306 355.15067974145 12.7
vertex 57.15000000000333 486.75067974145 12.7
vertex 43.124226783573306 390.35067974145005 12.7
endloop
endfacet
facet normal -0.9999999999999999 3.393694586665181e-15 -1.2979993283176633e-13
outer loop
vertex 0.0 0.0 12.7
vertex 1.6484591469634324e-12 485.74174984417 12.7
vertex 3.296918293926865e-12 485.74174984417 0.0
endloop
endfacet
facet normal -0.9999999999999999 3.393694586665181e-15 -1.2979993283176633e-13
outer loop
vertex 1.6484591469634324e-12 0.0 0.0
vertex 0.0 0.0 12.7
vertex 3.296918293926865e-12 485.74174984417 0.0
endloop
endfacet
facet normal 0.6080570258956579 -0.7938933513129627 0.0
outer loop
vertex 57.15000000000333 29.55067974145001 0.0
vertex 57.15000000000333 29.55067974145001 12.7
vertex 54.16287509835299 27.262787695657654 12.7
endloop
endfacet
facet normal 0.5818102091094753 -0.8133245458249102 0.00025245730772827834
outer loop
vertex 53.988502983719 27.134108824691005 0.0
vertex 54.16287509835299 27.262787695657654 12.7
vertex 51.10260599323375 25.073629853169532 12.7
endloop
endfacet
facet normal 0.6072844494129129 -0.7944844331031322 -0.0002881979351321459
outer loop
vertex 53.988502983719 27.134108824691005 0.0
vertex 57.15000000000333 29.55067974145001 0.0
vertex 54.16287509835299 27.262787695657654 12.7
endloop
endfacet
facet normal 0.55395925684929 -0.8325434274492274 0.0007636504929535503
outer loop
vertex 50.61449257428387 24.737198985006522 0.0
vertex 51.10260599323375 25.073629853169532 12.7
vertex 46.932989878939345 22.29924311505284 12.7
endloop
endfacet
facet normal 0.5791406358099194 -0.8152273821057723 -0.0006628866051877118
outer loop
vertex 50.61449257428387 24.737198985006522 0.0
vertex 53.988502983719 27.134108824691005 0.0
vertex 51.10260599323375 25.073629853169532 12.7
endloop
endfacet
facet normal 0.5524693862313521 -0.8335331770118399 0.00014176636290564806
outer loop
vertex 47.029761043161955 22.361223458869823 0.0
vertex 50.61449257428387 24.737198985006522 0.0
vertex 46.932989878939345 22.29924311505284 12.7
endloop
endfacet
facet normal 0.5220218633363007 -0.8529298425001988 0.001964171958597538
outer loop
vertex 43.23621259669949 20.007444362463303 0.0
vertex 46.932989878939345 22.29924311505284 12.7
vertex 41.65924078850289 19.071530600166696 12.7
endloop
endfacet
facet normal 0.5272274809087535 -0.849724170882131 -0.0001295889073372065
outer loop
vertex 43.23621259669949 20.007444362463303 0.0
vertex 47.029761043161955 22.361223458869823 0.0
vertex 46.932989878939345 22.29924311505284 12.7
endloop
endfacet
facet normal 0.4895161570184348 -0.8719911042938082 0.002333677434392634
outer loop
vertex 39.23586236461057 17.677112021244753 0.0
vertex 41.65924078850289 19.071530600166696 12.7
vertex 35.83624230205849 15.80263046188272 12.7
endloop
endfacet
facet normal 0.5033540178074128 -0.8640794818587334 -0.0011754947373962732
outer loop
vertex 39.23586236461057 17.677112021244753 0.0
vertex 43.23621259669949 20.007444362463303 0.0
vertex 41.65924078850289 19.071530600166696 12.7
endloop
endfacet
facet normal 0.4807788045061504 -0.8768416169009643 -0.000721115898671826
outer loop
vertex 35.03083532954247 15.37146430577549 0.0
vertex 39.23586236461057 17.677112021244753 0.0
vertex 35.83624230205849 15.80263046188272 12.7
endloop
endfacet
facet normal 0.45654697298062 -0.8896957512112356 0.00251629467835759
outer loop
vertex 30.623365198286365 13.091725974164596 0.0
vertex 35.83624230205849 15.80263046188272 12.7
vertex 28.501451458468082 12.038785852612342 12.7
endloop
endfacet
facet normal 0.45942465194594834 -0.8882161618889294 0.0010192858496814966
outer loop
vertex 30.623365198286365 13.091725974164596 0.0
vertex 35.03083532954247 15.37146430577549 0.0
vertex 35.83624230205849 15.80263046188272 12.7
endloop
endfacet
facet normal 0.42269656424813606 -0.9062647774650595 0.003430407997221683
outer loop
vertex 24.43588880339297 10.094469366508555 0.0
vertex 28.501451458468082 12.038785852612342 12.7
vertex 19.96350890722494 8.05655122108096 12.7
endloop
endfacet
facet normal 0.4359510600032598 -0.8999686200403151 -0.0017765766983623898
outer loop
vertex 24.43588880339297 10.094469366508555 0.0
vertex 30.623365198286365 13.091725974164596 0.0
vertex 28.501451458468082 12.038785852612342 12.7
endloop
endfacet
facet normal 0.3894581757939655 -0.9210386581310557 0.0031811217174423836
outer loop
vertex 17.057064138430178 6.783706793583079 0.0
vertex 19.96350890722494 8.05655122108096 12.7
vertex 10.048163146706713 3.86387978631868 12.7
endloop
endfacet
facet normal 0.40936512162357686 -0.9123678880247916 -0.002243679855866902
outer loop
vertex 17.057064138430178 6.783706793583079 0.0
vertex 24.43588880339297 10.094469366508555 0.0
vertex 19.96350890722494 8.05655122108096 12.7
endloop
endfacet
facet normal 0.3832918988038273 -0.9236269013162378 -0.0008169922404224912
outer loop
vertex 9.244248740228329 3.5415006119386803 0.0
vertex 17.057064138430178 6.783706793583079 0.0
vertex 10.048163146706713 3.86387978631868 12.7
endloop
endfacet
facet normal 0.3589126411773694 -0.9333656773524083 0.0031981781634471585
outer loop
vertex 4.687725437464849 1.7590823136505307 0.0
vertex 10.048163146706713 3.86387978631868 12.7
vertex 0.0 0.0 12.7
endloop
endfacet
facet normal 0.3642984185758863 -0.9312820873726027 0.0005796223221743826
outer loop
vertex 4.687725437464849 1.7590823136505307 0.0
vertex 9.244248740228329 3.5415006119386803 0.0
vertex 10.048163146706713 3.86387978631868 12.7
endloop
endfacet
facet normal 0.3513309751414683 -0.9362513262506733 4.5618705279976326e-14
outer loop
vertex 1.6484591469634324e-12 0.0 0.0
vertex 4.687725437464849 1.7590823136505307 0.0
vertex 0.0 0.0 12.7
endloop
endfacet
facet normal 0.8660254037844172 0.5000000000000367 -0.0
outer loop
vertex 21.30038660821333 412.95067974144996 0.0
vertex 14.025773216423318 425.55067974145 0.0
vertex 14.025773216423318 425.55067974145 12.7
endloop
endfacet
facet normal 0.8660254037844172 0.5000000000000367 0.0
outer loop
vertex 21.30038660821333 412.95067974144996 0.0
vertex 14.025773216423318 425.55067974145 12.7
vertex 21.30038660821333 412.95067974144996 12.7
endloop
endfacet
facet normal 0.0 1.0 -0.0
outer loop
vertex 35.84961339178329 412.95067974144996 0.0
vertex 21.30038660821333 412.95067974144996 0.0
vertex 21.30038660821333 412.95067974144996 12.7
endloop
endfacet
facet normal 0.0 1.0 -0.0
outer loop
vertex 35.84961339178329 412.95067974144996 0.0
vertex 21.30038660821333 412.95067974144996 12.7
vertex 35.84961339178329 412.95067974144996 12.7
endloop
endfacet
facet normal -0.8660254037844172 0.5000000000000367 0.0
outer loop
vertex 43.124226783573306 425.55067974145 0.0
vertex 35.84961339178329 412.95067974144996 0.0
vertex 35.84961339178329 412.95067974144996 12.7
endloop
endfacet
facet normal -0.8660254037844172 0.5000000000000367 0.0
outer loop
vertex 43.124226783573306 425.55067974145 0.0
vertex 35.84961339178329 412.95067974144996 12.7
vertex 43.124226783573306 425.55067974145 12.7
endloop
endfacet
facet normal -0.8660254037844172 -0.5000000000000367 0.0
outer loop
vertex 35.84961339178329 438.15067974145 0.0
vertex 43.124226783573306 425.55067974145 0.0
vertex 43.124226783573306 425.55067974145 12.7
endloop
endfacet
facet normal -0.8660254037844172 -0.5000000000000367 0.0
outer loop
vertex 35.84961339178329 438.15067974145 0.0
vertex 43.124226783573306 425.55067974145 12.7
vertex 35.84961339178329 438.15067974145 12.7
endloop
endfacet
facet normal 0.0 -1.0 0.0
outer loop
vertex 21.30038660821333 438.15067974145 12.7
vertex 35.84961339178329 438.15067974145 0.0
vertex 35.84961339178329 438.15067974145 12.7
endloop
endfacet
facet normal 0.0 -1.0 0.0
outer loop
vertex 21.30038660821333 438.15067974145 0.0
vertex 35.84961339178329 438.15067974145 0.0
vertex 21.30038660821333 438.15067974145 12.7
endloop
endfacet
facet normal 0.8660254037844172 -0.5000000000000367 0.0
outer loop
vertex 14.025773216423318 425.55067974145 0.0
vertex 21.30038660821333 438.15067974145 0.0
vertex 21.30038660821333 438.15067974145 12.7
endloop
endfacet
facet normal 0.8660254037844172 -0.5000000000000367 0.0
outer loop
vertex 14.025773216423318 425.55067974145 0.0
vertex 21.30038660821333 438.15067974145 12.7
vertex 14.025773216423318 425.55067974145 12.7
endloop
endfacet
facet normal 0.8660254037844172 0.5000000000000367 -0.0
outer loop
vertex 21.30038660821333 377.75067974145 0.0
vertex 14.025773216423318 390.35067974145005 0.0
vertex 14.025773216423318 390.35067974145005 12.7
endloop
endfacet
facet normal 0.8660254037844172 0.5000000000000367 0.0
outer loop
vertex 21.30038660821333 377.75067974145 0.0
vertex 14.025773216423318 390.35067974145005 12.7
vertex 21.30038660821333 377.75067974145 12.7
endloop
endfacet
facet normal 0.0 1.0 -0.0
outer loop
vertex 35.84961339178329 377.75067974145 0.0
vertex 21.30038660821333 377.75067974145 0.0
vertex 21.30038660821333 377.75067974145 12.7
endloop
endfacet
facet normal 0.0 1.0 -0.0
outer loop
vertex 35.84961339178329 377.75067974145 0.0
vertex 21.30038660821333 377.75067974145 12.7
vertex 35.84961339178329 377.75067974145 12.7
endloop
endfacet
facet normal -0.8660254037844172 0.5000000000000367 0.0
outer loop
vertex 43.124226783573306 390.35067974145005 0.0
vertex 35.84961339178329 377.75067974145 0.0
vertex 35.84961339178329 377.75067974145 12.7
endloop
endfacet
facet normal -0.8660254037844172 0.5000000000000367 0.0
outer loop
vertex 43.124226783573306 390.35067974145005 0.0
vertex 35.84961339178329 377.75067974145 12.7
vertex 43.124226783573306 390.35067974145005 12.7
endloop
endfacet
facet normal -0.8660254037844155 -0.5000000000000403 0.0
outer loop
vertex 35.84961339178329 402.95067974144996 0.0
vertex 43.124226783573306 390.35067974145005 0.0
vertex 43.124226783573306 390.35067974145005 12.7
endloop
endfacet
facet normal -0.8660254037844155 -0.5000000000000403 0.0
outer loop
vertex 35.84961339178329 402.95067974144996 0.0
vertex 43.124226783573306 390.35067974145005 12.7
vertex 35.84961339178329 402.95067974144996 12.7
endloop
endfacet
facet normal 0.0 -1.0 0.0
outer loop
vertex 21.30038660821333 402.95067974144996 12.7
vertex 35.84961339178329 402.95067974144996 0.0
vertex 35.84961339178329 402.95067974144996 12.7
endloop
endfacet
facet normal 0.0 -1.0 0.0
outer loop
vertex 21.30038660821333 402.95067974144996 0.0
vertex 35.84961339178329 402.95067974144996 0.0
vertex 21.30038660821333 402.95067974144996 12.7
endloop
endfacet
facet normal 0.8660254037844155 -0.5000000000000403 0.0
outer loop
vertex 14.025773216423318 390.35067974145005 12.7
vertex 21.30038660821333 402.95067974144996 0.0
vertex 21.30038660821333 402.95067974144996 12.7
endloop
endfacet
facet normal 0.8660254037844155 -0.5000000000000403 0.0
outer loop
vertex 14.025773216423318 390.35067974145005 0.0
vertex 21.30038660821333 402.95067974144996 0.0
vertex 14.025773216423318 390.35067974145005 12.7
endloop
endfacet
facet normal 0.8660254037844172 0.5000000000000367 -0.0
outer loop
vertex 21.30038660821333 342.55067974145 0.0
vertex 14.025773216423318 355.15067974145 0.0
vertex 14.025773216423318 355.15067974145 12.7
endloop
endfacet
facet normal 0.8660254037844172 0.5000000000000367 0.0
outer loop
vertex 21.30038660821333 342.55067974145 0.0
vertex 14.025773216423318 355.15067974145 12.7
vertex 21.30038660821333 342.55067974145 12.7
endloop
endfacet
facet normal 0.0 1.0 -0.0
outer loop
vertex 35.84961339178329 342.55067974145 0.0
vertex 21.30038660821333 342.55067974145 0.0
vertex 21.30038660821333 342.55067974145 12.7
endloop
endfacet
facet normal 0.0 1.0 -0.0
outer loop
vertex 35.84961339178329 342.55067974145 0.0
vertex 21.30038660821333 342.55067974145 12.7
vertex 35.84961339178329 342.55067974145 12.7
endloop
endfacet
facet normal -0.8660254037844172 0.5000000000000367 0.0
outer loop
vertex 43.124226783573306 355.15067974145 0.0
vertex 35.84961339178329 342.55067974145 0.0
vertex 35.84961339178329 342.55067974145 12.7
endloop
endfacet
facet normal -0.8660254037844172 0.5000000000000367 0.0
outer loop
vertex 43.124226783573306 355.15067974145 0.0
vertex 35.84961339178329 342.55067974145 12.7
vertex 43.124226783573306 355.15067974145 12.7
endloop
endfacet
facet normal -0.8660254037844172 -0.5000000000000367 0.0
outer loop
vertex 35.84961339178329 367.75067974145 0.0
vertex 43.124226783573306 355.15067974145 0.0
vertex 43.124226783573306 355.15067974145 12.7
endloop
endfacet
facet normal -0.8660254037844172 -0.5000000000000367 0.0
outer loop
vertex 35.84961339178329 367.75067974145 0.0
vertex 43.124226783573306 355.15067974145 12.7
vertex 35.84961339178329 367.75067974145 12.7
endloop
endfacet
facet normal 0.0 -1.0 0.0
outer loop
vertex 21.30038660821333 367.75067974145 12.7
vertex 35.84961339178329 367.75067974145 0.0
vertex 35.84961339178329 367.75067974145 12.7
endloop
endfacet
facet normal 0.0 -1.0 0.0
outer loop
vertex 21.30038660821333 367.75067974145 0.0
vertex 35.84961339178329 367.75067974145 0.0
vertex 21.30038660821333 367.75067974145 12.7
endloop
endfacet
facet normal 0.8660254037844172 -0.5000000000000367 0.0
outer loop
vertex 14.025773216423318 355.15067974145 0.0
vertex 21.30038660821333 367.75067974145 0.0
vertex 21.30038660821333 367.75067974145 12.7
endloop
endfacet
facet normal 0.8660254037844172 -0.5000000000000367 0.0
outer loop
vertex 14.025773216423318 355.15067974145 0.0
vertex 21.30038660821333 367.75067974145 12.7
vertex 14.025773216423318 355.15067974145 12.7
endloop
endfacet
facet normal 0.8660254037844172 0.5000000000000367 -0.0
outer loop
vertex 21.30038660821333 307.35067974145 0.0
vertex 14.025773216423318 319.95067974145 0.0
vertex 14.025773216423318 319.95067974145 12.7
endloop
endfacet
facet normal 0.8660254037844172 0.5000000000000367 0.0
outer loop
vertex 21.30038660821333 307.35067974145 0.0
vertex 14.025773216423318 319.95067974145 12.7
vertex 21.30038660821333 307.35067974145 12.7
endloop
endfacet
facet normal 0.0 1.0 -0.0
outer loop
vertex 35.84961339178329 307.35067974145 0.0
vertex 21.30038660821333 307.35067974145 0.0
vertex 21.30038660821333 307.35067974145 12.7
endloop
endfacet
facet normal 0.0 1.0 -0.0
outer loop
vertex 35.84961339178329 307.35067974145 0.0
vertex 21.30038660821333 307.35067974145 12.7
vertex 35.84961339178329 307.35067974145 12.7
endloop
endfacet
facet normal -0.8660254037844172 0.5000000000000367 0.0
outer loop
vertex 43.124226783573306 319.95067974145 0.0
vertex 35.84961339178329 307.35067974145 0.0
vertex 35.84961339178329 307.35067974145 12.7
endloop
endfacet
facet normal -0.8660254037844172 0.5000000000000367 0.0
outer loop
vertex 43.124226783573306 319.95067974145 0.0
vertex 35.84961339178329 307.35067974145 12.7
vertex 43.124226783573306 319.95067974145 12.7
endloop
endfacet
facet normal -0.8660254037844164 -0.5000000000000385 0.0
outer loop
vertex 35.84961339178329 332.55067974145 0.0
vertex 43.124226783573306 319.95067974145 0.0
vertex 43.124226783573306 319.95067974145 12.7
endloop
endfacet
facet normal -0.8660254037844164 -0.5000000000000385 0.0
outer loop
vertex 35.84961339178329 332.55067974145 0.0
vertex 43.124226783573306 319.95067974145 12.7
vertex 35.84961339178329 332.55067974145 12.7
endloop
endfacet
facet normal 0.0 -1.0 0.0
outer loop
vertex 21.30038660821333 332.55067974145 12.7
vertex 35.84961339178329 332.55067974145 0.0
vertex 35.84961339178329 332.55067974145 12.7
endloop
endfacet
facet normal 0.0 -1.0 0.0
outer loop
vertex 21.30038660821333 332.55067974145 0.0
vertex 35.84961339178329 332.55067974145 0.0
vertex 21.30038660821333 332.55067974145 12.7
endloop
endfacet
facet normal 0.8660254037844164 -0.5000000000000385 0.0
outer loop
vertex 14.025773216423318 319.95067974145 0.0
vertex 21.30038660821333 332.55067974145 0.0
vertex 21.30038660821333 332.55067974145 12.7
endloop
endfacet
facet normal 0.8660254037844164 -0.5000000000000385 0.0
outer loop
vertex 14.025773216423318 319.95067974145 0.0
vertex 21.30038660821333 332.55067974145 12.7
vertex 14.025773216423318 319.95067974145 12.7
endloop
endfacet
facet normal 0.8660254037844172 0.5000000000000367 -0.0
outer loop
vertex 21.30038660821333 166.55067974144998 0.0
vertex 14.025773216423318 179.15067974145 0.0
vertex 14.025773216423318 179.15067974145 12.7
endloop
endfacet
facet normal 0.8660254037844172 0.5000000000000367 0.0
outer loop
vertex 21.30038660821333 166.55067974144998 0.0
vertex 14.025773216423318 179.15067974145 12.7
vertex 21.30038660821333 166.55067974144998 12.7
endloop
endfacet
facet normal 0.0 1.0 -0.0
outer loop
vertex 35.84961339178329 166.55067974144998 0.0
vertex 21.30038660821333 166.55067974144998 0.0
vertex 21.30038660821333 166.55067974144998 12.7
endloop
endfacet
facet normal 0.0 1.0 -0.0
outer loop
vertex 35.84961339178329 166.55067974144998 0.0
vertex 21.30038660821333 166.55067974144998 12.7
vertex 35.84961339178329 166.55067974144998 12.7
endloop
endfacet
facet normal -0.8660254037844172 0.5000000000000367 0.0
outer loop
vertex 43.124226783573306 179.15067974145 0.0
vertex 35.84961339178329 166.55067974144998 0.0
vertex 35.84961339178329 166.55067974144998 12.7
endloop
endfacet
facet normal -0.8660254037844172 0.5000000000000367 0.0
outer loop
vertex 43.124226783573306 179.15067974145 0.0
vertex 35.84961339178329 166.55067974144998 12.7
vertex 43.124226783573306 179.15067974145 12.7
endloop
endfacet
facet normal -0.8660254037844172 -0.5000000000000367 0.0
outer loop
vertex 35.84961339178329 191.75067974145003 0.0
vertex 43.124226783573306 179.15067974145 0.0
vertex 43.124226783573306 179.15067974145 12.7
endloop
endfacet
facet normal -0.8660254037844172 -0.5000000000000367 0.0
outer loop
vertex 35.84961339178329 191.75067974145003 0.0
vertex 43.124226783573306 179.15067974145 12.7
vertex 35.84961339178329 191.75067974145003 12.7
endloop
endfacet
facet normal 0.0 -1.0 0.0
outer loop
vertex 21.30038660821333 191.75067974145003 12.7
vertex 35.84961339178329 191.75067974145003 0.0
vertex 35.84961339178329 191.75067974145003 12.7
endloop
endfacet
facet normal 0.0 -1.0 0.0
outer loop
vertex 21.30038660821333 191.75067974145003 0.0
vertex 35.84961339178329 191.75067974145003 0.0
vertex 21.30038660821333 191.75067974145003 12.7
endloop
endfacet
facet normal 0.8660254037844172 -0.5000000000000367 0.0
outer loop
vertex 14.025773216423318 179.15067974145 0.0
vertex 21.30038660821333 191.75067974145003 0.0
vertex 21.30038660821333 191.75067974145003 12.7
endloop
endfacet
facet normal 0.8660254037844172 -0.5000000000000367 0.0
outer loop
vertex 14.025773216423318 179.15067974145 0.0
vertex 21.30038660821333 191.75067974145003 12.7
vertex 14.025773216423318 179.15067974145 12.7
endloop
endfacet
facet normal 0.8660254037844172 0.5000000000000367 -0.0
outer loop
vertex 21.30038660821333 131.35067974145 0.0
vertex 14.025773216423318 143.95067974145002 0.0
vertex 14.025773216423318 143.95067974145002 12.7
endloop
endfacet
facet normal 0.8660254037844172 0.5000000000000367 0.0
outer loop
vertex 21.30038660821333 131.35067974145 0.0
vertex 14.025773216423318 143.95067974145002 12.7
vertex 21.30038660821333 131.35067974145 12.7
endloop
endfacet
facet normal 0.0 1.0 -0.0
outer loop
vertex 35.84961339178329 131.35067974145 0.0
vertex 21.30038660821333 131.35067974145 0.0
vertex 21.30038660821333 131.35067974145 12.7
endloop
endfacet
facet normal 0.0 1.0 -0.0
outer loop
vertex 35.84961339178329 131.35067974145 0.0
vertex 21.30038660821333 131.35067974145 12.7
vertex 35.84961339178329 131.35067974145 12.7
endloop
endfacet
facet normal -0.8660254037844172 0.5000000000000367 0.0
outer loop
vertex 43.124226783573306 143.95067974145002 0.0
vertex 35.84961339178329 131.35067974145 0.0
vertex 35.84961339178329 131.35067974145 12.7
endloop
endfacet
facet normal -0.8660254037844172 0.5000000000000367 0.0
outer loop
vertex 43.124226783573306 143.95067974145002 0.0
vertex 35.84961339178329 131.35067974145 12.7
vertex 43.124226783573306 143.95067974145002 12.7
endloop
endfacet
facet normal -0.8660254037844164 -0.5000000000000385 0.0
outer loop
vertex 35.84961339178329 156.55067974144998 12.7
vertex 43.124226783573306 143.95067974145002 0.0
vertex 43.124226783573306 143.95067974145002 12.7
endloop
endfacet
facet normal -0.8660254037844164 -0.5000000000000385 0.0
outer loop
vertex 35.84961339178329 156.55067974144998 0.0
vertex 43.124226783573306 143.95067974145002 0.0
vertex 35.84961339178329 156.55067974144998 12.7
endloop
endfacet
facet normal 0.0 -1.0 0.0
outer loop
vertex 21.30038660821333 156.55067974144998 12.7
vertex 35.84961339178329 156.55067974144998 0.0
vertex 35.84961339178329 156.55067974144998 12.7
endloop
endfacet
facet normal 0.0 -1.0 0.0
outer loop
vertex 21.30038660821333 156.55067974144998 0.0
vertex 35.84961339178329 156.55067974144998 0.0
vertex 21.30038660821333 156.55067974144998 12.7
endloop
endfacet
facet normal 0.8660254037844164 -0.5000000000000385 0.0
outer loop
vertex 14.025773216423318 143.95067974145002 0.0
vertex 21.30038660821333 156.55067974144998 0.0
vertex 21.30038660821333 156.55067974144998 12.7
endloop
endfacet
facet normal 0.8660254037844164 -0.5000000000000385 0.0
outer loop
vertex 14.025773216423318 143.95067974145002 0.0
vertex 21.30038660821333 156.55067974144998 12.7
vertex 14.025773216423318 143.95067974145002 12.7
endloop
endfacet
facet normal 0.8660254037844168 0.5000000000000376 -0.0
outer loop
vertex 21.30038660821333 96.15067974145 0.0
vertex 14.025773216423318 108.75067974145 0.0
vertex 14.025773216423318 108.75067974145 12.7
endloop
endfacet
facet normal 0.8660254037844168 0.5000000000000376 0.0
outer loop
vertex 21.30038660821333 96.15067974145 0.0
vertex 14.025773216423318 108.75067974145 12.7
vertex 21.30038660821333 96.15067974145 12.7
endloop
endfacet
facet normal 0.0 1.0 -0.0
outer loop
vertex 35.84961339178329 96.15067974145 0.0
vertex 21.30038660821333 96.15067974145 0.0
vertex 21.30038660821333 96.15067974145 12.7
endloop
endfacet
facet normal 0.0 1.0 -0.0
outer loop
vertex 35.84961339178329 96.15067974145 0.0
vertex 21.30038660821333 96.15067974145 12.7
vertex 35.84961339178329 96.15067974145 12.7
endloop
endfacet
facet normal -0.8660254037844168 0.5000000000000376 0.0
outer loop
vertex 43.124226783573306 108.75067974145 12.7
vertex 35.84961339178329 96.15067974145 0.0
vertex 35.84961339178329 96.15067974145 12.7
endloop
endfacet
facet normal -0.8660254037844168 0.5000000000000376 0.0
outer loop
vertex 43.124226783573306 108.75067974145 0.0
vertex 35.84961339178329 96.15067974145 0.0
vertex 43.124226783573306 108.75067974145 12.7
endloop
endfacet
facet normal -0.8660254037844168 -0.5000000000000376 0.0
outer loop
vertex 35.84961339178329 121.35067974145 12.7
vertex 43.124226783573306 108.75067974145 0.0
vertex 43.124226783573306 108.75067974145 12.7
endloop
endfacet
facet normal -0.8660254037844168 -0.5000000000000376 0.0
outer loop
vertex 35.84961339178329 121.35067974145 0.0
vertex 43.124226783573306 108.75067974145 0.0
vertex 35.84961339178329 121.35067974145 12.7
endloop
endfacet
facet normal 0.0 -1.0 0.0
outer loop
vertex 21.30038660821333 121.35067974145 12.7
vertex 35.84961339178329 121.35067974145 0.0
vertex 35.84961339178329 121.35067974145 12.7
endloop
endfacet
facet normal 0.0 -1.0 0.0
outer loop
vertex 21.30038660821333 121.35067974145 0.0
vertex 35.84961339178329 121.35067974145 0.0
vertex 21.30038660821333 121.35067974145 12.7
endloop
endfacet
facet normal 0.8660254037844168 -0.5000000000000376 0.0
outer loop
vertex 14.025773216423318 108.75067974145 0.0
vertex 21.30038660821333 121.35067974145 0.0
vertex 21.30038660821333 121.35067974145 12.7
endloop
endfacet
facet normal 0.8660254037844168 -0.5000000000000376 0.0
outer loop
vertex 14.025773216423318 108.75067974145 0.0
vertex 21.30038660821333 121.35067974145 12.7
vertex 14.025773216423318 108.75067974145 12.7
endloop
endfacet
facet normal 0.8660254037844168 0.5000000000000376 -0.0
outer loop
vertex 21.30038660821333 60.95067974145002 0.0
vertex 14.025773216423318 73.55067974145001 0.0
vertex 14.025773216423318 73.55067974145001 12.7
endloop
endfacet
facet normal 0.8660254037844168 0.5000000000000376 0.0
outer loop
vertex 21.30038660821333 60.95067974145002 0.0
vertex 14.025773216423318 73.55067974145001 12.7
vertex 21.30038660821333 60.95067974145002 12.7
endloop
endfacet
facet normal 0.0 1.0 -0.0
outer loop
vertex 35.84961339178329 60.95067974145002 0.0
vertex 21.30038660821333 60.95067974145002 0.0
vertex 21.30038660821333 60.95067974145002 12.7
endloop
endfacet
facet normal 0.0 1.0 -0.0
outer loop
vertex 35.84961339178329 60.95067974145002 0.0
vertex 21.30038660821333 60.95067974145002 12.7
vertex 35.84961339178329 60.95067974145002 12.7
endloop
endfacet
facet normal -0.8660254037844168 0.5000000000000376 0.0
outer loop
vertex 43.124226783573306 73.55067974145001 12.7
vertex 35.84961339178329 60.95067974145002 0.0
vertex 35.84961339178329 60.95067974145002 12.7
endloop
endfacet
facet normal -0.8660254037844168 0.5000000000000376 0.0
outer loop
vertex 43.124226783573306 73.55067974145001 0.0
vertex 35.84961339178329 60.95067974145002 0.0
vertex 43.124226783573306 73.55067974145001 12.7
endloop
endfacet
facet normal -0.8660254037844168 -0.5000000000000376 0.0
outer loop
vertex 35.84961339178329 86.15067974145 12.7
vertex 43.124226783573306 73.55067974145001 0.0
vertex 43.124226783573306 73.55067974145001 12.7
endloop
endfacet
facet normal -0.8660254037844168 -0.5000000000000376 0.0
outer loop
vertex 35.84961339178329 86.15067974145 0.0
vertex 43.124226783573306 73.55067974145001 0.0
vertex 35.84961339178329 86.15067974145 12.7
endloop
endfacet
facet normal 0.0 -1.0 0.0
outer loop
vertex 21.30038660821333 86.15067974145 12.7
vertex 35.84961339178329 86.15067974145 0.0
vertex 35.84961339178329 86.15067974145 12.7
endloop
endfacet
facet normal 0.0 -1.0 0.0
outer loop
vertex 21.30038660821333 86.15067974145 0.0
vertex 35.84961339178329 86.15067974145 0.0
vertex 21.30038660821333 86.15067974145 12.7
endloop
endfacet
facet normal 0.8660254037844168 -0.5000000000000376 0.0
outer loop
vertex 14.025773216423318 73.55067974145001 0.0
vertex 21.30038660821333 86.15067974145 0.0
vertex 21.30038660821333 86.15067974145 12.7
endloop
endfacet
facet normal 0.8660254037844168 -0.5000000000000376 0.0
outer loop
vertex 14.025773216423318 73.55067974145001 0.0
vertex 21.30038660821333 86.15067974145 12.7
vertex 14.025773216423318 73.55067974145001 12.7
endloop
endfacet

endsolid
