solid 
facet normal 0.030977171784518878 -0.999520092258396 0.0
outer loop
vertex 42.919599629351545 0.567900687103716 0.0
vertex 57.15000000000003 1.0089298972800123 0.0
vertex 57.15000000000003 1.0089298972800123 12.7
endloop
endfacet
facet normal 0.026517947263550497 -0.9996358299366145 0.005000597950614611
outer loop
vertex 28.627336772571645 0.2522918730818232 12.7
vertex 42.919599629351545 0.567900687103716 0.0
vertex 57.15000000000003 1.0089298972800123 12.7
endloop
endfacet
facet normal 0.022081125529830544 -0.9997561822139024 4.5186823863316175e-06
outer loop
vertex 28.6402753293836 0.25252023939242463 0.0
vertex 42.919599629351545 0.567900687103716 0.0
vertex 28.627336772571645 0.2522918730818232 12.7
endloop
endfacet
facet normal 0.01323057495536966 -0.9999124721024797 -4.500927280592725e-06
outer loop
vertex 14.328304061177443 0.06314805542021418 0.0
vertex 28.6402753293836 0.25252023939242463 0.0
vertex 28.627336772571645 0.2522918730818232 12.7
endloop
endfacet
facet normal 0.008812519369987943 -0.9999488161778272 0.004970364867466782
outer loop
vertex 0.0 0.0 12.7
vertex 14.328304061177443 0.06314805542021418 0.0
vertex 28.627336772571645 0.2522918730818232 12.7
endloop
endfacet
facet normal 0.004407181888191795 -0.9999902883267439 -5.521487346047474e-16
outer loop
vertex 2.0708331103374998e-14 7.105427357601002e-15 0.0
vertex 14.328304061177443 0.06314805542021418 0.0
vertex 0.0 0.0 12.7
endloop
endfacet
facet normal 0.0 -0.0 -1.0
outer loop
vertex 21.300386608211028 48.60000000000001 0.0
vertex 28.6402753293836 0.25252023939242463 0.0
vertex 14.328304061177443 0.06314805542021418 0.0
endloop
endfacet
facet normal 0.0 0.0 -0.9999999999999999
outer loop
vertex 21.300386608211028 48.60000000000001 0.0
vertex 14.328304061177443 0.06314805542021418 0.0
vertex 2.0708331103374998e-14 7.105427357601002e-15 0.0
endloop
endfacet
facet normal 0.0 -0.0 -1.0
outer loop
vertex 14.025773216421028 61.20000000000002 0.0
vertex 21.300386608211028 48.60000000000001 0.0
vertex 2.0708331103374998e-14 7.105427357601002e-15 0.0
endloop
endfacet
facet normal 0.0 -0.0 -1.0
outer loop
vertex 35.84961339178903 48.60000000000001 0.0
vertex 57.15000000000003 1.0089298972800123 0.0
vertex 42.919599629351545 0.567900687103716 0.0
endloop
endfacet
facet normal 0.0 -0.0 -1.0
outer loop
vertex 35.84961339178903 48.60000000000001 0.0
vertex 42.919599629351545 0.567900687103716 0.0
vertex 28.6402753293836 0.25252023939242463 0.0
endloop
endfacet
facet normal -0.0 0.0 -1.0
outer loop
vertex 35.84961339178903 48.60000000000001 0.0
vertex 28.6402753293836 0.25252023939242463 0.0
vertex 21.300386608211028 48.60000000000001 0.0
endloop
endfacet
facet normal -0.0 -0.0 -0.9999999999999999
outer loop
vertex 43.124226783579026 61.20000000000002 0.0
vertex 57.15000000000003 1.0089298972800123 0.0
vertex 35.84961339178903 48.60000000000001 0.0
endloop
endfacet
facet normal 0.0 0.0 -1.0
outer loop
vertex 35.84961339178903 73.80000000000001 0.0
vertex 21.300386608211028 73.80000000000001 0.0
vertex 21.300386608211028 83.80000000000001 0.0
endloop
endfacet
facet normal 0.0 -0.0 -1.0
outer loop
vertex 14.025773216421028 96.4 0.0
vertex 21.300386608211028 73.80000000000001 0.0
vertex 14.025773216421028 61.20000000000002 0.0
endloop
endfacet
facet normal 0.0 -0.0 -1.0
outer loop
vertex 14.025773216421028 96.4 0.0
vertex 14.025773216421028 61.20000000000002 0.0
vertex 2.0708331103374998e-14 7.105427357601002e-15 0.0
endloop
endfacet
facet normal 0.0 0.0 -1.0
outer loop
vertex 14.025773216421028 96.4 0.0
vertex 21.300386608211028 83.80000000000001 0.0
vertex 21.300386608211028 73.80000000000001 0.0
endloop
endfacet
facet normal -0.0 -0.0 -1.0
outer loop
vertex 35.84961339178903 83.80000000000001 0.0
vertex 43.124226783579026 61.20000000000002 0.0
vertex 35.84961339178903 73.80000000000001 0.0
endloop
endfacet
facet normal -0.0 -0.0 -1.0
outer loop
vertex 35.84961339178903 83.80000000000001 0.0
vertex 35.84961339178903 73.80000000000001 0.0
vertex 21.300386608211028 83.80000000000001 0.0
endloop
endfacet
facet normal -0.0 -0.0 -1.0
outer loop
vertex 43.124226783579026 96.4 0.0
vertex 43.124226783579026 61.20000000000002 0.0
vertex 35.84961339178903 83.80000000000001 0.0
endloop
endfacet
facet normal -0.0 -0.0 -1.0
outer loop
vertex 43.124226783579026 96.4 0.0
vertex 57.15000000000003 1.0089298972800123 0.0
vertex 43.124226783579026 61.20000000000002 0.0
endloop
endfacet
facet normal 0.0 0.0 -1.0
outer loop
vertex 35.84961339178903 109.0 0.0
vertex 21.300386608211028 109.0 0.0
vertex 21.300386608211028 119.0 0.0
endloop
endfacet
facet normal 0.0 -0.0 -1.0
outer loop
vertex 14.025773216421028 131.60000000000002 0.0
vertex 21.300386608211028 109.0 0.0
vertex 14.025773216421028 96.4 0.0
endloop
endfacet
facet normal 0.0 0.0 -1.0
outer loop
vertex 14.025773216421028 131.60000000000002 0.0
vertex 21.300386608211028 119.0 0.0
vertex 21.300386608211028 109.0 0.0
endloop
endfacet
facet normal -0.0 -0.0 -1.0
outer loop
vertex 35.84961339178903 119.0 0.0
vertex 43.124226783579026 96.4 0.0
vertex 35.84961339178903 109.0 0.0
endloop
endfacet
facet normal -0.0 -0.0 -1.0
outer loop
vertex 35.84961339178903 119.0 0.0
vertex 35.84961339178903 109.0 0.0
vertex 21.300386608211028 119.0 0.0
endloop
endfacet
facet normal -0.0 -0.0 -1.0
outer loop
vertex 43.124226783579026 131.60000000000002 0.0
vertex 43.124226783579026 96.4 0.0
vertex 35.84961339178903 119.0 0.0
endloop
endfacet
facet normal 0.0 0.0 -1.0
outer loop
vertex 35.84961339178903 144.20000000000002 0.0
vertex 21.300386608211028 144.20000000000002 0.0
vertex 21.300386608211028 154.20000000000002 0.0
endloop
endfacet
facet normal 0.0 0.0 -1.0
outer loop
vertex 14.025773216421028 166.8 0.0
vertex 21.300386608211028 154.20000000000002 0.0
vertex 21.300386608211028 144.20000000000002 0.0
endloop
endfacet
facet normal 0.0 -0.0 -1.0
outer loop
vertex 14.025773216421028 166.8 0.0
vertex 21.300386608211028 144.20000000000002 0.0
vertex 14.025773216421028 131.60000000000002 0.0
endloop
endfacet
facet normal -0.0 -0.0 -1.0
outer loop
vertex 35.84961339178903 154.20000000000002 0.0
vertex 35.84961339178903 144.20000000000002 0.0
vertex 21.300386608211028 154.20000000000002 0.0
endloop
endfacet
facet normal -0.0 -0.0 -1.0
outer loop
vertex 35.84961339178903 154.20000000000002 0.0
vertex 43.124226783579026 131.60000000000002 0.0
vertex 35.84961339178903 144.20000000000002 0.0
endloop
endfacet
facet normal -0.0 -0.0 -1.0
outer loop
vertex 43.124226783579026 166.8 0.0
vertex 43.124226783579026 131.60000000000002 0.0
vertex 35.84961339178903 154.20000000000002 0.0
endloop
endfacet
facet normal 0.0 0.0 -1.0
outer loop
vertex 14.025773216421028 307.6 0.0
vertex 21.300386608211028 295.0 0.0
vertex 21.300386608211028 179.4 0.0
endloop
endfacet
facet normal 0.0 -0.0 -1.0
outer loop
vertex 14.025773216421028 307.6 0.0
vertex 21.300386608211028 179.4 0.0
vertex 14.025773216421028 166.8 0.0
endloop
endfacet
facet normal -0.0 0.0 -1.0
outer loop
vertex 35.84961339178903 295.0 0.0
vertex 21.300386608211028 179.4 0.0
vertex 21.300386608211028 295.0 0.0
endloop
endfacet
facet normal -0.0 -0.0 -1.0
outer loop
vertex 35.84961339178903 295.0 0.0
vertex 35.84961339178903 179.4 0.0
vertex 21.300386608211028 179.4 0.0
endloop
endfacet
facet normal -0.0 -0.0 -0.9999999999999999
outer loop
vertex 35.84961339178903 295.0 0.0
vertex 43.124226783579026 166.8 0.0
vertex 35.84961339178903 179.4 0.0
endloop
endfacet
facet normal -0.0 -0.0 -1.0
outer loop
vertex 43.124226783579026 307.6 0.0
vertex 43.124226783579026 166.8 0.0
vertex 35.84961339178903 295.0 0.0
endloop
endfacet
facet normal 0.0 0.0 -1.0
outer loop
vertex 35.84961339178903 320.2 0.0
vertex 21.300386608211028 320.2 0.0
vertex 21.300386608211028 330.2 0.0
endloop
endfacet
facet normal 0.0 0.0 -1.0
outer loop
vertex 14.025773216421028 342.8 0.0
vertex 21.300386608211028 330.2 0.0
vertex 21.300386608211028 320.2 0.0
endloop
endfacet
facet normal 0.0 -0.0 -1.0
outer loop
vertex 14.025773216421028 342.8 0.0
vertex 21.300386608211028 320.2 0.0
vertex 14.025773216421028 307.6 0.0
endloop
endfacet
facet normal -0.0 -0.0 -1.0
outer loop
vertex 35.84961339178903 330.2 0.0
vertex 35.84961339178903 320.2 0.0
vertex 21.300386608211028 330.2 0.0
endloop
endfacet
facet normal -0.0 -0.0 -1.0
outer loop
vertex 35.84961339178903 330.2 0.0
vertex 43.124226783579026 307.6 0.0
vertex 35.84961339178903 320.2 0.0
endloop
endfacet
facet normal -0.0 -0.0 -1.0
outer loop
vertex 43.124226783579026 342.8 0.0
vertex 43.124226783579026 307.6 0.0
vertex 35.84961339178903 330.2 0.0
endloop
endfacet
facet normal 0.0 0.0 -1.0
outer loop
vertex 35.84961339178903 355.40000000000003 0.0
vertex 21.300386608211028 355.40000000000003 0.0
vertex 21.300386608211028 365.40000000000003 0.0
endloop
endfacet
facet normal 0.0 -0.0 -1.0
outer loop
vertex 14.025773216421028 378.0 0.0
vertex 21.300386608211028 355.40000000000003 0.0
vertex 14.025773216421028 342.8 0.0
endloop
endfacet
facet normal 0.0 0.0 -1.0
outer loop
vertex 14.025773216421028 378.0 0.0
vertex 21.300386608211028 365.40000000000003 0.0
vertex 21.300386608211028 355.40000000000003 0.0
endloop
endfacet
facet normal -0.0 -0.0 -1.0
outer loop
vertex 35.84961339178903 365.40000000000003 0.0
vertex 35.84961339178903 355.40000000000003 0.0
vertex 21.300386608211028 365.40000000000003 0.0
endloop
endfacet
facet normal -0.0 -0.0 -1.0
outer loop
vertex 35.84961339178903 365.40000000000003 0.0
vertex 43.124226783579026 342.8 0.0
vertex 35.84961339178903 355.40000000000003 0.0
endloop
endfacet
facet normal -0.0 -0.0 -1.0
outer loop
vertex 43.124226783579026 378.0 0.0
vertex 43.124226783579026 342.8 0.0
vertex 35.84961339178903 365.40000000000003 0.0
endloop
endfacet
facet normal 0.0 0.0 -1.0
outer loop
vertex 35.84961339178903 390.6 0.0
vertex 21.300386608211028 390.6 0.0
vertex 21.300386608211028 400.6 0.0
endloop
endfacet
facet normal 0.0 -0.0 -1.0
outer loop
vertex 14.025773216421028 413.2 0.0
vertex 21.300386608211028 390.6 0.0
vertex 14.025773216421028 378.0 0.0
endloop
endfacet
facet normal 0.0 0.0 -1.0
outer loop
vertex 14.025773216421028 413.2 0.0
vertex 21.300386608211028 400.6 0.0
vertex 21.300386608211028 390.6 0.0
endloop
endfacet
facet normal -0.0 -0.0 -1.0
outer loop
vertex 35.84961339178903 400.6 0.0
vertex 43.124226783579026 378.0 0.0
vertex 35.84961339178903 390.6 0.0
endloop
endfacet
facet normal -0.0 -0.0 -1.0
outer loop
vertex 35.84961339178903 400.6 0.0
vertex 35.84961339178903 390.6 0.0
vertex 21.300386608211028 400.6 0.0
endloop
endfacet
facet normal -0.0 -0.0 -1.0
outer loop
vertex 43.124226783579026 413.2 0.0
vertex 43.124226783579026 378.0 0.0
vertex 35.84961339178903 400.6 0.0
endloop
endfacet
facet normal 0.0 0.0 -1.0
outer loop
vertex 0.0 457.2 0.0
vertex 14.025773216421028 378.0 0.0
vertex 14.025773216421028 342.8 0.0
endloop
endfacet
facet normal 0.0 -0.0 -1.0
outer loop
vertex 0.0 457.2 0.0
vertex 21.300386608211028 425.8 0.0
vertex 14.025773216421028 413.2 0.0
endloop
endfacet
facet normal 0.0 0.0 -1.0
outer loop
vertex 0.0 457.2 0.0
vertex 14.025773216421028 413.2 0.0
vertex 14.025773216421028 378.0 0.0
endloop
endfacet
facet normal -0.0 -0.0 -1.0
outer loop
vertex 3.1614970162842724 459.6165709167589 0.0
vertex 21.300386608211028 425.8 0.0
vertex 0.0 457.2 0.0
endloop
endfacet
facet normal -0.0 -0.0 -1.0
outer loop
vertex 6.535507425719345 462.01348075644336 0.0
vertex 21.300386608211028 425.8 0.0
vertex 3.1614970162842724 459.6165709167589 0.0
endloop
endfacet
facet normal -0.0 -0.0 -1.0
outer loop
vertex 10.120238956841149 464.38945628257994 0.0
vertex 21.300386608211028 425.8 0.0
vertex 6.535507425719345 462.01348075644336 0.0
endloop
endfacet
facet normal -0.0 -0.0 -1.0
outer loop
vertex 13.913787403303502 466.7432353789864 0.0
vertex 21.300386608211028 425.8 0.0
vertex 10.120238956841149 464.38945628257994 0.0
endloop
endfacet
facet normal -0.0 -0.0 -1.0
outer loop
vertex 17.914137635392194 469.0735677202049 0.0
vertex 35.84961339178903 425.8 0.0
vertex 21.300386608211028 425.8 0.0
endloop
endfacet
facet normal -0.0 -0.0 -1.0
outer loop
vertex 17.914137635392194 469.0735677202049 0.0
vertex 21.300386608211028 425.8 0.0
vertex 13.913787403303502 466.7432353789864 0.0
endloop
endfacet
facet normal -0.0 -0.0 -1.0
outer loop
vertex 22.11916467046018 471.3792154356741 0.0
vertex 35.84961339178903 425.8 0.0
vertex 17.914137635392194 469.0735677202049 0.0
endloop
endfacet
facet normal -0.0 -0.0 -1.0
outer loop
vertex 26.526634801716114 473.65895376728497 0.0
vertex 35.84961339178903 425.8 0.0
vertex 22.11916467046018 471.3792154356741 0.0
endloop
endfacet
facet normal -0.0 -0.0 -1.0
outer loop
vertex 32.71411119660928 476.6562103749409 0.0
vertex 35.84961339178903 425.8 0.0
vertex 26.526634801716114 473.65895376728497 0.0
endloop
endfacet
facet normal -0.0 0.0 -1.0
outer loop
vertex 40.09293586157179 479.9669729478663 0.0
vertex 35.84961339178903 425.8 0.0
vertex 32.71411119660928 476.6562103749409 0.0
endloop
endfacet
facet normal -0.0 0.0 -0.9999999999999999
outer loop
vertex 47.90575125977335 483.20917912951063 0.0
vertex 35.84961339178903 425.8 0.0
vertex 40.09293586157179 479.9669729478663 0.0
endloop
endfacet
facet normal -0.0 0.0 -1.0
outer loop
vertex 52.46227456253604 484.99159742779847 0.0
vertex 35.84961339178903 425.8 0.0
vertex 47.90575125977335 483.20917912951063 0.0
endloop
endfacet
facet normal -0.0 0.0 -1.0
outer loop
vertex 57.15000000000003 486.75067974144 0.0
vertex 43.124226783579026 378.0 0.0
vertex 43.124226783579026 413.2 0.0
endloop
endfacet
facet normal -0.0 0.0 -1.0
outer loop
vertex 57.15000000000003 486.75067974144 0.0
vertex 43.124226783579026 413.2 0.0
vertex 35.84961339178903 425.8 0.0
endloop
endfacet
facet normal -0.0 0.0 -1.0
outer loop
vertex 57.15000000000003 486.75067974144 0.0
vertex 35.84961339178903 425.8 0.0
vertex 52.46227456253604 484.99159742779847 0.0
endloop
endfacet
facet normal 0.0 0.0 -0.9999999999999999
outer loop
vertex 57.15000000000003 1.0089298972800123 0.0
vertex 43.124226783579026 96.4 0.0
vertex 57.15000000000003 486.75067974144 0.0
endloop
endfacet
facet normal 0.0 0.0 -1.0
outer loop
vertex 43.124226783579026 96.4 0.0
vertex 43.124226783579026 131.60000000000002 0.0
vertex 57.15000000000003 486.75067974144 0.0
endloop
endfacet
facet normal 0.0 0.0 -1.0
outer loop
vertex 43.124226783579026 131.60000000000002 0.0
vertex 43.124226783579026 166.8 0.0
vertex 57.15000000000003 486.75067974144 0.0
endloop
endfacet
facet normal 0.0 0.0 -1.0
outer loop
vertex 43.124226783579026 166.8 0.0
vertex 43.124226783579026 307.6 0.0
vertex 57.15000000000003 486.75067974144 0.0
endloop
endfacet
facet normal 0.0 0.0 -1.0
outer loop
vertex 43.124226783579026 307.6 0.0
vertex 43.124226783579026 342.8 0.0
vertex 57.15000000000003 486.75067974144 0.0
endloop
endfacet
facet normal 0.0 0.0 -1.0
outer loop
vertex 43.124226783579026 342.8 0.0
vertex 43.124226783579026 378.0 0.0
vertex 57.15000000000003 486.75067974144 0.0
endloop
endfacet
facet normal 0.0 -0.0 -0.9999999999999999
outer loop
vertex 0.0 457.2 0.0
vertex 14.025773216421028 342.8 0.0
vertex 2.0708331103374998e-14 7.105427357601002e-15 0.0
endloop
endfacet
facet normal 0.0 -0.0 -1.0
outer loop
vertex 14.025773216421028 342.8 0.0
vertex 14.025773216421028 307.6 0.0
vertex 2.0708331103374998e-14 7.105427357601002e-15 0.0
endloop
endfacet
facet normal 0.0 -0.0 -1.0
outer loop
vertex 14.025773216421028 307.6 0.0
vertex 14.025773216421028 166.8 0.0
vertex 2.0708331103374998e-14 7.105427357601002e-15 0.0
endloop
endfacet
facet normal 0.0 -0.0 -1.0
outer loop
vertex 14.025773216421028 166.8 0.0
vertex 14.025773216421028 131.60000000000002 0.0
vertex 2.0708331103374998e-14 7.105427357601002e-15 0.0
endloop
endfacet
facet normal 0.0 -0.0 -0.9999999999999999
outer loop
vertex 14.025773216421028 131.60000000000002 0.0
vertex 14.025773216421028 96.4 0.0
vertex 2.0708331103374998e-14 7.105427357601002e-15 0.0
endloop
endfacet
facet normal -1.0 0.0 0.0
outer loop
vertex 0.0 0.0 12.7
vertex 0.0 457.2 12.7
vertex 0.0 457.2 0.0
endloop
endfacet
facet normal -1.0 -4.5293812562062556e-17 -1.6305772522342518e-15
outer loop
vertex 2.0708331103374998e-14 7.105427357601002e-15 0.0
vertex 0.0 0.0 12.7
vertex 0.0 457.2 0.0
endloop
endfacet
facet normal -0.0 0.0 1.0
outer loop
vertex 21.300386608211028 48.60000000000001 12.7
vertex 0.0 0.0 12.7
vertex 28.627336772571645 0.2522918730818232 12.7
endloop
endfacet
facet normal -0.0 0.0 1.0
outer loop
vertex 14.025773216421028 61.20000000000002 12.7
vertex 0.0 0.0 12.7
vertex 21.300386608211028 48.60000000000001 12.7
endloop
endfacet
facet normal -0.0 0.0 1.0
outer loop
vertex 35.84961339178903 48.60000000000001 12.7
vertex 28.627336772571645 0.2522918730818232 12.7
vertex 57.15000000000003 1.0089298972800123 12.7
endloop
endfacet
facet normal 0.0 0.0 1.0
outer loop
vertex 35.84961339178903 48.60000000000001 12.7
vertex 21.300386608211028 48.60000000000001 12.7
vertex 28.627336772571645 0.2522918730818232 12.7
endloop
endfacet
facet normal 0.0 0.0 0.9999999999999999
outer loop
vertex 43.124226783579026 61.20000000000002 12.7
vertex 35.84961339178903 48.60000000000001 12.7
vertex 57.15000000000003 1.0089298972800123 12.7
endloop
endfacet
facet normal 0.0 0.0 1.0
outer loop
vertex 35.84961339178903 73.80000000000001 12.7
vertex 21.300386608211028 83.80000000000001 12.7
vertex 21.300386608211028 73.80000000000001 12.7
endloop
endfacet
facet normal -0.0 0.0 1.0
outer loop
vertex 14.025773216421028 96.4 12.7
vertex 14.025773216421028 61.20000000000002 12.7
vertex 21.300386608211028 73.80000000000001 12.7
endloop
endfacet
facet normal -0.0 0.0 1.0
outer loop
vertex 14.025773216421028 96.4 12.7
vertex 0.0 0.0 12.7
vertex 14.025773216421028 61.20000000000002 12.7
endloop
endfacet
facet normal -0.0 0.0 1.0
outer loop
vertex 14.025773216421028 96.4 12.7
vertex 21.300386608211028 73.80000000000001 12.7
vertex 21.300386608211028 83.80000000000001 12.7
endloop
endfacet
facet normal 0.0 0.0 1.0
outer loop
vertex 35.84961339178903 83.80000000000001 12.7
vertex 21.300386608211028 83.80000000000001 12.7
vertex 35.84961339178903 73.80000000000001 12.7
endloop
endfacet
facet normal 0.0 0.0 1.0
outer loop
vertex 43.124226783579026 96.4 12.7
vertex 35.84961339178903 73.80000000000001 12.7
vertex 43.124226783579026 61.20000000000002 12.7
endloop
endfacet
facet normal 0.0 0.0 1.0
outer loop
vertex 43.124226783579026 96.4 12.7
vertex 43.124226783579026 61.20000000000002 12.7
vertex 57.15000000000003 1.0089298972800123 12.7
endloop
endfacet
facet normal 0.0 0.0 1.0
outer loop
vertex 43.124226783579026 96.4 12.7
vertex 35.84961339178903 83.80000000000001 12.7
vertex 35.84961339178903 73.80000000000001 12.7
endloop
endfacet
facet normal 0.0 0.0 1.0
outer loop
vertex 35.84961339178903 109.0 12.7
vertex 21.300386608211028 119.0 12.7
vertex 21.300386608211028 109.0 12.7
endloop
endfacet
facet normal -0.0 0.0 1.0
outer loop
vertex 14.025773216421028 131.60000000000002 12.7
vertex 14.025773216421028 96.4 12.7
vertex 21.300386608211028 109.0 12.7
endloop
endfacet
facet normal -0.0 0.0 1.0
outer loop
vertex 14.025773216421028 131.60000000000002 12.7
vertex 21.300386608211028 109.0 12.7
vertex 21.300386608211028 119.0 12.7
endloop
endfacet
facet normal 0.0 0.0 1.0
outer loop
vertex 35.84961339178903 119.0 12.7
vertex 21.300386608211028 119.0 12.7
vertex 35.84961339178903 109.0 12.7
endloop
endfacet
facet normal 0.0 0.0 1.0
outer loop
vertex 43.124226783579026 131.60000000000002 12.7
vertex 35.84961339178903 109.0 12.7
vertex 43.124226783579026 96.4 12.7
endloop
endfacet
facet normal 0.0 0.0 1.0
outer loop
vertex 43.124226783579026 131.60000000000002 12.7
vertex 35.84961339178903 119.0 12.7
vertex 35.84961339178903 109.0 12.7
endloop
endfacet
facet normal 0.0 0.0 1.0
outer loop
vertex 35.84961339178903 144.20000000000002 12.7
vertex 21.300386608211028 154.20000000000002 12.7
vertex 21.300386608211028 144.20000000000002 12.7
endloop
endfacet
facet normal -0.0 0.0 1.0
outer loop
vertex 14.025773216421028 166.8 12.7
vertex 21.300386608211028 144.20000000000002 12.7
vertex 21.300386608211028 154.20000000000002 12.7
endloop
endfacet
facet normal -0.0 0.0 1.0
outer loop
vertex 14.025773216421028 166.8 12.7
vertex 14.025773216421028 131.60000000000002 12.7
vertex 21.300386608211028 144.20000000000002 12.7
endloop
endfacet
facet normal 0.0 0.0 1.0
outer loop
vertex 35.84961339178903 154.20000000000002 12.7
vertex 21.300386608211028 154.20000000000002 12.7
vertex 35.84961339178903 144.20000000000002 12.7
endloop
endfacet
facet normal 0.0 0.0 1.0
outer loop
vertex 43.124226783579026 166.8 12.7
vertex 35.84961339178903 154.20000000000002 12.7
vertex 35.84961339178903 144.20000000000002 12.7
endloop
endfacet
facet normal 0.0 0.0 1.0
outer loop
vertex 43.124226783579026 166.8 12.7
vertex 35.84961339178903 144.20000000000002 12.7
vertex 43.124226783579026 131.60000000000002 12.7
endloop
endfacet
facet normal -0.0 0.0 1.0
outer loop
vertex 14.025773216421028 307.6 12.7
vertex 21.300386608211028 179.4 12.7
vertex 21.300386608211028 295.0 12.7
endloop
endfacet
facet normal -0.0 0.0 1.0
outer loop
vertex 14.025773216421028 307.6 12.7
vertex 14.025773216421028 166.8 12.7
vertex 21.300386608211028 179.4 12.7
endloop
endfacet
facet normal 0.0 0.0 1.0
outer loop
vertex 35.84961339178903 295.0 12.7
vertex 21.300386608211028 295.0 12.7
vertex 21.300386608211028 179.4 12.7
endloop
endfacet
facet normal -0.0 0.0 1.0
outer loop
vertex 35.84961339178903 295.0 12.7
vertex 21.300386608211028 179.4 12.7
vertex 35.84961339178903 179.4 12.7
endloop
endfacet
facet normal 0.0 0.0 0.9999999999999999
outer loop
vertex 43.124226783579026 307.6 12.7
vertex 35.84961339178903 295.0 12.7
vertex 35.84961339178903 179.4 12.7
endloop
endfacet
facet normal 0.0 0.0 1.0
outer loop
vertex 43.124226783579026 307.6 12.7
vertex 35.84961339178903 179.4 12.7
vertex 43.124226783579026 166.8 12.7
endloop
endfacet
facet normal 0.0 0.0 1.0
outer loop
vertex 35.84961339178903 320.2 12.7
vertex 21.300386608211028 330.2 12.7
vertex 21.300386608211028 320.2 12.7
endloop
endfacet
facet normal -0.0 0.0 1.0
outer loop
vertex 14.025773216421028 342.8 12.7
vertex 21.300386608211028 320.2 12.7
vertex 21.300386608211028 330.2 12.7
endloop
endfacet
facet normal -0.0 0.0 1.0
outer loop
vertex 14.025773216421028 342.8 12.7
vertex 14.025773216421028 307.6 12.7
vertex 21.300386608211028 320.2 12.7
endloop
endfacet
facet normal 0.0 0.0 1.0
outer loop
vertex 35.84961339178903 330.2 12.7
vertex 21.300386608211028 330.2 12.7
vertex 35.84961339178903 320.2 12.7
endloop
endfacet
facet normal 0.0 0.0 1.0
outer loop
vertex 43.124226783579026 342.8 12.7
vertex 35.84961339178903 330.2 12.7
vertex 35.84961339178903 320.2 12.7
endloop
endfacet
facet normal 0.0 0.0 1.0
outer loop
vertex 43.124226783579026 342.8 12.7
vertex 35.84961339178903 320.2 12.7
vertex 43.124226783579026 307.6 12.7
endloop
endfacet
facet normal 0.0 0.0 1.0
outer loop
vertex 35.84961339178903 355.40000000000003 12.7
vertex 21.300386608211028 365.40000000000003 12.7
vertex 21.300386608211028 355.40000000000003 12.7
endloop
endfacet
facet normal -0.0 0.0 1.0
outer loop
vertex 14.025773216421028 378.0 12.7
vertex 14.025773216421028 342.8 12.7
vertex 21.300386608211028 355.40000000000003 12.7
endloop
endfacet
facet normal -0.0 0.0 1.0
outer loop
vertex 14.025773216421028 378.0 12.7
vertex 21.300386608211028 355.40000000000003 12.7
vertex 21.300386608211028 365.40000000000003 12.7
endloop
endfacet
facet normal 0.0 0.0 1.0
outer loop
vertex 35.84961339178903 365.40000000000003 12.7
vertex 21.300386608211028 365.40000000000003 12.7
vertex 35.84961339178903 355.40000000000003 12.7
endloop
endfacet
facet normal 0.0 0.0 1.0
outer loop
vertex 43.124226783579026 378.0 12.7
vertex 35.84961339178903 355.40000000000003 12.7
vertex 43.124226783579026 342.8 12.7
endloop
endfacet
facet normal 0.0 0.0 1.0
outer loop
vertex 43.124226783579026 378.0 12.7
vertex 35.84961339178903 365.40000000000003 12.7
vertex 35.84961339178903 355.40000000000003 12.7
endloop
endfacet
facet normal -0.0 0.0 1.0
outer loop
vertex 14.025773216421028 413.2 12.7
vertex 14.025773216421028 378.0 12.7
vertex 21.300386608211028 390.6 12.7
endloop
endfacet
facet normal -0.0 0.0 1.0
outer loop
vertex 14.025773216421028 413.2 12.7
vertex 21.300386608211028 390.6 12.7
vertex 21.300386608211028 400.6 12.7
endloop
endfacet
facet normal -0.0 0.0 1.0
outer loop
vertex 35.84961339178903 400.6 12.7
vertex 21.300386608211028 390.6 12.7
vertex 35.84961339178903 390.6 12.7
endloop
endfacet
facet normal 0.0 0.0 1.0
outer loop
vertex 35.84961339178903 400.6 12.7
vertex 21.300386608211028 400.6 12.7
vertex 21.300386608211028 390.6 12.7
endloop
endfacet
facet normal 0.0 0.0 1.0
outer loop
vertex 43.124226783579026 413.2 12.7
vertex 35.84961339178903 400.6 12.7
vertex 35.84961339178903 390.6 12.7
endloop
endfacet
facet normal 0.0 0.0 1.0
outer loop
vertex 43.124226783579026 413.2 12.7
vertex 35.84961339178903 390.6 12.7
vertex 43.124226783579026 378.0 12.7
endloop
endfacet
facet normal -0.0 0.0 1.0
outer loop
vertex 0.0 457.2 12.7
vertex 14.025773216421028 342.8 12.7
vertex 14.025773216421028 378.0 12.7
endloop
endfacet
facet normal -0.0 0.0 1.0
outer loop
vertex 0.0 457.2 12.7
vertex 14.025773216421028 413.2 12.7
vertex 21.300386608211028 425.8 12.7
endloop
endfacet
facet normal -0.0 0.0 1.0
outer loop
vertex 0.0 457.2 12.7
vertex 14.025773216421028 378.0 12.7
vertex 14.025773216421028 413.2 12.7
endloop
endfacet
facet normal 0.0 0.0 1.0
outer loop
vertex 2.987124901797752 459.4878920459013 12.7
vertex 0.0 457.2 12.7
vertex 21.300386608211028 425.8 12.7
endloop
endfacet
facet normal 0.0 0.0 1.0
outer loop
vertex 6.047394007071517 461.67704988848936 12.7
vertex 2.987124901797752 459.4878920459013 12.7
vertex 21.300386608211028 425.8 12.7
endloop
endfacet
facet normal 0.0 0.0 1.0
outer loop
vertex 10.217010121287986 464.45143662654056 12.7
vertex 6.047394007071517 461.67704988848936 12.7
vertex 21.300386608211028 425.8 12.7
endloop
endfacet
facet normal -0.0 0.0 1.0
outer loop
vertex 15.49075921162266 467.67914914135486 12.7
vertex 21.300386608211028 425.8 12.7
vertex 35.84961339178903 425.8 12.7
endloop
endfacet
facet normal 0.0 0.0 0.9999999999999999
outer loop
vertex 15.49075921162266 467.67914914135486 12.7
vertex 10.217010121287986 464.45143662654056 12.7
vertex 21.300386608211028 425.8 12.7
endloop
endfacet
facet normal 0.0 0.0 1.0
outer loop
vertex 21.31375769794684 470.9480492795681 12.7
vertex 15.49075921162266 467.67914914135486 12.7
vertex 35.84961339178903 425.8 12.7
endloop
endfacet
facet normal 0.0 0.0 0.9999999999999999
outer loop
vertex 28.648548541393 474.7118938887679 12.7
vertex 21.31375769794684 470.9480492795681 12.7
vertex 35.84961339178903 425.8 12.7
endloop
endfacet
facet normal 0.0 0.0 1.0
outer loop
vertex 37.186491092632984 478.6941285203045 12.7
vertex 28.648548541393 474.7118938887679 12.7
vertex 35.84961339178903 425.8 12.7
endloop
endfacet
facet normal 0.0 0.0 1.0
outer loop
vertex 47.10183685322119 482.88679995510074 12.7
vertex 37.186491092632984 478.6941285203045 12.7
vertex 35.84961339178903 425.8 12.7
endloop
endfacet
facet normal 0.0 0.0 1.0
outer loop
vertex 57.15000000000003 486.75067974144 12.7
vertex 35.84961339178903 425.8 12.7
vertex 43.124226783579026 413.2 12.7
endloop
endfacet
facet normal 0.0 0.0 1.0
outer loop
vertex 57.15000000000003 486.75067974144 12.7
vertex 43.124226783579026 413.2 12.7
vertex 43.124226783579026 378.0 12.7
endloop
endfacet
facet normal 0.0 0.0 1.0
outer loop
vertex 57.15000000000003 486.75067974144 12.7
vertex 47.10183685322119 482.88679995510074 12.7
vertex 35.84961339178903 425.8 12.7
endloop
endfacet
facet normal -0.0 0.0 1.0
outer loop
vertex 0.0 457.2 12.7
vertex 0.0 0.0 12.7
vertex 14.025773216421028 342.8 12.7
endloop
endfacet
facet normal -0.0 0.0 0.9999999999999999
outer loop
vertex 14.025773216421028 342.8 12.7
vertex 0.0 0.0 12.7
vertex 14.025773216421028 307.6 12.7
endloop
endfacet
facet normal -0.0 0.0 1.0
outer loop
vertex 14.025773216421028 307.6 12.7
vertex 0.0 0.0 12.7
vertex 14.025773216421028 166.8 12.7
endloop
endfacet
facet normal -0.0 0.0 1.0
outer loop
vertex 14.025773216421028 166.8 12.7
vertex 0.0 0.0 12.7
vertex 14.025773216421028 131.60000000000002 12.7
endloop
endfacet
facet normal -0.0 0.0 1.0
outer loop
vertex 14.025773216421028 131.60000000000002 12.7
vertex 0.0 0.0 12.7
vertex 14.025773216421028 96.4 12.7
endloop
endfacet
facet normal 0.0 -0.0 1.0
outer loop
vertex 57.15000000000003 1.0089298972800123 12.7
vertex 57.15000000000003 486.75067974144 12.7
vertex 43.124226783579026 131.60000000000002 12.7
endloop
endfacet
facet normal 0.0 -0.0 1.0
outer loop
vertex 43.124226783579026 131.60000000000002 12.7
vertex 57.15000000000003 486.75067974144 12.7
vertex 43.124226783579026 166.8 12.7
endloop
endfacet
facet normal 0.0 -0.0 1.0
outer loop
vertex 43.124226783579026 166.8 12.7
vertex 57.15000000000003 486.75067974144 12.7
vertex 43.124226783579026 307.6 12.7
endloop
endfacet
facet normal 0.0 -0.0 1.0
outer loop
vertex 43.124226783579026 307.6 12.7
vertex 57.15000000000003 486.75067974144 12.7
vertex 43.124226783579026 342.8 12.7
endloop
endfacet
facet normal 0.0 -0.0 1.0
outer loop
vertex 43.124226783579026 342.8 12.7
vertex 57.15000000000003 486.75067974144 12.7
vertex 43.124226783579026 378.0 12.7
endloop
endfacet
facet normal 0.0 0.0 1.0
outer loop
vertex 57.15000000000003 1.0089298972800123 12.7
vertex 43.124226783579026 131.60000000000002 12.7
vertex 43.124226783579026 96.4 12.7
endloop
endfacet
facet normal 1.0 0.0 0.0
outer loop
vertex 57.15000000000003 486.75067974144 0.0
vertex 57.15000000000003 1.0089298972800123 12.7
vertex 57.15000000000003 1.0089298972800123 0.0
endloop
endfacet
facet normal 1.0 0.0 -0.0
outer loop
vertex 57.15000000000003 486.75067974144 0.0
vertex 57.15000000000003 486.75067974144 12.7
vertex 57.15000000000003 1.0089298972800123 12.7
endloop
endfacet
facet normal -0.6080570258949918 0.7938933513134727 0.0
outer loop
vertex 0.0 457.2 0.0
vertex 0.0 457.2 12.7
vertex 2.987124901797752 459.4878920459013 12.7
endloop
endfacet
facet normal -0.5818102091076166 0.8133245458262399 0.00025245730754209686
outer loop
vertex 3.1614970162842724 459.6165709167589 0.0
vertex 2.987124901797752 459.4878920459013 12.7
vertex 6.047394007071517 461.67704988848936 12.7
endloop
endfacet
facet normal -0.6072844494129075 0.7944844331031365 -0.00028819793489970905
outer loop
vertex 3.1614970162842724 459.6165709167589 0.0
vertex 0.0 457.2 0.0
vertex 2.987124901797752 459.4878920459013 12.7
endloop
endfacet
facet normal -0.553959256847402 0.8325434274504839 0.000763650492532531
outer loop
vertex 6.535507425719345 462.01348075644336 0.0
vertex 6.047394007071517 461.67704988848936 12.7
vertex 10.217010121287986 464.45143662654056 12.7
endloop
endfacet
facet normal -0.5791406358099193 0.8152273821057727 -0.000662886604830674
outer loop
vertex 6.535507425719345 462.01348075644336 0.0
vertex 3.1614970162842724 459.6165709167589 0.0
vertex 6.047394007071517 461.67704988848936 12.7
endloop
endfacet
facet normal -0.5524693862313458 0.833533177011844 0.0001417663632330639
outer loop
vertex 10.120238956841149 464.38945628257994 0.0
vertex 6.535507425719345 462.01348075644336 0.0
vertex 10.217010121287986 464.45143662654056 12.7
endloop
endfacet
facet normal -0.522021863335177 0.8529298425008863 0.0019641719586206284
outer loop
vertex 13.913787403303502 466.7432353789864 0.0
vertex 10.217010121287986 464.45143662654056 12.7
vertex 15.49075921162266 467.67914914135486 12.7
endloop
endfacet
facet normal -0.5272274809087568 0.8497241708821289 -0.0001295889076384381
outer loop
vertex 13.913787403303502 466.7432353789864 0.0
vertex 10.120238956841149 464.38945628257994 0.0
vertex 10.217010121287986 464.45143662654056 12.7
endloop
endfacet
facet normal -0.48951615701806866 0.8719911042940142 0.0023336774342807773
outer loop
vertex 17.914137635392194 469.0735677202049 0.0
vertex 15.49075921162266 467.67914914135486 12.7
vertex 21.31375769794684 470.9480492795681 12.7
endloop
endfacet
facet normal -0.5033540178074227 0.8640794818587275 -0.00117549473742455
outer loop
vertex 17.914137635392194 469.0735677202049 0.0
vertex 13.913787403303502 466.7432353789864 0.0
vertex 15.49075921162266 467.67914914135486 12.7
endloop
endfacet
facet normal -0.4807788045061513 0.8768416169009637 -0.0007211158986572037
outer loop
vertex 22.11916467046018 471.3792154356741 0.0
vertex 17.914137635392194 469.0735677202049 0.0
vertex 21.31375769794684 470.9480492795681 12.7
endloop
endfacet
facet normal -0.45654697298095004 0.8896957512110667 0.0025162946781990343
outer loop
vertex 26.526634801716114 473.65895376728497 0.0
vertex 21.31375769794684 470.9480492795681 12.7
vertex 28.648548541393 474.7118938887679 12.7
endloop
endfacet
facet normal -0.45942465194595894 0.8882161618889237 0.0010192858496897075
outer loop
vertex 26.526634801716114 473.65895376728497 0.0
vertex 22.11916467046018 471.3792154356741 0.0
vertex 21.31375769794684 470.9480492795681 12.7
endloop
endfacet
facet normal -0.42269656424871815 0.9062647774647882 0.003430407997231843
outer loop
vertex 32.71411119660928 476.6562103749409 0.0
vertex 28.648548541393 474.7118938887679 12.7
vertex 37.186491092632984 478.6941285203045 12.7
endloop
endfacet
facet normal -0.43595106000325773 0.8999686200403162 -0.0017765766983051578
outer loop
vertex 32.71411119660928 476.6562103749409 0.0
vertex 26.526634801716114 473.65895376728497 0.0
vertex 28.648548541393 474.7118938887679 12.7
endloop
endfacet
facet normal -0.3894581757943097 0.9210386581309097 0.00318112171756583
outer loop
vertex 40.09293586157179 479.9669729478663 0.0
vertex 37.186491092632984 478.6941285203045 12.7
vertex 47.10183685322119 482.88679995510074 12.7
endloop
endfacet
facet normal -0.4093651216235818 0.9123678880247891 -0.0022436798559208717
outer loop
vertex 40.09293586157179 479.9669729478663 0.0
vertex 32.71411119660928 476.6562103749409 0.0
vertex 37.186491092632984 478.6941285203045 12.7
endloop
endfacet
facet normal -0.3832918988038342 0.923626901316235 -0.0008169922404760601
outer loop
vertex 47.90575125977335 483.20917912951063 0.0
vertex 40.09293586157179 479.9669729478663 0.0
vertex 47.10183685322119 482.88679995510074 12.7
endloop
endfacet
facet normal -0.35891264117679167 0.933365677352629 0.0031981781638386123
outer loop
vertex 52.46227456253604 484.99159742779847 0.0
vertex 47.10183685322119 482.88679995510074 12.7
vertex 57.15000000000003 486.75067974144 12.7
endloop
endfacet
facet normal -0.364298418575886 0.9312820873726025 0.0005796223222497186
outer loop
vertex 52.46227456253604 484.99159742779847 0.0
vertex 47.90575125977335 483.20917912951063 0.0
vertex 47.10183685322119 482.88679995510074 12.7
endloop
endfacet
facet normal -0.3513309751398454 0.9362513262512825 0.0
outer loop
vertex 57.15000000000003 486.75067974144 0.0
vertex 52.46227456253604 484.99159742779847 0.0
vertex 57.15000000000003 486.75067974144 12.7
endloop
endfacet
facet normal -0.8660254037844173 -0.500000000000037 0.0
outer loop
vertex 35.84961339178903 73.80000000000001 12.7
vertex 43.124226783579026 61.20000000000002 0.0
vertex 43.124226783579026 61.20000000000002 12.7
endloop
endfacet
facet normal -0.8660254037844173 -0.500000000000037 0.0
outer loop
vertex 35.84961339178903 73.80000000000001 0.0
vertex 43.124226783579026 61.20000000000002 0.0
vertex 35.84961339178903 73.80000000000001 12.7
endloop
endfacet
facet normal 0.0 -1.0 0.0
outer loop
vertex 21.300386608211028 73.80000000000001 12.7
vertex 35.84961339178903 73.80000000000001 0.0
vertex 35.84961339178903 73.80000000000001 12.7
endloop
endfacet
facet normal 0.0 -1.0 0.0
outer loop
vertex 21.300386608211028 73.80000000000001 0.0
vertex 35.84961339178903 73.80000000000001 0.0
vertex 21.300386608211028 73.80000000000001 12.7
endloop
endfacet
facet normal 0.8660254037844173 -0.5000000000000371 0.0
outer loop
vertex 14.025773216421028 61.20000000000002 12.7
vertex 21.300386608211028 73.80000000000001 0.0
vertex 21.300386608211028 73.80000000000001 12.7
endloop
endfacet
facet normal 0.8660254037844173 -0.5000000000000371 0.0
outer loop
vertex 14.025773216421028 61.20000000000002 0.0
vertex 21.300386608211028 73.80000000000001 0.0
vertex 14.025773216421028 61.20000000000002 12.7
endloop
endfacet
facet normal 0.8660254037844175 0.5000000000000366 -0.0
outer loop
vertex 21.300386608211028 48.60000000000001 0.0
vertex 14.025773216421028 61.20000000000002 0.0
vertex 14.025773216421028 61.20000000000002 12.7
endloop
endfacet
facet normal 0.8660254037844175 0.5000000000000366 0.0
outer loop
vertex 21.300386608211028 48.60000000000001 0.0
vertex 14.025773216421028 61.20000000000002 12.7
vertex 21.300386608211028 48.60000000000001 12.7
endloop
endfacet
facet normal 0.0 1.0 -0.0
outer loop
vertex 35.84961339178903 48.60000000000001 12.7
vertex 21.300386608211028 48.60000000000001 0.0
vertex 21.300386608211028 48.60000000000001 12.7
endloop
endfacet
facet normal 0.0 1.0 -0.0
outer loop
vertex 35.84961339178903 48.60000000000001 0.0
vertex 21.300386608211028 48.60000000000001 0.0
vertex 35.84961339178903 48.60000000000001 12.7
endloop
endfacet
facet normal -0.8660254037844175 0.5000000000000365 0.0
outer loop
vertex 43.124226783579026 61.20000000000002 0.0
vertex 35.84961339178903 48.60000000000001 0.0
vertex 35.84961339178903 48.60000000000001 12.7
endloop
endfacet
facet normal -0.8660254037844175 0.5000000000000365 0.0
outer loop
vertex 43.124226783579026 61.20000000000002 0.0
vertex 35.84961339178903 48.60000000000001 12.7
vertex 43.124226783579026 61.20000000000002 12.7
endloop
endfacet
facet normal -0.8660254037844173 -0.500000000000037 0.0
outer loop
vertex 35.84961339178903 109.0 12.7
vertex 43.124226783579026 96.4 0.0
vertex 43.124226783579026 96.4 12.7
endloop
endfacet
facet normal -0.8660254037844173 -0.500000000000037 0.0
outer loop
vertex 35.84961339178903 109.0 0.0
vertex 43.124226783579026 96.4 0.0
vertex 35.84961339178903 109.0 12.7
endloop
endfacet
facet normal 0.0 -1.0 0.0
outer loop
vertex 21.300386608211028 109.0 12.7
vertex 35.84961339178903 109.0 0.0
vertex 35.84961339178903 109.0 12.7
endloop
endfacet
facet normal 0.0 -1.0 0.0
outer loop
vertex 21.300386608211028 109.0 0.0
vertex 35.84961339178903 109.0 0.0
vertex 21.300386608211028 109.0 12.7
endloop
endfacet
facet normal 0.8660254037844173 -0.5000000000000371 0.0
outer loop
vertex 14.025773216421028 96.4 0.0
vertex 21.300386608211028 109.0 0.0
vertex 21.300386608211028 109.0 12.7
endloop
endfacet
facet normal 0.8660254037844173 -0.5000000000000371 0.0
outer loop
vertex 14.025773216421028 96.4 0.0
vertex 21.300386608211028 109.0 12.7
vertex 14.025773216421028 96.4 12.7
endloop
endfacet
facet normal 0.8660254037844173 0.5000000000000371 -0.0
outer loop
vertex 21.300386608211028 83.80000000000001 0.0
vertex 14.025773216421028 96.4 0.0
vertex 14.025773216421028 96.4 12.7
endloop
endfacet
facet normal 0.8660254037844173 0.5000000000000371 0.0
outer loop
vertex 21.300386608211028 83.80000000000001 0.0
vertex 14.025773216421028 96.4 12.7
vertex 21.300386608211028 83.80000000000001 12.7
endloop
endfacet
facet normal 0.0 1.0 -0.0
outer loop
vertex 35.84961339178903 83.80000000000001 12.7
vertex 21.300386608211028 83.80000000000001 0.0
vertex 21.300386608211028 83.80000000000001 12.7
endloop
endfacet
facet normal 0.0 1.0 -0.0
outer loop
vertex 35.84961339178903 83.80000000000001 0.0
vertex 21.300386608211028 83.80000000000001 0.0
vertex 35.84961339178903 83.80000000000001 12.7
endloop
endfacet
facet normal -0.8660254037844173 0.500000000000037 0.0
outer loop
vertex 43.124226783579026 96.4 12.7
vertex 35.84961339178903 83.80000000000001 0.0
vertex 35.84961339178903 83.80000000000001 12.7
endloop
endfacet
facet normal -0.8660254037844173 0.500000000000037 0.0
outer loop
vertex 43.124226783579026 96.4 0.0
vertex 35.84961339178903 83.80000000000001 0.0
vertex 43.124226783579026 96.4 12.7
endloop
endfacet
facet normal -0.8660254037844173 -0.500000000000037 0.0
outer loop
vertex 35.84961339178903 144.20000000000002 0.0
vertex 43.124226783579026 131.60000000000002 0.0
vertex 43.124226783579026 131.60000000000002 12.7
endloop
endfacet
facet normal -0.8660254037844173 -0.500000000000037 0.0
outer loop
vertex 35.84961339178903 144.20000000000002 0.0
vertex 43.124226783579026 131.60000000000002 12.7
vertex 35.84961339178903 144.20000000000002 12.7
endloop
endfacet
facet normal 0.0 -1.0 0.0
outer loop
vertex 21.300386608211028 144.20000000000002 12.7
vertex 35.84961339178903 144.20000000000002 0.0
vertex 35.84961339178903 144.20000000000002 12.7
endloop
endfacet
facet normal 0.0 -1.0 0.0
outer loop
vertex 21.300386608211028 144.20000000000002 0.0
vertex 35.84961339178903 144.20000000000002 0.0
vertex 21.300386608211028 144.20000000000002 12.7
endloop
endfacet
facet normal 0.8660254037844173 -0.5000000000000371 0.0
outer loop
vertex 14.025773216421028 131.60000000000002 0.0
vertex 21.300386608211028 144.20000000000002 0.0
vertex 21.300386608211028 144.20000000000002 12.7
endloop
endfacet
facet normal 0.8660254037844173 -0.5000000000000371 0.0
outer loop
vertex 14.025773216421028 131.60000000000002 0.0
vertex 21.300386608211028 144.20000000000002 12.7
vertex 14.025773216421028 131.60000000000002 12.7
endloop
endfacet
facet normal 0.8660254037844176 0.5000000000000362 -0.0
outer loop
vertex 21.300386608211028 119.0 12.7
vertex 14.025773216421028 131.60000000000002 0.0
vertex 14.025773216421028 131.60000000000002 12.7
endloop
endfacet
facet normal 0.8660254037844176 0.5000000000000362 0.0
outer loop
vertex 21.300386608211028 119.0 0.0
vertex 14.025773216421028 131.60000000000002 0.0
vertex 21.300386608211028 119.0 12.7
endloop
endfacet
facet normal 0.0 1.0 -0.0
outer loop
vertex 35.84961339178903 119.0 12.7
vertex 21.300386608211028 119.0 0.0
vertex 21.300386608211028 119.0 12.7
endloop
endfacet
facet normal 0.0 1.0 -0.0
outer loop
vertex 35.84961339178903 119.0 0.0
vertex 21.300386608211028 119.0 0.0
vertex 35.84961339178903 119.0 12.7
endloop
endfacet
facet normal -0.8660254037844177 0.5000000000000361 0.0
outer loop
vertex 43.124226783579026 131.60000000000002 0.0
vertex 35.84961339178903 119.0 0.0
vertex 35.84961339178903 119.0 12.7
endloop
endfacet
facet normal -0.8660254037844177 0.5000000000000361 0.0
outer loop
vertex 43.124226783579026 131.60000000000002 0.0
vertex 35.84961339178903 119.0 12.7
vertex 43.124226783579026 131.60000000000002 12.7
endloop
endfacet
facet normal -0.8660254037844173 -0.500000000000037 0.0
outer loop
vertex 35.84961339178903 179.4 0.0
vertex 43.124226783579026 166.8 0.0
vertex 43.124226783579026 166.8 12.7
endloop
endfacet
facet normal -0.8660254037844173 -0.500000000000037 0.0
outer loop
vertex 35.84961339178903 179.4 0.0
vertex 43.124226783579026 166.8 12.7
vertex 35.84961339178903 179.4 12.7
endloop
endfacet
facet normal 0.0 -1.0 0.0
outer loop
vertex 21.300386608211028 179.4 12.7
vertex 35.84961339178903 179.4 0.0
vertex 35.84961339178903 179.4 12.7
endloop
endfacet
facet normal 0.0 -1.0 0.0
outer loop
vertex 21.300386608211028 179.4 0.0
vertex 35.84961339178903 179.4 0.0
vertex 21.300386608211028 179.4 12.7
endloop
endfacet
facet normal 0.8660254037844173 -0.5000000000000371 0.0
outer loop
vertex 14.025773216421028 166.8 0.0
vertex 21.300386608211028 179.4 0.0
vertex 21.300386608211028 179.4 12.7
endloop
endfacet
facet normal 0.8660254037844173 -0.5000000000000371 0.0
outer loop
vertex 14.025773216421028 166.8 0.0
vertex 21.300386608211028 179.4 12.7
vertex 14.025773216421028 166.8 12.7
endloop
endfacet
facet normal 0.8660254037844173 0.5000000000000371 -0.0
outer loop
vertex 21.300386608211028 154.20000000000002 0.0
vertex 14.025773216421028 166.8 0.0
vertex 14.025773216421028 166.8 12.7
endloop
endfacet
facet normal 0.8660254037844173 0.5000000000000371 0.0
outer loop
vertex 21.300386608211028 154.20000000000002 0.0
vertex 14.025773216421028 166.8 12.7
vertex 21.300386608211028 154.20000000000002 12.7
endloop
endfacet
facet normal 0.0 1.0 -0.0
outer loop
vertex 35.84961339178903 154.20000000000002 12.7
vertex 21.300386608211028 154.20000000000002 0.0
vertex 21.300386608211028 154.20000000000002 12.7
endloop
endfacet
facet normal 0.0 1.0 -0.0
outer loop
vertex 35.84961339178903 154.20000000000002 0.0
vertex 21.300386608211028 154.20000000000002 0.0
vertex 35.84961339178903 154.20000000000002 12.7
endloop
endfacet
facet normal -0.8660254037844173 0.500000000000037 0.0
outer loop
vertex 43.124226783579026 166.8 0.0
vertex 35.84961339178903 154.20000000000002 0.0
vertex 35.84961339178903 154.20000000000002 12.7
endloop
endfacet
facet normal -0.8660254037844173 0.500000000000037 0.0
outer loop
vertex 43.124226783579026 166.8 0.0
vertex 35.84961339178903 154.20000000000002 12.7
vertex 43.124226783579026 166.8 12.7
endloop
endfacet
facet normal -0.8660254037844168 -0.5000000000000379 0.0
outer loop
vertex 35.84961339178903 320.2 0.0
vertex 43.124226783579026 307.6 0.0
vertex 43.124226783579026 307.6 12.7
endloop
endfacet
facet normal -0.8660254037844168 -0.5000000000000379 0.0
outer loop
vertex 35.84961339178903 320.2 0.0
vertex 43.124226783579026 307.6 12.7
vertex 35.84961339178903 320.2 12.7
endloop
endfacet
facet normal 0.0 -1.0 0.0
outer loop
vertex 21.300386608211028 320.2 12.7
vertex 35.84961339178903 320.2 0.0
vertex 35.84961339178903 320.2 12.7
endloop
endfacet
facet normal 0.0 -1.0 0.0
outer loop
vertex 21.300386608211028 320.2 0.0
vertex 35.84961339178903 320.2 0.0
vertex 21.300386608211028 320.2 12.7
endloop
endfacet
facet normal 0.8660254037844166 -0.5000000000000379 0.0
outer loop
vertex 14.025773216421028 307.6 0.0
vertex 21.300386608211028 320.2 0.0
vertex 21.300386608211028 320.2 12.7
endloop
endfacet
facet normal 0.8660254037844166 -0.5000000000000379 0.0
outer loop
vertex 14.025773216421028 307.6 0.0
vertex 21.300386608211028 320.2 12.7
vertex 14.025773216421028 307.6 12.7
endloop
endfacet
facet normal 0.8660254037844176 0.5000000000000362 -0.0
outer loop
vertex 21.300386608211028 295.0 0.0
vertex 14.025773216421028 307.6 0.0
vertex 14.025773216421028 307.6 12.7
endloop
endfacet
facet normal 0.8660254037844176 0.5000000000000362 0.0
outer loop
vertex 21.300386608211028 295.0 0.0
vertex 14.025773216421028 307.6 12.7
vertex 21.300386608211028 295.0 12.7
endloop
endfacet
facet normal 0.0 1.0 -0.0
outer loop
vertex 35.84961339178903 295.0 12.7
vertex 21.300386608211028 295.0 0.0
vertex 21.300386608211028 295.0 12.7
endloop
endfacet
facet normal 0.0 1.0 -0.0
outer loop
vertex 35.84961339178903 295.0 0.0
vertex 21.300386608211028 295.0 0.0
vertex 35.84961339178903 295.0 12.7
endloop
endfacet
facet normal -0.8660254037844177 0.5000000000000361 0.0
outer loop
vertex 43.124226783579026 307.6 0.0
vertex 35.84961339178903 295.0 0.0
vertex 35.84961339178903 295.0 12.7
endloop
endfacet
facet normal -0.8660254037844177 0.5000000000000361 0.0
outer loop
vertex 43.124226783579026 307.6 0.0
vertex 35.84961339178903 295.0 12.7
vertex 43.124226783579026 307.6 12.7
endloop
endfacet
facet normal -0.8660254037844177 -0.5000000000000361 0.0
outer loop
vertex 35.84961339178903 355.40000000000003 0.0
vertex 43.124226783579026 342.8 0.0
vertex 43.124226783579026 342.8 12.7
endloop
endfacet
facet normal -0.8660254037844177 -0.5000000000000361 0.0
outer loop
vertex 35.84961339178903 355.40000000000003 0.0
vertex 43.124226783579026 342.8 12.7
vertex 35.84961339178903 355.40000000000003 12.7
endloop
endfacet
facet normal 0.0 -1.0 0.0
outer loop
vertex 21.300386608211028 355.40000000000003 12.7
vertex 35.84961339178903 355.40000000000003 0.0
vertex 35.84961339178903 355.40000000000003 12.7
endloop
endfacet
facet normal 0.0 -1.0 0.0
outer loop
vertex 21.300386608211028 355.40000000000003 0.0
vertex 35.84961339178903 355.40000000000003 0.0
vertex 21.300386608211028 355.40000000000003 12.7
endloop
endfacet
facet normal 0.8660254037844176 -0.5000000000000362 0.0
outer loop
vertex 14.025773216421028 342.8 0.0
vertex 21.300386608211028 355.40000000000003 0.0
vertex 21.300386608211028 355.40000000000003 12.7
endloop
endfacet
facet normal 0.8660254037844176 -0.5000000000000362 0.0
outer loop
vertex 14.025773216421028 342.8 0.0
vertex 21.300386608211028 355.40000000000003 12.7
vertex 14.025773216421028 342.8 12.7
endloop
endfacet
facet normal 0.8660254037844176 0.5000000000000362 -0.0
outer loop
vertex 21.300386608211028 330.2 0.0
vertex 14.025773216421028 342.8 0.0
vertex 14.025773216421028 342.8 12.7
endloop
endfacet
facet normal 0.8660254037844176 0.5000000000000362 0.0
outer loop
vertex 21.300386608211028 330.2 0.0
vertex 14.025773216421028 342.8 12.7
vertex 21.300386608211028 330.2 12.7
endloop
endfacet
facet normal 0.0 1.0 -0.0
outer loop
vertex 35.84961339178903 330.2 12.7
vertex 21.300386608211028 330.2 0.0
vertex 21.300386608211028 330.2 12.7
endloop
endfacet
facet normal 0.0 1.0 -0.0
outer loop
vertex 35.84961339178903 330.2 0.0
vertex 21.300386608211028 330.2 0.0
vertex 35.84961339178903 330.2 12.7
endloop
endfacet
facet normal -0.8660254037844177 0.5000000000000361 0.0
outer loop
vertex 43.124226783579026 342.8 0.0
vertex 35.84961339178903 330.2 0.0
vertex 35.84961339178903 330.2 12.7
endloop
endfacet
facet normal -0.8660254037844177 0.5000000000000361 0.0
outer loop
vertex 43.124226783579026 342.8 0.0
vertex 35.84961339178903 330.2 12.7
vertex 43.124226783579026 342.8 12.7
endloop
endfacet
facet normal -0.8660254037844177 -0.5000000000000361 0.0
outer loop
vertex 35.84961339178903 390.6 0.0
vertex 43.124226783579026 378.0 0.0
vertex 43.124226783579026 378.0 12.7
endloop
endfacet
facet normal -0.8660254037844177 -0.5000000000000361 0.0
outer loop
vertex 35.84961339178903 390.6 0.0
vertex 43.124226783579026 378.0 12.7
vertex 35.84961339178903 390.6 12.7
endloop
endfacet
facet normal 0.0 -1.0 0.0
outer loop
vertex 21.300386608211028 390.6 12.7
vertex 35.84961339178903 390.6 0.0
vertex 35.84961339178903 390.6 12.7
endloop
endfacet
facet normal 0.0 -1.0 0.0
outer loop
vertex 21.300386608211028 390.6 0.0
vertex 35.84961339178903 390.6 0.0
vertex 21.300386608211028 390.6 12.7
endloop
endfacet
facet normal 0.8660254037844176 -0.5000000000000362 0.0
outer loop
vertex 14.025773216421028 378.0 0.0
vertex 21.300386608211028 390.6 0.0
vertex 21.300386608211028 390.6 12.7
endloop
endfacet
facet normal 0.8660254037844176 -0.5000000000000362 0.0
outer loop
vertex 14.025773216421028 378.0 0.0
vertex 21.300386608211028 390.6 12.7
vertex 14.025773216421028 378.0 12.7
endloop
endfacet
facet normal 0.8660254037844166 0.5000000000000379 -0.0
outer loop
vertex 21.300386608211028 365.40000000000003 0.0
vertex 14.025773216421028 378.0 0.0
vertex 14.025773216421028 378.0 12.7
endloop
endfacet
facet normal 0.8660254037844166 0.5000000000000379 0.0
outer loop
vertex 21.300386608211028 365.40000000000003 0.0
vertex 14.025773216421028 378.0 12.7
vertex 21.300386608211028 365.40000000000003 12.7
endloop
endfacet
facet normal 0.0 1.0 -0.0
outer loop
vertex 35.84961339178903 365.40000000000003 12.7
vertex 21.300386608211028 365.40000000000003 0.0
vertex 21.300386608211028 365.40000000000003 12.7
endloop
endfacet
facet normal 0.0 1.0 -0.0
outer loop
vertex 35.84961339178903 365.40000000000003 0.0
vertex 21.300386608211028 365.40000000000003 0.0
vertex 35.84961339178903 365.40000000000003 12.7
endloop
endfacet
facet normal -0.8660254037844168 0.5000000000000379 0.0
outer loop
vertex 43.124226783579026 378.0 0.0
vertex 35.84961339178903 365.40000000000003 0.0
vertex 35.84961339178903 365.40000000000003 12.7
endloop
endfacet
facet normal -0.8660254037844168 0.5000000000000379 0.0
outer loop
vertex 43.124226783579026 378.0 0.0
vertex 35.84961339178903 365.40000000000003 12.7
vertex 43.124226783579026 378.0 12.7
endloop
endfacet
facet normal -0.8660254037844177 -0.5000000000000361 0.0
outer loop
vertex 35.84961339178903 425.8 0.0
vertex 43.124226783579026 413.2 0.0
vertex 43.124226783579026 413.2 12.7
endloop
endfacet
facet normal -0.8660254037844177 -0.5000000000000361 0.0
outer loop
vertex 35.84961339178903 425.8 0.0
vertex 43.124226783579026 413.2 12.7
vertex 35.84961339178903 425.8 12.7
endloop
endfacet
facet normal 0.0 -1.0 0.0
outer loop
vertex 21.300386608211028 425.8 12.7
vertex 35.84961339178903 425.8 0.0
vertex 35.84961339178903 425.8 12.7
endloop
endfacet
facet normal 0.0 -1.0 0.0
outer loop
vertex 21.300386608211028 425.8 0.0
vertex 35.84961339178903 425.8 0.0
vertex 21.300386608211028 425.8 12.7
endloop
endfacet
facet normal 0.8660254037844176 -0.5000000000000362 0.0
outer loop
vertex 14.025773216421028 413.2 0.0
vertex 21.300386608211028 425.8 0.0
vertex 21.300386608211028 425.8 12.7
endloop
endfacet
facet normal 0.8660254037844176 -0.5000000000000362 0.0
outer loop
vertex 14.025773216421028 413.2 0.0
vertex 21.300386608211028 425.8 12.7
vertex 14.025773216421028 413.2 12.7
endloop
endfacet
facet normal 0.8660254037844166 0.5000000000000379 -0.0
outer loop
vertex 21.300386608211028 400.6 0.0
vertex 14.025773216421028 413.2 0.0
vertex 14.025773216421028 413.2 12.7
endloop
endfacet
facet normal 0.8660254037844166 0.5000000000000379 0.0
outer loop
vertex 21.300386608211028 400.6 0.0
vertex 14.025773216421028 413.2 12.7
vertex 21.300386608211028 400.6 12.7
endloop
endfacet
facet normal 0.0 1.0 -0.0
outer loop
vertex 35.84961339178903 400.6 12.7
vertex 21.300386608211028 400.6 0.0
vertex 21.300386608211028 400.6 12.7
endloop
endfacet
facet normal 0.0 1.0 -0.0
outer loop
vertex 35.84961339178903 400.6 0.0
vertex 21.300386608211028 400.6 0.0
vertex 35.84961339178903 400.6 12.7
endloop
endfacet
facet normal -0.8660254037844168 0.5000000000000379 0.0
outer loop
vertex 43.124226783579026 413.2 0.0
vertex 35.84961339178903 400.6 0.0
vertex 35.84961339178903 400.6 12.7
endloop
endfacet
facet normal -0.8660254037844168 0.5000000000000379 0.0
outer loop
vertex 43.124226783579026 413.2 0.0
vertex 35.84961339178903 400.6 12.7
vertex 43.124226783579026 413.2 12.7
endloop
endfacet

endsolid
