solid 
facet normal 1.2400024796974385e-10 -1.0 -3.937007905015811e-09
outer loop
vertex 403.22500010000005 1e-07 1e-07
vertex 403.22500010000005 5e-08 12.7
vertex 0.0 0.0 12.7
endloop
endfacet
facet normal 1.2400024847330985e-10 -1.0 -3.937007889027589e-09
outer loop
vertex 403.22500010000005 1e-07 1e-07
vertex 0.0 0.0 12.7
vertex 5e-08 5e-08 5e-08
endloop
endfacet
facet normal -4.114556022212127e-12 6.561679785747682e-10 -1.0
outer loop
vertex 41.007651608173944 76.45714199807955 1e-07
vertex 5e-08 5e-08 5e-08
vertex 1e-07 76.2000001 1e-07
endloop
endfacet
facet normal -1.6353141204628674e-11 6.627321218835299e-10 -1.0
outer loop
vertex 82.01530311634797 77.46901978918082 1e-07
vertex 5e-08 5e-08 5e-08
vertex 41.007651608173944 76.45714199807955 1e-07
endloop
endfacet
facet normal -3.345394386035759e-11 6.808364882122818e-10 -1.0
outer loop
vertex 116.12606739779686 79.14510444836507 1e-07
vertex 5e-08 5e-08 5e-08
vertex 82.01530311634797 77.46901978918082 1e-07
endloop
endfacet
facet normal -5.2296748848970824e-11 7.084836921393303e-10 -1.0
outer loop
vertex 141.70914060888362 81.0335199042877 1e-07
vertex 5e-08 5e-08 5e-08
vertex 116.12606739779686 79.14510444836507 1e-07
endloop
endfacet
facet normal -7.366979740233695e-11 7.458602783602797e-10 -0.9999999999999999
outer loop
vertex 167.2922138199704 83.56040044085857 1e-07
vertex 5e-08 5e-08 5e-08
vertex 141.70914060888362 81.0335199042877 1e-07
endloop
endfacet
facet normal 0.0 0.0 -0.9999999999999999
outer loop
vertex 403.22500010000005 1e-07 1e-07
vertex 266.78194297419805 101.09070198832747 1e-07
vertex 283.83732511492303 105.57273156437759 1e-07
endloop
endfacet
facet normal 0.0 0.0 -1.0
outer loop
vertex 403.22500010000005 1e-07 1e-07
vertex 249.72656083347317 97.08272246078492 1e-07
vertex 266.78194297419805 101.09070198832747 1e-07
endloop
endfacet
facet normal 0.0 0.0 -1.0
outer loop
vertex 403.22500010000005 1e-07 1e-07
vertex 232.67117869274836 93.52284464668972 1e-07
vertex 249.72656083347317 97.08272246078492 1e-07
endloop
endfacet
facet normal 0.0 0.0 -1.0
outer loop
vertex 403.22500010000005 1e-07 1e-07
vertex 215.6157965520236 90.38512021098164 1e-07
vertex 232.67117869274836 93.52284464668972 1e-07
endloop
endfacet
facet normal 0.0 0.0 -0.9999999999999999
outer loop
vertex 403.22500010000005 1e-07 1e-07
vertex 192.87528703105735 86.81332168890599 1e-07
vertex 215.6157965520236 90.38512021098164 1e-07
endloop
endfacet
facet normal 0.0 0.0 -1.0
outer loop
vertex 403.22500010000005 1e-07 1e-07
vertex 167.2922138199704 83.56040044085857 1e-07
vertex 192.87528703105735 86.81332168890599 1e-07
endloop
endfacet
facet normal 1.2400024794170558e-10 3.5011469400531254e-10 -1.0
outer loop
vertex 403.22500010000005 1e-07 1e-07
vertex 5e-08 5e-08 5e-08
vertex 167.2922138199704 83.56040044085857 1e-07
endloop
endfacet
facet normal -0.0 -0.0 -1.0
outer loop
vertex 300.892707255648 110.55475952399553 1e-07
vertex 403.22500010000005 1e-07 1e-07
vertex 283.83732511492303 105.57273156437759 1e-07
endloop
endfacet
facet normal -0.0 -0.0 -1.0
outer loop
vertex 317.9480893963732 116.06273420224149 1e-07
vertex 403.22500010000005 1e-07 1e-07
vertex 300.892707255648 110.55475952399553 1e-07
endloop
endfacet
facet normal -0.0 -0.0 -1.0
outer loop
vertex 335.00347153709833 122.12260393417574 1e-07
vertex 403.22500010000005 1e-07 1e-07
vertex 317.9480893963732 116.06273420224149 1e-07
endloop
endfacet
facet normal -0.0 -0.0 -1.0
outer loop
vertex 352.05885367782366 128.7603170548585 1e-07
vertex 403.22500010000005 1e-07 1e-07
vertex 335.00347153709833 122.12260393417574 1e-07
endloop
endfacet
facet normal -0.0 -0.0 -1.0
outer loop
vertex 369.114235818549 136.00182189934995 1e-07
vertex 403.22500010000005 1e-07 1e-07
vertex 352.05885367782366 128.7603170548585 1e-07
endloop
endfacet
facet normal -0.0 -0.0 -1.0
outer loop
vertex 386.1696179592745 143.87306680271038 1e-07
vertex 403.22500010000005 1e-07 1e-07
vertex 369.114235818549 136.00182189934995 1e-07
endloop
endfacet
facet normal -0.0 -0.0 -1.0
outer loop
vertex 403.22500010000005 152.4000001 1e-07
vertex 403.22500010000005 1e-07 1e-07
vertex 386.1696179592745 143.87306680271038 1e-07
endloop
endfacet
facet normal 1.0 0.0 0.0
outer loop
vertex 403.22500010000005 152.4000001 12.7
vertex 403.22500010000005 5e-08 12.7
vertex 403.22500010000005 1e-07 1e-07
endloop
endfacet
facet normal 1.0 0.0 -0.0
outer loop
vertex 403.22500010000005 152.4000001 1e-07
vertex 403.22500010000005 152.4000001 12.7
vertex 403.22500010000005 1e-07 1e-07
endloop
endfacet
facet normal 0.0 0.0 1.0
outer loop
vertex 67.7323648539782 77.00838858971457 12.7
vertex 5e-08 76.2000001 12.7
vertex 0.0 0.0 12.7
endloop
endfacet
facet normal 0.0 0.0 0.9999999999999999
outer loop
vertex 117.06302784875118 79.20401387738195 12.7
vertex 67.7323648539782 77.00838858971457 12.7
vertex 0.0 0.0 12.7
endloop
endfacet
facet normal 0.0 0.0 0.9999999999999999
outer loop
vertex 158.07442986674644 82.57085049733584 12.7
vertex 117.06302784875118 79.20401387738195 12.7
vertex 0.0 0.0 12.7
endloop
endfacet
facet normal 0.0 0.0 1.0
outer loop
vertex 403.22500010000005 5e-08 12.7
vertex 192.11528312688546 86.70539327740674 12.7
vertex 158.07442986674644 82.57085049733584 12.7
endloop
endfacet
facet normal 0.0 0.0 1.0
outer loop
vertex 403.22500010000005 5e-08 12.7
vertex 222.5836801150627 91.61767982354641 12.7
vertex 192.11528312688546 86.70539327740674 12.7
endloop
endfacet
facet normal 0.0 0.0 1.0
outer loop
vertex 403.22500010000005 5e-08 12.7
vertex 249.8138880634945 97.10208074185286 12.7
vertex 222.5836801150627 91.61767982354641 12.7
endloop
endfacet
facet normal 0.0 0.0 0.9999999999999999
outer loop
vertex 403.22500010000005 5e-08 12.7
vertex 274.1186987549854 102.95913101650383 12.7
vertex 249.8138880634945 97.10208074185286 12.7
endloop
endfacet
facet normal 0.0 0.0 1.0
outer loop
vertex 403.22500010000005 5e-08 12.7
vertex 158.07442986674644 82.57085049733584 12.7
vertex 0.0 0.0 12.7
endloop
endfacet
facet normal 0.0 0.0 0.9999999999999999
outer loop
vertex 298.18452172640036 109.72921754070026 12.7
vertex 274.1186987549854 102.95913101650383 12.7
vertex 403.22500010000005 5e-08 12.7
endloop
endfacet
facet normal 0.0 0.0 0.9999999999999999
outer loop
vertex 321.96545990860227 117.43947693932505 12.7
vertex 298.18452172640036 109.72921754070026 12.7
vertex 403.22500010000005 5e-08 12.7
endloop
endfacet
facet normal 0.0 0.0 1.0
outer loop
vertex 343.0869078961986 125.19493917821356 12.7
vertex 321.96545990860227 117.43947693932505 12.7
vertex 403.22500010000005 5e-08 12.7
endloop
endfacet
facet normal 0.0 0.0 0.9999999999999999
outer loop
vertex 361.8398598162748 132.83770342202314 12.7
vertex 343.0869078961986 125.19493917821356 12.7
vertex 403.22500010000005 5e-08 12.7
endloop
endfacet
facet normal 0.0 0.0 0.9999999999999999
outer loop
vertex 380.3256401165049 141.10347150113887 12.7
vertex 361.8398598162748 132.83770342202314 12.7
vertex 403.22500010000005 5e-08 12.7
endloop
endfacet
facet normal 0.0 0.0 0.9999999999999999
outer loop
vertex 391.83470362508484 146.63135453235057 12.7
vertex 380.3256401165049 141.10347150113887 12.7
vertex 403.22500010000005 5e-08 12.7
endloop
endfacet
facet normal 0.0 0.0 1.0
outer loop
vertex 403.22500010000005 152.4000001 12.7
vertex 391.83470362508484 146.63135453235057 12.7
vertex 403.22500010000005 5e-08 12.7
endloop
endfacet
facet normal -1.0 6.561679781415118e-10 -3.93700790501581e-09
outer loop
vertex 0.0 0.0 12.7
vertex 5e-08 76.2000001 12.7
vertex 1e-07 76.2000001 1e-07
endloop
endfacet
facet normal -1.0 6.561679811554067e-10 -3.937007886932441e-09
outer loop
vertex 5e-08 5e-08 5e-08
vertex 0.0 0.0 12.7
vertex 1e-07 76.2000001 1e-07
endloop
endfacet
facet normal -0.45181284410824457 0.8921127473020544 0.0
outer loop
vertex 403.22500010000005 152.4000001 1e-07
vertex 391.83470362508484 146.63135453235057 12.7
vertex 403.22500010000005 152.4000001 12.7
endloop
endfacet
facet normal -0.4329544035789399 0.901411932737136 -0.0026480069307375457
outer loop
vertex 386.1696179592745 143.87306680271038 1e-07
vertex 380.3256401165049 141.10347150113887 12.7
vertex 391.83470362508484 146.63135453235057 12.7
endloop
endfacet
facet normal -0.44717572942339323 0.8944309382363663 0.005211884521890739
outer loop
vertex 386.1696179592745 143.87306680271038 1e-07
vertex 391.83470362508484 146.63135453235057 12.7
vertex 403.22500010000005 152.4000001 1e-07
endloop
endfacet
facet normal -0.40818552452741236 0.9128768017593809 -0.006365718800364664
outer loop
vertex 369.114235818549 136.00182189934995 1e-07
vertex 361.8398598162748 132.83770342202314 12.7
vertex 380.3256401165049 141.10347150113887 12.7
endloop
endfacet
facet normal -0.4190319187199819 0.9079566943571515 0.005185775340768304
outer loop
vertex 369.114235818549 136.00182189934995 1e-07
vertex 380.3256401165049 141.10347150113887 12.7
vertex 386.1696179592745 143.87306680271038 1e-07
endloop
endfacet
facet normal -0.37740174549776156 0.9260257888505234 -0.006645365227620361
outer loop
vertex 352.05885367782366 128.7603170548585 1e-07
vertex 343.0869078961986 125.19493917821356 12.7
vertex 361.8398598162748 132.83770342202314 12.7
endloop
endfacet
facet normal -0.39081328791029385 0.9204537059798735 0.005472580804534754
outer loop
vertex 352.05885367782366 128.7603170548585 1e-07
vertex 361.8398598162748 132.83770342202314 12.7
vertex 369.114235818549 136.00182189934995 1e-07
endloop
endfacet
facet normal -0.36268133007092773 0.9318975627904146 0.005402340536101572
outer loop
vertex 335.00347153709833 122.12260393417574 1e-07
vertex 343.0869078961986 125.19493917821356 12.7
vertex 352.05885367782366 128.7603170548585 1e-07
endloop
endfacet
facet normal -0.34467263920471114 0.9386913374686503 -0.007703554048335994
outer loop
vertex 321.96545990860227 117.43947693932505 12.7
vertex 343.0869078961986 125.19493917821356 12.7
vertex 335.00347153709833 122.12260393417574 1e-07
endloop
endfacet
facet normal -0.3347980489934893 0.9422824116931254 0.003758058533384975
outer loop
vertex 317.9480893963732 116.06273420224149 1e-07
vertex 321.96545990860227 117.43947693932505 12.7
vertex 335.00347153709833 122.12260393417574 1e-07
endloop
endfacet
facet normal -0.3084102671236167 0.9512371916476975 -0.005559888392882211
outer loop
vertex 298.18452172640036 109.72921754070026 12.7
vertex 321.96545990860227 117.43947693932505 12.7
vertex 317.9480893963732 116.06273420224149 1e-07
endloop
endfacet
facet normal -0.3073159583079533 0.9516004362885799 -0.003675788983129067
outer loop
vertex 300.892707255648 110.55475952399553 1e-07
vertex 298.18452172640036 109.72921754070026 12.7
vertex 317.9480893963732 116.06273420224149 1e-07
endloop
endfacet
facet normal -0.2707926383957394 0.962594447545522 -0.009125598347813615
outer loop
vertex 283.83732511492303 105.57273156437759 1e-07
vertex 274.1186987549854 102.95913101650383 12.7
vertex 298.18452172640036 109.72921754070026 12.7
endloop
endfacet
facet normal -0.28039018949248085 0.9598825757435707 0.0026043080191970255
outer loop
vertex 283.83732511492303 105.57273156437759 1e-07
vertex 298.18452172640036 109.72921754070026 12.7
vertex 300.892707255648 110.55475952399553 1e-07
endloop
endfacet
facet normal -0.22876611787430676 0.9734814098685527 8.917989440658901e-05
outer loop
vertex 249.72656083347317 97.08272246078492 1e-07
vertex 249.8138880634945 97.10208074185286 12.7
vertex 266.78194297419805 101.09070198832747 1e-07
endloop
endfacet
facet normal -0.19743439559965936 0.9802674400418935 -0.009767570215274914
outer loop
vertex 232.67117869274836 93.52284464668972 1e-07
vertex 222.5836801150627 91.61767982354641 12.7
vertex 249.8138880634945 97.10208074185286 12.7
endloop
endfacet
facet normal -0.20432131909695742 0.9789038721772235 -8.717176958877195e-05
outer loop
vertex 232.67117869274836 93.52284464668972 1e-07
vertex 249.8138880634945 97.10208074185286 12.7
vertex 249.72656083347317 97.08272246078492 1e-07
endloop
endfacet
facet normal -0.1809348646691264 0.9834876588886563 0.003820937172343856
outer loop
vertex 215.6157965520236 90.38512021098164 1e-07
vertex 222.5836801150627 91.61767982354641 12.7
vertex 232.67117869274836 93.52284464668972 1e-07
endloop
endfacet
facet normal -0.15916446133566137 0.9872156171743067 -0.008485249252760072
outer loop
vertex 192.11528312688546 86.70539327740674 12.7
vertex 222.5836801150627 91.61767982354641 12.7
vertex 215.6157965520236 90.38512021098164 1e-07
endloop
endfacet
facet normal -0.15516527186436557 0.9878881242451513 -0.0008901587802424917
outer loop
vertex 192.87528703105735 86.81332168890599 1e-07
vertex 192.11528312688546 86.70539327740674 12.7
vertex 215.6157965520236 90.38512021098164 1e-07
endloop
endfacet
facet normal -0.1205659413657379 0.9926532960269013 -0.010163054143438764
outer loop
vertex 167.2922138199704 83.56040044085857 1e-07
vertex 158.07442986674644 82.57085049733584 12.7
vertex 192.11528312688546 86.70539327740674 12.7
endloop
endfacet
facet normal -0.126135701200432 0.9920126041414093 0.0008821038797349413
outer loop
vertex 167.2922138199704 83.56040044085857 1e-07
vertex 192.11528312688546 86.70539327740674 12.7
vertex 192.87528703105735 86.81332168890599 1e-07
endloop
endfacet
facet normal -0.09829138893452866 0.9951383782249997 0.00619766448258452
outer loop
vertex 141.70914060888362 81.0335199042877 1e-07
vertex 158.07442986674644 82.57085049733584 12.7
vertex 167.2922138199704 83.56040044085857 1e-07
endloop
endfacet
facet normal -0.049077296421086686 0.9987944705640613 -0.0010121989197672788
outer loop
vertex 82.01530311634797 77.46901978918082 1e-07
vertex 117.06302784875118 79.20401387738195 12.7
vertex 116.12606739779686 79.14510444836507 1e-07
endloop
endfacet
facet normal -0.0444600910781047 0.9989162458686132 -0.013770767628677273
outer loop
vertex 67.7323648539782 77.00838858971457 12.7
vertex 117.06302784875118 79.20401387738195 12.7
vertex 82.01530311634797 77.46901978918082 1e-07
endloop
endfacet
facet normal -0.02466693794129134 0.999659448765385 0.008516376382443748
outer loop
vertex 41.007651608173944 76.45714199807955 1e-07
vertex 67.7323648539782 77.00838858971457 12.7
vertex 82.01530311634797 77.46901978918082 1e-07
endloop
endfacet
facet normal -0.01193219473706698 0.9997615962202626 -0.018285881216644578
outer loop
vertex 5e-08 76.2000001 12.7
vertex 67.7323648539782 77.00838858971457 12.7
vertex 41.007651608173944 76.45714199807955 1e-07
endloop
endfacet
facet normal -0.006270460105229339 0.9999803404717859 -2.468685100237418e-11
outer loop
vertex 1e-07 76.2000001 1e-07
vertex 5e-08 76.2000001 12.7
vertex 41.007651608173944 76.45714199807955 1e-07
endloop
endfacet
facet normal -0.2342356496529416 0.9720000435462187 -0.018696945681398038
outer loop
vertex 268.816666766663 101.6000001 8.4666667
vertex 249.8138880634945 97.10208074185286 12.7
vertex 274.1186987549854 102.95913101650383 12.7
endloop
endfacet
facet normal -0.23096947830235995 0.9729563105663647 -0.003019573119402014
outer loop
vertex 268.816666766663 101.6000001 8.4666667
vertex 266.78194297419805 101.09070198832747 1e-07
vertex 249.8138880634945 97.10208074185286 12.7
endloop
endfacet
facet normal -0.2541586561341153 0.9671451138795378 0.005805705042131366
outer loop
vertex 268.816666766663 101.6000001 4.2333334
vertex 283.83732511492303 105.57273156437759 1e-07
vertex 266.78194297419805 101.09070198832747 1e-07
endloop
endfacet
facet normal -0.242812545400028 0.9700732280587684 0.0
outer loop
vertex 268.816666766663 101.6000001 4.2333334
vertex 266.78194297419805 101.09070198832747 1e-07
vertex 268.816666766663 101.6000001 8.4666667
endloop
endfacet
facet normal -0.2483128698827163 0.9686798845080915 0.0
outer loop
vertex 268.816666766663 101.6000001 4.2333334
vertex 268.816666766663 101.6000001 8.4666667
vertex 274.1186987549854 102.95913101650383 12.7
endloop
endfacet
facet normal -0.2545860653479714 0.9670410366681604 0.004191506937627329
outer loop
vertex 268.816666766663 101.6000001 4.2333334
vertex 274.1186987549854 102.95913101650383 12.7
vertex 283.83732511492303 105.57273156437759 1e-07
endloop
endfacet
facet normal -0.08173410829132616 0.9956023270781247 -0.045777088793900494
outer loop
vertex 134.4083334333304 80.43333343333336 8.4666667
vertex 117.06302784875118 79.20401387738195 12.7
vertex 158.07442986674644 82.57085049733584 12.7
endloop
endfacet
facet normal -0.08888101579879973 0.9960239626776344 -0.006035793445426083
outer loop
vertex 134.4083334333304 80.43333343333336 8.4666667
vertex 158.07442986674644 82.57085049733584 12.7
vertex 141.70914060888362 81.0335199042877 1e-07
endloop
endfacet
facet normal -0.07360708801251543 0.9971828580268964 0.014434134945617648
outer loop
vertex 134.4083334333304 80.43333343333336 4.2333334
vertex 141.70914060888362 81.0335199042877 1e-07
vertex 116.12606739779686 79.14510444836507 1e-07
endloop
endfacet
facet normal -0.08193184539889362 0.9966379346129325 0.0
outer loop
vertex 134.4083334333304 80.43333343333336 4.2333334
vertex 134.4083334333304 80.43333343333336 8.4666667
vertex 141.70914060888362 81.0335199042877 1e-07
endloop
endfacet
facet normal -0.0706959977728359 0.9974979077165541 0.0
outer loop
vertex 134.4083334333304 80.43333343333336 4.2333334
vertex 117.06302784875118 79.20401387738195 12.7
vertex 134.4083334333304 80.43333343333336 8.4666667
endloop
endfacet
facet normal -0.07041996370879533 0.9975172708950949 0.0005683108776933328
outer loop
vertex 134.4083334333304 80.43333343333336 4.2333334
vertex 116.12606739779686 79.14510444836507 1e-07
vertex 117.06302784875118 79.20401387738195 12.7
endloop
endfacet

endsolid
