ISO-10303-21;
HEADER;
FILE_DESCRIPTION(('Open CASCADE Model'),'2;1');
FILE_NAME('Open CASCADE Shape Model','2026-09-23T07:23:57',('Author'),(
    'Open CASCADE'),'Open CASCADE STEP processor 7.9','Open CASCADE 7.9'
  ,'Unknown');
FILE_SCHEMA(('AUTOMOTIVE_DESIGN { 1 0 10303 214 1 1 1 1 }'));
ENDSEC;
DATA;
#1 = APPLICATION_PROTOCOL_DEFINITION('international standard',
  'automotive_design',2000,#2);
#2 = APPLICATION_CONTEXT(
  'core data for automotive mechanical design processes');
#3 = SHAPE_DEFINITION_REPRESENTATION(#4,#10);
#4 = PRODUCT_DEFINITION_SHAPE('','',#5);
#5 = PRODUCT_DEFINITION('design','',#6,#9);
#6 = PRODUCT_DEFINITION_FORMATION('','',#7);
#7 = PRODUCT('Open CASCADE STEP translator 7.9 5',
  'Open CASCADE STEP translator 7.9 5','',(#8));
#8 = PRODUCT_CONTEXT('',#2,'mechanical');
#9 = PRODUCT_DEFINITION_CONTEXT('part definition',#2,'design');
#10 = ADVANCED_BREP_SHAPE_REPRESENTATION('',(#11,#15),#417);
#11 = AXIS2_PLACEMENT_3D('',#12,#13,#14);
#12 = CARTESIAN_POINT('',(0.,0.,0.));
#13 = DIRECTION('',(0.,0.,1.));
#14 = DIRECTION('',(1.,0.,-0.));
#15 = MANIFOLD_SOLID_BREP('',#16);
#16 = CLOSED_SHELL('',(#17,#137,#218,#265,#383,#410));
#17 = ADVANCED_FACE('',(#18),#32,.F.);
#18 = FACE_BOUND('',#19,.F.);
#19 = EDGE_LOOP('',(#20,#55,#83,#111));
#20 = ORIENTED_EDGE('',*,*,#21,.F.);
#21 = EDGE_CURVE('',#22,#24,#26,.T.);
#22 = VERTEX_POINT('',#23);
#23 = CARTESIAN_POINT('',(5.E-08,5.E-08,5.E-08));
#24 = VERTEX_POINT('',#25);
#25 = CARTESIAN_POINT('',(403.2250001,1.E-07,1.E-07));
#26 = SURFACE_CURVE('',#27,(#31,#43),.PCURVE_S1.);
#27 = LINE('',#28,#29);
#28 = CARTESIAN_POINT('',(1.E-07,1.E-07,1.E-07));
#29 = VECTOR('',#30,1.);
#30 = DIRECTION('',(1.,0.,0.));
#31 = PCURVE('',#32,#37);
#32 = PLANE('',#33);
#33 = AXIS2_PLACEMENT_3D('',#34,#35,#36);
#34 = CARTESIAN_POINT('',(1.E-07,1.E-07,1.E-07));
#35 = DIRECTION('',(0.,1.,0.));
#36 = DIRECTION('',(1.,0.,0.));
#37 = DEFINITIONAL_REPRESENTATION('',(#38),#42);
#38 = LINE('',#39,#40);
#39 = CARTESIAN_POINT('',(0.,0.));
#40 = VECTOR('',#41,1.);
#41 = DIRECTION('',(1.,0.));
#42 = ( GEOMETRIC_REPRESENTATION_CONTEXT(2) 
PARAMETRIC_REPRESENTATION_CONTEXT() REPRESENTATION_CONTEXT('2D SPACE',''
  ) );
#43 = PCURVE('',#44,#49);
#44 = PLANE('',#45);
#45 = AXIS2_PLACEMENT_3D('',#46,#47,#48);
#46 = CARTESIAN_POINT('',(217.48280659549,53.228932027598,1.E-07));
#47 = DIRECTION('',(0.,0.,1.));
#48 = DIRECTION('',(1.,0.,-0.));
#49 = DEFINITIONAL_REPRESENTATION('',(#50),#54);
#50 = LINE('',#51,#52);
#51 = CARTESIAN_POINT('',(-217.4828064954,-53.22893192759));
#52 = VECTOR('',#53,1.);
#53 = DIRECTION('',(1.,0.));
#54 = ( GEOMETRIC_REPRESENTATION_CONTEXT(2) 
PARAMETRIC_REPRESENTATION_CONTEXT() REPRESENTATION_CONTEXT('2D SPACE',''
  ) );
#55 = ORIENTED_EDGE('',*,*,#56,.T.);
#56 = EDGE_CURVE('',#22,#57,#59,.T.);
#57 = VERTEX_POINT('',#58);
#58 = CARTESIAN_POINT('',(0.,0.,12.7));
#59 = SURFACE_CURVE('',#60,(#64,#71),.PCURVE_S1.);
#60 = LINE('',#61,#62);
#61 = CARTESIAN_POINT('',(1.E-07,1.E-07,1.E-07));
#62 = VECTOR('',#63,1.);
#63 = DIRECTION('',(0.,0.,1.));
#64 = PCURVE('',#32,#65);
#65 = DEFINITIONAL_REPRESENTATION('',(#66),#70);
#66 = LINE('',#67,#68);
#67 = CARTESIAN_POINT('',(0.,0.));
#68 = VECTOR('',#69,1.);
#69 = DIRECTION('',(0.,-1.));
#70 = ( GEOMETRIC_REPRESENTATION_CONTEXT(2) 
PARAMETRIC_REPRESENTATION_CONTEXT() REPRESENTATION_CONTEXT('2D SPACE',''
  ) );
#71 = PCURVE('',#72,#77);
#72 = PLANE('',#73);
#73 = AXIS2_PLACEMENT_3D('',#74,#75,#76);
#74 = CARTESIAN_POINT('',(1.E-07,76.2000001,1.E-07));
#75 = DIRECTION('',(1.,0.,-0.));
#76 = DIRECTION('',(0.,-1.,0.));
#77 = DEFINITIONAL_REPRESENTATION('',(#78),#82);
#78 = LINE('',#79,#80);
#79 = CARTESIAN_POINT('',(76.2,0.));
#80 = VECTOR('',#81,1.);
#81 = DIRECTION('',(0.,-1.));
#82 = ( GEOMETRIC_REPRESENTATION_CONTEXT(2) 
PARAMETRIC_REPRESENTATION_CONTEXT() REPRESENTATION_CONTEXT('2D SPACE',''
  ) );
#83 = ORIENTED_EDGE('',*,*,#84,.T.);
#84 = EDGE_CURVE('',#57,#85,#87,.T.);
#85 = VERTEX_POINT('',#86);
#86 = CARTESIAN_POINT('',(403.2250001,5.E-08,12.7));
#87 = SURFACE_CURVE('',#88,(#92,#99),.PCURVE_S1.);
#88 = LINE('',#89,#90);
#89 = CARTESIAN_POINT('',(0.,0.,12.7));
#90 = VECTOR('',#91,1.);
#91 = DIRECTION('',(1.,0.,0.));
#92 = PCURVE('',#32,#93);
#93 = DEFINITIONAL_REPRESENTATION('',(#94),#98);
#94 = LINE('',#95,#96);
#95 = CARTESIAN_POINT('',(-1.E-07,-12.6999999));
#96 = VECTOR('',#97,1.);
#97 = DIRECTION('',(1.,0.));
#98 = ( GEOMETRIC_REPRESENTATION_CONTEXT(2) 
PARAMETRIC_REPRESENTATION_CONTEXT() REPRESENTATION_CONTEXT('2D SPACE',''
  ) );
#99 = PCURVE('',#100,#105);
#100 = PLANE('',#101);
#101 = AXIS2_PLACEMENT_3D('',#102,#103,#104);
#102 = CARTESIAN_POINT('',(0.,0.,12.7));
#103 = DIRECTION('',(0.,0.,1.));
#104 = DIRECTION('',(1.,0.,0.));
#105 = DEFINITIONAL_REPRESENTATION('',(#106),#110);
#106 = LINE('',#107,#108);
#107 = CARTESIAN_POINT('',(0.,0.));
#108 = VECTOR('',#109,1.);
#109 = DIRECTION('',(1.,0.));
#110 = ( GEOMETRIC_REPRESENTATION_CONTEXT(2) 
PARAMETRIC_REPRESENTATION_CONTEXT() REPRESENTATION_CONTEXT('2D SPACE',''
  ) );
#111 = ORIENTED_EDGE('',*,*,#112,.F.);
#112 = EDGE_CURVE('',#24,#85,#113,.T.);
#113 = SURFACE_CURVE('',#114,(#118,#125),.PCURVE_S1.);
#114 = LINE('',#115,#116);
#115 = CARTESIAN_POINT('',(403.2250001,1.E-07,1.E-07));
#116 = VECTOR('',#117,1.);
#117 = DIRECTION('',(0.,0.,1.));
#118 = PCURVE('',#32,#119);
#119 = DEFINITIONAL_REPRESENTATION('',(#120),#124);
#120 = LINE('',#121,#122);
#121 = CARTESIAN_POINT('',(403.225,0.));
#122 = VECTOR('',#123,1.);
#123 = DIRECTION('',(0.,-1.));
#124 = ( GEOMETRIC_REPRESENTATION_CONTEXT(2) 
PARAMETRIC_REPRESENTATION_CONTEXT() REPRESENTATION_CONTEXT('2D SPACE',''
  ) );
#125 = PCURVE('',#126,#131);
#126 = PLANE('',#127);
#127 = AXIS2_PLACEMENT_3D('',#128,#129,#130);
#128 = CARTESIAN_POINT('',(403.2250001,1.E-07,1.E-07));
#129 = DIRECTION('',(-1.,0.,0.));
#130 = DIRECTION('',(0.,1.,0.));
#131 = DEFINITIONAL_REPRESENTATION('',(#132),#136);
#132 = LINE('',#133,#134);
#133 = CARTESIAN_POINT('',(0.,0.));
#134 = VECTOR('',#135,1.);
#135 = DIRECTION('',(0.,-1.));
#136 = ( GEOMETRIC_REPRESENTATION_CONTEXT(2) 
PARAMETRIC_REPRESENTATION_CONTEXT() REPRESENTATION_CONTEXT('2D SPACE',''
  ) );
#137 = ADVANCED_FACE('',(#138),#44,.F.);
#138 = FACE_BOUND('',#139,.F.);
#139 = EDGE_LOOP('',(#140,#141,#164,#197));
#140 = ORIENTED_EDGE('',*,*,#21,.T.);
#141 = ORIENTED_EDGE('',*,*,#142,.T.);
#142 = EDGE_CURVE('',#24,#143,#145,.T.);
#143 = VERTEX_POINT('',#144);
#144 = CARTESIAN_POINT('',(403.2250001,152.4000001,1.E-07));
#145 = SURFACE_CURVE('',#146,(#150,#157),.PCURVE_S1.);
#146 = LINE('',#147,#148);
#147 = CARTESIAN_POINT('',(403.2250001,1.E-07,1.E-07));
#148 = VECTOR('',#149,1.);
#149 = DIRECTION('',(0.,1.,0.));
#150 = PCURVE('',#44,#151);
#151 = DEFINITIONAL_REPRESENTATION('',(#152),#156);
#152 = LINE('',#153,#154);
#153 = CARTESIAN_POINT('',(185.74219350451,-53.22893192759));
#154 = VECTOR('',#155,1.);
#155 = DIRECTION('',(0.,1.));
#156 = ( GEOMETRIC_REPRESENTATION_CONTEXT(2) 
PARAMETRIC_REPRESENTATION_CONTEXT() REPRESENTATION_CONTEXT('2D SPACE',''
  ) );
#157 = PCURVE('',#126,#158);
#158 = DEFINITIONAL_REPRESENTATION('',(#159),#163);
#159 = LINE('',#160,#161);
#160 = CARTESIAN_POINT('',(0.,0.));
#161 = VECTOR('',#162,1.);
#162 = DIRECTION('',(1.,0.));
#163 = ( GEOMETRIC_REPRESENTATION_CONTEXT(2) 
PARAMETRIC_REPRESENTATION_CONTEXT() REPRESENTATION_CONTEXT('2D SPACE',''
  ) );
#164 = ORIENTED_EDGE('',*,*,#165,.T.);
#165 = EDGE_CURVE('',#143,#166,#168,.T.);
#166 = VERTEX_POINT('',#167);
#167 = CARTESIAN_POINT('',(1.E-07,76.2000001,1.E-07));
#168 = SURFACE_CURVE('',#169,(#174,#182),.PCURVE_S1.);
#169 = B_SPLINE_CURVE_WITH_KNOTS('',3,(#170,#171,#172,#173),
  .UNSPECIFIED.,.F.,.F.,(4,4),(0.,1.),.PIECEWISE_BEZIER_KNOTS.);
#170 = CARTESIAN_POINT('',(403.2250001,152.4000001,1.E-07));
#171 = CARTESIAN_POINT('',(268.81666676666,82.5500001,1.E-07));
#172 = CARTESIAN_POINT('',(134.40833343333,76.2000001,1.E-07));
#173 = CARTESIAN_POINT('',(1.E-07,76.2000001,1.E-07));
#174 = PCURVE('',#44,#175);
#175 = DEFINITIONAL_REPRESENTATION('',(#176),#181);
#176 = B_SPLINE_CURVE_WITH_KNOTS('',3,(#177,#178,#179,#180),
  .UNSPECIFIED.,.F.,.F.,(4,4),(0.,1.),.PIECEWISE_BEZIER_KNOTS.);
#177 = CARTESIAN_POINT('',(185.74219350451,99.171068072402));
#178 = CARTESIAN_POINT('',(51.33386017117,29.321068072402));
#179 = CARTESIAN_POINT('',(-83.07447316216,22.971068072402));
#180 = CARTESIAN_POINT('',(-217.4828064954,22.971068072402));
#181 = ( GEOMETRIC_REPRESENTATION_CONTEXT(2) 
PARAMETRIC_REPRESENTATION_CONTEXT() REPRESENTATION_CONTEXT('2D SPACE',''
  ) );
#182 = PCURVE('',#183,#191);
#183 = SURFACE_OF_LINEAR_EXTRUSION('',#184,#189);
#184 = B_SPLINE_CURVE_WITH_KNOTS('',3,(#185,#186,#187,#188),
  .UNSPECIFIED.,.F.,.F.,(4,4),(0.,1.),.PIECEWISE_BEZIER_KNOTS.);
#185 = CARTESIAN_POINT('',(403.2250001,152.4000001,1.E-07));
#186 = CARTESIAN_POINT('',(268.81666676666,82.5500001,1.E-07));
#187 = CARTESIAN_POINT('',(134.40833343333,76.2000001,1.E-07));
#188 = CARTESIAN_POINT('',(1.E-07,76.2000001,1.E-07));
#189 = VECTOR('',#190,1.);
#190 = DIRECTION('',(-0.,-0.,-1.));
#191 = DEFINITIONAL_REPRESENTATION('',(#192),#196);
#192 = LINE('',#193,#194);
#193 = CARTESIAN_POINT('',(0.,0.));
#194 = VECTOR('',#195,1.);
#195 = DIRECTION('',(1.,0.));
#196 = ( GEOMETRIC_REPRESENTATION_CONTEXT(2) 
PARAMETRIC_REPRESENTATION_CONTEXT() REPRESENTATION_CONTEXT('2D SPACE',''
  ) );
#197 = ORIENTED_EDGE('',*,*,#198,.T.);
#198 = EDGE_CURVE('',#166,#22,#199,.T.);
#199 = SURFACE_CURVE('',#200,(#204,#211),.PCURVE_S1.);
#200 = LINE('',#201,#202);
#201 = CARTESIAN_POINT('',(1.E-07,76.2000001,1.E-07));
#202 = VECTOR('',#203,1.);
#203 = DIRECTION('',(0.,-1.,0.));
#204 = PCURVE('',#44,#205);
#205 = DEFINITIONAL_REPRESENTATION('',(#206),#210);
#206 = LINE('',#207,#208);
#207 = CARTESIAN_POINT('',(-217.4828064954,22.971068072402));
#208 = VECTOR('',#209,1.);
#209 = DIRECTION('',(0.,-1.));
#210 = ( GEOMETRIC_REPRESENTATION_CONTEXT(2) 
PARAMETRIC_REPRESENTATION_CONTEXT() REPRESENTATION_CONTEXT('2D SPACE',''
  ) );
#211 = PCURVE('',#72,#212);
#212 = DEFINITIONAL_REPRESENTATION('',(#213),#217);
#213 = LINE('',#214,#215);
#214 = CARTESIAN_POINT('',(0.,0.));
#215 = VECTOR('',#216,1.);
#216 = DIRECTION('',(1.,0.));
#217 = ( GEOMETRIC_REPRESENTATION_CONTEXT(2) 
PARAMETRIC_REPRESENTATION_CONTEXT() REPRESENTATION_CONTEXT('2D SPACE',''
  ) );
#218 = ADVANCED_FACE('',(#219),#126,.F.);
#219 = FACE_BOUND('',#220,.F.);
#220 = EDGE_LOOP('',(#221,#222,#223,#244));
#221 = ORIENTED_EDGE('',*,*,#142,.F.);
#222 = ORIENTED_EDGE('',*,*,#112,.T.);
#223 = ORIENTED_EDGE('',*,*,#224,.T.);
#224 = EDGE_CURVE('',#85,#225,#227,.T.);
#225 = VERTEX_POINT('',#226);
#226 = CARTESIAN_POINT('',(403.2250001,152.4000001,12.7));
#227 = SURFACE_CURVE('',#228,(#232,#238),.PCURVE_S1.);
#228 = LINE('',#229,#230);
#229 = CARTESIAN_POINT('',(403.2250001,5.E-08,12.7));
#230 = VECTOR('',#231,1.);
#231 = DIRECTION('',(0.,1.,-0.));
#232 = PCURVE('',#126,#233);
#233 = DEFINITIONAL_REPRESENTATION('',(#234),#237);
#234 = B_SPLINE_CURVE_WITH_KNOTS('',1,(#235,#236),.UNSPECIFIED.,.F.,.F.,
  (2,2),(5.E-08,152.40000005),.PIECEWISE_BEZIER_KNOTS.);
#235 = CARTESIAN_POINT('',(0.,-12.6999999));
#236 = CARTESIAN_POINT('',(152.4,-12.6999999));
#237 = ( GEOMETRIC_REPRESENTATION_CONTEXT(2) 
PARAMETRIC_REPRESENTATION_CONTEXT() REPRESENTATION_CONTEXT('2D SPACE',''
  ) );
#238 = PCURVE('',#100,#239);
#239 = DEFINITIONAL_REPRESENTATION('',(#240),#243);
#240 = B_SPLINE_CURVE_WITH_KNOTS('',1,(#241,#242),.UNSPECIFIED.,.F.,.F.,
  (2,2),(5.E-08,152.40000005),.PIECEWISE_BEZIER_KNOTS.);
#241 = CARTESIAN_POINT('',(403.2250001,1.E-07));
#242 = CARTESIAN_POINT('',(403.2250001,152.4000001));
#243 = ( GEOMETRIC_REPRESENTATION_CONTEXT(2) 
PARAMETRIC_REPRESENTATION_CONTEXT() REPRESENTATION_CONTEXT('2D SPACE',''
  ) );
#244 = ORIENTED_EDGE('',*,*,#245,.F.);
#245 = EDGE_CURVE('',#143,#225,#246,.T.);
#246 = SURFACE_CURVE('',#247,(#251,#258),.PCURVE_S1.);
#247 = LINE('',#248,#249);
#248 = CARTESIAN_POINT('',(403.2250001,152.4000001,1.E-07));
#249 = VECTOR('',#250,1.);
#250 = DIRECTION('',(0.,0.,1.));
#251 = PCURVE('',#126,#252);
#252 = DEFINITIONAL_REPRESENTATION('',(#253),#257);
#253 = LINE('',#254,#255);
#254 = CARTESIAN_POINT('',(152.4,0.));
#255 = VECTOR('',#256,1.);
#256 = DIRECTION('',(0.,-1.));
#257 = ( GEOMETRIC_REPRESENTATION_CONTEXT(2) 
PARAMETRIC_REPRESENTATION_CONTEXT() REPRESENTATION_CONTEXT('2D SPACE',''
  ) );
#258 = PCURVE('',#183,#259);
#259 = DEFINITIONAL_REPRESENTATION('',(#260),#264);
#260 = LINE('',#261,#262);
#261 = CARTESIAN_POINT('',(0.,0.));
#262 = VECTOR('',#263,1.);
#263 = DIRECTION('',(0.,-1.));
#264 = ( GEOMETRIC_REPRESENTATION_CONTEXT(2) 
PARAMETRIC_REPRESENTATION_CONTEXT() REPRESENTATION_CONTEXT('2D SPACE',''
  ) );
#265 = ADVANCED_FACE('',(#266),#100,.T.);
#266 = FACE_BOUND('',#267,.T.);
#267 = EDGE_LOOP('',(#268,#291,#292,#293));
#268 = ORIENTED_EDGE('',*,*,#269,.F.);
#269 = EDGE_CURVE('',#57,#270,#272,.T.);
#270 = VERTEX_POINT('',#271);
#271 = CARTESIAN_POINT('',(5.E-08,76.2000001,12.7));
#272 = SURFACE_CURVE('',#273,(#277,#284),.PCURVE_S1.);
#273 = LINE('',#274,#275);
#274 = CARTESIAN_POINT('',(0.,0.,12.7));
#275 = VECTOR('',#276,1.);
#276 = DIRECTION('',(0.,1.,0.));
#277 = PCURVE('',#100,#278);
#278 = DEFINITIONAL_REPRESENTATION('',(#279),#283);
#279 = LINE('',#280,#281);
#280 = CARTESIAN_POINT('',(0.,0.));
#281 = VECTOR('',#282,1.);
#282 = DIRECTION('',(0.,1.));
#283 = ( GEOMETRIC_REPRESENTATION_CONTEXT(2) 
PARAMETRIC_REPRESENTATION_CONTEXT() REPRESENTATION_CONTEXT('2D SPACE',''
  ) );
#284 = PCURVE('',#72,#285);
#285 = DEFINITIONAL_REPRESENTATION('',(#286),#290);
#286 = LINE('',#287,#288);
#287 = CARTESIAN_POINT('',(76.2000001,-12.6999999));
#288 = VECTOR('',#289,1.);
#289 = DIRECTION('',(-1.,0.));
#290 = ( GEOMETRIC_REPRESENTATION_CONTEXT(2) 
PARAMETRIC_REPRESENTATION_CONTEXT() REPRESENTATION_CONTEXT('2D SPACE',''
  ) );
#291 = ORIENTED_EDGE('',*,*,#84,.T.);
#292 = ORIENTED_EDGE('',*,*,#224,.T.);
#293 = ORIENTED_EDGE('',*,*,#294,.F.);
#294 = EDGE_CURVE('',#270,#225,#295,.T.);
#295 = SURFACE_CURVE('',#296,(#323,#353),.PCURVE_S1.);
#296 = B_SPLINE_CURVE_WITH_KNOTS('',7,(#297,#298,#299,#300,#301,#302,
    #303,#304,#305,#306,#307,#308,#309,#310,#311,#312,#313,#314,#315,
    #316,#317,#318,#319,#320,#321,#322),.UNSPECIFIED.,.F.,.F.,(8,6,6,6,8
    ),(0.,0.220750602487,0.558496688405,0.910428142302,1.),
  .UNSPECIFIED.);
#297 = CARTESIAN_POINT('',(1.E-07,76.2000001,12.7));
#298 = CARTESIAN_POINT('',(13.079226392396,76.2000001,12.7));
#299 = CARTESIAN_POINT('',(26.158301073083,76.24676726652,12.7));
#300 = CARTESIAN_POINT('',(39.237289308863,76.359413358413,12.7));
#301 = CARTESIAN_POINT('',(52.315638391063,76.557049693897,12.7));
#302 = CARTESIAN_POINT('',(65.392178320873,76.858767073628,12.7));
#303 = CARTESIAN_POINT('',(78.465123439048,77.283548664396,12.7));
#304 = CARTESIAN_POINT('',(111.52437287245,78.716957632235,12.7));
#305 = CARTESIAN_POINT('',(131.5020267511,79.915673850392,12.7));
#306 = CARTESIAN_POINT('',(151.4563675826,81.513277235898,12.7));
#307 = CARTESIAN_POINT('',(171.37221397393,83.575174682972,12.7));
#308 = CARTESIAN_POINT('',(191.22807575819,86.163393617165,12.7));
#309 = CARTESIAN_POINT('',(210.99653717379,89.333100371049,12.7));
#310 = CARTESIAN_POINT('',(251.11808775218,97.083173686087,12.7));
#311 = CARTESIAN_POINT('',(271.46353238383,101.71771379856,12.7));
#312 = CARTESIAN_POINT('',(291.63825589726,107.0812494828,12.7));
#313 = CARTESIAN_POINT('',(311.59842249994,113.20998163275,12.7));
#314 = CARTESIAN_POINT('',(331.30022840368,120.12347071659,12.7));
#315 = CARTESIAN_POINT('',(350.70058963786,127.8222342546,12.7));
#316 = CARTESIAN_POINT('',(374.60755141,138.44144426193,12.7));
#317 = CARTESIAN_POINT('',(379.43570374394,140.64556561901,12.7));
#318 = CARTESIAN_POINT('',(384.24116518427,142.8991168321,12.7));
#319 = CARTESIAN_POINT('',(389.02335499701,145.20176088956,12.7));
#320 = CARTESIAN_POINT('',(393.78172720394,147.55310093649,12.7));
#321 = CARTESIAN_POINT('',(398.5157691549,149.95268323089,12.7));
#322 = CARTESIAN_POINT('',(403.2250001,152.4000001,12.7));
#323 = PCURVE('',#100,#324);
#324 = DEFINITIONAL_REPRESENTATION('',(#325),#352);
#325 = B_SPLINE_CURVE_WITH_KNOTS('',7,(#326,#327,#328,#329,#330,#331,
    #332,#333,#334,#335,#336,#337,#338,#339,#340,#341,#342,#343,#344,
    #345,#346,#347,#348,#349,#350,#351),.UNSPECIFIED.,.F.,.F.,(8,6,6,6,8
    ),(0.,0.220750602487,0.558496688405,0.910428142302,1.),
  .UNSPECIFIED.);
#326 = CARTESIAN_POINT('',(1.E-07,76.2000001));
#327 = CARTESIAN_POINT('',(13.079226392396,76.2000001));
#328 = CARTESIAN_POINT('',(26.158301073083,76.24676726652));
#329 = CARTESIAN_POINT('',(39.237289308863,76.359413358413));
#330 = CARTESIAN_POINT('',(52.315638391063,76.557049693897));
#331 = CARTESIAN_POINT('',(65.392178320873,76.858767073628));
#332 = CARTESIAN_POINT('',(78.465123439048,77.283548664396));
#333 = CARTESIAN_POINT('',(111.52437287245,78.716957632235));
#334 = CARTESIAN_POINT('',(131.5020267511,79.915673850392));
#335 = CARTESIAN_POINT('',(151.4563675826,81.513277235898));
#336 = CARTESIAN_POINT('',(171.37221397393,83.575174682972));
#337 = CARTESIAN_POINT('',(191.22807575819,86.163393617165));
#338 = CARTESIAN_POINT('',(210.99653717379,89.333100371049));
#339 = CARTESIAN_POINT('',(251.11808775218,97.083173686087));
#340 = CARTESIAN_POINT('',(271.46353238383,101.71771379856));
#341 = CARTESIAN_POINT('',(291.63825589726,107.0812494828));
#342 = CARTESIAN_POINT('',(311.59842249994,113.20998163275));
#343 = CARTESIAN_POINT('',(331.30022840368,120.12347071659));
#344 = CARTESIAN_POINT('',(350.70058963786,127.8222342546));
#345 = CARTESIAN_POINT('',(374.60755141,138.44144426193));
#346 = CARTESIAN_POINT('',(379.43570374394,140.64556561901));
#347 = CARTESIAN_POINT('',(384.24116518427,142.8991168321));
#348 = CARTESIAN_POINT('',(389.02335499701,145.20176088956));
#349 = CARTESIAN_POINT('',(393.78172720394,147.55310093649));
#350 = CARTESIAN_POINT('',(398.5157691549,149.95268323089));
#351 = CARTESIAN_POINT('',(403.2250001,152.4000001));
#352 = ( GEOMETRIC_REPRESENTATION_CONTEXT(2) 
PARAMETRIC_REPRESENTATION_CONTEXT() REPRESENTATION_CONTEXT('2D SPACE',''
  ) );
#353 = PCURVE('',#183,#354);
#354 = DEFINITIONAL_REPRESENTATION('',(#355),#382);
#355 = B_SPLINE_CURVE_WITH_KNOTS('',7,(#356,#357,#358,#359,#360,#361,
    #362,#363,#364,#365,#366,#367,#368,#369,#370,#371,#372,#373,#374,
    #375,#376,#377,#378,#379,#380,#381),.UNSPECIFIED.,.F.,.F.,(8,6,6,6,8
    ),(0.,0.220750602487,0.558496688405,0.910428142302,1.),
  .UNSPECIFIED.);
#356 = CARTESIAN_POINT('',(1.,-12.6999999));
#357 = CARTESIAN_POINT('',(0.967563453922,-12.6999999));
#358 = CARTESIAN_POINT('',(0.935127283841,-12.6999999));
#359 = CARTESIAN_POINT('',(0.902691328145,-12.6999999));
#360 = CARTESIAN_POINT('',(0.870256957552,-12.6999999));
#361 = CARTESIAN_POINT('',(0.837827073666,-12.6999999));
#362 = CARTESIAN_POINT('',(0.805406104931,-12.6999999));
#363 = CARTESIAN_POINT('',(0.723419002362,-12.6999999));
#364 = CARTESIAN_POINT('',(0.673874321654,-12.6999999));
#365 = CARTESIAN_POINT('',(0.624387457418,-12.6999999));
#366 = CARTESIAN_POINT('',(0.574996059585,-12.6999999));
#367 = CARTESIAN_POINT('',(0.525753423875,-12.6999999));
#368 = CARTESIAN_POINT('',(0.476727541512,-12.6999999));
#369 = CARTESIAN_POINT('',(0.377225897074,-12.6999999));
#370 = CARTESIAN_POINT('',(0.326769093474,-12.6999999));
#371 = CARTESIAN_POINT('',(0.276735679094,-12.6999999));
#372 = CARTESIAN_POINT('',(0.227234366917,-12.6999999));
#373 = CARTESIAN_POINT('',(0.178373790554,-12.6999999));
#374 = CARTESIAN_POINT('',(0.130260798468,-12.6999999));
#375 = CARTESIAN_POINT('',(7.0971414694E-02,-12.6999999));
#376 = CARTESIAN_POINT('',(5.899757295817E-02,-12.6999999));
#377 = CARTESIAN_POINT('',(4.708000475101E-02,-12.6999999));
#378 = CARTESIAN_POINT('',(3.522015029571E-02,-12.6999999));
#379 = CARTESIAN_POINT('',(2.341936362094E-02,-12.6999999));
#380 = CARTESIAN_POINT('',(1.167891610166E-02,-12.6999999));
#381 = CARTESIAN_POINT('',(0.,-12.6999999));
#382 = ( GEOMETRIC_REPRESENTATION_CONTEXT(2) 
PARAMETRIC_REPRESENTATION_CONTEXT() REPRESENTATION_CONTEXT('2D SPACE',''
  ) );
#383 = ADVANCED_FACE('',(#384),#72,.F.);
#384 = FACE_BOUND('',#385,.F.);
#385 = EDGE_LOOP('',(#386,#387,#408,#409));
#386 = ORIENTED_EDGE('',*,*,#198,.F.);
#387 = ORIENTED_EDGE('',*,*,#388,.T.);
#388 = EDGE_CURVE('',#166,#270,#389,.T.);
#389 = SURFACE_CURVE('',#390,(#394,#401),.PCURVE_S1.);
#390 = LINE('',#391,#392);
#391 = CARTESIAN_POINT('',(1.E-07,76.2000001,1.E-07));
#392 = VECTOR('',#393,1.);
#393 = DIRECTION('',(0.,0.,1.));
#394 = PCURVE('',#72,#395);
#395 = DEFINITIONAL_REPRESENTATION('',(#396),#400);
#396 = LINE('',#397,#398);
#397 = CARTESIAN_POINT('',(0.,0.));
#398 = VECTOR('',#399,1.);
#399 = DIRECTION('',(0.,-1.));
#400 = ( GEOMETRIC_REPRESENTATION_CONTEXT(2) 
PARAMETRIC_REPRESENTATION_CONTEXT() REPRESENTATION_CONTEXT('2D SPACE',''
  ) );
#401 = PCURVE('',#183,#402);
#402 = DEFINITIONAL_REPRESENTATION('',(#403),#407);
#403 = LINE('',#404,#405);
#404 = CARTESIAN_POINT('',(1.,0.));
#405 = VECTOR('',#406,1.);
#406 = DIRECTION('',(0.,-1.));
#407 = ( GEOMETRIC_REPRESENTATION_CONTEXT(2) 
PARAMETRIC_REPRESENTATION_CONTEXT() REPRESENTATION_CONTEXT('2D SPACE',''
  ) );
#408 = ORIENTED_EDGE('',*,*,#269,.F.);
#409 = ORIENTED_EDGE('',*,*,#56,.F.);
#410 = ADVANCED_FACE('',(#411),#183,.F.);
#411 = FACE_BOUND('',#412,.F.);
#412 = EDGE_LOOP('',(#413,#414,#415,#416));
#413 = ORIENTED_EDGE('',*,*,#165,.F.);
#414 = ORIENTED_EDGE('',*,*,#245,.T.);
#415 = ORIENTED_EDGE('',*,*,#294,.F.);
#416 = ORIENTED_EDGE('',*,*,#388,.F.);
#417 = ( GEOMETRIC_REPRESENTATION_CONTEXT(3) 
GLOBAL_UNCERTAINTY_ASSIGNED_CONTEXT((#421)) GLOBAL_UNIT_ASSIGNED_CONTEXT
((#418,#419,#420)) REPRESENTATION_CONTEXT('Context #1',
  '3D Context with UNIT and UNCERTAINTY') );
#418 = ( LENGTH_UNIT() NAMED_UNIT(*) SI_UNIT(.MILLI.,.METRE.) );
#419 = ( NAMED_UNIT(*) PLANE_ANGLE_UNIT() SI_UNIT($,.RADIAN.) );
#420 = ( NAMED_UNIT(*) SI_UNIT($,.STERADIAN.) SOLID_ANGLE_UNIT() );
#421 = UNCERTAINTY_MEASURE_WITH_UNIT(LENGTH_MEASURE(1.E-06),#418,
  'distance_accuracy_value','confusion accuracy');
#422 = PRODUCT_RELATED_PRODUCT_CATEGORY('part',$,(#7));
ENDSEC;
END-ISO-10303-21;
